G04*
G04 #@! TF.GenerationSoftware,Altium Limited,Altium Designer,24.5.2 (23)*
G04*
G04 Layer_Physical_Order=4*
G04 Layer_Color=16711680*
%FSLAX25Y25*%
%MOIN*%
G70*
G04*
G04 #@! TF.SameCoordinates,4C7D719B-D633-4967-9843-4E76C81F2032*
G04*
G04*
G04 #@! TF.FilePolarity,Positive*
G04*
G01*
G75*
%ADD12C,0.01000*%
%ADD13C,0.00600*%
G04:AMPARAMS|DCode=53|XSize=39.37mil|YSize=86.61mil|CornerRadius=19.68mil|HoleSize=0mil|Usage=FLASHONLY|Rotation=270.000|XOffset=0mil|YOffset=0mil|HoleType=Round|Shape=RoundedRectangle|*
%AMROUNDEDRECTD53*
21,1,0.03937,0.04724,0,0,270.0*
21,1,0.00000,0.08661,0,0,270.0*
1,1,0.03937,-0.02362,0.00000*
1,1,0.03937,-0.02362,0.00000*
1,1,0.03937,0.02362,0.00000*
1,1,0.03937,0.02362,0.00000*
%
%ADD53ROUNDEDRECTD53*%
G04:AMPARAMS|DCode=54|XSize=39.37mil|YSize=70.87mil|CornerRadius=19.68mil|HoleSize=0mil|Usage=FLASHONLY|Rotation=270.000|XOffset=0mil|YOffset=0mil|HoleType=Round|Shape=RoundedRectangle|*
%AMROUNDEDRECTD54*
21,1,0.03937,0.03150,0,0,270.0*
21,1,0.00000,0.07087,0,0,270.0*
1,1,0.03937,-0.01575,0.00000*
1,1,0.03937,-0.01575,0.00000*
1,1,0.03937,0.01575,0.00000*
1,1,0.03937,0.01575,0.00000*
%
%ADD54ROUNDEDRECTD54*%
%ADD65C,0.00603*%
%ADD68R,0.06400X0.06400*%
%ADD69C,0.06400*%
%ADD70R,0.04000X0.04000*%
%ADD71C,0.04000*%
%ADD72R,0.04000X0.04000*%
%ADD73C,0.02400*%
%ADD75C,0.04000*%
D12*
X96085Y5652D02*
G03*
X95000Y5000I4820J-9244D01*
G01*
D13*
X230540Y90000D02*
G03*
X230655Y89899I4460J5000D01*
G01*
X232373Y91084D02*
X232372Y91084D01*
X81648Y91705D02*
G03*
X81651Y91702I3351J3295D01*
G01*
X81333Y86500D02*
X83705Y84128D01*
X102333Y65500D01*
X79133Y88700D02*
X81333Y86500D01*
X76470Y88700D02*
X79133D01*
X74914Y87286D02*
X75055D01*
X76470Y88700D01*
X231551Y89078D02*
X242807Y77821D01*
X218600Y90000D02*
X230540D01*
X231015Y89614D02*
X231551Y89078D01*
X230655Y89899D02*
X231015Y89614D01*
X226138Y94648D02*
X228748D01*
X232136Y91321D02*
X232372Y91084D01*
X232075Y91321D02*
X232136D01*
X228748Y94648D02*
X232075Y91321D01*
X225786Y95000D02*
X226138Y94648D01*
X111000Y72000D02*
X165515D01*
X89033Y93967D02*
X111000Y72000D01*
X86033Y93967D02*
X89033D01*
X225500Y81500D02*
X229307Y77693D01*
X206200Y83800D02*
X208500Y81500D01*
X225500D01*
X207028Y85800D02*
X209328Y83500D01*
X226328D02*
X233000Y76828D01*
X209328Y83500D02*
X226328D01*
X208400Y87800D02*
X210700Y85500D01*
X228600D02*
X236000Y78100D01*
X210700Y85500D02*
X228600D01*
X230300Y87500D02*
X239500Y78300D01*
X205000Y95000D02*
X212500Y87500D01*
X230300D01*
X218307Y90293D02*
X218600Y90000D01*
X215000Y93600D02*
X218307Y90293D01*
X232373Y91084D02*
X244807Y78650D01*
X225000Y95000D02*
X225786D01*
X246200Y68000D02*
Y77067D01*
X244807Y78650D02*
X246200Y77067D01*
X235000Y93539D02*
Y95000D01*
X246810Y81572D02*
X249500Y74706D01*
X236573Y91927D02*
X246734Y81766D01*
X246810Y81572D01*
X235000Y93539D02*
X236573Y91965D01*
Y91927D02*
Y91965D01*
X155000Y94000D02*
X162764Y86236D01*
X155000Y94000D02*
Y95000D01*
X162764Y86236D02*
X171936D01*
X135000Y94000D02*
X146830Y82170D01*
X169658D01*
X172896Y36496D02*
X175000Y38600D01*
X119195Y36496D02*
X172896D01*
X176917Y34495D02*
X178321Y35900D01*
X120024Y34495D02*
X176917D01*
X179796Y32495D02*
X187396Y40095D01*
X120852Y32495D02*
X179796D01*
X121995Y30496D02*
X180624D01*
X188224Y38096D01*
X128496Y28495D02*
X181924D01*
X185828Y32400D01*
X182752Y26496D02*
X186127Y29870D01*
X134495Y26496D02*
X182752D01*
X116033Y8033D02*
X134495Y26496D01*
X144100Y24100D02*
X183185D01*
X125000Y5000D02*
X144100Y24100D01*
X183185D02*
X186956Y27870D01*
X188224Y38096D02*
X202404D01*
X135000Y5000D02*
Y6461D01*
X136573Y8035D01*
X150600Y22100D02*
X197318D01*
X136573Y8035D02*
Y8073D01*
X150600Y22100D01*
X105000Y5000D02*
X128496Y28495D01*
X109200Y27700D02*
X115800D01*
X88073Y6573D02*
X109200Y27700D01*
X85000Y5000D02*
X86461D01*
X88035Y6573D01*
X88073D01*
X98315Y6815D02*
X121995Y30496D01*
X96085Y5652D02*
X97113D01*
X98276Y6815D01*
X98315D01*
X114900Y32200D02*
X119195Y36496D01*
X116557Y28200D02*
X120852Y32495D01*
X115800Y27700D02*
X116300Y28200D01*
X116557D01*
X115728Y30200D02*
X120024Y34495D01*
X104300Y30200D02*
X115728D01*
X102018Y32200D02*
X114900D01*
X175000Y38600D02*
X181500D01*
X181600Y38700D01*
X178321Y35900D02*
X178700D01*
X172400Y16100D02*
X199804D01*
X165000Y5000D02*
X165414Y5414D01*
Y9114D01*
X172400Y16100D01*
X204214Y40700D02*
X204246Y40732D01*
X201382Y40700D02*
X204214D01*
X187396Y40095D02*
X200777D01*
X201382Y40700D01*
X204246Y40732D02*
X205232D01*
X205500Y41000D01*
X83118Y13300D02*
X102018Y32200D01*
X185000Y5000D02*
X192100Y12100D01*
X201461D01*
X177591Y5000D02*
X183216Y9616D01*
X183250Y9651D02*
X183802Y10202D01*
X175000Y5000D02*
X177591Y5000D01*
X183216Y9616D02*
X183250Y9651D01*
X183802Y10202D02*
X187700Y14100D01*
X200632D01*
X155000Y5000D02*
Y6200D01*
X166900Y18100D02*
X198975D01*
X155000Y6200D02*
X166900Y18100D01*
X146461Y5000D02*
X147885Y6423D01*
X161900Y20100D02*
X198147D01*
X145000Y5000D02*
X146461D01*
X147885Y6423D02*
X148223D01*
X198147Y20100D02*
X204047Y26000D01*
X148223Y6423D02*
X161900Y20100D01*
X115000Y5000D02*
X116033Y6033D01*
Y8033D01*
X186956Y27870D02*
X197734D01*
X85400Y11300D02*
X104300Y30200D01*
X186127Y29870D02*
X195314D01*
X185828Y32400D02*
X193618D01*
X195018Y33800D01*
X198600D01*
X61300Y11300D02*
X85400D01*
X59700Y13300D02*
X83118D01*
X202404Y38096D02*
X202500Y38000D01*
X196444Y31000D02*
X196600D01*
X195314Y29870D02*
X196444Y31000D01*
X186628Y77200D02*
X191560Y72268D01*
X192732D02*
X193000Y72000D01*
X191560Y72268D02*
X192732D01*
X133500Y55200D02*
X217300D01*
X230782Y41718D01*
X131800Y56900D02*
X133500Y55200D01*
X171800Y77200D02*
X186628D01*
X136782Y59900D02*
X154900D01*
X155000Y60000D01*
X133182Y63500D02*
X136782Y59900D01*
X138000Y62879D02*
X148926D01*
X135379Y65500D02*
X138000Y62879D01*
X171173Y84170D02*
X174043Y81300D01*
X155830Y84170D02*
X171173D01*
X171936Y86236D02*
X174872Y83300D01*
X145000Y95000D02*
X155830Y84170D01*
X169658Y82170D02*
X172528Y79300D01*
X187300D01*
X249500Y72500D02*
Y74706D01*
X92096Y72700D02*
X101296Y63500D01*
X86200Y72700D02*
X92096D01*
X84500Y71000D02*
X86200Y72700D01*
X80153Y90300D02*
X102453Y68000D01*
X71922Y90300D02*
X80153D01*
X68255Y93967D02*
X71922Y90300D01*
X102333Y65500D02*
X135379D01*
X226400Y20000D02*
X232693Y26293D01*
X206532Y20000D02*
X226400D01*
X197318Y22100D02*
X204318Y29100D01*
X230782Y41718D02*
X238818D01*
X171715Y65800D02*
X186715D01*
X191215Y61300D01*
X191321D01*
X192121Y60500D01*
X170400Y61100D02*
X180400D01*
X163500Y68000D02*
X170400Y61100D01*
X187100Y61200D02*
Y61579D01*
X170870Y63800D02*
X185175D01*
X186593Y62085D02*
X187100Y61579D01*
X186593Y62085D02*
Y62381D01*
X185175Y63800D02*
X186593Y62381D01*
X56900Y10500D02*
X59700Y13300D01*
X45000Y5000D02*
X50550Y10550D01*
X50600Y10500D02*
X56900D01*
X200632Y14100D02*
X206532Y20000D01*
X246500Y41800D02*
X258800Y29500D01*
X238900Y41800D02*
X246500D01*
X258770Y22835D02*
Y28500D01*
X258800D02*
Y29500D01*
X245635Y9700D02*
X258770Y22835D01*
X245635Y5435D02*
Y9700D01*
X245300Y5100D02*
X245635Y5435D01*
X238818Y41718D02*
X238900Y41800D01*
X242807Y72500D02*
Y77821D01*
X239500Y68500D02*
Y78300D01*
X66033Y93967D02*
X68255D01*
X65000Y95000D02*
X66033Y93967D01*
X101296Y63500D02*
X133182D01*
X102453Y68000D02*
X163500D01*
X94700Y78582D02*
Y78618D01*
X86300Y86982D02*
X93082Y80200D01*
X103282Y70000D02*
X164670D01*
X93118Y80200D02*
X94700Y78618D01*
X93082Y80200D02*
X93118D01*
X94700Y78582D02*
X103282Y70000D01*
X81651Y91702D02*
X86300Y86982D01*
X78985Y94414D02*
X81648Y91705D01*
X78399Y95000D02*
X78985Y94414D01*
X75000Y95000D02*
X78399D01*
X85000D02*
X86033Y93967D01*
X208189Y16000D02*
X233200D01*
X202289Y10100D02*
X208189Y16000D01*
X200100Y10100D02*
X202289D01*
X195000Y5000D02*
X200100Y10100D01*
X207361Y18000D02*
X231200D01*
X201461Y12100D02*
X207361Y18000D01*
X200700Y87800D02*
X208400D01*
X195312Y85800D02*
X207028D01*
X115000Y95000D02*
X131800Y78200D01*
X138972D02*
X139001Y78170D01*
X167830D02*
X174200Y71800D01*
X131800Y78200D02*
X138972D01*
X139001Y78170D02*
X167830D01*
X165515Y72000D02*
X171715Y65800D01*
X164670Y70000D02*
X170870Y63800D01*
X122339Y76200D02*
X137972D01*
X105000Y93539D02*
X122339Y76200D01*
X105000Y93539D02*
Y95000D01*
X137972Y76200D02*
X138001Y76170D01*
X115830Y74170D02*
X166173D01*
X95000Y95000D02*
X115830Y74170D01*
X233000Y67000D02*
Y76828D01*
X215000Y93600D02*
Y95000D01*
X196573Y91927D02*
Y91965D01*
Y91927D02*
X200700Y87800D01*
X195000Y93539D02*
X196573Y91965D01*
X195000Y93539D02*
Y95000D01*
X186112D02*
X195312Y85800D01*
X185000Y95000D02*
X186112D01*
X194170Y83800D02*
X206200D01*
X182700Y87300D02*
X190671D01*
X175000Y95000D02*
X182700Y87300D01*
X190671D02*
X194170Y83800D01*
X193431Y81711D02*
X205289D01*
X175700Y85300D02*
X189842D01*
X166000Y95000D02*
X175700Y85300D01*
X205289Y81711D02*
X208500Y78500D01*
X189842Y85300D02*
X193431Y81711D01*
X174872Y83300D02*
X189014D01*
X192603Y79711D01*
X204461D02*
X207672Y76500D01*
X192603Y79711D02*
X204461D01*
X191774Y77711D02*
X203632D01*
X188185Y81300D02*
X191774Y77711D01*
X174043Y81300D02*
X188185D01*
X190946Y75711D02*
X202500D01*
X187400Y79200D02*
X187457D01*
X187300Y79300D02*
X187400Y79200D01*
X187457D02*
X190946Y75711D01*
X208500Y78500D02*
X222700D01*
X226000Y67000D02*
Y75200D01*
X222700Y78500D02*
X226000Y75200D01*
X205000Y5000D02*
Y6400D01*
X212600Y14000D02*
X235300D01*
X205000Y6400D02*
X212600Y14000D01*
X205704Y22000D02*
X225400D01*
X199804Y16100D02*
X205704Y22000D01*
X204875Y24000D02*
X223400D01*
X198975Y18100D02*
X204875Y24000D01*
X204047Y26000D02*
X220600D01*
X204318Y29100D02*
X219493D01*
X197734Y27870D02*
X202795Y32932D01*
X232693Y26293D02*
Y29100D01*
X222800Y28200D02*
Y33100D01*
X220600Y26000D02*
X222800Y28200D01*
X215000Y5000D02*
X222000Y12000D01*
X236800D01*
X55000Y5000D02*
X61300Y11300D01*
X239400Y10000D02*
X249500Y20100D01*
X230000Y10000D02*
X239400D01*
X249500Y20100D02*
Y32800D01*
X246193Y21393D02*
Y28800D01*
X236800Y12000D02*
X246193Y21393D01*
X242700Y21400D02*
Y32800D01*
X235300Y14000D02*
X242700Y21400D01*
X233200Y16000D02*
X239393Y22193D01*
Y28800D01*
X231200Y18000D02*
X236000Y22800D01*
Y33100D01*
X229400Y25900D02*
Y33000D01*
X229300Y25900D02*
X229400D01*
X225400Y22000D02*
X229300Y25900D01*
X226093Y26693D02*
Y29000D01*
X223400Y24000D02*
X226093Y26693D01*
X192043Y63300D02*
X205300D01*
X187543Y67800D02*
X192043Y63300D01*
X166173Y74170D02*
X172543Y67800D01*
X187543D01*
X205300Y63300D02*
X205500Y63500D01*
X125000Y95000D02*
X139830Y80170D01*
X168830D01*
X138001Y76170D02*
X167001D01*
X173372Y69800D02*
X188372D01*
X167001Y76170D02*
X173372Y69800D01*
X192172Y66000D02*
X200500D01*
X188372Y69800D02*
X192172Y66000D01*
X204000Y69000D02*
X204268Y69268D01*
X192000Y69000D02*
X204000D01*
X189200Y71800D02*
X192000Y69000D01*
X174200Y71800D02*
X189200D01*
X168830Y80170D02*
X171800Y77200D01*
X202795Y32932D02*
X215904D01*
X225000Y5000D02*
X230000Y10000D01*
X135000Y94000D02*
Y95000D01*
X206840Y71371D02*
X216078D01*
X202500Y75711D02*
X206840Y71371D01*
X203632Y77711D02*
X206843Y74500D01*
X218414D01*
X219500Y73414D01*
Y67000D02*
Y73414D01*
X207672Y76500D02*
X221114D01*
X222807Y74807D01*
Y71000D02*
Y74807D01*
X165000Y95000D02*
X166000D01*
X229307Y71000D02*
Y77693D01*
X236000Y70500D02*
Y78100D01*
D53*
X6752Y39016D02*
D03*
Y5000D02*
D03*
Y95000D02*
D03*
Y60984D02*
D03*
D54*
X22500Y39016D02*
D03*
Y5000D02*
D03*
Y95000D02*
D03*
Y60984D02*
D03*
D65*
X142681Y41697D02*
X189436D01*
X195287Y47548D01*
X188855Y43100D02*
X194706Y48952D01*
X139081Y38097D02*
X142681Y41697D01*
X142100Y43100D02*
X188855D01*
X138500Y39500D02*
X142100Y43100D01*
X80452Y23049D02*
Y30951D01*
X77000Y21000D02*
X79049Y23049D01*
X87598Y38097D02*
X139081D01*
X80452Y23049D02*
X82500Y21000D01*
X87016Y39500D02*
X138500D01*
X79049Y23049D02*
Y31532D01*
X80452Y30951D02*
X87598Y38097D01*
X79049Y31532D02*
X87016Y39500D01*
X46287Y76490D02*
X47797Y78000D01*
X37752Y76490D02*
X46287D01*
X35658Y75087D02*
X46927D01*
X47514Y74500D02*
X48000D01*
X46927Y75087D02*
X47514Y74500D01*
X47797Y78000D02*
X48000D01*
X36500Y77500D02*
X36742D01*
X37752Y76490D01*
X33570Y77175D02*
X35658Y75087D01*
X31500Y77500D02*
X31825Y77175D01*
X33570D01*
X195287Y47548D02*
X201500D01*
X202944Y44056D02*
X203000Y44000D01*
X202944Y44056D02*
Y46104D01*
X201500Y47548D02*
X202944Y46104D01*
X194706Y48952D02*
X201500D01*
X202944Y52444D02*
X203000Y52500D01*
X202944Y50396D02*
Y52444D01*
X201500Y48952D02*
X202944Y50396D01*
X52147Y20101D02*
X64605D01*
X64024Y21505D02*
X73000Y30481D01*
X74403Y29899D02*
Y29900D01*
X64605Y20101D02*
X74403Y29899D01*
X51565Y21505D02*
X64024D01*
X73000Y30481D02*
Y30481D01*
X89418Y46898D01*
X74403Y29900D02*
X89999Y45496D01*
X159366D01*
X89418Y46898D02*
X158785D01*
X161289Y49403D02*
X186889D01*
X185986Y48000D02*
X188000Y45986D01*
X186889Y49403D02*
X188000Y50514D01*
X159366Y45496D02*
X161870Y48000D01*
X158785Y46898D02*
X161289Y49403D01*
X161870Y48000D02*
X185986D01*
X188000Y50514D02*
Y51000D01*
Y45500D02*
Y45986D01*
X49000Y22500D02*
X50299Y21202D01*
Y19798D02*
X51844D01*
X52147Y20101D01*
X49000Y18500D02*
X50299Y19798D01*
X51262Y21202D02*
X51565Y21505D01*
X50299Y21202D02*
X51262D01*
D68*
X265000Y95000D02*
D03*
Y5000D02*
D03*
D69*
X45000Y95000D02*
D03*
X255000Y5000D02*
D03*
X35000D02*
D03*
X45000D02*
D03*
X55000D02*
D03*
X65000D02*
D03*
X75000D02*
D03*
X85000D02*
D03*
X95000D02*
D03*
X105000D02*
D03*
X115000D02*
D03*
X125000D02*
D03*
X135000D02*
D03*
X145000D02*
D03*
X155000D02*
D03*
X165000D02*
D03*
X175000D02*
D03*
X185000D02*
D03*
X195000D02*
D03*
X205000D02*
D03*
X215000D02*
D03*
X225000D02*
D03*
X235000D02*
D03*
X245000D02*
D03*
X35000Y95000D02*
D03*
X55000D02*
D03*
X65000D02*
D03*
X75000D02*
D03*
X85000D02*
D03*
X95000D02*
D03*
X105000D02*
D03*
X115000D02*
D03*
X125000D02*
D03*
X135000D02*
D03*
X145000D02*
D03*
X155000D02*
D03*
X165000D02*
D03*
X175000D02*
D03*
X185000D02*
D03*
X195000D02*
D03*
X205000D02*
D03*
X215000D02*
D03*
X225000D02*
D03*
X235000D02*
D03*
X245000D02*
D03*
X255000D02*
D03*
D70*
X137500Y50000D02*
D03*
D71*
X142500D02*
D03*
X37500D02*
D03*
Y45000D02*
D03*
D72*
Y55000D02*
D03*
D73*
X97400Y43100D02*
D03*
X98000Y50000D02*
D03*
X101100Y43000D02*
D03*
X101700Y49900D02*
D03*
X105200Y42900D02*
D03*
X105800Y49800D02*
D03*
X109000Y43000D02*
D03*
X109500Y49500D02*
D03*
X113000Y43000D02*
D03*
X113600Y49400D02*
D03*
X109700Y53200D02*
D03*
X113800Y53100D02*
D03*
X98200Y53700D02*
D03*
X101900Y53600D02*
D03*
X106000Y53500D02*
D03*
X78500Y60000D02*
D03*
Y65000D02*
D03*
X91500Y87500D02*
D03*
X251000Y87000D02*
D03*
X254000Y88000D02*
D03*
X264500Y81000D02*
D03*
X37600Y16000D02*
D03*
X178000Y74500D02*
D03*
X151050Y39300D02*
D03*
X95500Y83500D02*
D03*
X147500Y86500D02*
D03*
X182000Y13400D02*
D03*
X176200Y13300D02*
D03*
X172900Y12000D02*
D03*
X196600Y31000D02*
D03*
X198600Y33800D02*
D03*
X202500Y38000D02*
D03*
X181600Y38700D02*
D03*
X178700Y35900D02*
D03*
X183900Y45600D02*
D03*
X192500Y35100D02*
D03*
X182000Y58000D02*
D03*
X200000Y73000D02*
D03*
X193000Y72000D02*
D03*
X155000Y60000D02*
D03*
X243277Y89824D02*
D03*
X148926Y62879D02*
D03*
X29100Y58700D02*
D03*
X45900Y32900D02*
D03*
X51300Y29100D02*
D03*
X88200Y53700D02*
D03*
X92600Y63200D02*
D03*
X267200Y82600D02*
D03*
X256000Y26300D02*
D03*
X47100Y26600D02*
D03*
X69000Y88500D02*
D03*
X36000Y70800D02*
D03*
X39400Y72700D02*
D03*
X38900Y80200D02*
D03*
X49100Y85400D02*
D03*
X88800Y34000D02*
D03*
X131800Y56900D02*
D03*
X89700Y69800D02*
D03*
X54500Y16600D02*
D03*
X53600Y13700D02*
D03*
X84500Y71000D02*
D03*
X239500Y61500D02*
D03*
X268000Y16500D02*
D03*
X261000Y73500D02*
D03*
X257500D02*
D03*
X124500Y79500D02*
D03*
X58500Y16000D02*
D03*
X74914Y87286D02*
D03*
X78800Y84300D02*
D03*
X57000Y59400D02*
D03*
X46100Y65400D02*
D03*
X74900Y51000D02*
D03*
X48000Y71000D02*
D03*
X35000Y86000D02*
D03*
X16000Y91500D02*
D03*
X17000Y64000D02*
D03*
X48000Y74500D02*
D03*
Y78000D02*
D03*
X31500Y77500D02*
D03*
X36500D02*
D03*
X184500Y52500D02*
D03*
X47000Y15000D02*
D03*
X49000Y22500D02*
D03*
Y18500D02*
D03*
X188000Y45500D02*
D03*
Y51000D02*
D03*
X162000Y63000D02*
D03*
X205500Y41000D02*
D03*
X206500Y45000D02*
D03*
Y51500D02*
D03*
X74300Y23600D02*
D03*
X85500Y19500D02*
D03*
X82500Y21000D02*
D03*
X77000D02*
D03*
X203000Y52500D02*
D03*
Y44000D02*
D03*
X192121Y60500D02*
D03*
X187100Y61200D02*
D03*
X180400Y61100D02*
D03*
X30800Y9400D02*
D03*
X33300Y40400D02*
D03*
X28900Y39700D02*
D03*
X37600Y24600D02*
D03*
X55000Y28900D02*
D03*
X58500Y29100D02*
D03*
X109200Y35000D02*
D03*
X113300Y34900D02*
D03*
X97700Y35500D02*
D03*
X105500Y35300D02*
D03*
X101400Y35400D02*
D03*
X263200Y26400D02*
D03*
X69000Y79000D02*
D03*
Y75000D02*
D03*
X72500D02*
D03*
Y79000D02*
D03*
X79000Y56000D02*
D03*
X252893Y28600D02*
D03*
X261471Y30022D02*
D03*
Y33022D02*
D03*
Y36522D02*
D03*
Y40022D02*
D03*
X261571Y43322D02*
D03*
X261471Y46522D02*
D03*
X261571Y49922D02*
D03*
X261370Y53422D02*
D03*
X261270Y56722D02*
D03*
X261370Y60122D02*
D03*
X261270Y63322D02*
D03*
Y66722D02*
D03*
X261370Y70122D02*
D03*
X251000Y56000D02*
D03*
X251500Y50000D02*
D03*
X251496Y43504D02*
D03*
X239500Y38500D02*
D03*
X233000Y38000D02*
D03*
X227500Y56500D02*
D03*
X227000Y50000D02*
D03*
X236300Y53300D02*
D03*
X242800Y53200D02*
D03*
Y46700D02*
D03*
X236300D02*
D03*
X194000Y25100D02*
D03*
X63900Y55400D02*
D03*
X205500Y63500D02*
D03*
X200500Y66000D02*
D03*
X204268Y69268D02*
D03*
X61000Y50000D02*
D03*
X246200Y67300D02*
D03*
X215904Y32932D02*
D03*
X216078Y71371D02*
D03*
X246193Y28800D02*
D03*
X249500Y32800D02*
D03*
X239393Y28800D02*
D03*
X242700Y32800D02*
D03*
X232693Y29100D02*
D03*
X236000Y33100D02*
D03*
X226093Y29000D02*
D03*
X229400Y33000D02*
D03*
X219493Y29100D02*
D03*
X222800Y33100D02*
D03*
X222807Y71000D02*
D03*
X219500Y67000D02*
D03*
X229307Y71000D02*
D03*
X226000Y67000D02*
D03*
X233000D02*
D03*
X236000Y70500D02*
D03*
X239500Y68500D02*
D03*
X242807Y72500D02*
D03*
X249500D02*
D03*
D75*
X57000Y60828D02*
X65472Y69300D01*
X57000Y59400D02*
Y60828D01*
X50300Y44600D02*
Y67200D01*
X44971Y44600D02*
X50300D01*
X68500D01*
X55000Y71900D02*
Y95000D01*
X50300Y67200D02*
X55000Y71900D01*
X74300Y69300D02*
X78800Y73800D01*
X65472Y69300D02*
X74300D01*
X78800Y73800D02*
Y84300D01*
X37500Y50000D02*
X39571D01*
X44971Y44600D01*
X68500D02*
X74900Y51000D01*
M02*
