G04*
G04 #@! TF.GenerationSoftware,Altium Limited,Altium Designer,24.5.2 (23)*
G04*
G04 Layer_Color=8388736*
%FSLAX25Y25*%
%MOIN*%
G70*
G04*
G04 #@! TF.SameCoordinates,4C7D719B-D633-4967-9843-4E76C81F2032*
G04*
G04*
G04 #@! TF.FilePolarity,Negative*
G04*
G01*
G75*
%ADD25R,0.06102X0.05118*%
%ADD29R,0.04528X0.02362*%
G04:AMPARAMS|DCode=31|XSize=33.06mil|YSize=9.55mil|CornerRadius=4.77mil|HoleSize=0mil|Usage=FLASHONLY|Rotation=270.000|XOffset=0mil|YOffset=0mil|HoleType=Round|Shape=RoundedRectangle|*
%AMROUNDEDRECTD31*
21,1,0.03306,0.00000,0,0,270.0*
21,1,0.02351,0.00955,0,0,270.0*
1,1,0.00955,0.00000,-0.01176*
1,1,0.00955,0.00000,0.01176*
1,1,0.00955,0.00000,0.01176*
1,1,0.00955,0.00000,-0.01176*
%
%ADD31ROUNDEDRECTD31*%
G04:AMPARAMS|DCode=34|XSize=9.55mil|YSize=33.06mil|CornerRadius=4.77mil|HoleSize=0mil|Usage=FLASHONLY|Rotation=270.000|XOffset=0mil|YOffset=0mil|HoleType=Round|Shape=RoundedRectangle|*
%AMROUNDEDRECTD34*
21,1,0.00955,0.02351,0,0,270.0*
21,1,0.00000,0.03306,0,0,270.0*
1,1,0.00955,-0.01176,0.00000*
1,1,0.00955,-0.01176,0.00000*
1,1,0.00955,0.01176,0.00000*
1,1,0.00955,0.01176,0.00000*
%
%ADD34ROUNDEDRECTD34*%
%ADD35R,0.04528X0.01181*%
%ADD36R,0.00955X0.03306*%
%ADD37R,0.05343X0.02253*%
G04:AMPARAMS|DCode=38|XSize=53.43mil|YSize=22.53mil|CornerRadius=11.26mil|HoleSize=0mil|Usage=FLASHONLY|Rotation=0.000|XOffset=0mil|YOffset=0mil|HoleType=Round|Shape=RoundedRectangle|*
%AMROUNDEDRECTD38*
21,1,0.05343,0.00000,0,0,0.0*
21,1,0.03091,0.02253,0,0,0.0*
1,1,0.02253,0.01545,0.00000*
1,1,0.02253,-0.01545,0.00000*
1,1,0.02253,-0.01545,0.00000*
1,1,0.02253,0.01545,0.00000*
%
%ADD38ROUNDEDRECTD38*%
G04:AMPARAMS|DCode=39|XSize=27.62mil|YSize=25.26mil|CornerRadius=7.63mil|HoleSize=0mil|Usage=FLASHONLY|Rotation=270.000|XOffset=0mil|YOffset=0mil|HoleType=Round|Shape=RoundedRectangle|*
%AMROUNDEDRECTD39*
21,1,0.02762,0.00999,0,0,270.0*
21,1,0.01235,0.02526,0,0,270.0*
1,1,0.01527,-0.00500,-0.00618*
1,1,0.01527,-0.00500,0.00618*
1,1,0.01527,0.00500,0.00618*
1,1,0.01527,0.00500,-0.00618*
%
%ADD39ROUNDEDRECTD39*%
%ADD40R,0.02526X0.02762*%
%ADD41R,0.03550X0.03550*%
%ADD42R,0.01975X0.03550*%
%ADD43R,0.03550X0.01975*%
%ADD44R,0.05124X0.05124*%
G04:AMPARAMS|DCode=45|XSize=27.62mil|YSize=25.26mil|CornerRadius=7.63mil|HoleSize=0mil|Usage=FLASHONLY|Rotation=180.000|XOffset=0mil|YOffset=0mil|HoleType=Round|Shape=RoundedRectangle|*
%AMROUNDEDRECTD45*
21,1,0.02762,0.00999,0,0,180.0*
21,1,0.01235,0.02526,0,0,180.0*
1,1,0.01527,-0.00618,0.00500*
1,1,0.01527,0.00618,0.00500*
1,1,0.01527,0.00618,-0.00500*
1,1,0.01527,-0.00618,-0.00500*
%
%ADD45ROUNDEDRECTD45*%
%ADD46R,0.02762X0.02526*%
%ADD47R,0.01778X0.02762*%
%ADD48R,0.02762X0.01778*%
%ADD49R,0.03156X0.02762*%
%ADD50R,0.08071X0.08071*%
G04:AMPARAMS|DCode=51|XSize=39.43mil|YSize=72.9mil|CornerRadius=3.95mil|HoleSize=0mil|Usage=FLASHONLY|Rotation=90.000|XOffset=0mil|YOffset=0mil|HoleType=Round|Shape=RoundedRectangle|*
%AMROUNDEDRECTD51*
21,1,0.03943,0.06500,0,0,90.0*
21,1,0.03154,0.07290,0,0,90.0*
1,1,0.00790,0.03250,0.01577*
1,1,0.00790,0.03250,-0.01577*
1,1,0.00790,-0.03250,-0.01577*
1,1,0.00790,-0.03250,0.01577*
%
%ADD51ROUNDEDRECTD51*%
G04:AMPARAMS|DCode=52|XSize=129.98mil|YSize=72.9mil|CornerRadius=4.07mil|HoleSize=0mil|Usage=FLASHONLY|Rotation=90.000|XOffset=0mil|YOffset=0mil|HoleType=Round|Shape=RoundedRectangle|*
%AMROUNDEDRECTD52*
21,1,0.12998,0.06476,0,0,90.0*
21,1,0.12185,0.07290,0,0,90.0*
1,1,0.00813,0.03238,0.06093*
1,1,0.00813,0.03238,-0.06093*
1,1,0.00813,-0.03238,-0.06093*
1,1,0.00813,-0.03238,0.06093*
%
%ADD52ROUNDEDRECTD52*%
G04:AMPARAMS|DCode=53|XSize=39.37mil|YSize=86.61mil|CornerRadius=19.68mil|HoleSize=0mil|Usage=FLASHONLY|Rotation=270.000|XOffset=0mil|YOffset=0mil|HoleType=Round|Shape=RoundedRectangle|*
%AMROUNDEDRECTD53*
21,1,0.03937,0.04724,0,0,270.0*
21,1,0.00000,0.08661,0,0,270.0*
1,1,0.03937,-0.02362,0.00000*
1,1,0.03937,-0.02362,0.00000*
1,1,0.03937,0.02362,0.00000*
1,1,0.03937,0.02362,0.00000*
%
%ADD53ROUNDEDRECTD53*%
G04:AMPARAMS|DCode=54|XSize=39.37mil|YSize=70.87mil|CornerRadius=19.68mil|HoleSize=0mil|Usage=FLASHONLY|Rotation=270.000|XOffset=0mil|YOffset=0mil|HoleType=Round|Shape=RoundedRectangle|*
%AMROUNDEDRECTD54*
21,1,0.03937,0.03150,0,0,270.0*
21,1,0.00000,0.07087,0,0,270.0*
1,1,0.03937,-0.01575,0.00000*
1,1,0.03937,-0.01575,0.00000*
1,1,0.03937,0.01575,0.00000*
1,1,0.03937,0.01575,0.00000*
%
%ADD54ROUNDEDRECTD54*%
%ADD55R,0.06800X0.06800*%
%ADD56C,0.06800*%
%ADD57R,0.04400X0.04400*%
%ADD58C,0.04400*%
%ADD59R,0.04400X0.04400*%
G36*
X84530Y45012D02*
X84538Y45019D01*
X84550Y45041D01*
X84556Y45047D01*
X84559Y45053D01*
X84568Y45062D01*
X84577Y45077D01*
X84583Y45083D01*
X84586Y45089D01*
X84596Y45099D01*
X84599Y45105D01*
X84614Y45120D01*
X84617Y45126D01*
X84641Y45151D01*
X84644Y45157D01*
X84655Y45164D01*
X84672Y45181D01*
X84675Y45187D01*
X84686Y45195D01*
X84710Y45219D01*
X84716Y45222D01*
X84725Y45231D01*
X84731Y45234D01*
X84744Y45247D01*
X84750Y45250D01*
X84762Y45262D01*
X84777Y45271D01*
X84783Y45277D01*
X84799Y45286D01*
X84805Y45292D01*
X84820Y45302D01*
X84841Y45314D01*
X84847Y45320D01*
X84863Y45329D01*
X84933Y45366D01*
X84934Y45373D01*
X84927Y45381D01*
X84921Y45384D01*
X84914Y45390D01*
X84908Y45393D01*
X84892Y45407D01*
X84881Y45415D01*
X84872Y45424D01*
X84866Y45427D01*
X84791Y45502D01*
X84788Y45508D01*
X84776Y45520D01*
X84773Y45526D01*
X84767Y45532D01*
X84763Y45538D01*
X84750Y45555D01*
X84737Y45573D01*
X84733Y45578D01*
X84708Y45621D01*
X84702Y45627D01*
X84699Y45639D01*
X84690Y45648D01*
X84681Y45672D01*
X84675Y45678D01*
X84672Y45691D01*
X84657Y45724D01*
X84654Y45737D01*
X84644Y45758D01*
X84641Y45770D01*
X84634Y45790D01*
X84629Y45807D01*
X84622Y45839D01*
X84617Y45856D01*
X84614Y45868D01*
X84609Y45909D01*
X84606Y45927D01*
X84603Y45943D01*
X84600Y45982D01*
X84592Y45993D01*
X84553Y45996D01*
X84513Y46002D01*
X84498Y46005D01*
X84440Y46014D01*
X84416Y46020D01*
X84360Y46029D01*
X84335Y46037D01*
X84306Y46042D01*
X84290Y46048D01*
X84278Y46051D01*
X84263Y46054D01*
X84238Y46063D01*
X84226Y46066D01*
X84208Y46069D01*
X84193Y46075D01*
X84179Y46080D01*
X84167Y46083D01*
X84139Y46095D01*
X84119Y46100D01*
X84093Y46110D01*
X84077Y46115D01*
X84072Y46119D01*
X84057Y46126D01*
X84045Y46129D01*
X84029Y46138D01*
X84017Y46141D01*
X83984Y46156D01*
X83978Y46159D01*
X83962Y46168D01*
X83942Y46176D01*
X83938Y46181D01*
X83918Y46188D01*
X83895Y46202D01*
X83862Y46220D01*
X83834Y46235D01*
X83828Y46242D01*
X83816Y46245D01*
X83794Y46260D01*
X83788Y46263D01*
X83782Y46269D01*
X83761Y46281D01*
X83755Y46287D01*
X83739Y46297D01*
X83718Y46312D01*
X83701Y46325D01*
X83677Y46341D01*
X83672Y46345D01*
X83666Y46348D01*
X83654Y46361D01*
X83648Y46364D01*
X83639Y46373D01*
X83633Y46376D01*
X83620Y46388D01*
X83614Y46391D01*
X83602Y46403D01*
X83596Y46406D01*
X83584Y46419D01*
X83578Y46422D01*
X83550Y46449D01*
X83544Y46452D01*
X83536Y46463D01*
X83530Y46466D01*
X83527Y46472D01*
X83523Y46477D01*
X83517Y46480D01*
X83482Y46515D01*
X83480Y46519D01*
X83474Y46522D01*
X83469Y46527D01*
X83466Y46533D01*
X83462Y46538D01*
X83457Y46539D01*
X83454Y46545D01*
X83427Y46573D01*
X83424Y46579D01*
X83408Y46594D01*
X83405Y46600D01*
X83396Y46609D01*
X83393Y46615D01*
X83381Y46628D01*
X83378Y46634D01*
X83369Y46643D01*
X83366Y46649D01*
X83353Y46661D01*
X83350Y46667D01*
X83341Y46676D01*
X83332Y46692D01*
X83326Y46698D01*
X83317Y46713D01*
X83311Y46719D01*
X83308Y46725D01*
X83298Y46734D01*
X83286Y46756D01*
X83280Y46762D01*
X83271Y46777D01*
X83259Y46799D01*
X83253Y46805D01*
X83244Y46820D01*
X83231Y46841D01*
X83222Y46850D01*
X83218Y46867D01*
X83213Y46872D01*
X83207Y46893D01*
X83205Y46925D01*
X83208Y46956D01*
X83228Y46991D01*
X83234Y46997D01*
X83237Y47003D01*
X83257Y47023D01*
X83263Y47026D01*
X83269Y47032D01*
X83309Y47050D01*
X83333Y47054D01*
X83343Y47056D01*
X83379Y47054D01*
X83389Y47050D01*
X83407Y47047D01*
X83416Y47038D01*
X83437Y47026D01*
X83454Y47009D01*
X83457Y47003D01*
X83488Y46960D01*
X83491Y46954D01*
X83497Y46948D01*
X83521Y46905D01*
X83530Y46896D01*
X83533Y46890D01*
X83543Y46881D01*
X83552Y46866D01*
X83558Y46860D01*
X83567Y46844D01*
X83573Y46838D01*
X83576Y46832D01*
X83585Y46823D01*
X83588Y46817D01*
X83601Y46805D01*
X83604Y46799D01*
X83613Y46790D01*
X83616Y46783D01*
X83630Y46767D01*
X83649Y46747D01*
X83651Y46742D01*
X83657Y46739D01*
X83665Y46728D01*
X83742Y46651D01*
X83747Y46649D01*
X83750Y46643D01*
X83755Y46638D01*
X83761Y46635D01*
X83785Y46611D01*
X83791Y46608D01*
X83801Y46599D01*
X83807Y46596D01*
X83819Y46583D01*
X83825Y46580D01*
X83842Y46567D01*
X83852Y46559D01*
X83859Y46553D01*
X83874Y46544D01*
X83880Y46538D01*
X83895Y46529D01*
X83901Y46522D01*
X83916Y46513D01*
X83938Y46501D01*
X83944Y46495D01*
X83959Y46486D01*
X83987Y46470D01*
X83993Y46464D01*
X84005Y46461D01*
X84011Y46455D01*
X84017Y46452D01*
X84039Y46440D01*
X84054Y46434D01*
X84069Y46425D01*
X84084Y46419D01*
X84142Y46391D01*
X84154Y46388D01*
X84210Y46364D01*
X84222Y46361D01*
X84238Y46356D01*
X84255Y46348D01*
X84267Y46345D01*
X84287Y46338D01*
X84301Y46333D01*
X84322Y46330D01*
X84342Y46323D01*
X84356Y46318D01*
X84391Y46310D01*
X84408Y46306D01*
X84420Y46303D01*
X84444Y46300D01*
X84454Y46297D01*
X84475Y46290D01*
X84505Y46287D01*
X84531Y46283D01*
X84544Y46280D01*
X84559Y46277D01*
X84589Y46274D01*
X84623Y46271D01*
X84637Y46269D01*
X84644Y46277D01*
X84657Y46304D01*
X84661Y46321D01*
X84666Y46325D01*
X84672Y46341D01*
X84675Y46353D01*
X84684Y46362D01*
X84687Y46374D01*
X84699Y46393D01*
X84705Y46408D01*
X84718Y46426D01*
X84721Y46432D01*
X84727Y46439D01*
X84739Y46460D01*
X84745Y46466D01*
X84754Y46481D01*
X84760Y46487D01*
X84763Y46493D01*
X84773Y46503D01*
X84776Y46509D01*
X84788Y46521D01*
X84791Y46527D01*
X84803Y46539D01*
X84806Y46545D01*
X84856Y46596D01*
X84863Y46599D01*
X84869Y46608D01*
X84884Y46617D01*
X84890Y46623D01*
X84896Y46626D01*
X84908Y46638D01*
X84922Y46646D01*
X84924Y46651D01*
X84954Y46669D01*
X84960Y46672D01*
X84966Y46678D01*
X84973Y46681D01*
X84988Y46690D01*
X84994Y46696D01*
X85011Y46701D01*
X85018Y46709D01*
X85038Y46716D01*
X85066Y46731D01*
X85062Y46741D01*
X85050Y46744D01*
X85035Y46750D01*
X85015Y46757D01*
X84982Y46773D01*
X84975Y46776D01*
X84969Y46782D01*
X84950Y46790D01*
X84927Y46803D01*
X84921Y46806D01*
X84914Y46812D01*
X84899Y46819D01*
X84893Y46825D01*
X84887Y46828D01*
X84849Y46854D01*
X84844Y46858D01*
X84834Y46863D01*
X84831Y46869D01*
X84814Y46880D01*
X84805Y46889D01*
X84799Y46892D01*
X84789Y46901D01*
X84783Y46904D01*
X84768Y46919D01*
X84762Y46922D01*
X84756Y46931D01*
X84750Y46934D01*
X84745Y46939D01*
X84744Y46944D01*
X84737Y46947D01*
X84730Y46954D01*
X84727Y46960D01*
X84718Y46966D01*
X84715Y46973D01*
X84687Y47000D01*
X84684Y47006D01*
X84675Y47015D01*
X84672Y47021D01*
X84658Y47038D01*
X84650Y47049D01*
X84644Y47055D01*
X84641Y47061D01*
X84626Y47082D01*
X84623Y47089D01*
X84614Y47098D01*
X84611Y47110D01*
X84602Y47119D01*
X84589Y47140D01*
X84574Y47168D01*
X84568Y47183D01*
X84565Y47189D01*
X84556Y47205D01*
X84548Y47224D01*
X84544Y47229D01*
X84539Y47246D01*
X84533Y47261D01*
X84528Y47266D01*
X84524Y47285D01*
X84518Y47301D01*
X84510Y47321D01*
X84507Y47342D01*
X84498Y47363D01*
X84495Y47385D01*
X84490Y47401D01*
X84484Y47426D01*
X84481Y47450D01*
X84478Y47478D01*
X84475Y47496D01*
X84470Y47537D01*
X84467Y47604D01*
X84470Y47653D01*
X84475Y47691D01*
X84480Y47733D01*
X84483Y47745D01*
X84486Y47775D01*
X84492Y47791D01*
X84495Y47812D01*
X84498Y47824D01*
X84510Y47864D01*
X84513Y47876D01*
X84522Y47897D01*
X84525Y47910D01*
X84533Y47929D01*
X84538Y47934D01*
X84542Y47954D01*
X84553Y47974D01*
X84561Y47993D01*
X84565Y47998D01*
X84573Y48018D01*
X84577Y48022D01*
X84579Y48033D01*
X84571Y48044D01*
X84561Y48052D01*
X84551Y48061D01*
X84545Y48064D01*
X84503Y48106D01*
X84498Y48108D01*
X84495Y48114D01*
X84467Y48142D01*
X84464Y48148D01*
X84455Y48157D01*
X84452Y48163D01*
X84438Y48180D01*
X84431Y48190D01*
X84425Y48197D01*
X84416Y48212D01*
X84403Y48233D01*
X84394Y48242D01*
X84388Y48257D01*
X84382Y48264D01*
X84348Y48334D01*
X84336Y48361D01*
X84329Y48381D01*
X84321Y48398D01*
X84316Y48415D01*
X84309Y48432D01*
X84306Y48444D01*
X84303Y48462D01*
X84293Y48483D01*
X84290Y48505D01*
X84281Y48538D01*
X84278Y48551D01*
X84274Y48598D01*
X84269Y48639D01*
X84266Y48651D01*
X84269Y48749D01*
X84272Y48758D01*
X84277Y48802D01*
X84283Y48836D01*
X84290Y48856D01*
X84293Y48880D01*
X84306Y48908D01*
X84310Y48924D01*
X84315Y48929D01*
X84321Y48944D01*
X84324Y48956D01*
X84330Y48963D01*
X84336Y48978D01*
X84339Y48984D01*
X84345Y48990D01*
X84360Y49018D01*
X84391Y49060D01*
X84405Y49077D01*
X84422Y49094D01*
X84425Y49100D01*
X84435Y49108D01*
X84441Y49117D01*
X84447Y49120D01*
X84469Y49141D01*
X84509Y49159D01*
X84557Y49163D01*
X84586Y49158D01*
X84602Y49152D01*
X84606Y49147D01*
X84622Y49141D01*
X84631Y49132D01*
X84637Y49129D01*
X84669Y49097D01*
X84687Y49057D01*
X84690Y49018D01*
X84687Y48981D01*
X84672Y48956D01*
X84669Y48950D01*
X84660Y48941D01*
X84657Y48935D01*
X84626Y48905D01*
X84623Y48899D01*
X84611Y48886D01*
X84608Y48880D01*
X84599Y48871D01*
X84589Y48856D01*
X84568Y48810D01*
X84561Y48790D01*
X84556Y48776D01*
X84551Y48747D01*
X84548Y48732D01*
X84545Y48698D01*
X84544Y48660D01*
X84547Y48651D01*
X84559Y48569D01*
X84565Y48554D01*
X84568Y48541D01*
X84573Y48525D01*
X84577Y48514D01*
X84583Y48499D01*
X84588Y48482D01*
X84596Y48468D01*
X84605Y48444D01*
X84623Y48410D01*
X84635Y48389D01*
X84650Y48367D01*
X84670Y48338D01*
X84675Y48334D01*
X84678Y48328D01*
X84687Y48319D01*
X84690Y48313D01*
X84695Y48308D01*
X84701Y48305D01*
X84713Y48293D01*
X84719Y48290D01*
X84728Y48280D01*
X84739Y48276D01*
X84742Y48270D01*
X84747Y48265D01*
X84757Y48264D01*
X84773Y48270D01*
X84776Y48276D01*
X84786Y48283D01*
X84795Y48293D01*
X84802Y48296D01*
X84814Y48308D01*
X84820Y48311D01*
X84832Y48323D01*
X84847Y48332D01*
X84854Y48338D01*
X84869Y48348D01*
X84875Y48354D01*
X84884Y48357D01*
X84893Y48366D01*
X84936Y48390D01*
X84963Y48406D01*
X85009Y48427D01*
X85043Y48442D01*
X85055Y48445D01*
X85061Y48451D01*
X85081Y48456D01*
X85093Y48459D01*
X85104Y48463D01*
X85119Y48470D01*
X85142Y48474D01*
X85162Y48482D01*
X85191Y48486D01*
X85206Y48489D01*
X85223Y48494D01*
X85235Y48497D01*
X85317Y48503D01*
X85330Y48506D01*
X85406Y48509D01*
X85415Y48506D01*
X85479Y48503D01*
X85488Y48500D01*
X85537Y48497D01*
X85546Y48494D01*
X85563Y48489D01*
X85575Y48486D01*
X85609Y48480D01*
X85635Y48473D01*
X85659Y48467D01*
X85681Y48457D01*
X85705Y48451D01*
X85711Y48445D01*
X85723Y48442D01*
X85743Y48434D01*
X85748Y48430D01*
X85777Y48419D01*
X85781Y48415D01*
X85801Y48407D01*
X85806Y48403D01*
X85858Y48375D01*
X85864Y48369D01*
X85873Y48366D01*
X85879Y48360D01*
X85885Y48357D01*
X85949Y48311D01*
X85964Y48296D01*
X85970Y48293D01*
X85983Y48280D01*
X85989Y48277D01*
X86001Y48265D01*
X86026Y48268D01*
X86033Y48276D01*
X86035Y48280D01*
X86041Y48283D01*
X86053Y48296D01*
X86059Y48299D01*
X86071Y48311D01*
X86077Y48314D01*
X86083Y48323D01*
X86089Y48326D01*
X86100Y48343D01*
X86106Y48349D01*
X86115Y48364D01*
X86128Y48386D01*
X86134Y48392D01*
X86141Y48412D01*
X86149Y48419D01*
X86157Y48439D01*
X86164Y48453D01*
X86172Y48473D01*
X86177Y48477D01*
X86183Y48502D01*
X86195Y48529D01*
X86199Y48555D01*
X86206Y48570D01*
X86209Y48586D01*
X86212Y48613D01*
X86215Y48631D01*
X86218Y48659D01*
X86219Y48718D01*
X86216Y48728D01*
X86213Y48758D01*
X86210Y48767D01*
X86207Y48792D01*
X86195Y48819D01*
X86173Y48859D01*
X86158Y48880D01*
X86145Y48897D01*
X86140Y48902D01*
X86137Y48908D01*
X86106Y48938D01*
X86103Y48944D01*
X86094Y48953D01*
X86088Y48969D01*
X86082Y48975D01*
X86079Y48987D01*
X86076Y49018D01*
X86079Y49060D01*
X86091Y49082D01*
X86100Y49097D01*
X86114Y49114D01*
X86132Y49132D01*
X86138Y49135D01*
X86147Y49144D01*
X86160Y49147D01*
X86166Y49153D01*
X86187Y49159D01*
X86218Y49163D01*
X86260Y49159D01*
X86300Y49138D01*
X86309Y49129D01*
X86315Y49126D01*
X86332Y49109D01*
X86334Y49104D01*
X86340Y49101D01*
X86353Y49088D01*
X86357Y49082D01*
X86372Y49066D01*
X86375Y49060D01*
X86384Y49051D01*
X86387Y49045D01*
X86402Y49024D01*
X86405Y49018D01*
X86411Y49011D01*
X86424Y48990D01*
X86445Y48944D01*
X86460Y48911D01*
X86468Y48891D01*
X86473Y48874D01*
X86476Y48862D01*
X86485Y48831D01*
X86488Y48819D01*
X86492Y48781D01*
X86496Y48766D01*
X86500Y48724D01*
X86497Y48608D01*
X86494Y48599D01*
X86488Y48548D01*
X86483Y48528D01*
X86476Y48502D01*
X86473Y48480D01*
X86465Y48461D01*
X86460Y48444D01*
X86457Y48432D01*
X86445Y48404D01*
X86440Y48387D01*
X86433Y48373D01*
X86430Y48361D01*
X86415Y48328D01*
X86390Y48282D01*
X86375Y48254D01*
X86363Y48233D01*
X86357Y48227D01*
X86353Y48218D01*
X86344Y48209D01*
X86335Y48193D01*
X86329Y48187D01*
X86320Y48172D01*
X86314Y48166D01*
X86311Y48160D01*
X86299Y48148D01*
X86296Y48142D01*
X86283Y48129D01*
X86280Y48123D01*
X86276Y48119D01*
X86271Y48117D01*
X86268Y48111D01*
X86233Y48076D01*
X86227Y48073D01*
X86206Y48052D01*
X86199Y48048D01*
X86189Y48038D01*
X86192Y48019D01*
X86204Y47998D01*
X86210Y47983D01*
X86225Y47949D01*
X86228Y47937D01*
X86234Y47931D01*
X86241Y47910D01*
X86244Y47897D01*
X86253Y47876D01*
X86257Y47856D01*
X86265Y47839D01*
X86268Y47818D01*
X86274Y47794D01*
X86280Y47772D01*
X86283Y47760D01*
X86286Y47720D01*
X86290Y47711D01*
X86296Y47659D01*
X86299Y47574D01*
X86296Y47516D01*
X86292Y47495D01*
X86290Y47482D01*
X86283Y47430D01*
X86276Y47398D01*
X86271Y47382D01*
X86268Y47360D01*
X86260Y47340D01*
X86256Y47324D01*
X86253Y47311D01*
X86245Y47291D01*
X86241Y47278D01*
X86233Y47258D01*
X86225Y47241D01*
X86222Y47229D01*
X86213Y47214D01*
X86206Y47194D01*
X86201Y47189D01*
X86195Y47174D01*
X86186Y47159D01*
X86170Y47131D01*
X86158Y47110D01*
X86152Y47104D01*
X86149Y47095D01*
X86140Y47085D01*
X86128Y47064D01*
X86122Y47058D01*
X86119Y47052D01*
X86109Y47043D01*
X86100Y47028D01*
X86094Y47021D01*
X86091Y47015D01*
X86079Y47003D01*
X86076Y46997D01*
X86061Y46982D01*
X86059Y46977D01*
X86053Y46974D01*
X86048Y46970D01*
X86045Y46963D01*
X86041Y46959D01*
X86036Y46957D01*
X86033Y46951D01*
X86013Y46931D01*
X86007Y46928D01*
X86003Y46924D01*
X86001Y46919D01*
X85995Y46916D01*
X85980Y46901D01*
X85974Y46898D01*
X85961Y46886D01*
X85955Y46883D01*
X85946Y46873D01*
X85931Y46864D01*
X85925Y46858D01*
X85919Y46855D01*
X85909Y46846D01*
X85894Y46837D01*
X85865Y46817D01*
X85847Y46808D01*
X85842Y46803D01*
X85790Y46776D01*
X85775Y46770D01*
X85742Y46754D01*
X85720Y46745D01*
X85700Y46738D01*
X85703Y46728D01*
X85719Y46722D01*
X85755Y46704D01*
X85760Y46699D01*
X85775Y46693D01*
X85781Y46687D01*
X85803Y46675D01*
X85809Y46669D01*
X85818Y46666D01*
X85839Y46651D01*
X85845Y46648D01*
X85855Y46638D01*
X85861Y46635D01*
X85870Y46626D01*
X85876Y46623D01*
X85883Y46619D01*
X85885Y46614D01*
X85891Y46611D01*
X85902Y46603D01*
X85905Y46597D01*
X85916Y46590D01*
X85922Y46580D01*
X85928Y46577D01*
X85963Y46542D01*
X85966Y46536D01*
X85978Y46524D01*
X85981Y46518D01*
X85993Y46506D01*
X85997Y46499D01*
X86006Y46490D01*
X86009Y46484D01*
X86018Y46475D01*
X86027Y46460D01*
X86039Y46439D01*
X86048Y46429D01*
X86058Y46414D01*
X86088Y46356D01*
X86094Y46341D01*
X86106Y46313D01*
X86114Y46294D01*
X86129Y46269D01*
X86207Y46277D01*
X86222Y46280D01*
X86234Y46283D01*
X86250Y46286D01*
X86280Y46289D01*
X86299Y46292D01*
X86315Y46297D01*
X86328Y46300D01*
X86349Y46303D01*
X86383Y46312D01*
X86395Y46315D01*
X86430Y46323D01*
X86447Y46330D01*
X86471Y46333D01*
X86498Y46345D01*
X86521Y46350D01*
X86526Y46354D01*
X86547Y46361D01*
X86567Y46368D01*
X86584Y46376D01*
X86599Y46379D01*
X86615Y46388D01*
X86627Y46391D01*
X86660Y46406D01*
X86666Y46409D01*
X86682Y46419D01*
X86694Y46422D01*
X86700Y46428D01*
X86715Y46434D01*
X86730Y46443D01*
X86782Y46470D01*
X86788Y46477D01*
X86801Y46480D01*
X86810Y46489D01*
X86831Y46501D01*
X86837Y46507D01*
X86847Y46510D01*
X86853Y46516D01*
X86859Y46519D01*
X86880Y46535D01*
X86909Y46554D01*
X86920Y46565D01*
X86935Y46574D01*
X86941Y46580D01*
X86947Y46583D01*
X86959Y46596D01*
X86966Y46599D01*
X86978Y46611D01*
X86984Y46614D01*
X86996Y46626D01*
X87002Y46629D01*
X87005Y46635D01*
X87011Y46638D01*
X87042Y46669D01*
X87046Y46670D01*
X87049Y46676D01*
X87054Y46681D01*
X87060Y46684D01*
X87089Y46713D01*
X87092Y46719D01*
X87120Y46747D01*
X87123Y46753D01*
X87127Y46757D01*
X87132Y46759D01*
X87135Y46765D01*
X87147Y46777D01*
X87150Y46783D01*
X87162Y46796D01*
X87165Y46802D01*
X87175Y46811D01*
X87178Y46817D01*
X87190Y46829D01*
X87193Y46835D01*
X87214Y46863D01*
X87260Y46927D01*
X87272Y46948D01*
X87278Y46954D01*
X87287Y46970D01*
X87300Y46991D01*
X87309Y47000D01*
X87312Y47006D01*
X87341Y47035D01*
X87375Y47050D01*
X87397Y47055D01*
X87426Y47056D01*
X87436Y47054D01*
X87457Y47050D01*
X87477Y47043D01*
X87481Y47038D01*
X87503Y47026D01*
X87519Y47012D01*
X87532Y47000D01*
X87535Y46994D01*
X87544Y46985D01*
X87556Y46957D01*
X87559Y46945D01*
X87561Y46916D01*
X87558Y46886D01*
X87555Y46873D01*
X87547Y46866D01*
X87544Y46854D01*
X87541Y46847D01*
X87535Y46841D01*
X87532Y46835D01*
X87523Y46820D01*
X87516Y46814D01*
X87492Y46771D01*
X87486Y46765D01*
X87477Y46750D01*
X87471Y46744D01*
X87462Y46728D01*
X87455Y46722D01*
X87452Y46716D01*
X87443Y46707D01*
X87434Y46692D01*
X87428Y46686D01*
X87419Y46670D01*
X87413Y46664D01*
X87410Y46658D01*
X87397Y46646D01*
X87394Y46640D01*
X87385Y46631D01*
X87382Y46625D01*
X87373Y46615D01*
X87370Y46609D01*
X87364Y46603D01*
X87361Y46597D01*
X87352Y46588D01*
X87349Y46582D01*
X87339Y46576D01*
X87336Y46570D01*
X87309Y46542D01*
X87306Y46536D01*
X87297Y46530D01*
X87294Y46524D01*
X87231Y46461D01*
X87225Y46458D01*
X87219Y46449D01*
X87213Y46446D01*
X87185Y46419D01*
X87179Y46416D01*
X87167Y46403D01*
X87161Y46400D01*
X87139Y46379D01*
X87133Y46376D01*
X87117Y46362D01*
X87112Y46358D01*
X87106Y46354D01*
X87097Y46345D01*
X87091Y46342D01*
X87085Y46336D01*
X87078Y46333D01*
X87062Y46319D01*
X87045Y46309D01*
X87039Y46303D01*
X87024Y46294D01*
X87002Y46281D01*
X86993Y46272D01*
X86984Y46269D01*
X86975Y46260D01*
X86911Y46223D01*
X86905Y46217D01*
X86885Y46210D01*
X86877Y46202D01*
X86857Y46194D01*
X86843Y46187D01*
X86804Y46168D01*
X86798Y46165D01*
X86791Y46159D01*
X86762Y46148D01*
X86758Y46144D01*
X86746Y46141D01*
X86730Y46135D01*
X86709Y46126D01*
X86682Y46113D01*
X86669Y46110D01*
X86642Y46098D01*
X86622Y46094D01*
X86608Y46086D01*
X86596Y46083D01*
X86579Y46078D01*
X86560Y46071D01*
X86547Y46068D01*
X86531Y46063D01*
X86515Y46057D01*
X86503Y46054D01*
X86485Y46051D01*
X86450Y46040D01*
X86428Y46037D01*
X86411Y46033D01*
X86386Y46025D01*
X86341Y46017D01*
X86329Y46014D01*
X86314Y46011D01*
X86286Y46008D01*
X86250Y46002D01*
X86234Y45999D01*
X86193Y45994D01*
X86172Y45991D01*
X86167Y45987D01*
X86164Y45965D01*
X86161Y45917D01*
X86158Y45907D01*
X86155Y45886D01*
X86152Y45874D01*
X86149Y45843D01*
X86143Y45828D01*
X86137Y45804D01*
X86134Y45785D01*
X86125Y45764D01*
X86122Y45752D01*
X86109Y45724D01*
X86102Y45704D01*
X86094Y45688D01*
X86088Y45672D01*
X86082Y45666D01*
X86073Y45642D01*
X86067Y45636D01*
X86061Y45621D01*
X86054Y45614D01*
X86051Y45608D01*
X86033Y45578D01*
X86030Y45572D01*
X86021Y45562D01*
X86018Y45556D01*
X86009Y45547D01*
X86000Y45532D01*
X85993Y45526D01*
X85990Y45520D01*
X85975Y45505D01*
X85972Y45498D01*
X85948Y45474D01*
X85945Y45468D01*
X85934Y45460D01*
X85928Y45451D01*
X85922Y45448D01*
X85917Y45443D01*
X85916Y45439D01*
X85909Y45436D01*
X85894Y45421D01*
X85888Y45417D01*
X85885Y45412D01*
X85879Y45408D01*
X85871Y45404D01*
X85868Y45398D01*
X85850Y45386D01*
X85845Y45381D01*
X85836Y45378D01*
X85832Y45373D01*
X85835Y45367D01*
X85839Y45363D01*
X85848Y45360D01*
X85864Y45350D01*
X85903Y45329D01*
X85919Y45320D01*
X85925Y45317D01*
X85931Y45311D01*
X85937Y45308D01*
X85952Y45298D01*
X85958Y45292D01*
X85974Y45283D01*
X86033Y45239D01*
X86041Y45231D01*
X86047Y45228D01*
X86071Y45204D01*
X86077Y45201D01*
X86083Y45192D01*
X86089Y45189D01*
X86137Y45141D01*
X86140Y45135D01*
X86167Y45108D01*
X86170Y45102D01*
X86180Y45092D01*
X86183Y45086D01*
X86204Y45059D01*
X86210Y45053D01*
X86219Y45038D01*
X86225Y45031D01*
X86228Y45022D01*
X86238Y45013D01*
X86250Y44992D01*
X86257Y44984D01*
X86276Y44987D01*
X86285Y44996D01*
X86302Y45001D01*
X86334Y45015D01*
X86346Y45018D01*
X86352Y45024D01*
X86364Y45027D01*
X86381Y45031D01*
X86398Y45039D01*
X86410Y45042D01*
X86428Y45045D01*
X86450Y45054D01*
X86479Y45059D01*
X86515Y45068D01*
X86540Y45071D01*
X86576Y45074D01*
X86604Y45077D01*
X86694Y45079D01*
X86703Y45076D01*
X86761Y45073D01*
X86782Y45070D01*
X86802Y45065D01*
X86819Y45061D01*
X86831Y45057D01*
X86859Y45054D01*
X86880Y45045D01*
X86892Y45042D01*
X86912Y45038D01*
X86929Y45030D01*
X86949Y45025D01*
X86969Y45015D01*
X86981Y45012D01*
X87008Y44999D01*
X87024Y44993D01*
X87030Y44987D01*
X87049Y44980D01*
X87069Y44969D01*
X87085Y44960D01*
X87112Y44945D01*
X87133Y44932D01*
X87139Y44926D01*
X87161Y44914D01*
X87199Y44888D01*
X87204Y44883D01*
X87219Y44874D01*
X87225Y44868D01*
X87231Y44865D01*
X87240Y44856D01*
X87246Y44853D01*
X87263Y44839D01*
X87274Y44831D01*
X87283Y44822D01*
X87289Y44819D01*
X87301Y44807D01*
X87307Y44804D01*
X87332Y44780D01*
X87338Y44777D01*
X87342Y44772D01*
X87344Y44767D01*
X87350Y44764D01*
X87443Y44671D01*
X87446Y44665D01*
X87455Y44659D01*
X87458Y44653D01*
X87486Y44625D01*
X87489Y44619D01*
X87501Y44607D01*
X87504Y44601D01*
X87525Y44580D01*
X87529Y44574D01*
X87544Y44552D01*
X87559Y44519D01*
X87564Y44484D01*
X87565Y44476D01*
X87562Y44467D01*
X87558Y44435D01*
X87555Y44423D01*
X87544Y44403D01*
X87541Y44397D01*
X87535Y44390D01*
X87532Y44384D01*
X87518Y44368D01*
X87506Y44355D01*
X87490Y44346D01*
X87484Y44340D01*
X87468Y44336D01*
X87451Y44328D01*
X87439Y44325D01*
X87396Y44328D01*
X87362Y44346D01*
X87356Y44352D01*
X87350Y44355D01*
X87327Y44378D01*
X87324Y44384D01*
X87312Y44397D01*
X87309Y44403D01*
X87297Y44415D01*
X87294Y44421D01*
X87278Y44436D01*
X87275Y44442D01*
X87254Y44464D01*
X87251Y44470D01*
X87236Y44485D01*
X87233Y44491D01*
X87220Y44503D01*
X87217Y44510D01*
X87213Y44514D01*
X87208Y44516D01*
X87205Y44522D01*
X87097Y44630D01*
X87091Y44633D01*
X87075Y44648D01*
X87069Y44651D01*
X87060Y44661D01*
X87054Y44664D01*
X87042Y44676D01*
X87036Y44679D01*
X87027Y44688D01*
X87020Y44691D01*
X86999Y44706D01*
X86993Y44710D01*
X86984Y44719D01*
X86969Y44728D01*
X86947Y44740D01*
X86941Y44746D01*
X86921Y44754D01*
X86914Y44761D01*
X86897Y44766D01*
X86892Y44771D01*
X86886Y44774D01*
X86871Y44780D01*
X86859Y44783D01*
X86853Y44789D01*
X86828Y44795D01*
X86808Y44803D01*
X86791Y44807D01*
X86770Y44810D01*
X86758Y44813D01*
X86737Y44819D01*
X86679Y44822D01*
X86611Y44819D01*
X86602Y44816D01*
X86581Y44810D01*
X86541Y44804D01*
X86520Y44795D01*
X86496Y44789D01*
X86474Y44780D01*
X86454Y44772D01*
X86450Y44767D01*
X86437Y44764D01*
X86398Y44743D01*
X86372Y44729D01*
X86375Y44690D01*
X86384Y44668D01*
X86389Y44633D01*
X86392Y44615D01*
X86395Y44603D01*
X86398Y44587D01*
X86401Y44557D01*
X86404Y44502D01*
X86405Y44390D01*
X86402Y44381D01*
X86399Y44308D01*
X86396Y44299D01*
X86392Y44279D01*
X86389Y44267D01*
X86386Y44239D01*
X86383Y44224D01*
X86372Y44189D01*
X86367Y44163D01*
X86360Y44146D01*
X86357Y44134D01*
X86352Y44117D01*
X86344Y44101D01*
X86340Y44084D01*
X86346Y44075D01*
X86375Y44070D01*
X86392Y44065D01*
X86404Y44062D01*
X86444Y44056D01*
X86465Y44047D01*
X86494Y44043D01*
X86509Y44036D01*
X86526Y44032D01*
X86546Y44027D01*
X86563Y44020D01*
X86575Y44017D01*
X86592Y44012D01*
X86608Y44004D01*
X86621Y44001D01*
X86648Y43989D01*
X86660Y43986D01*
X86666Y43983D01*
X86694Y43971D01*
X86700Y43968D01*
X86752Y43943D01*
X86791Y43922D01*
X86825Y43904D01*
X86868Y43879D01*
X86874Y43873D01*
X86895Y43861D01*
X86924Y43841D01*
X86941Y43830D01*
X87001Y43786D01*
X87005Y43782D01*
X87011Y43779D01*
X87020Y43769D01*
X87027Y43766D01*
X87039Y43754D01*
X87045Y43751D01*
X87057Y43739D01*
X87063Y43736D01*
X87078Y43721D01*
X87085Y43718D01*
X87109Y43693D01*
X87115Y43690D01*
X87123Y43679D01*
X87132Y43673D01*
X87135Y43667D01*
X87139Y43663D01*
X87144Y43661D01*
X87147Y43655D01*
X87190Y43612D01*
X87193Y43606D01*
X87205Y43594D01*
X87208Y43588D01*
X87223Y43573D01*
X87226Y43567D01*
X87239Y43554D01*
X87242Y43548D01*
X87251Y43539D01*
X87254Y43533D01*
X87263Y43524D01*
X87272Y43508D01*
X87278Y43502D01*
X87281Y43496D01*
X87291Y43487D01*
X87294Y43481D01*
X87309Y43460D01*
X87318Y43444D01*
X87324Y43438D01*
X87327Y43429D01*
X87336Y43420D01*
X87361Y43377D01*
X87376Y43350D01*
X87388Y43328D01*
X87428Y43246D01*
X87440Y43218D01*
X87443Y43179D01*
X87440Y43139D01*
X87428Y43121D01*
X87425Y43109D01*
X87413Y43096D01*
X87410Y43090D01*
X87405Y43083D01*
X87399Y43080D01*
X87384Y43064D01*
X87368Y43055D01*
X87347Y43046D01*
X87332Y43040D01*
X87319Y43037D01*
X87289Y43034D01*
X87277Y43037D01*
X87258Y43040D01*
X87252Y43046D01*
X87240Y43049D01*
X87213Y43071D01*
X87205Y43078D01*
X87202Y43084D01*
X87196Y43090D01*
X87184Y43112D01*
X87153Y43170D01*
X87138Y43197D01*
X87126Y43218D01*
X87120Y43225D01*
X87117Y43237D01*
X87107Y43246D01*
X87095Y43267D01*
X87080Y43289D01*
X87060Y43318D01*
X87053Y43328D01*
X87046Y43334D01*
X87037Y43350D01*
X87031Y43356D01*
X87022Y43371D01*
X87016Y43377D01*
X87013Y43383D01*
X86988Y43408D01*
X86985Y43414D01*
X86970Y43429D01*
X86967Y43435D01*
X86886Y43516D01*
X86880Y43519D01*
X86865Y43534D01*
X86859Y43538D01*
X86847Y43550D01*
X86840Y43553D01*
X86837Y43559D01*
X86831Y43562D01*
X86814Y43576D01*
X86798Y43586D01*
X86791Y43592D01*
X86785Y43595D01*
X86776Y43605D01*
X86755Y43617D01*
X86721Y43638D01*
X86715Y43641D01*
X86709Y43647D01*
X86689Y43655D01*
X86682Y43663D01*
X86662Y43670D01*
X86654Y43678D01*
X86637Y43682D01*
X86618Y43693D01*
X86578Y43711D01*
X86550Y43724D01*
X86534Y43728D01*
X86529Y43733D01*
X86508Y43739D01*
X86477Y43751D01*
X86453Y43757D01*
X86431Y43766D01*
X86409Y43771D01*
X86393Y43777D01*
X86376Y43782D01*
X86353Y43786D01*
X86328Y43794D01*
X86306Y43797D01*
X86286Y43802D01*
X86270Y43806D01*
X86257Y43809D01*
X86227Y43812D01*
X86207Y43817D01*
X86193Y43818D01*
X86180Y43808D01*
X86177Y43802D01*
X86164Y43789D01*
X86161Y43783D01*
X86137Y43759D01*
X86134Y43753D01*
X86125Y43747D01*
X86122Y43740D01*
X86074Y43693D01*
X86068Y43690D01*
X86044Y43666D01*
X86038Y43663D01*
X86026Y43650D01*
X86019Y43647D01*
X86010Y43638D01*
X85995Y43629D01*
X85986Y43620D01*
X85980Y43617D01*
X85974Y43611D01*
X85952Y43598D01*
X85946Y43592D01*
X85931Y43583D01*
X85909Y43571D01*
X85903Y43565D01*
X85888Y43559D01*
X85870Y43547D01*
X85861Y43544D01*
X85845Y43534D01*
X85830Y43528D01*
X85815Y43519D01*
X85803Y43516D01*
X85784Y43504D01*
X85766Y43501D01*
X85751Y43492D01*
X85726Y43486D01*
X85705Y43476D01*
X85693Y43473D01*
X85673Y43466D01*
X85656Y43461D01*
X85624Y43453D01*
X85610Y43449D01*
X85568Y43443D01*
X85543Y43437D01*
X85522Y43434D01*
X85510Y43431D01*
X85420Y43426D01*
X85345Y43424D01*
X85336Y43428D01*
X85249Y43432D01*
X85230Y43435D01*
X85215Y43438D01*
X85203Y43441D01*
X85185Y43444D01*
X85151Y43450D01*
X85125Y43458D01*
X85093Y43466D01*
X85076Y43473D01*
X85053Y43478D01*
X85027Y43489D01*
X85011Y43493D01*
X85006Y43498D01*
X84991Y43504D01*
X84975Y43507D01*
X84966Y43516D01*
X84947Y43521D01*
X84942Y43525D01*
X84936Y43528D01*
X84921Y43534D01*
X84914Y43538D01*
X84908Y43544D01*
X84888Y43551D01*
X84884Y43556D01*
X84878Y43559D01*
X84835Y43583D01*
X84829Y43589D01*
X84814Y43598D01*
X84808Y43605D01*
X84786Y43617D01*
X84769Y43631D01*
X84765Y43635D01*
X84750Y43644D01*
X84744Y43650D01*
X84737Y43653D01*
X84725Y43666D01*
X84719Y43669D01*
X84695Y43693D01*
X84689Y43696D01*
X84684Y43701D01*
X84683Y43705D01*
X84676Y43708D01*
X84641Y43744D01*
X84638Y43750D01*
X84629Y43756D01*
X84626Y43762D01*
X84602Y43786D01*
X84599Y43792D01*
X84586Y43804D01*
X84583Y43811D01*
X84576Y43818D01*
X84545Y43815D01*
X84536Y43812D01*
X84498Y43808D01*
X84472Y43800D01*
X84460Y43797D01*
X84431Y43792D01*
X84405Y43785D01*
X84393Y43782D01*
X84374Y43779D01*
X84353Y43769D01*
X84321Y43762D01*
X84304Y43754D01*
X84284Y43750D01*
X84267Y43742D01*
X84255Y43739D01*
X84240Y43733D01*
X84219Y43724D01*
X84199Y43716D01*
X84182Y43708D01*
X84173Y43705D01*
X84158Y43696D01*
X84138Y43688D01*
X84133Y43684D01*
X84113Y43676D01*
X84090Y43663D01*
X84057Y43644D01*
X84042Y43635D01*
X84035Y43632D01*
X84029Y43626D01*
X84023Y43623D01*
X83985Y43597D01*
X83967Y43585D01*
X83959Y43577D01*
X83944Y43568D01*
X83938Y43562D01*
X83932Y43559D01*
X83923Y43550D01*
X83916Y43547D01*
X83901Y43531D01*
X83895Y43528D01*
X83892Y43522D01*
X83886Y43519D01*
X83871Y43504D01*
X83865Y43501D01*
X83808Y43444D01*
X83805Y43438D01*
X83790Y43423D01*
X83788Y43418D01*
X83782Y43415D01*
X83775Y43405D01*
X83762Y43393D01*
X83759Y43386D01*
X83750Y43377D01*
X83747Y43371D01*
X83738Y43362D01*
X83735Y43356D01*
X83721Y43339D01*
X83714Y43328D01*
X83707Y43322D01*
X83698Y43307D01*
X83686Y43286D01*
X83677Y43277D01*
X83668Y43261D01*
X83656Y43240D01*
X83649Y43234D01*
X83625Y43191D01*
X83610Y43164D01*
X83591Y43130D01*
X83567Y43084D01*
X83555Y43072D01*
X83553Y43067D01*
X83547Y43064D01*
X83535Y43052D01*
X83515Y43045D01*
X83498Y43037D01*
X83465Y43034D01*
X83456Y43037D01*
X83434Y43040D01*
X83413Y43049D01*
X83398Y43058D01*
X83376Y43074D01*
X83359Y43087D01*
X83338Y43118D01*
X83326Y43145D01*
X83323Y43167D01*
X83326Y43225D01*
X83338Y43243D01*
X83341Y43258D01*
X83353Y43277D01*
X83356Y43289D01*
X83363Y43295D01*
X83369Y43310D01*
X83378Y43325D01*
X83393Y43353D01*
X83405Y43374D01*
X83420Y43402D01*
X83427Y43408D01*
X83430Y43417D01*
X83439Y43426D01*
X83451Y43447D01*
X83482Y43490D01*
X83495Y43507D01*
X83506Y43524D01*
X83512Y43530D01*
X83515Y43536D01*
X83529Y43553D01*
X83536Y43563D01*
X83558Y43585D01*
X83561Y43591D01*
X83573Y43603D01*
X83576Y43609D01*
X83607Y43640D01*
X83610Y43646D01*
X83657Y43693D01*
X83663Y43696D01*
X83688Y43721D01*
X83694Y43724D01*
X83712Y43742D01*
X83718Y43745D01*
X83727Y43754D01*
X83733Y43757D01*
X83736Y43763D01*
X83742Y43766D01*
X83753Y43774D01*
X83755Y43779D01*
X83761Y43782D01*
X83778Y43795D01*
X83794Y43806D01*
X83801Y43812D01*
X83807Y43815D01*
X83816Y43824D01*
X83831Y43834D01*
X83862Y43855D01*
X83877Y43864D01*
X83898Y43876D01*
X83904Y43882D01*
X83926Y43895D01*
X83981Y43925D01*
X84020Y43943D01*
X84035Y43953D01*
X84051Y43959D01*
X84084Y43974D01*
X84112Y43986D01*
X84124Y43989D01*
X84152Y44001D01*
X84191Y44017D01*
X84210Y44020D01*
X84231Y44029D01*
X84255Y44035D01*
X84271Y44041D01*
X84283Y44044D01*
X84315Y44052D01*
X84341Y44059D01*
X84373Y44064D01*
X84385Y44067D01*
X84402Y44072D01*
X84422Y44076D01*
X84428Y44082D01*
X84425Y44094D01*
X84422Y44104D01*
X84414Y44124D01*
X84409Y44137D01*
X84406Y44149D01*
X84399Y44169D01*
X84394Y44186D01*
X84390Y44212D01*
X84382Y44232D01*
X84379Y44262D01*
X84368Y44313D01*
X84365Y44346D01*
X84362Y44398D01*
X84360Y44494D01*
X84364Y44503D01*
X84367Y44583D01*
X84370Y44592D01*
X84376Y44616D01*
X84379Y44647D01*
X84385Y44674D01*
X84391Y44690D01*
X84394Y44711D01*
X84397Y44723D01*
X84394Y44729D01*
X84390Y44734D01*
X84374Y44743D01*
X84347Y44758D01*
X84301Y44780D01*
X84289Y44783D01*
X84283Y44789D01*
X84271Y44792D01*
X84254Y44796D01*
X84238Y44803D01*
X84222Y44807D01*
X84196Y44812D01*
X84179Y44816D01*
X84158Y44819D01*
X84109Y44822D01*
X84052Y44818D01*
X84037Y44815D01*
X84025Y44812D01*
X84010Y44809D01*
X83985Y44806D01*
X83970Y44800D01*
X83953Y44795D01*
X83929Y44789D01*
X83907Y44780D01*
X83892Y44774D01*
X83865Y44761D01*
X83859Y44758D01*
X83852Y44752D01*
X83833Y44745D01*
X83825Y44737D01*
X83805Y44729D01*
X83797Y44722D01*
X83782Y44712D01*
X83753Y44693D01*
X83735Y44681D01*
X83730Y44676D01*
X83724Y44673D01*
X83712Y44661D01*
X83706Y44658D01*
X83694Y44645D01*
X83688Y44642D01*
X83675Y44630D01*
X83669Y44627D01*
X83657Y44615D01*
X83651Y44612D01*
X83646Y44607D01*
X83645Y44603D01*
X83639Y44600D01*
X83561Y44522D01*
X83558Y44516D01*
X83543Y44500D01*
X83539Y44494D01*
X83515Y44470D01*
X83512Y44464D01*
X83497Y44449D01*
X83494Y44442D01*
X83472Y44421D01*
X83469Y44415D01*
X83457Y44403D01*
X83454Y44397D01*
X83445Y44388D01*
X83442Y44381D01*
X83436Y44375D01*
X83434Y44371D01*
X83428Y44368D01*
X83424Y44363D01*
X83420Y44357D01*
X83398Y44340D01*
X83358Y44325D01*
X83312Y44328D01*
X83272Y44349D01*
X83253Y44363D01*
X83250Y44369D01*
X83240Y44375D01*
X83237Y44381D01*
X83222Y44403D01*
X83207Y44436D01*
X83204Y44485D01*
X83207Y44522D01*
X83228Y44561D01*
X83237Y44571D01*
X83240Y44577D01*
X83250Y44586D01*
X83253Y44592D01*
X83265Y44604D01*
X83268Y44610D01*
X83283Y44625D01*
X83286Y44632D01*
X83311Y44656D01*
X83314Y44662D01*
X83323Y44668D01*
X83326Y44674D01*
X83419Y44767D01*
X83425Y44771D01*
X83428Y44777D01*
X83434Y44780D01*
X83462Y44807D01*
X83468Y44810D01*
X83480Y44822D01*
X83486Y44826D01*
X83495Y44835D01*
X83501Y44838D01*
X83511Y44847D01*
X83517Y44850D01*
X83533Y44864D01*
X83544Y44871D01*
X83550Y44877D01*
X83565Y44886D01*
X83572Y44893D01*
X83587Y44902D01*
X83593Y44908D01*
X83614Y44920D01*
X83648Y44941D01*
X83663Y44951D01*
X83684Y44963D01*
X83761Y44999D01*
X83788Y45012D01*
X83808Y45019D01*
X83825Y45027D01*
X83842Y45031D01*
X83857Y45038D01*
X83890Y45047D01*
X83906Y45053D01*
X83921Y45056D01*
X83958Y45062D01*
X83974Y45067D01*
X83987Y45070D01*
X84026Y45073D01*
X84057Y45076D01*
X84096Y45079D01*
X84182Y45076D01*
X84191Y45073D01*
X84249Y45070D01*
X84258Y45067D01*
X84280Y45061D01*
X84292Y45057D01*
X84321Y45053D01*
X84336Y45047D01*
X84353Y45042D01*
X84371Y45039D01*
X84399Y45027D01*
X84414Y45024D01*
X84441Y45012D01*
X84454Y45009D01*
X84460Y45002D01*
X84484Y44993D01*
X84499Y44984D01*
X84515Y44987D01*
X84519Y44992D01*
X84528Y45010D01*
X84530Y45012D01*
D02*
G37*
G36*
X243244Y53740D02*
Y59252D01*
X246197D01*
X248756Y56693D01*
Y53740D01*
X243244D01*
D02*
G37*
D25*
X124350Y83858D02*
D03*
X155650D02*
D03*
X124350Y33858D02*
D03*
X155650D02*
D03*
Y16142D02*
D03*
X124350D02*
D03*
X155650Y66142D02*
D03*
X124350D02*
D03*
D29*
X24764Y9409D02*
D03*
Y34606D02*
D03*
Y65394D02*
D03*
Y90591D02*
D03*
Y68543D02*
D03*
Y87441D02*
D03*
Y12559D02*
D03*
Y31457D02*
D03*
D31*
X71000Y69459D02*
D03*
Y84541D02*
D03*
X72969D02*
D03*
X69032D02*
D03*
X67063D02*
D03*
Y69459D02*
D03*
X69032D02*
D03*
X72969D02*
D03*
X74937D02*
D03*
D34*
X78541Y78969D02*
D03*
Y77000D02*
D03*
X63459Y80937D02*
D03*
Y78969D02*
D03*
Y77000D02*
D03*
Y75032D02*
D03*
Y73063D02*
D03*
X78541D02*
D03*
Y75032D02*
D03*
Y80937D02*
D03*
D35*
X24764Y84882D02*
D03*
Y82913D02*
D03*
Y80945D02*
D03*
Y78976D02*
D03*
Y77008D02*
D03*
Y75039D02*
D03*
Y73071D02*
D03*
Y71102D02*
D03*
Y28898D02*
D03*
Y26929D02*
D03*
Y24961D02*
D03*
Y22992D02*
D03*
Y21024D02*
D03*
Y19055D02*
D03*
Y17087D02*
D03*
Y15118D02*
D03*
D36*
X74937Y84541D02*
D03*
D37*
X104258Y69240D02*
D03*
X104758Y83240D02*
D03*
D38*
X104258Y61760D02*
D03*
X111742Y65500D02*
D03*
X104758Y75760D02*
D03*
X112242Y79500D02*
D03*
D39*
X42500Y62000D02*
D03*
X45886D02*
D03*
X72307Y56000D02*
D03*
X75693D02*
D03*
X258693Y84500D02*
D03*
X246807D02*
D03*
X44693Y36500D02*
D03*
X51707Y85400D02*
D03*
X52807Y68500D02*
D03*
X89693Y82000D02*
D03*
X266693Y84500D02*
D03*
X261307Y13500D02*
D03*
X75693Y61000D02*
D03*
X72307D02*
D03*
X264693Y13500D02*
D03*
X263307Y84500D02*
D03*
X86307Y82000D02*
D03*
X56193Y68500D02*
D03*
X55093Y85400D02*
D03*
X41307Y36500D02*
D03*
X250193Y84500D02*
D03*
X255307D02*
D03*
D40*
X195998Y44187D02*
D03*
X199400D02*
D03*
X195801Y52500D02*
D03*
X192399D02*
D03*
X196000Y44187D02*
D03*
X192598D02*
D03*
X89701Y62000D02*
D03*
Y57000D02*
D03*
X188799Y80000D02*
D03*
X192201D02*
D03*
X188799Y85000D02*
D03*
X192201D02*
D03*
X71601Y51000D02*
D03*
X68199D02*
D03*
X64799D02*
D03*
X68201D02*
D03*
X89701Y87000D02*
D03*
X86299D02*
D03*
X51799Y73000D02*
D03*
X55201D02*
D03*
X51799Y79400D02*
D03*
X55201D02*
D03*
X86299Y57000D02*
D03*
Y67000D02*
D03*
X89701D02*
D03*
X86299Y62000D02*
D03*
X205701Y14000D02*
D03*
X202299D02*
D03*
X214701D02*
D03*
X211299D02*
D03*
X199201Y52500D02*
D03*
X195799D02*
D03*
D41*
X267063Y77559D02*
D03*
X211945D02*
D03*
X267063Y22441D02*
D03*
X211945D02*
D03*
D42*
X262929Y77559D02*
D03*
X259583D02*
D03*
X252890Y22441D02*
D03*
X256236D02*
D03*
X262929D02*
D03*
X259583D02*
D03*
X249543D02*
D03*
X246197D02*
D03*
X242850D02*
D03*
X239504D02*
D03*
X236157D02*
D03*
X232811D02*
D03*
X229465D02*
D03*
X226118D02*
D03*
X222772D02*
D03*
X219425D02*
D03*
X216079D02*
D03*
Y77559D02*
D03*
X219425D02*
D03*
X222772D02*
D03*
X226118D02*
D03*
X229465D02*
D03*
X232811D02*
D03*
X236157D02*
D03*
X239504D02*
D03*
X242850D02*
D03*
X246197D02*
D03*
X249543D02*
D03*
X252890D02*
D03*
X256236D02*
D03*
D43*
X267063Y26575D02*
D03*
Y29921D02*
D03*
Y33268D02*
D03*
Y36614D02*
D03*
Y39961D02*
D03*
Y43307D02*
D03*
Y46654D02*
D03*
Y50000D02*
D03*
Y53347D02*
D03*
Y56693D02*
D03*
Y60039D02*
D03*
Y63386D02*
D03*
Y66732D02*
D03*
Y70079D02*
D03*
Y73425D02*
D03*
X211945Y26575D02*
D03*
Y29921D02*
D03*
Y33268D02*
D03*
Y36614D02*
D03*
Y39961D02*
D03*
Y43307D02*
D03*
Y46654D02*
D03*
Y50000D02*
D03*
Y53347D02*
D03*
Y56693D02*
D03*
Y60039D02*
D03*
Y63386D02*
D03*
Y66732D02*
D03*
Y70079D02*
D03*
Y73425D02*
D03*
D44*
X239504Y50000D02*
D03*
X246000D02*
D03*
Y43504D02*
D03*
X239504D02*
D03*
X233008D02*
D03*
Y50000D02*
D03*
Y56496D02*
D03*
X239504D02*
D03*
D45*
X166000Y63000D02*
D03*
Y14307D02*
D03*
X58000Y34307D02*
D03*
X53000Y24193D02*
D03*
X58500D02*
D03*
X64000Y59307D02*
D03*
Y62693D02*
D03*
X58500Y20807D02*
D03*
X53000D02*
D03*
X58000Y37693D02*
D03*
X166000Y17693D02*
D03*
Y66386D02*
D03*
D46*
X43000Y16701D02*
D03*
Y24299D02*
D03*
Y74701D02*
D03*
Y80299D02*
D03*
X179000Y81701D02*
D03*
Y78299D02*
D03*
Y21701D02*
D03*
Y18299D02*
D03*
X59700Y59200D02*
D03*
Y62602D02*
D03*
X43000Y83701D02*
D03*
Y71299D02*
D03*
Y27701D02*
D03*
Y13299D02*
D03*
X98000Y71201D02*
D03*
Y67799D02*
D03*
X166000Y23799D02*
D03*
Y27201D02*
D03*
X96000Y76299D02*
D03*
Y79701D02*
D03*
D47*
X33220Y36500D02*
D03*
X30220Y62000D02*
D03*
X32779D02*
D03*
X35780Y36500D02*
D03*
D48*
X33500Y24559D02*
D03*
Y15500D02*
D03*
X34000Y83780D02*
D03*
Y71720D02*
D03*
Y74279D02*
D03*
Y81221D02*
D03*
X33500Y18059D02*
D03*
Y22000D02*
D03*
D49*
X171000Y18130D02*
D03*
Y21870D02*
D03*
X173000Y78130D02*
D03*
Y81870D02*
D03*
D50*
X71000Y77000D02*
D03*
D51*
X65697Y29000D02*
D03*
Y19945D02*
D03*
Y38055D02*
D03*
D52*
X90303Y29000D02*
D03*
D53*
X6752Y39016D02*
D03*
Y5000D02*
D03*
Y95000D02*
D03*
Y60984D02*
D03*
D54*
X22500Y39016D02*
D03*
Y5000D02*
D03*
Y95000D02*
D03*
Y60984D02*
D03*
D55*
X265000Y95000D02*
D03*
Y5000D02*
D03*
D56*
X45000Y95000D02*
D03*
X255000Y5000D02*
D03*
X35000D02*
D03*
X45000D02*
D03*
X55000D02*
D03*
X65000D02*
D03*
X75000D02*
D03*
X85000D02*
D03*
X95000D02*
D03*
X105000D02*
D03*
X115000D02*
D03*
X125000D02*
D03*
X135000D02*
D03*
X145000D02*
D03*
X155000D02*
D03*
X165000D02*
D03*
X175000D02*
D03*
X185000D02*
D03*
X195000D02*
D03*
X205000D02*
D03*
X215000D02*
D03*
X225000D02*
D03*
X235000D02*
D03*
X245000D02*
D03*
X35000Y95000D02*
D03*
X55000D02*
D03*
X65000D02*
D03*
X75000D02*
D03*
X85000D02*
D03*
X95000D02*
D03*
X105000D02*
D03*
X115000D02*
D03*
X125000D02*
D03*
X135000D02*
D03*
X145000D02*
D03*
X155000D02*
D03*
X165000D02*
D03*
X175000D02*
D03*
X185000D02*
D03*
X195000D02*
D03*
X205000D02*
D03*
X215000D02*
D03*
X225000D02*
D03*
X235000D02*
D03*
X245000D02*
D03*
X255000D02*
D03*
D57*
X137500Y50000D02*
D03*
D58*
X142500D02*
D03*
X37500D02*
D03*
Y45000D02*
D03*
D59*
Y55000D02*
D03*
M02*
