G04*
G04 #@! TF.GenerationSoftware,Altium Limited,Altium Designer,24.5.2 (23)*
G04*
G04 Layer_Color=65535*
%FSLAX25Y25*%
%MOIN*%
G70*
G04*
G04 #@! TF.SameCoordinates,93A3EEE5-7AF5-460B-8448-28A0194370DD*
G04*
G04*
G04 #@! TF.FilePolarity,Positive*
G04*
G01*
G75*
%ADD10C,0.00984*%
%ADD11C,0.00787*%
%ADD12C,0.01000*%
%ADD13C,0.00600*%
%ADD14C,0.00500*%
%ADD15C,0.00394*%
%ADD16R,0.05600X0.01456*%
D10*
X66189Y41992D02*
G03*
X66189Y41992I-492J0D01*
G01*
X29783Y90571D02*
G03*
X29783Y90571I-492J0D01*
G01*
X78992Y88000D02*
G03*
X78992Y88000I-492J0D01*
G01*
X29783Y34587D02*
G03*
X29783Y34587I-492J0D01*
G01*
X161358Y16142D02*
G03*
X161358Y16142I-492J0D01*
G01*
Y66142D02*
G03*
X161358Y66142I-492J0D01*
G01*
D11*
X275394Y84500D02*
G03*
X275394Y84500I-394J0D01*
G01*
X70323Y15811D02*
X85677D01*
X70323Y42189D02*
X85677D01*
Y15811D02*
Y42189D01*
X70323Y15811D02*
Y42189D01*
X12559Y95984D02*
X17480D01*
X-1909D02*
X945D01*
X-1909Y60000D02*
Y95984D01*
X12559Y60000D02*
X17480D01*
X-1909D02*
X945D01*
X63126Y69126D02*
Y71095D01*
Y69126D02*
X65095D01*
X78874D02*
Y71095D01*
X76906Y69126D02*
X78874D01*
X63126Y82906D02*
Y84874D01*
X65095D01*
X78874Y82906D02*
Y84874D01*
X76906D02*
X78874D01*
X12559Y40000D02*
X17480D01*
X-1909D02*
X945D01*
X-1909Y4016D02*
Y40000D01*
X12559Y4016D02*
X17480D01*
X-1909D02*
X945D01*
X108000Y59791D02*
X110559D01*
Y62646D01*
X108000Y71209D02*
X110559D01*
Y68354D02*
Y71209D01*
X108500Y73791D02*
X111059D01*
Y76646D01*
X108500Y85209D02*
X111059D01*
Y82354D02*
Y85209D01*
X128878Y13189D02*
X151122D01*
X128189Y20177D02*
Y29823D01*
X128878Y36811D02*
X151122D01*
X151811Y20177D02*
Y29823D01*
X128878Y63189D02*
X151122D01*
X128189Y70177D02*
Y79823D01*
X128878Y86811D02*
X151122D01*
X151811Y70177D02*
Y79823D01*
D12*
X224500Y10000D02*
Y12500D01*
X174905Y10122D02*
Y12622D01*
X74905Y9622D02*
Y12122D01*
X124705Y9822D02*
Y12322D01*
X224905Y88122D02*
Y90622D01*
X125000Y88000D02*
Y90500D01*
X75000Y89000D02*
Y90500D01*
D13*
X40493Y59900D02*
X47893D01*
X40493D02*
Y64100D01*
X47893D01*
Y59900D02*
Y64100D01*
X201499Y41987D02*
Y46387D01*
X193899D02*
X201499D01*
X193899Y41987D02*
X201499D01*
X190300Y50300D02*
Y54700D01*
Y50300D02*
X197900D01*
X190300Y54700D02*
X197900D01*
X190499Y41987D02*
Y46387D01*
Y41987D02*
X198099D01*
X190499Y46387D02*
X198099D01*
X70300Y53900D02*
X77700D01*
X70300D02*
Y58100D01*
X77700D01*
Y53900D02*
Y58100D01*
X186700Y82200D02*
X194300D01*
Y77800D02*
Y82200D01*
X186700Y77800D02*
X194300D01*
X186700D02*
Y82200D01*
Y87200D02*
X194300D01*
Y82800D02*
Y87200D01*
X186700Y82800D02*
X194300D01*
X186700D02*
Y87200D01*
X146500Y45750D02*
Y54250D01*
X133500D02*
X146500D01*
X133500Y45750D02*
X146500D01*
X133500D02*
Y54250D01*
X66100Y48800D02*
X73700D01*
X66100Y53200D02*
X73700D01*
Y48800D02*
Y53200D01*
X62700D02*
X70300D01*
X62700Y48800D02*
X70300D01*
X62700D02*
Y53200D01*
X77700Y58900D02*
Y63100D01*
X70300D02*
X77700D01*
X70300Y58900D02*
Y63100D01*
Y58900D02*
X77700D01*
X259300Y11400D02*
Y15600D01*
Y11400D02*
X266700D01*
Y15600D01*
X259300D02*
X266700D01*
X268700Y82400D02*
Y86600D01*
X261300D02*
X268700D01*
X261300Y82400D02*
Y86600D01*
Y82400D02*
X268700D01*
X181200Y76200D02*
Y83800D01*
X176800Y76200D02*
X181200D01*
X176800D02*
Y83800D01*
X181200D01*
Y16200D02*
Y23800D01*
X176800Y16200D02*
X181200D01*
X176800D02*
Y23800D01*
X181200D01*
X84200Y84800D02*
X91800D01*
X84200D02*
Y89200D01*
X91800D01*
Y84800D02*
Y89200D01*
X49700Y75200D02*
X57300D01*
Y70800D02*
Y75200D01*
X49700Y70800D02*
X57300D01*
X49700D02*
Y75200D01*
Y81600D02*
X57300D01*
Y77200D02*
Y81600D01*
X49700Y77200D02*
X57300D01*
X49700D02*
Y81600D01*
X57500Y57101D02*
Y64701D01*
X61900D01*
Y57101D02*
Y64701D01*
X57500Y57101D02*
X61900D01*
X168500Y14900D02*
Y24300D01*
X173500D01*
Y14900D02*
Y24300D01*
X168500Y14900D02*
X173500D01*
X175500Y75700D02*
Y85100D01*
X170500Y75700D02*
X175500D01*
X170500D02*
Y85100D01*
X175500D01*
X84200Y59200D02*
X91800D01*
Y54800D02*
Y59200D01*
X84200Y54800D02*
X91800D01*
X84200D02*
Y59200D01*
Y69200D02*
X91800D01*
Y64800D02*
Y69200D01*
X84200Y64800D02*
X91800D01*
X84200D02*
Y69200D01*
X91700Y79900D02*
Y84100D01*
X84300D02*
X91700D01*
X84300Y79900D02*
Y84100D01*
Y79900D02*
X91700D01*
X61900Y57300D02*
X66100D01*
Y64700D01*
X61900D02*
X66100D01*
X61900Y57300D02*
Y64700D01*
X50800Y66400D02*
Y70600D01*
Y66400D02*
X58200D01*
Y70600D01*
X50800D02*
X58200D01*
X31700Y69900D02*
Y76100D01*
X36300D01*
Y69900D02*
Y76100D01*
X31700Y69900D02*
X36300D01*
Y79400D02*
Y85600D01*
X31700Y79400D02*
X36300D01*
X31700D02*
Y85600D01*
X36300D01*
X28400Y64300D02*
X34600D01*
Y59700D02*
Y64300D01*
X28400Y59700D02*
X34600D01*
X28400D02*
Y64300D01*
X40800Y78200D02*
Y85800D01*
X45200D01*
Y78200D02*
Y85800D01*
X40800Y78200D02*
X45200D01*
Y69200D02*
Y76800D01*
X40800Y69200D02*
X45200D01*
X40800D02*
Y76800D01*
X45200D01*
X49700Y83300D02*
Y87500D01*
Y83300D02*
X57100D01*
Y87500D01*
X49700D02*
X57100D01*
X84200Y64200D02*
X91800D01*
Y59800D02*
Y64200D01*
X84200Y59800D02*
X91800D01*
X84200D02*
Y64200D01*
X46700Y34400D02*
Y38600D01*
X39300D02*
X46700D01*
X39300Y34400D02*
Y38600D01*
Y34400D02*
X46700D01*
X33250Y59000D02*
X41750D01*
Y41000D02*
Y59000D01*
X33250Y41000D02*
X41750D01*
X33250D02*
Y59000D01*
X56400Y26200D02*
X60600D01*
X56400Y18800D02*
Y26200D01*
Y18800D02*
X60600D01*
Y26200D01*
X50900D02*
X55100D01*
X50900Y18800D02*
Y26200D01*
Y18800D02*
X55100D01*
Y26200D01*
X55900Y32300D02*
X60100D01*
Y39700D01*
X55900D02*
X60100D01*
X55900Y32300D02*
Y39700D01*
X31200Y13679D02*
Y19880D01*
X35800D01*
Y13679D02*
Y19880D01*
X31200Y13679D02*
X35800D01*
Y20179D02*
Y26379D01*
X31200Y20179D02*
X35800D01*
X31200D02*
Y26379D01*
X35800D01*
X31400Y38800D02*
X37600D01*
Y34200D02*
Y38800D01*
X31400Y34200D02*
X37600D01*
X31400D02*
Y38800D01*
X40800Y22200D02*
Y29800D01*
X45200D01*
Y22200D02*
Y29800D01*
X40800Y22200D02*
X45200D01*
Y11200D02*
Y18800D01*
X40800Y11200D02*
X45200D01*
X40800D02*
Y18800D01*
X45200D01*
X244800Y82400D02*
Y86600D01*
Y82400D02*
X252200D01*
Y86600D01*
X244800D02*
X252200D01*
X260700Y82400D02*
Y86600D01*
X253300D02*
X260700D01*
X253300Y82400D02*
Y86600D01*
Y82400D02*
X260700D01*
X100200Y65700D02*
Y73300D01*
X95800Y65700D02*
X100200D01*
X95800D02*
Y73300D01*
X100200D01*
X163800Y21700D02*
Y29300D01*
X168200D01*
Y21700D02*
Y29300D01*
X163800Y21700D02*
X168200D01*
X93800Y74200D02*
Y81800D01*
X98200D01*
Y74200D02*
Y81800D01*
X93800Y74200D02*
X98200D01*
X200200Y11800D02*
X207800D01*
X200200D02*
Y16200D01*
X207800D01*
Y11800D02*
Y16200D01*
X209200Y11800D02*
X216800D01*
X209200D02*
Y16200D01*
X216800D01*
Y11800D02*
Y16200D01*
X163900Y12300D02*
X168100D01*
Y19700D01*
X163900D02*
X168100D01*
X163900Y12300D02*
Y19700D01*
Y60993D02*
X168100D01*
Y68393D01*
X163900D02*
X168100D01*
X163900Y60993D02*
Y68393D01*
X193700Y50300D02*
X201300D01*
X193700Y54700D02*
X201300D01*
Y50300D02*
Y54700D01*
X171100Y26100D02*
Y30099D01*
X173099D01*
X173766Y29432D01*
Y28099D01*
X173099Y27433D01*
X171100D01*
X177098Y30099D02*
X175765D01*
X175099Y29432D01*
Y26766D01*
X175765Y26100D01*
X177098D01*
X177764Y26766D01*
Y29432D01*
X177098Y30099D01*
X179097D02*
Y26100D01*
X180430Y27433D01*
X181763Y26100D01*
Y30099D01*
X185762D02*
X183096D01*
Y26100D01*
X185762D01*
X183096Y28099D02*
X184429D01*
X187095Y26100D02*
Y30099D01*
X189094D01*
X189761Y29432D01*
Y28099D01*
X189094Y27433D01*
X187095D01*
X188428D02*
X189761Y26100D01*
X172100Y72099D02*
Y68766D01*
X172766Y68100D01*
X174099D01*
X174766Y68766D01*
Y72099D01*
X178764Y71432D02*
X178098Y72099D01*
X176765D01*
X176099Y71432D01*
Y70766D01*
X176765Y70099D01*
X178098D01*
X178764Y69433D01*
Y68766D01*
X178098Y68100D01*
X176765D01*
X176099Y68766D01*
X182763Y72099D02*
X180097D01*
Y68100D01*
X182763D01*
X180097Y70099D02*
X181430D01*
X184096Y68100D02*
Y72099D01*
X186095D01*
X186762Y71432D01*
Y70099D01*
X186095Y69433D01*
X184096D01*
X185429D02*
X186762Y68100D01*
X129600Y38600D02*
Y42599D01*
X131599D01*
X132266Y41932D01*
Y40599D01*
X131599Y39933D01*
X129600D01*
X130933D02*
X132266Y38600D01*
X136265Y42599D02*
X133599D01*
Y38600D01*
X136265D01*
X133599Y40599D02*
X134932D01*
X140263Y41932D02*
X139597Y42599D01*
X138264D01*
X137597Y41932D01*
Y41266D01*
X138264Y40599D01*
X139597D01*
X140263Y39933D01*
Y39266D01*
X139597Y38600D01*
X138264D01*
X137597Y39266D01*
X144262Y42599D02*
X141596D01*
Y38600D01*
X144262D01*
X141596Y40599D02*
X142929D01*
X145595Y42599D02*
X148261D01*
X146928D01*
Y38600D01*
X124600Y60599D02*
Y56600D01*
X126599D01*
X127266Y57266D01*
Y57933D01*
X126599Y58599D01*
X124600D01*
X126599D01*
X127266Y59266D01*
Y59932D01*
X126599Y60599D01*
X124600D01*
X130598D02*
X129265D01*
X128599Y59932D01*
Y57266D01*
X129265Y56600D01*
X130598D01*
X131264Y57266D01*
Y59932D01*
X130598Y60599D01*
X134597D02*
X133264D01*
X132597Y59932D01*
Y57266D01*
X133264Y56600D01*
X134597D01*
X135263Y57266D01*
Y59932D01*
X134597Y60599D01*
X136596D02*
X139262D01*
X137929D01*
Y56600D01*
X140595D02*
X143261Y59266D01*
X144594Y60599D02*
Y57266D01*
X145260Y56600D01*
X146593D01*
X147259Y57266D01*
Y60599D01*
X151258Y59932D02*
X150592Y60599D01*
X149259D01*
X148592Y59932D01*
Y59266D01*
X149259Y58599D01*
X150592D01*
X151258Y57933D01*
Y57266D01*
X150592Y56600D01*
X149259D01*
X148592Y57266D01*
X152591Y56600D02*
Y60599D01*
X154590D01*
X155257Y59932D01*
Y58599D01*
X154590Y57933D01*
X152591D01*
X153924D02*
X155257Y56600D01*
X148600Y50932D02*
X149267Y51599D01*
X150599D01*
X151266Y50932D01*
Y50266D01*
X150599Y49599D01*
X149933D01*
X150599D01*
X151266Y48933D01*
Y48266D01*
X150599Y47600D01*
X149267D01*
X148600Y48266D01*
X152599Y51599D02*
Y48933D01*
X153932Y47600D01*
X155264Y48933D01*
Y51599D01*
X156597Y50932D02*
X157264Y51599D01*
X158597D01*
X159263Y50932D01*
Y50266D01*
X158597Y49599D01*
X157930D01*
X158597D01*
X159263Y48933D01*
Y48266D01*
X158597Y47600D01*
X157264D01*
X156597Y48266D01*
X120600Y47600D02*
Y51599D01*
X122599D01*
X123266Y50932D01*
Y49599D01*
X122599Y48933D01*
X120600D01*
X121933D02*
X123266Y47600D01*
X127264Y51599D02*
X124599D01*
Y47600D01*
X127264D01*
X124599Y49599D02*
X125932D01*
X131263Y50932D02*
X130597Y51599D01*
X129264D01*
X128597Y50932D01*
Y48266D01*
X129264Y47600D01*
X130597D01*
X131263Y48266D01*
Y49599D01*
X129930D01*
X43600Y45599D02*
Y42266D01*
X44266Y41600D01*
X45599D01*
X46266Y42266D01*
Y45599D01*
X50265Y44932D02*
X49598Y45599D01*
X48265D01*
X47599Y44932D01*
Y44266D01*
X48265Y43599D01*
X49598D01*
X50265Y42933D01*
Y42266D01*
X49598Y41600D01*
X48265D01*
X47599Y42266D01*
X51597Y45599D02*
Y41600D01*
X53597D01*
X54263Y42266D01*
Y42933D01*
X53597Y43599D01*
X51597D01*
X53597D01*
X54263Y44266D01*
Y44932D01*
X53597Y45599D01*
X51597D01*
X58262Y41600D02*
X55596D01*
X58262Y44266D01*
Y44932D01*
X57595Y45599D01*
X56263D01*
X55596Y44932D01*
X43600Y49599D02*
X46266D01*
X44933Y50932D02*
Y48266D01*
X50265Y51599D02*
X47599D01*
Y49599D01*
X48932Y50266D01*
X49598D01*
X50265Y49599D01*
Y48266D01*
X49598Y47600D01*
X48265D01*
X47599Y48266D01*
X51597Y51599D02*
Y48933D01*
X52930Y47600D01*
X54263Y48933D01*
Y51599D01*
X43600Y57099D02*
Y54183D01*
X44183Y53600D01*
X45349D01*
X45933Y54183D01*
Y57099D01*
X49431Y56516D02*
X48848Y57099D01*
X47682D01*
X47099Y56516D01*
Y55933D01*
X47682Y55349D01*
X48848D01*
X49431Y54766D01*
Y54183D01*
X48848Y53600D01*
X47682D01*
X47099Y54183D01*
X50598Y57099D02*
Y53600D01*
X52347D01*
X52930Y54183D01*
Y54766D01*
X52347Y55349D01*
X50598D01*
X52347D01*
X52930Y55933D01*
Y56516D01*
X52347Y57099D01*
X50598D01*
X54097Y53600D02*
X55263D01*
X54680D01*
Y57099D01*
X54097Y56516D01*
X3600Y54599D02*
Y51266D01*
X4266Y50600D01*
X5599D01*
X6266Y51266D01*
Y54599D01*
X7599Y50600D02*
Y53266D01*
X8932Y54599D01*
X10265Y53266D01*
Y50600D01*
Y52599D01*
X7599D01*
X11597Y50600D02*
Y54599D01*
X13597D01*
X14263Y53932D01*
Y52599D01*
X13597Y51933D01*
X11597D01*
X12930D02*
X14263Y50600D01*
X15596Y54599D02*
X18262D01*
X16929D01*
Y50600D01*
X6266Y46599D02*
X3600D01*
Y42600D01*
X6266D01*
X3600Y44599D02*
X4933D01*
X10265Y45932D02*
X9598Y46599D01*
X8265D01*
X7599Y45932D01*
Y45266D01*
X8265Y44599D01*
X9598D01*
X10265Y43933D01*
Y43266D01*
X9598Y42600D01*
X8265D01*
X7599Y43266D01*
X11597Y42600D02*
Y46599D01*
X13597D01*
X14263Y45932D01*
Y44599D01*
X13597Y43933D01*
X11597D01*
X234266Y16599D02*
X232933D01*
X233599D01*
Y13266D01*
X232933Y12600D01*
X232266D01*
X231600Y13266D01*
X238264Y12600D02*
X235599D01*
X238264Y15266D01*
Y15932D01*
X237598Y16599D01*
X236265D01*
X235599Y15932D01*
X236266Y86599D02*
X234933D01*
X235599D01*
Y83266D01*
X234933Y82600D01*
X234266D01*
X233600Y83266D01*
X237599Y82600D02*
X238932D01*
X238265D01*
Y86599D01*
X237599Y85932D01*
X30100Y53100D02*
X31433D01*
X30766D01*
Y57099D01*
X30100Y56432D01*
D14*
X269917Y80315D02*
X289799D01*
X209090Y19685D02*
Y80315D01*
X269917Y19685D02*
X289799D01*
Y80315D01*
D15*
X72500Y31149D02*
Y28525D01*
X73025Y28000D01*
X74074D01*
X74599Y28525D01*
Y31149D01*
X75649Y30624D02*
X76173Y31149D01*
X77223D01*
X77748Y30624D01*
Y30099D01*
X77223Y29574D01*
X76698D01*
X77223D01*
X77748Y29050D01*
Y28525D01*
X77223Y28000D01*
X76173D01*
X75649Y28525D01*
D16*
X171000Y15228D02*
D03*
X173000Y84772D02*
D03*
M02*
