G04*
G04 #@! TF.GenerationSoftware,Altium Limited,Altium Designer,24.5.2 (23)*
G04*
G04 Layer_Color=8388736*
%FSLAX25Y25*%
%MOIN*%
G70*
G04*
G04 #@! TF.SameCoordinates,93A3EEE5-7AF5-460B-8448-28A0194370DD*
G04*
G04*
G04 #@! TF.FilePolarity,Negative*
G04*
G01*
G75*
%ADD25R,0.06102X0.05118*%
%ADD29R,0.04528X0.02362*%
G04:AMPARAMS|DCode=31|XSize=33.06mil|YSize=9.55mil|CornerRadius=4.77mil|HoleSize=0mil|Usage=FLASHONLY|Rotation=270.000|XOffset=0mil|YOffset=0mil|HoleType=Round|Shape=RoundedRectangle|*
%AMROUNDEDRECTD31*
21,1,0.03306,0.00000,0,0,270.0*
21,1,0.02351,0.00955,0,0,270.0*
1,1,0.00955,0.00000,-0.01176*
1,1,0.00955,0.00000,0.01176*
1,1,0.00955,0.00000,0.01176*
1,1,0.00955,0.00000,-0.01176*
%
%ADD31ROUNDEDRECTD31*%
G04:AMPARAMS|DCode=34|XSize=9.55mil|YSize=33.06mil|CornerRadius=4.77mil|HoleSize=0mil|Usage=FLASHONLY|Rotation=270.000|XOffset=0mil|YOffset=0mil|HoleType=Round|Shape=RoundedRectangle|*
%AMROUNDEDRECTD34*
21,1,0.00955,0.02351,0,0,270.0*
21,1,0.00000,0.03306,0,0,270.0*
1,1,0.00955,-0.01176,0.00000*
1,1,0.00955,-0.01176,0.00000*
1,1,0.00955,0.01176,0.00000*
1,1,0.00955,0.01176,0.00000*
%
%ADD34ROUNDEDRECTD34*%
%ADD35R,0.04528X0.01181*%
%ADD36R,0.00955X0.03306*%
%ADD37R,0.05343X0.02253*%
G04:AMPARAMS|DCode=38|XSize=53.43mil|YSize=22.53mil|CornerRadius=11.26mil|HoleSize=0mil|Usage=FLASHONLY|Rotation=0.000|XOffset=0mil|YOffset=0mil|HoleType=Round|Shape=RoundedRectangle|*
%AMROUNDEDRECTD38*
21,1,0.05343,0.00000,0,0,0.0*
21,1,0.03091,0.02253,0,0,0.0*
1,1,0.02253,0.01545,0.00000*
1,1,0.02253,-0.01545,0.00000*
1,1,0.02253,-0.01545,0.00000*
1,1,0.02253,0.01545,0.00000*
%
%ADD38ROUNDEDRECTD38*%
G04:AMPARAMS|DCode=39|XSize=27.62mil|YSize=25.26mil|CornerRadius=7.63mil|HoleSize=0mil|Usage=FLASHONLY|Rotation=270.000|XOffset=0mil|YOffset=0mil|HoleType=Round|Shape=RoundedRectangle|*
%AMROUNDEDRECTD39*
21,1,0.02762,0.00999,0,0,270.0*
21,1,0.01235,0.02526,0,0,270.0*
1,1,0.01527,-0.00500,-0.00618*
1,1,0.01527,-0.00500,0.00618*
1,1,0.01527,0.00500,0.00618*
1,1,0.01527,0.00500,-0.00618*
%
%ADD39ROUNDEDRECTD39*%
%ADD40R,0.02526X0.02762*%
%ADD41R,0.03550X0.03550*%
%ADD42R,0.01975X0.03550*%
%ADD43R,0.03550X0.01975*%
%ADD44R,0.05124X0.05124*%
G04:AMPARAMS|DCode=45|XSize=27.62mil|YSize=25.26mil|CornerRadius=7.63mil|HoleSize=0mil|Usage=FLASHONLY|Rotation=180.000|XOffset=0mil|YOffset=0mil|HoleType=Round|Shape=RoundedRectangle|*
%AMROUNDEDRECTD45*
21,1,0.02762,0.00999,0,0,180.0*
21,1,0.01235,0.02526,0,0,180.0*
1,1,0.01527,-0.00618,0.00500*
1,1,0.01527,0.00618,0.00500*
1,1,0.01527,0.00618,-0.00500*
1,1,0.01527,-0.00618,-0.00500*
%
%ADD45ROUNDEDRECTD45*%
%ADD46R,0.02762X0.02526*%
%ADD47R,0.01778X0.02762*%
%ADD48R,0.02762X0.01778*%
%ADD49R,0.03156X0.02762*%
%ADD50R,0.08071X0.08071*%
G04:AMPARAMS|DCode=51|XSize=39.43mil|YSize=72.9mil|CornerRadius=3.95mil|HoleSize=0mil|Usage=FLASHONLY|Rotation=90.000|XOffset=0mil|YOffset=0mil|HoleType=Round|Shape=RoundedRectangle|*
%AMROUNDEDRECTD51*
21,1,0.03943,0.06500,0,0,90.0*
21,1,0.03154,0.07290,0,0,90.0*
1,1,0.00790,0.03250,0.01577*
1,1,0.00790,0.03250,-0.01577*
1,1,0.00790,-0.03250,-0.01577*
1,1,0.00790,-0.03250,0.01577*
%
%ADD51ROUNDEDRECTD51*%
G04:AMPARAMS|DCode=52|XSize=129.98mil|YSize=72.9mil|CornerRadius=4.07mil|HoleSize=0mil|Usage=FLASHONLY|Rotation=90.000|XOffset=0mil|YOffset=0mil|HoleType=Round|Shape=RoundedRectangle|*
%AMROUNDEDRECTD52*
21,1,0.12998,0.06476,0,0,90.0*
21,1,0.12185,0.07290,0,0,90.0*
1,1,0.00813,0.03238,0.06093*
1,1,0.00813,0.03238,-0.06093*
1,1,0.00813,-0.03238,-0.06093*
1,1,0.00813,-0.03238,0.06093*
%
%ADD52ROUNDEDRECTD52*%
G04:AMPARAMS|DCode=53|XSize=39.37mil|YSize=86.61mil|CornerRadius=19.68mil|HoleSize=0mil|Usage=FLASHONLY|Rotation=270.000|XOffset=0mil|YOffset=0mil|HoleType=Round|Shape=RoundedRectangle|*
%AMROUNDEDRECTD53*
21,1,0.03937,0.04724,0,0,270.0*
21,1,0.00000,0.08661,0,0,270.0*
1,1,0.03937,-0.02362,0.00000*
1,1,0.03937,-0.02362,0.00000*
1,1,0.03937,0.02362,0.00000*
1,1,0.03937,0.02362,0.00000*
%
%ADD53ROUNDEDRECTD53*%
G04:AMPARAMS|DCode=54|XSize=39.37mil|YSize=70.87mil|CornerRadius=19.68mil|HoleSize=0mil|Usage=FLASHONLY|Rotation=270.000|XOffset=0mil|YOffset=0mil|HoleType=Round|Shape=RoundedRectangle|*
%AMROUNDEDRECTD54*
21,1,0.03937,0.03150,0,0,270.0*
21,1,0.00000,0.07087,0,0,270.0*
1,1,0.03937,-0.01575,0.00000*
1,1,0.03937,-0.01575,0.00000*
1,1,0.03937,0.01575,0.00000*
1,1,0.03937,0.01575,0.00000*
%
%ADD54ROUNDEDRECTD54*%
%ADD55R,0.06800X0.06800*%
%ADD56C,0.06800*%
%ADD57R,0.04400X0.04400*%
%ADD58C,0.04400*%
%ADD59R,0.04400X0.04400*%
G36*
X248756Y56693D02*
Y53740D01*
X243244D01*
Y59252D01*
X246197D01*
X248756Y56693D01*
D02*
G37*
G36*
X102594Y51518D02*
X102738Y51515D01*
X102747Y51512D01*
X102773Y51508D01*
X102814Y51503D01*
X102843Y51499D01*
X102855Y51496D01*
X102872Y51491D01*
X102893Y51488D01*
X102913Y51483D01*
X102939Y51476D01*
X102961Y51473D01*
X102973Y51470D01*
X103003Y51460D01*
X103025Y51457D01*
X103042Y51453D01*
X103061Y51445D01*
X103087Y51441D01*
X103107Y51433D01*
X103119Y51430D01*
X103142Y51425D01*
X103159Y51418D01*
X103171Y51415D01*
X103190Y51412D01*
X103211Y51402D01*
X103232Y51399D01*
X103249Y51395D01*
X103275Y51387D01*
X103315Y51384D01*
X103327Y51381D01*
X103357Y51378D01*
X103379Y51375D01*
X103397Y51372D01*
X103402Y51367D01*
X103399Y50800D01*
X103382Y50795D01*
X103354Y50798D01*
X103350Y50803D01*
X103341Y50833D01*
X103338Y50855D01*
X103327Y50884D01*
X103321Y50908D01*
X103313Y50922D01*
X103310Y50934D01*
X103302Y50954D01*
X103298Y50958D01*
X103295Y50971D01*
X103286Y50986D01*
X103270Y51013D01*
X103258Y51035D01*
X103252Y51041D01*
X103249Y51047D01*
X103240Y51056D01*
X103231Y51071D01*
X103221Y51081D01*
X103218Y51087D01*
X103194Y51111D01*
X103191Y51117D01*
X103186Y51122D01*
X103180Y51125D01*
X103176Y51129D01*
X103174Y51134D01*
X103168Y51137D01*
X103141Y51164D01*
X103135Y51168D01*
X103128Y51174D01*
X103122Y51177D01*
X103105Y51187D01*
X103104Y51192D01*
X103061Y51216D01*
X103055Y51222D01*
X103043Y51226D01*
X103025Y51238D01*
X103013Y51241D01*
X102994Y51253D01*
X102976Y51256D01*
X102961Y51265D01*
X102948Y51268D01*
X102909Y51284D01*
X102887Y51287D01*
X102866Y51296D01*
X102845Y51299D01*
X102825Y51303D01*
X102811Y51308D01*
X102799Y51311D01*
X102758Y51315D01*
X102727Y51322D01*
X102686Y51326D01*
X102593Y51331D01*
X102515Y51332D01*
X102506Y51329D01*
X102359Y51326D01*
X102350Y51323D01*
X102321Y51319D01*
X102303Y51315D01*
X102248Y51309D01*
X102224Y51303D01*
X102208Y51300D01*
X102169Y51294D01*
X102134Y51284D01*
X102109Y51280D01*
X102088Y51271D01*
X102076Y51268D01*
X102057Y51265D01*
X102036Y51256D01*
X102024Y51253D01*
X101996Y51241D01*
X101976Y51236D01*
X101944Y51222D01*
X101917Y51210D01*
X101901Y51204D01*
X101837Y51171D01*
X101822Y51164D01*
X101816Y51161D01*
X101798Y51149D01*
X101789Y51146D01*
X101779Y51137D01*
X101767Y51134D01*
X101761Y51128D01*
X101755Y51125D01*
X101734Y51113D01*
X101712Y51097D01*
X101691Y51085D01*
X101685Y51079D01*
X101670Y51070D01*
X101663Y51064D01*
X101648Y51055D01*
X101642Y51048D01*
X101627Y51039D01*
X101621Y51033D01*
X101615Y51030D01*
X101605Y51021D01*
X101599Y51018D01*
X101587Y51006D01*
X101581Y51003D01*
X101572Y50994D01*
X101566Y50990D01*
X101560Y50984D01*
X101555Y50983D01*
X101552Y50977D01*
X101541Y50969D01*
X101529Y50957D01*
X101525Y50955D01*
X101522Y50949D01*
X101511Y50942D01*
X101448Y50879D01*
X101445Y50873D01*
X101421Y50849D01*
X101418Y50842D01*
X101406Y50830D01*
X101402Y50824D01*
X101390Y50812D01*
X101387Y50806D01*
X101378Y50797D01*
X101375Y50791D01*
X101363Y50778D01*
X101354Y50763D01*
X101348Y50757D01*
X101338Y50742D01*
X101332Y50736D01*
X101329Y50730D01*
X101320Y50720D01*
X101308Y50699D01*
X101293Y50678D01*
X101280Y50656D01*
X101274Y50650D01*
X101271Y50638D01*
X101262Y50629D01*
X101247Y50601D01*
X101219Y50550D01*
X101201Y50510D01*
X101171Y50443D01*
X101168Y50430D01*
X101158Y50415D01*
X101154Y50398D01*
X101148Y50383D01*
X101143Y50369D01*
X101140Y50357D01*
X101128Y50330D01*
X101123Y50307D01*
X101116Y50290D01*
X101112Y50278D01*
X101108Y50258D01*
X101102Y50243D01*
X101099Y50230D01*
X101096Y50212D01*
X101093Y50200D01*
X101088Y50186D01*
X101085Y50174D01*
X101082Y50153D01*
X101079Y50141D01*
X101073Y50119D01*
X101070Y50107D01*
X101065Y50069D01*
X101062Y50054D01*
X101059Y50041D01*
X101056Y50023D01*
X101053Y49992D01*
X101050Y49956D01*
X101042Y49893D01*
X101039Y49817D01*
X101042Y49674D01*
X101045Y49664D01*
X101050Y49623D01*
X101053Y49593D01*
X101056Y49556D01*
X101059Y49541D01*
X101064Y49524D01*
X101067Y49503D01*
X101073Y49463D01*
X101079Y49448D01*
X101082Y49426D01*
X101085Y49414D01*
X101090Y49397D01*
X101094Y49384D01*
X101097Y49371D01*
X101100Y49353D01*
X101110Y49332D01*
X101114Y49312D01*
X101120Y49297D01*
X101125Y49283D01*
X101131Y49258D01*
X101140Y49237D01*
X101148Y49217D01*
X101155Y49200D01*
X101160Y49184D01*
X101171Y49164D01*
X101174Y49152D01*
X101186Y49124D01*
X101216Y49060D01*
X101219Y49054D01*
X101228Y49039D01*
X101253Y48993D01*
X101265Y48972D01*
X101280Y48944D01*
X101286Y48938D01*
X101311Y48895D01*
X101317Y48889D01*
X101326Y48874D01*
X101346Y48845D01*
X101354Y48834D01*
X101360Y48828D01*
X101369Y48813D01*
X101375Y48807D01*
X101384Y48792D01*
X101390Y48785D01*
X101393Y48779D01*
X101406Y48767D01*
X101409Y48761D01*
X101418Y48752D01*
X101421Y48746D01*
X101435Y48729D01*
X101441Y48720D01*
X101445Y48718D01*
X101448Y48712D01*
X101463Y48697D01*
X101467Y48691D01*
X101471Y48686D01*
X101476Y48685D01*
X101479Y48678D01*
X101506Y48651D01*
X101509Y48645D01*
X101557Y48598D01*
X101563Y48595D01*
X101602Y48555D01*
X101609Y48552D01*
X101630Y48531D01*
X101636Y48527D01*
X101648Y48515D01*
X101654Y48512D01*
X101666Y48500D01*
X101673Y48497D01*
X101700Y48476D01*
X101702Y48474D01*
X101706Y48469D01*
X101712Y48466D01*
X101721Y48457D01*
X101737Y48448D01*
X101743Y48442D01*
X101758Y48433D01*
X101764Y48427D01*
X101779Y48418D01*
X101801Y48405D01*
X101807Y48399D01*
X101822Y48390D01*
X101844Y48378D01*
X101850Y48372D01*
X101877Y48357D01*
X101899Y48344D01*
X101926Y48329D01*
X101941Y48323D01*
X101947Y48320D01*
X101953Y48314D01*
X101969Y48308D01*
X102002Y48292D01*
X102008Y48289D01*
X102036Y48277D01*
X102042Y48274D01*
X102048Y48268D01*
X102068Y48263D01*
X102100Y48250D01*
X102112Y48247D01*
X102134Y48237D01*
X102146Y48234D01*
X102165Y48227D01*
X102179Y48222D01*
X102199Y48218D01*
X102219Y48210D01*
X102231Y48207D01*
X102257Y48202D01*
X102272Y48196D01*
X102288Y48193D01*
X102312Y48190D01*
X102327Y48187D01*
X102344Y48183D01*
X102356Y48180D01*
X102396Y48177D01*
X102443Y48169D01*
X102471Y48166D01*
X102535Y48163D01*
X102646Y48161D01*
X102655Y48164D01*
X102713Y48167D01*
X102723Y48170D01*
X102765Y48177D01*
X102813Y48181D01*
X102825Y48184D01*
X102841Y48189D01*
X102886Y48196D01*
X102901Y48202D01*
X102913Y48206D01*
X102932Y48208D01*
X102947Y48215D01*
X102967Y48222D01*
X102982Y48225D01*
X103003Y48234D01*
X103023Y48242D01*
X103028Y48247D01*
X103040Y48250D01*
X103116Y48289D01*
X103138Y48302D01*
X103167Y48321D01*
X103183Y48332D01*
X103221Y48361D01*
X103229Y48369D01*
X103235Y48372D01*
X103247Y48384D01*
X103252Y48386D01*
X103255Y48392D01*
X103273Y48407D01*
X103325Y48459D01*
X103328Y48465D01*
X103341Y48477D01*
X103344Y48483D01*
X103353Y48492D01*
X103356Y48498D01*
X103362Y48505D01*
X103365Y48511D01*
X103386Y48544D01*
X103389Y48550D01*
X103395Y48557D01*
X103402Y48572D01*
X103411Y48587D01*
X103429Y48627D01*
X103441Y48654D01*
X103444Y48666D01*
X103454Y48682D01*
X103458Y48701D01*
X103463Y48712D01*
X103467Y48717D01*
X103479Y48720D01*
X103513Y48717D01*
X103518Y48712D01*
X103515Y48147D01*
X103507Y48140D01*
X103449Y48137D01*
X103440Y48134D01*
X103397Y48131D01*
X103388Y48128D01*
X103366Y48122D01*
X103354Y48118D01*
X103330Y48115D01*
X103315Y48109D01*
X103290Y48103D01*
X103266Y48100D01*
X103244Y48091D01*
X103215Y48086D01*
X103180Y48076D01*
X103154Y48071D01*
X103128Y48063D01*
X103116Y48061D01*
X103093Y48056D01*
X103067Y48048D01*
X103055Y48045D01*
X103031Y48042D01*
X103015Y48036D01*
X103003Y48033D01*
X102982Y48030D01*
X102959Y48025D01*
X102942Y48021D01*
X102930Y48018D01*
X102886Y48010D01*
X102869Y48006D01*
X102857Y48002D01*
X102816Y47998D01*
X102800Y47995D01*
X102788Y47992D01*
X102747Y47987D01*
X102697Y47983D01*
X102636Y47976D01*
X102553Y47973D01*
X102478Y47972D01*
X102469Y47975D01*
X102356Y47978D01*
X102347Y47981D01*
X102281Y47986D01*
X102242Y47989D01*
X102217Y47992D01*
X102202Y47995D01*
X102184Y47998D01*
X102143Y48002D01*
X102108Y48010D01*
X102092Y48013D01*
X102056Y48019D01*
X102030Y48027D01*
X102017Y48030D01*
X101988Y48035D01*
X101969Y48042D01*
X101956Y48045D01*
X101938Y48048D01*
X101917Y48057D01*
X101891Y48062D01*
X101865Y48073D01*
X101853Y48076D01*
X101825Y48088D01*
X101807Y48091D01*
X101792Y48100D01*
X101779Y48103D01*
X101746Y48118D01*
X101734Y48122D01*
X101727Y48128D01*
X101699Y48138D01*
X101694Y48143D01*
X101679Y48149D01*
X101645Y48164D01*
X101639Y48167D01*
X101633Y48173D01*
X101613Y48181D01*
X101593Y48192D01*
X101587Y48195D01*
X101569Y48207D01*
X101557Y48210D01*
X101548Y48219D01*
X101483Y48256D01*
X101477Y48262D01*
X101456Y48274D01*
X101435Y48289D01*
X101401Y48311D01*
X101395Y48314D01*
X101386Y48323D01*
X101380Y48326D01*
X101367Y48338D01*
X101352Y48347D01*
X101346Y48353D01*
X101335Y48358D01*
X101332Y48364D01*
X101322Y48372D01*
X101312Y48381D01*
X101306Y48384D01*
X101294Y48396D01*
X101288Y48399D01*
X101276Y48412D01*
X101270Y48414D01*
X101258Y48427D01*
X101251Y48430D01*
X101224Y48457D01*
X101218Y48460D01*
X101212Y48469D01*
X101206Y48472D01*
X101171Y48508D01*
X101168Y48514D01*
X101158Y48520D01*
X101155Y48526D01*
X101128Y48553D01*
X101125Y48559D01*
X101112Y48572D01*
X101110Y48578D01*
X101094Y48593D01*
X101091Y48599D01*
X101079Y48611D01*
X101076Y48618D01*
X101067Y48627D01*
X101064Y48633D01*
X101055Y48642D01*
X101051Y48648D01*
X101042Y48657D01*
X101039Y48663D01*
X101025Y48680D01*
X101018Y48691D01*
X101006Y48709D01*
X101003Y48715D01*
X100994Y48724D01*
X100989Y48735D01*
X100984Y48737D01*
X100960Y48779D01*
X100951Y48788D01*
X100948Y48801D01*
X100939Y48810D01*
X100926Y48831D01*
X100911Y48859D01*
X100899Y48880D01*
X100890Y48901D01*
X100887Y48907D01*
X100881Y48913D01*
X100873Y48933D01*
X100862Y48953D01*
X100859Y48965D01*
X100853Y48972D01*
X100847Y48987D01*
X100844Y48999D01*
X100838Y49005D01*
X100827Y49034D01*
X100823Y49039D01*
X100818Y49058D01*
X100812Y49074D01*
X100807Y49078D01*
X100803Y49098D01*
X100798Y49109D01*
X100792Y49124D01*
X100786Y49149D01*
X100777Y49170D01*
X100771Y49194D01*
X100761Y49216D01*
X100757Y49239D01*
X100751Y49254D01*
X100746Y49271D01*
X100742Y49297D01*
X100734Y49323D01*
X100731Y49335D01*
X100728Y49359D01*
X100725Y49368D01*
X100719Y49390D01*
X100716Y49420D01*
X100713Y49432D01*
X100708Y49452D01*
X100705Y49468D01*
X100702Y49492D01*
X100699Y49529D01*
X100693Y49568D01*
X100690Y49596D01*
X100687Y49669D01*
X100685Y49811D01*
X100688Y49820D01*
X100691Y49915D01*
X100694Y49924D01*
X100698Y49945D01*
X100700Y49976D01*
X100705Y50017D01*
X100708Y50032D01*
X100711Y50044D01*
X100714Y50063D01*
X100717Y50087D01*
X100720Y50102D01*
X100723Y50115D01*
X100728Y50131D01*
X100731Y50153D01*
X100736Y50173D01*
X100742Y50188D01*
X100745Y50203D01*
X100748Y50221D01*
X100754Y50237D01*
X100759Y50253D01*
X100761Y50266D01*
X100766Y50282D01*
X100774Y50302D01*
X100778Y50325D01*
X100789Y50351D01*
X100794Y50368D01*
X100801Y50385D01*
X100804Y50397D01*
X100810Y50412D01*
X100820Y50433D01*
X100824Y50450D01*
X100829Y50455D01*
X100839Y50484D01*
X100844Y50488D01*
X100847Y50501D01*
X100862Y50534D01*
X100887Y50580D01*
X100893Y50595D01*
X100902Y50611D01*
X100917Y50638D01*
X100942Y50681D01*
X100948Y50687D01*
X100972Y50730D01*
X100978Y50736D01*
X100987Y50751D01*
X101003Y50772D01*
X101024Y50803D01*
X101027Y50809D01*
X101036Y50818D01*
X101039Y50824D01*
X101051Y50836D01*
X101061Y50852D01*
X101067Y50858D01*
X101070Y50864D01*
X101082Y50876D01*
X101085Y50882D01*
X101097Y50894D01*
X101100Y50901D01*
X101125Y50925D01*
X101128Y50931D01*
X101143Y50946D01*
X101146Y50952D01*
X101204Y51010D01*
X101206Y51015D01*
X101212Y51018D01*
X101236Y51042D01*
X101242Y51045D01*
X101261Y51064D01*
X101267Y51067D01*
X101282Y51082D01*
X101286Y51084D01*
X101290Y51090D01*
X101300Y51097D01*
X101309Y51107D01*
X101315Y51109D01*
X101325Y51119D01*
X101331Y51122D01*
X101337Y51128D01*
X101343Y51131D01*
X101349Y51137D01*
X101355Y51140D01*
X101364Y51149D01*
X101380Y51158D01*
X101386Y51164D01*
X101401Y51174D01*
X101407Y51180D01*
X101422Y51189D01*
X101428Y51195D01*
X101444Y51204D01*
X101477Y51226D01*
X101483Y51228D01*
X101493Y51238D01*
X101505Y51241D01*
X101514Y51250D01*
X101529Y51256D01*
X101548Y51268D01*
X101563Y51277D01*
X101590Y51293D01*
X101605Y51299D01*
X101611Y51302D01*
X101618Y51308D01*
X101637Y51315D01*
X101648Y51323D01*
X101657Y51326D01*
X101691Y51341D01*
X101749Y51369D01*
X101769Y51377D01*
X101786Y51384D01*
X101798Y51387D01*
X101825Y51399D01*
X101837Y51402D01*
X101865Y51415D01*
X101883Y51418D01*
X101904Y51427D01*
X101929Y51433D01*
X101944Y51439D01*
X101969Y51445D01*
X101987Y51448D01*
X102008Y51457D01*
X102037Y51462D01*
X102063Y51470D01*
X102076Y51473D01*
X102106Y51476D01*
X102121Y51482D01*
X102134Y51485D01*
X102173Y51488D01*
X102185Y51491D01*
X102208Y51496D01*
X102220Y51499D01*
X102248Y51502D01*
X102291Y51505D01*
X102315Y51508D01*
X102333Y51511D01*
X102364Y51514D01*
X102422Y51517D01*
X102568Y51520D01*
X102585Y51522D01*
X102594Y51518D01*
D02*
G37*
G36*
X108848Y51027D02*
X108869Y51021D01*
X108897Y51015D01*
X108903Y51009D01*
X108923Y51001D01*
X108955Y50978D01*
X108972Y50964D01*
X108996Y50940D01*
X108999Y50934D01*
X109008Y50925D01*
X109017Y50910D01*
X109033Y50882D01*
X109039Y50867D01*
X109042Y50849D01*
X109048Y50833D01*
X109051Y50821D01*
X109053Y50777D01*
X109048Y50720D01*
X109039Y50699D01*
X109034Y50682D01*
X109020Y50659D01*
X109017Y50653D01*
X109011Y50647D01*
X109008Y50641D01*
X108994Y50624D01*
X108990Y50620D01*
X108987Y50613D01*
X108976Y50606D01*
X108964Y50594D01*
X108953Y50589D01*
X108952Y50585D01*
X108946Y50582D01*
X108930Y50572D01*
X108909Y50563D01*
X108903Y50560D01*
X108882Y50551D01*
X108856Y50546D01*
X108840Y50543D01*
X108822Y50540D01*
X108784Y50539D01*
X108775Y50542D01*
X108750Y50545D01*
X108741Y50548D01*
X108709Y50556D01*
X108705Y50560D01*
X108676Y50571D01*
X108668Y50578D01*
X108653Y50588D01*
X108647Y50594D01*
X108641Y50597D01*
X108625Y50612D01*
X108619Y50615D01*
X108612Y50626D01*
X108602Y50635D01*
X108599Y50641D01*
X108584Y50662D01*
X108581Y50675D01*
X108569Y50702D01*
X108564Y50722D01*
X108561Y50734D01*
X108558Y50749D01*
X108557Y50812D01*
X108560Y50821D01*
X108564Y50838D01*
X108567Y50850D01*
X108570Y50865D01*
X108576Y50881D01*
X108581Y50885D01*
X108586Y50902D01*
X108608Y50934D01*
X108622Y50951D01*
X108650Y50978D01*
X108656Y50981D01*
X108665Y50990D01*
X108680Y51000D01*
X108697Y51007D01*
X108698Y51009D01*
X108720Y51018D01*
X108752Y51026D01*
X108764Y51029D01*
X108839Y51030D01*
X108848Y51027D01*
D02*
G37*
G36*
X107803Y50250D02*
X107818Y50247D01*
X107859Y50243D01*
X107871Y50240D01*
X107905Y50230D01*
X107917Y50227D01*
X107939Y50224D01*
X107960Y50215D01*
X107986Y50211D01*
X108003Y50203D01*
X108027Y50197D01*
X108048Y50188D01*
X108070Y50182D01*
X108076Y50179D01*
X108097Y50169D01*
X108113Y50163D01*
X108119Y50157D01*
X108125Y50154D01*
X108126Y50141D01*
X108117Y50131D01*
X108109Y50112D01*
X108105Y50107D01*
X108099Y50092D01*
X108083Y50058D01*
X108080Y50052D01*
X108074Y50046D01*
X108065Y50021D01*
X108059Y50015D01*
X108056Y50003D01*
X108047Y49988D01*
X108041Y49973D01*
X108032Y49957D01*
X108026Y49942D01*
X107983Y49854D01*
X107980Y49847D01*
X107975Y49843D01*
X107969Y49846D01*
X107955Y49860D01*
X107946Y49875D01*
X107932Y49892D01*
X107928Y49896D01*
X107925Y49902D01*
X107890Y49937D01*
X107884Y49941D01*
X107874Y49950D01*
X107859Y49959D01*
X107844Y49965D01*
X107824Y49973D01*
X107810Y49977D01*
X107798Y49980D01*
X107774Y49983D01*
X107765Y49986D01*
X107752Y49989D01*
X107703Y49992D01*
X107636Y49989D01*
X107621Y49983D01*
X107609Y49980D01*
X107586Y49976D01*
X107560Y49965D01*
X107527Y49950D01*
X107481Y49925D01*
X107459Y49913D01*
X107453Y49907D01*
X107432Y49895D01*
X107389Y49864D01*
X107374Y49855D01*
X107368Y49849D01*
X107362Y49846D01*
X107350Y49834D01*
X107343Y49831D01*
X107336Y49826D01*
X107334Y49821D01*
X107328Y49819D01*
X107311Y49805D01*
X107301Y49797D01*
X107291Y49788D01*
X107285Y49785D01*
X107273Y49773D01*
X107267Y49770D01*
X107261Y49760D01*
X107255Y49757D01*
X107224Y49727D01*
X107220Y49725D01*
X107217Y49719D01*
X107211Y49704D01*
X107214Y48312D01*
X107217Y48303D01*
X107220Y48291D01*
X107223Y48260D01*
X107232Y48239D01*
X107235Y48227D01*
X107243Y48207D01*
X107247Y48202D01*
X107250Y48190D01*
X107259Y48175D01*
X107272Y48154D01*
X107278Y48147D01*
X107287Y48132D01*
X107293Y48126D01*
X107296Y48120D01*
X107322Y48094D01*
X107337Y48088D01*
X107359Y48079D01*
X107375Y48074D01*
X107378Y48065D01*
X107375Y48031D01*
X107371Y48027D01*
X106705Y48030D01*
X106698Y48038D01*
X106701Y48071D01*
X106705Y48076D01*
X106735Y48086D01*
X106750Y48092D01*
X106760Y48103D01*
X106766Y48106D01*
X106783Y48123D01*
X106786Y48129D01*
X106799Y48141D01*
X106802Y48147D01*
X106808Y48154D01*
X106820Y48175D01*
X106826Y48190D01*
X106841Y48224D01*
X106849Y48244D01*
X106853Y48260D01*
X106857Y48282D01*
X106861Y48302D01*
X106864Y48314D01*
X106867Y48350D01*
X106869Y49820D01*
X106866Y49829D01*
X106863Y49860D01*
X106857Y49875D01*
X106852Y49898D01*
X106831Y49941D01*
X106815Y49965D01*
X106808Y49976D01*
X106799Y49985D01*
X106796Y49991D01*
X106779Y50008D01*
X106773Y50011D01*
X106760Y50023D01*
X106702Y50050D01*
X106690Y50054D01*
X106683Y50061D01*
X106686Y50092D01*
X106690Y50096D01*
X106718Y50108D01*
X106750Y50116D01*
X106765Y50122D01*
X106777Y50125D01*
X106788Y50127D01*
X106791D01*
X106812Y50136D01*
X106825Y50139D01*
X106844Y50143D01*
X106860Y50150D01*
X106876Y50154D01*
X106899Y50159D01*
X106916Y50166D01*
X106928Y50169D01*
X106948Y50174D01*
X106965Y50182D01*
X106997Y50189D01*
X107017Y50197D01*
X107049Y50205D01*
X107066Y50212D01*
X107092Y50217D01*
X107107Y50223D01*
X107124Y50227D01*
X107143Y50232D01*
X107160Y50240D01*
X107188Y50246D01*
X107197Y50249D01*
X107208Y50247D01*
X107211Y50235D01*
X107209Y49956D01*
X107218Y49953D01*
X107227Y49962D01*
X107234Y49965D01*
X107264Y50002D01*
X107278Y50015D01*
X107281Y50021D01*
X107343Y50084D01*
X107350Y50087D01*
X107356Y50096D01*
X107362Y50099D01*
X107374Y50112D01*
X107380Y50115D01*
X107389Y50124D01*
X107395Y50127D01*
X107404Y50136D01*
X107411Y50139D01*
X107427Y50153D01*
X107452Y50168D01*
X107462Y50173D01*
X107481Y50185D01*
X107490Y50188D01*
X107505Y50197D01*
X107525Y50205D01*
X107529Y50209D01*
X107551Y50215D01*
X107578Y50227D01*
X107598Y50232D01*
X107618Y50240D01*
X107639Y50243D01*
X107670Y50246D01*
X107682Y50249D01*
X107703Y50252D01*
X107752Y50255D01*
X107803Y50250D01*
D02*
G37*
G36*
X116106Y50252D02*
X116167Y50249D01*
X116176Y50246D01*
X116242Y50241D01*
X116275Y50235D01*
X116288Y50232D01*
X116303Y50229D01*
X116321Y50226D01*
X116333Y50223D01*
X116353Y50215D01*
X116373Y50211D01*
X116390Y50203D01*
X116414Y50197D01*
X116442Y50185D01*
X116457Y50182D01*
X116472Y50173D01*
X116484Y50169D01*
X116551Y50139D01*
X116558Y50136D01*
X116564Y50130D01*
X116576Y50127D01*
X116616Y50112D01*
X116641Y50107D01*
X116666Y50101D01*
X116700Y50098D01*
X116724Y50095D01*
X116727Y50086D01*
X116724Y49735D01*
X116710Y49730D01*
X116689Y49733D01*
X116672Y49750D01*
X116666Y49765D01*
X116657Y49774D01*
X116648Y49790D01*
X116641Y49796D01*
X116632Y49811D01*
X116626Y49817D01*
X116623Y49823D01*
X116611Y49835D01*
X116608Y49841D01*
X116558Y49892D01*
X116551Y49895D01*
X116539Y49907D01*
X116533Y49910D01*
X116524Y49919D01*
X116509Y49928D01*
X116503Y49935D01*
X116487Y49944D01*
X116466Y49956D01*
X116460Y49962D01*
X116445Y49968D01*
X116429Y49977D01*
X116414Y49983D01*
X116408Y49989D01*
X116379Y50000D01*
X116375Y50005D01*
X116358Y50009D01*
X116342Y50015D01*
X116338Y50020D01*
X116310Y50026D01*
X116289Y50035D01*
X116277Y50038D01*
X116260Y50043D01*
X116243Y50050D01*
X116214Y50055D01*
X116202Y50058D01*
X116185Y50063D01*
X116173Y50066D01*
X116132Y50070D01*
X116113Y50073D01*
X116098Y50076D01*
X116068Y50079D01*
X115935Y50081D01*
X115926Y50078D01*
X115891Y50073D01*
X115875Y50070D01*
X115857Y50067D01*
X115833Y50064D01*
X115808Y50055D01*
X115793Y50052D01*
X115781Y50049D01*
X115770Y50044D01*
X115755Y50038D01*
X115735Y50031D01*
X115731Y50026D01*
X115718Y50023D01*
X115679Y50002D01*
X115673Y49995D01*
X115657Y49989D01*
X115648Y49980D01*
X115633Y49971D01*
X115627Y49965D01*
X115621Y49962D01*
X115570Y49912D01*
X115567Y49905D01*
X115561Y49899D01*
X115549Y49878D01*
X115534Y49850D01*
X115527Y49835D01*
X115523Y49819D01*
X115515Y49802D01*
X115512Y49780D01*
X115506Y49728D01*
X115511Y49681D01*
X115517Y49648D01*
X115527Y49622D01*
X115540Y49600D01*
X115549Y49585D01*
X115555Y49579D01*
X115558Y49573D01*
X115570Y49561D01*
X115573Y49554D01*
X115590Y49538D01*
X115596Y49535D01*
X115621Y49510D01*
X115631Y49506D01*
X115634Y49499D01*
X115683Y49469D01*
X115698Y49463D01*
X115718Y49452D01*
X115813Y49406D01*
X115825Y49403D01*
X115840Y49394D01*
X115857Y49390D01*
X115877Y49379D01*
X115894Y49374D01*
X115920Y49364D01*
X115937Y49359D01*
X115941Y49355D01*
X115962Y49349D01*
X115975Y49345D01*
X116002Y49333D01*
X116017Y49330D01*
X116039Y49321D01*
X116059Y49316D01*
X116074Y49310D01*
X116088Y49306D01*
X116104Y49301D01*
X116120Y49295D01*
X116136Y49290D01*
X116149Y49287D01*
X116170Y49278D01*
X116194Y49272D01*
X116216Y49263D01*
X116240Y49257D01*
X116262Y49248D01*
X116278Y49243D01*
X116295Y49235D01*
X116307Y49233D01*
X116327Y49225D01*
X116332Y49220D01*
X116364Y49213D01*
X116368Y49208D01*
X116390Y49202D01*
X116402Y49199D01*
X116417Y49190D01*
X116434Y49185D01*
X116460Y49174D01*
X116475Y49168D01*
X116481Y49162D01*
X116493Y49159D01*
X116533Y49141D01*
X116539Y49138D01*
X116545Y49132D01*
X116565Y49124D01*
X116573Y49117D01*
X116585Y49114D01*
X116603Y49101D01*
X116619Y49092D01*
X116640Y49080D01*
X116649Y49071D01*
X116658Y49068D01*
X116686Y49046D01*
X116707Y49031D01*
X116724Y49017D01*
X116735Y49010D01*
X116750Y48994D01*
X116756Y48991D01*
X116788Y48959D01*
X116791Y48953D01*
X116815Y48929D01*
X116825Y48913D01*
X116831Y48907D01*
X116834Y48901D01*
X116846Y48889D01*
X116855Y48874D01*
X116867Y48853D01*
X116874Y48846D01*
X116881Y48827D01*
X116886Y48822D01*
X116892Y48801D01*
X116904Y48773D01*
X116909Y48747D01*
X116915Y48732D01*
X116918Y48714D01*
X116921Y48680D01*
X116922Y48572D01*
X116919Y48562D01*
X116916Y48517D01*
X116910Y48502D01*
X116904Y48477D01*
X116899Y48460D01*
X116892Y48443D01*
X116889Y48431D01*
X116886Y48425D01*
X116876Y48410D01*
X116870Y48395D01*
X116864Y48389D01*
X116857Y48369D01*
X116849Y48361D01*
X116837Y48340D01*
X116822Y48318D01*
X116793Y48280D01*
X116785Y48273D01*
X116782Y48267D01*
X116776Y48263D01*
X116773Y48257D01*
X116750Y48234D01*
X116744Y48231D01*
X116738Y48222D01*
X116732Y48219D01*
X116727Y48215D01*
X116726Y48210D01*
X116719Y48207D01*
X116703Y48193D01*
X116692Y48186D01*
X116683Y48177D01*
X116677Y48173D01*
X116667Y48164D01*
X116652Y48155D01*
X116631Y48143D01*
X116622Y48134D01*
X116576Y48109D01*
X116549Y48094D01*
X116533Y48088D01*
X116500Y48073D01*
X116472Y48061D01*
X116432Y48045D01*
X116416Y48041D01*
X116399Y48033D01*
X116387Y48030D01*
X116364Y48025D01*
X116344Y48018D01*
X116323Y48015D01*
X116274Y48002D01*
X116236Y47998D01*
X116199Y47992D01*
X116172Y47989D01*
X116086Y47986D01*
X116030Y47984D01*
X116020Y47987D01*
X115914Y47990D01*
X115904Y47993D01*
X115875Y47998D01*
X115848Y48001D01*
X115824Y48004D01*
X115811Y48007D01*
X115785Y48015D01*
X115762Y48019D01*
X115747Y48025D01*
X115731Y48030D01*
X115718Y48033D01*
X115712Y48036D01*
X115691Y48045D01*
X115675Y48051D01*
X115654Y48061D01*
X115621Y48076D01*
X115614Y48079D01*
X115599Y48088D01*
X115579Y48096D01*
X115575Y48100D01*
X115555Y48108D01*
X115547Y48115D01*
X115527Y48123D01*
X115523Y48128D01*
X115508Y48134D01*
X115502Y48137D01*
X115492Y48146D01*
X115480Y48149D01*
X115471Y48158D01*
X115444Y48173D01*
X115401Y48198D01*
X115395Y48204D01*
X115383Y48207D01*
X115364Y48219D01*
X115349Y48225D01*
X115343Y48231D01*
X115319Y48241D01*
X115297Y48250D01*
X115280Y48254D01*
X115254Y48262D01*
X115224Y48265D01*
X115206Y48268D01*
X115204Y48654D01*
X115212Y48662D01*
X115254Y48659D01*
X115259Y48654D01*
X115265Y48630D01*
X115280Y48596D01*
X115283Y48590D01*
X115289Y48584D01*
X115302Y48562D01*
X115317Y48541D01*
X115323Y48535D01*
X115326Y48529D01*
X115335Y48520D01*
X115338Y48514D01*
X115344Y48508D01*
X115346Y48503D01*
X115350Y48502D01*
X115354Y48495D01*
X115384Y48465D01*
X115387Y48459D01*
X115398Y48451D01*
X115425Y48424D01*
X115431Y48421D01*
X115440Y48412D01*
X115447Y48408D01*
X115459Y48396D01*
X115465Y48393D01*
X115477Y48381D01*
X115483Y48378D01*
X115492Y48369D01*
X115508Y48360D01*
X115514Y48353D01*
X115529Y48344D01*
X115535Y48338D01*
X115544Y48335D01*
X115550Y48329D01*
X115557Y48326D01*
X115572Y48317D01*
X115578Y48311D01*
X115593Y48305D01*
X115599Y48299D01*
X115619Y48291D01*
X115627Y48283D01*
X115647Y48276D01*
X115651Y48271D01*
X115666Y48265D01*
X115734Y48234D01*
X115761Y48222D01*
X115778Y48218D01*
X115795Y48210D01*
X115819Y48204D01*
X115834Y48198D01*
X115859Y48192D01*
X115883Y48189D01*
X115898Y48183D01*
X115929Y48180D01*
X115941Y48177D01*
X116063Y48173D01*
X116103Y48177D01*
X116152Y48180D01*
X116161Y48183D01*
X116181Y48187D01*
X116196Y48190D01*
X116220Y48193D01*
X116233Y48196D01*
X116259Y48204D01*
X116271Y48207D01*
X116288Y48212D01*
X116292Y48216D01*
X116309Y48221D01*
X116321Y48224D01*
X116341Y48234D01*
X116353Y48237D01*
X116371Y48250D01*
X116384Y48253D01*
X116393Y48262D01*
X116408Y48268D01*
X116414Y48274D01*
X116420Y48277D01*
X116442Y48292D01*
X116458Y48306D01*
X116477Y48321D01*
X116481Y48326D01*
X116487Y48329D01*
X116507Y48349D01*
X116510Y48355D01*
X116523Y48367D01*
X116526Y48373D01*
X116538Y48386D01*
X116541Y48395D01*
X116547Y48401D01*
X116550Y48407D01*
X116568Y48447D01*
X116573Y48463D01*
X116577Y48477D01*
X116580Y48489D01*
X116584Y48520D01*
X116580Y48611D01*
X116574Y48627D01*
X116568Y48648D01*
X116562Y48663D01*
X116547Y48691D01*
X116541Y48697D01*
X116529Y48718D01*
X116515Y48735D01*
X116507Y48743D01*
X116504Y48749D01*
X116495Y48755D01*
X116492Y48761D01*
X116487Y48766D01*
X116483Y48767D01*
X116480Y48773D01*
X116475Y48778D01*
X116469Y48781D01*
X116445Y48805D01*
X116439Y48808D01*
X116417Y48823D01*
X116411Y48827D01*
X116402Y48836D01*
X116387Y48845D01*
X116365Y48857D01*
X116338Y48872D01*
X116332Y48878D01*
X116315Y48883D01*
X116307Y48891D01*
X116283Y48900D01*
X116255Y48912D01*
X116249Y48915D01*
X116228Y48924D01*
X116208Y48932D01*
X116204Y48936D01*
X116184Y48941D01*
X116173Y48946D01*
X116158Y48952D01*
X116146Y48955D01*
X116118Y48967D01*
X116095Y48972D01*
X116082Y48979D01*
X116057Y48985D01*
X116036Y48994D01*
X116024Y48998D01*
X116007Y49002D01*
X116002Y49007D01*
X115978Y49013D01*
X115961Y49017D01*
X115944Y49025D01*
X115917Y49031D01*
X115895Y49040D01*
X115875Y49045D01*
X115859Y49052D01*
X115847Y49055D01*
X115830Y49060D01*
X115813Y49068D01*
X115801Y49071D01*
X115784Y49075D01*
X115779Y49080D01*
X115755Y49086D01*
X115727Y49098D01*
X115708Y49103D01*
X115682Y49114D01*
X115662Y49121D01*
X115645Y49129D01*
X115628Y49133D01*
X115624Y49138D01*
X115608Y49144D01*
X115596Y49147D01*
X115590Y49153D01*
X115561Y49164D01*
X115557Y49168D01*
X115537Y49176D01*
X115514Y49190D01*
X115505Y49193D01*
X115498Y49199D01*
X115479Y49207D01*
X115471Y49214D01*
X115456Y49220D01*
X115447Y49229D01*
X115431Y49235D01*
X115422Y49245D01*
X115407Y49254D01*
X115386Y49269D01*
X115358Y49290D01*
X115343Y49306D01*
X115337Y49309D01*
X115320Y49326D01*
X115319Y49330D01*
X115312Y49333D01*
X115308Y49338D01*
X115305Y49344D01*
X115280Y49368D01*
X115277Y49374D01*
X115247Y49417D01*
X115244Y49423D01*
X115238Y49429D01*
X115219Y49469D01*
X115207Y49496D01*
X115204Y49509D01*
X115199Y49525D01*
X115195Y49539D01*
X115192Y49551D01*
X115189Y49591D01*
X115186Y49603D01*
X115183Y49680D01*
X115186Y49689D01*
X115189Y49744D01*
X115192Y49753D01*
X115195Y49783D01*
X115201Y49799D01*
X115204Y49811D01*
X115209Y49834D01*
X115216Y49850D01*
X115222Y49875D01*
X115225Y49881D01*
X115259Y49945D01*
X115279Y49974D01*
X115291Y49992D01*
X115299Y50000D01*
X115300Y50005D01*
X115305Y50006D01*
X115308Y50012D01*
X115323Y50028D01*
X115326Y50034D01*
X115337Y50041D01*
X115338Y50043D01*
X115349Y50054D01*
X115355Y50056D01*
X115367Y50069D01*
X115373Y50072D01*
X115383Y50081D01*
X115389Y50084D01*
X115398Y50093D01*
X115413Y50102D01*
X115431Y50115D01*
X115437Y50118D01*
X115492Y50148D01*
X115523Y50160D01*
X115544Y50169D01*
X115578Y50185D01*
X115596Y50188D01*
X115624Y50200D01*
X115639Y50203D01*
X115654Y50209D01*
X115666Y50212D01*
X115692Y50217D01*
X115708Y50223D01*
X115720Y50226D01*
X115747Y50229D01*
X115766Y50232D01*
X115790Y50238D01*
X115831Y50243D01*
X115894Y50247D01*
X115935Y50252D01*
X116075Y50255D01*
X116106Y50252D01*
D02*
G37*
G36*
X98437Y50331D02*
X98477Y50310D01*
X98486Y50301D01*
X98492Y50298D01*
X98509Y50281D01*
X98511Y50276D01*
X98517Y50273D01*
X98531Y50260D01*
X98533Y50253D01*
X98549Y50238D01*
X98552Y50232D01*
X98561Y50223D01*
X98564Y50217D01*
X98579Y50195D01*
X98582Y50189D01*
X98589Y50183D01*
X98601Y50162D01*
X98622Y50116D01*
X98637Y50082D01*
X98645Y50063D01*
X98650Y50046D01*
X98653Y50034D01*
X98662Y50003D01*
X98665Y49991D01*
X98669Y49953D01*
X98672Y49937D01*
X98677Y49896D01*
X98674Y49780D01*
X98671Y49771D01*
X98665Y49719D01*
X98660Y49700D01*
X98653Y49674D01*
X98650Y49652D01*
X98642Y49632D01*
X98637Y49615D01*
X98634Y49603D01*
X98622Y49576D01*
X98618Y49559D01*
X98610Y49545D01*
X98607Y49533D01*
X98592Y49499D01*
X98567Y49454D01*
X98552Y49426D01*
X98540Y49405D01*
X98533Y49399D01*
X98531Y49390D01*
X98521Y49380D01*
X98512Y49365D01*
X98506Y49359D01*
X98497Y49344D01*
X98491Y49338D01*
X98488Y49332D01*
X98475Y49319D01*
X98472Y49313D01*
X98460Y49301D01*
X98457Y49295D01*
X98453Y49290D01*
X98448Y49289D01*
X98445Y49283D01*
X98410Y49248D01*
X98404Y49245D01*
X98382Y49223D01*
X98376Y49220D01*
X98366Y49210D01*
X98369Y49191D01*
X98381Y49170D01*
X98387Y49155D01*
X98402Y49121D01*
X98405Y49109D01*
X98411Y49103D01*
X98418Y49081D01*
X98421Y49069D01*
X98430Y49048D01*
X98434Y49028D01*
X98442Y49011D01*
X98445Y48990D01*
X98451Y48965D01*
X98457Y48944D01*
X98460Y48932D01*
X98463Y48892D01*
X98466Y48883D01*
X98472Y48831D01*
X98475Y48746D01*
X98472Y48688D01*
X98469Y48666D01*
X98466Y48654D01*
X98460Y48602D01*
X98453Y48570D01*
X98448Y48553D01*
X98445Y48532D01*
X98437Y48512D01*
X98433Y48495D01*
X98430Y48483D01*
X98422Y48463D01*
X98418Y48450D01*
X98410Y48430D01*
X98402Y48413D01*
X98399Y48401D01*
X98390Y48386D01*
X98382Y48366D01*
X98378Y48361D01*
X98372Y48346D01*
X98363Y48331D01*
X98347Y48303D01*
X98335Y48282D01*
X98329Y48276D01*
X98326Y48267D01*
X98317Y48257D01*
X98305Y48236D01*
X98299Y48230D01*
X98295Y48224D01*
X98286Y48215D01*
X98277Y48199D01*
X98271Y48193D01*
X98268Y48187D01*
X98256Y48175D01*
X98253Y48169D01*
X98238Y48154D01*
X98236Y48149D01*
X98230Y48146D01*
X98225Y48141D01*
X98222Y48135D01*
X98218Y48131D01*
X98213Y48129D01*
X98210Y48123D01*
X98190Y48103D01*
X98184Y48100D01*
X98180Y48096D01*
X98178Y48091D01*
X98172Y48088D01*
X98157Y48073D01*
X98150Y48070D01*
X98138Y48057D01*
X98132Y48054D01*
X98123Y48045D01*
X98108Y48036D01*
X98102Y48030D01*
X98096Y48027D01*
X98086Y48018D01*
X98071Y48009D01*
X98042Y47989D01*
X98024Y47980D01*
X98019Y47975D01*
X97967Y47948D01*
X97952Y47941D01*
X97918Y47926D01*
X97897Y47917D01*
X97877Y47909D01*
X97880Y47900D01*
X97896Y47894D01*
X97932Y47876D01*
X97937Y47871D01*
X97952Y47865D01*
X97958Y47859D01*
X97980Y47847D01*
X97986Y47841D01*
X97995Y47838D01*
X98016Y47822D01*
X98022Y47819D01*
X98032Y47810D01*
X98038Y47807D01*
X98047Y47798D01*
X98053Y47795D01*
X98061Y47790D01*
X98062Y47786D01*
X98068Y47783D01*
X98079Y47775D01*
X98082Y47769D01*
X98093Y47761D01*
X98099Y47752D01*
X98105Y47749D01*
X98140Y47714D01*
X98143Y47708D01*
X98155Y47696D01*
X98158Y47690D01*
X98170Y47677D01*
X98173Y47671D01*
X98182Y47662D01*
X98186Y47656D01*
X98195Y47647D01*
X98204Y47632D01*
X98216Y47610D01*
X98225Y47601D01*
X98234Y47586D01*
X98265Y47528D01*
X98271Y47513D01*
X98283Y47485D01*
X98291Y47465D01*
X98306Y47441D01*
X98384Y47449D01*
X98399Y47452D01*
X98411Y47455D01*
X98427Y47458D01*
X98457Y47461D01*
X98475Y47464D01*
X98492Y47468D01*
X98505Y47471D01*
X98526Y47475D01*
X98559Y47484D01*
X98572Y47487D01*
X98607Y47494D01*
X98624Y47502D01*
X98648Y47505D01*
X98676Y47517D01*
X98698Y47522D01*
X98703Y47526D01*
X98724Y47532D01*
X98744Y47540D01*
X98761Y47548D01*
X98776Y47551D01*
X98791Y47560D01*
X98804Y47563D01*
X98837Y47578D01*
X98843Y47581D01*
X98859Y47591D01*
X98871Y47594D01*
X98877Y47600D01*
X98892Y47606D01*
X98907Y47615D01*
X98959Y47642D01*
X98965Y47649D01*
X98978Y47651D01*
X98987Y47661D01*
X99008Y47673D01*
X99014Y47679D01*
X99023Y47682D01*
X99029Y47688D01*
X99036Y47691D01*
X99057Y47706D01*
X99086Y47726D01*
X99097Y47737D01*
X99112Y47746D01*
X99118Y47752D01*
X99124Y47755D01*
X99136Y47767D01*
X99142Y47771D01*
X99155Y47783D01*
X99161Y47786D01*
X99173Y47798D01*
X99179Y47801D01*
X99182Y47807D01*
X99188Y47810D01*
X99219Y47841D01*
X99223Y47842D01*
X99226Y47848D01*
X99231Y47853D01*
X99237Y47856D01*
X99266Y47885D01*
X99269Y47891D01*
X99297Y47919D01*
X99300Y47925D01*
X99304Y47929D01*
X99309Y47931D01*
X99312Y47937D01*
X99324Y47949D01*
X99327Y47955D01*
X99339Y47967D01*
X99342Y47973D01*
X99352Y47983D01*
X99354Y47989D01*
X99367Y48001D01*
X99370Y48007D01*
X99391Y48035D01*
X99437Y48099D01*
X99449Y48120D01*
X99455Y48126D01*
X99464Y48141D01*
X99477Y48163D01*
X99486Y48172D01*
X99489Y48178D01*
X99518Y48207D01*
X99551Y48222D01*
X99574Y48227D01*
X99603Y48228D01*
X99612Y48225D01*
X99634Y48222D01*
X99654Y48215D01*
X99658Y48210D01*
X99680Y48198D01*
X99696Y48184D01*
X99709Y48172D01*
X99712Y48166D01*
X99721Y48157D01*
X99733Y48129D01*
X99736Y48117D01*
X99738Y48088D01*
X99734Y48057D01*
X99731Y48045D01*
X99724Y48038D01*
X99721Y48025D01*
X99718Y48019D01*
X99712Y48013D01*
X99709Y48007D01*
X99699Y47992D01*
X99693Y47986D01*
X99669Y47943D01*
X99663Y47937D01*
X99654Y47922D01*
X99647Y47916D01*
X99638Y47900D01*
X99632Y47894D01*
X99629Y47888D01*
X99620Y47879D01*
X99611Y47864D01*
X99605Y47857D01*
X99596Y47842D01*
X99590Y47836D01*
X99586Y47830D01*
X99574Y47818D01*
X99571Y47812D01*
X99562Y47803D01*
X99559Y47796D01*
X99550Y47787D01*
X99547Y47781D01*
X99541Y47775D01*
X99538Y47769D01*
X99528Y47760D01*
X99525Y47754D01*
X99516Y47748D01*
X99513Y47741D01*
X99486Y47714D01*
X99483Y47708D01*
X99474Y47702D01*
X99471Y47696D01*
X99408Y47633D01*
X99402Y47630D01*
X99396Y47621D01*
X99390Y47618D01*
X99362Y47591D01*
X99356Y47587D01*
X99344Y47575D01*
X99338Y47572D01*
X99316Y47551D01*
X99310Y47548D01*
X99294Y47534D01*
X99289Y47529D01*
X99283Y47526D01*
X99274Y47517D01*
X99268Y47514D01*
X99261Y47508D01*
X99255Y47505D01*
X99239Y47491D01*
X99222Y47481D01*
X99216Y47475D01*
X99200Y47465D01*
X99179Y47453D01*
X99170Y47444D01*
X99161Y47441D01*
X99152Y47432D01*
X99088Y47395D01*
X99081Y47389D01*
X99062Y47381D01*
X99054Y47374D01*
X99034Y47366D01*
X99020Y47359D01*
X98981Y47340D01*
X98975Y47337D01*
X98968Y47331D01*
X98939Y47320D01*
X98935Y47316D01*
X98923Y47313D01*
X98907Y47307D01*
X98886Y47297D01*
X98859Y47285D01*
X98846Y47282D01*
X98819Y47270D01*
X98799Y47265D01*
X98785Y47258D01*
X98773Y47255D01*
X98756Y47250D01*
X98737Y47243D01*
X98724Y47240D01*
X98707Y47235D01*
X98692Y47229D01*
X98680Y47226D01*
X98662Y47223D01*
X98627Y47212D01*
X98605Y47209D01*
X98589Y47204D01*
X98563Y47197D01*
X98518Y47189D01*
X98506Y47186D01*
X98491Y47183D01*
X98463Y47180D01*
X98427Y47174D01*
X98411Y47171D01*
X98370Y47166D01*
X98349Y47163D01*
X98344Y47159D01*
X98341Y47137D01*
X98338Y47088D01*
X98335Y47079D01*
X98332Y47058D01*
X98329Y47046D01*
X98326Y47015D01*
X98320Y47000D01*
X98314Y46975D01*
X98311Y46957D01*
X98302Y46936D01*
X98299Y46924D01*
X98286Y46896D01*
X98279Y46876D01*
X98271Y46859D01*
X98265Y46844D01*
X98259Y46838D01*
X98250Y46814D01*
X98244Y46808D01*
X98238Y46792D01*
X98231Y46786D01*
X98228Y46780D01*
X98210Y46750D01*
X98207Y46744D01*
X98198Y46734D01*
X98195Y46728D01*
X98186Y46719D01*
X98176Y46704D01*
X98170Y46698D01*
X98167Y46692D01*
X98152Y46676D01*
X98149Y46670D01*
X98124Y46646D01*
X98122Y46640D01*
X98111Y46632D01*
X98105Y46623D01*
X98099Y46620D01*
X98094Y46615D01*
X98093Y46611D01*
X98086Y46608D01*
X98071Y46592D01*
X98065Y46589D01*
X98062Y46583D01*
X98056Y46580D01*
X98048Y46576D01*
X98045Y46569D01*
X98027Y46557D01*
X98022Y46553D01*
X98013Y46550D01*
X98009Y46545D01*
X98012Y46539D01*
X98016Y46534D01*
X98025Y46531D01*
X98041Y46522D01*
X98080Y46501D01*
X98096Y46492D01*
X98102Y46489D01*
X98108Y46483D01*
X98114Y46479D01*
X98129Y46470D01*
X98135Y46464D01*
X98150Y46455D01*
X98210Y46411D01*
X98218Y46403D01*
X98224Y46400D01*
X98248Y46376D01*
X98254Y46373D01*
X98260Y46363D01*
X98267Y46360D01*
X98314Y46313D01*
X98317Y46307D01*
X98344Y46280D01*
X98347Y46273D01*
X98356Y46264D01*
X98360Y46258D01*
X98381Y46231D01*
X98387Y46225D01*
X98396Y46209D01*
X98402Y46203D01*
X98405Y46194D01*
X98414Y46185D01*
X98427Y46164D01*
X98434Y46156D01*
X98453Y46159D01*
X98462Y46168D01*
X98479Y46173D01*
X98511Y46187D01*
X98523Y46190D01*
X98529Y46196D01*
X98541Y46199D01*
X98558Y46203D01*
X98575Y46211D01*
X98587Y46214D01*
X98605Y46217D01*
X98627Y46226D01*
X98656Y46231D01*
X98692Y46240D01*
X98717Y46243D01*
X98753Y46246D01*
X98781Y46249D01*
X98871Y46251D01*
X98880Y46248D01*
X98938Y46244D01*
X98959Y46241D01*
X98979Y46237D01*
X98996Y46232D01*
X99008Y46229D01*
X99036Y46226D01*
X99057Y46217D01*
X99069Y46214D01*
X99089Y46209D01*
X99106Y46202D01*
X99126Y46197D01*
X99146Y46187D01*
X99158Y46183D01*
X99185Y46171D01*
X99200Y46165D01*
X99207Y46159D01*
X99226Y46151D01*
X99246Y46141D01*
X99261Y46132D01*
X99289Y46116D01*
X99310Y46104D01*
X99316Y46098D01*
X99338Y46086D01*
X99376Y46060D01*
X99380Y46055D01*
X99396Y46046D01*
X99402Y46040D01*
X99408Y46037D01*
X99417Y46028D01*
X99423Y46025D01*
X99440Y46011D01*
X99451Y46003D01*
X99460Y45994D01*
X99466Y45991D01*
X99478Y45979D01*
X99484Y45976D01*
X99509Y45952D01*
X99515Y45948D01*
X99519Y45944D01*
X99521Y45939D01*
X99527Y45936D01*
X99620Y45843D01*
X99623Y45837D01*
X99632Y45831D01*
X99635Y45825D01*
X99663Y45797D01*
X99666Y45791D01*
X99678Y45779D01*
X99681Y45773D01*
X99703Y45752D01*
X99705Y45746D01*
X99721Y45724D01*
X99736Y45691D01*
X99741Y45655D01*
X99742Y45648D01*
X99739Y45639D01*
X99734Y45607D01*
X99731Y45594D01*
X99721Y45575D01*
X99718Y45568D01*
X99712Y45562D01*
X99709Y45556D01*
X99695Y45540D01*
X99683Y45527D01*
X99667Y45518D01*
X99661Y45512D01*
X99645Y45507D01*
X99628Y45500D01*
X99616Y45497D01*
X99573Y45500D01*
X99539Y45518D01*
X99533Y45524D01*
X99527Y45527D01*
X99504Y45550D01*
X99501Y45556D01*
X99489Y45568D01*
X99486Y45575D01*
X99474Y45587D01*
X99471Y45593D01*
X99455Y45608D01*
X99452Y45614D01*
X99431Y45636D01*
X99428Y45642D01*
X99413Y45657D01*
X99410Y45663D01*
X99397Y45675D01*
X99394Y45681D01*
X99390Y45686D01*
X99385Y45687D01*
X99382Y45694D01*
X99274Y45802D01*
X99268Y45805D01*
X99252Y45820D01*
X99246Y45823D01*
X99237Y45832D01*
X99231Y45836D01*
X99219Y45848D01*
X99213Y45851D01*
X99203Y45860D01*
X99197Y45863D01*
X99176Y45878D01*
X99170Y45881D01*
X99161Y45890D01*
X99146Y45900D01*
X99124Y45912D01*
X99118Y45918D01*
X99098Y45926D01*
X99090Y45933D01*
X99074Y45938D01*
X99069Y45942D01*
X99063Y45945D01*
X99048Y45952D01*
X99036Y45955D01*
X99029Y45961D01*
X99005Y45967D01*
X98985Y45974D01*
X98968Y45979D01*
X98947Y45982D01*
X98935Y45985D01*
X98914Y45991D01*
X98856Y45994D01*
X98788Y45991D01*
X98779Y45988D01*
X98758Y45982D01*
X98718Y45976D01*
X98697Y45967D01*
X98672Y45961D01*
X98651Y45952D01*
X98631Y45944D01*
X98627Y45939D01*
X98614Y45936D01*
X98575Y45915D01*
X98549Y45901D01*
X98552Y45862D01*
X98561Y45840D01*
X98566Y45805D01*
X98569Y45787D01*
X98572Y45774D01*
X98575Y45759D01*
X98578Y45729D01*
X98581Y45674D01*
X98582Y45562D01*
X98579Y45553D01*
X98576Y45480D01*
X98573Y45471D01*
X98569Y45451D01*
X98566Y45439D01*
X98563Y45411D01*
X98559Y45396D01*
X98549Y45361D01*
X98544Y45335D01*
X98537Y45318D01*
X98533Y45306D01*
X98529Y45289D01*
X98521Y45272D01*
X98517Y45256D01*
X98523Y45246D01*
X98552Y45242D01*
X98569Y45237D01*
X98581Y45234D01*
X98620Y45228D01*
X98642Y45219D01*
X98671Y45214D01*
X98686Y45208D01*
X98703Y45204D01*
X98723Y45199D01*
X98739Y45191D01*
X98752Y45189D01*
X98769Y45184D01*
X98785Y45176D01*
X98798Y45173D01*
X98825Y45161D01*
X98837Y45158D01*
X98843Y45155D01*
X98871Y45143D01*
X98877Y45140D01*
X98929Y45115D01*
X98968Y45094D01*
X99002Y45076D01*
X99045Y45051D01*
X99051Y45045D01*
X99072Y45033D01*
X99101Y45013D01*
X99118Y45002D01*
X99177Y44958D01*
X99182Y44954D01*
X99188Y44950D01*
X99197Y44941D01*
X99203Y44938D01*
X99216Y44926D01*
X99222Y44923D01*
X99234Y44911D01*
X99240Y44908D01*
X99255Y44892D01*
X99261Y44889D01*
X99286Y44865D01*
X99292Y44862D01*
X99300Y44851D01*
X99309Y44845D01*
X99312Y44839D01*
X99316Y44834D01*
X99321Y44833D01*
X99324Y44827D01*
X99367Y44784D01*
X99370Y44778D01*
X99382Y44766D01*
X99385Y44760D01*
X99400Y44744D01*
X99403Y44738D01*
X99416Y44726D01*
X99419Y44720D01*
X99428Y44711D01*
X99431Y44705D01*
X99440Y44696D01*
X99449Y44680D01*
X99455Y44674D01*
X99458Y44668D01*
X99467Y44659D01*
X99471Y44653D01*
X99486Y44631D01*
X99495Y44616D01*
X99501Y44610D01*
X99504Y44601D01*
X99513Y44592D01*
X99538Y44549D01*
X99553Y44522D01*
X99565Y44500D01*
X99605Y44418D01*
X99617Y44390D01*
X99620Y44351D01*
X99617Y44311D01*
X99605Y44293D01*
X99602Y44280D01*
X99590Y44268D01*
X99586Y44262D01*
X99582Y44254D01*
X99576Y44251D01*
X99561Y44236D01*
X99545Y44227D01*
X99524Y44218D01*
X99509Y44212D01*
X99497Y44209D01*
X99466Y44206D01*
X99454Y44209D01*
X99435Y44212D01*
X99429Y44218D01*
X99417Y44221D01*
X99390Y44242D01*
X99382Y44250D01*
X99379Y44256D01*
X99373Y44262D01*
X99361Y44284D01*
X99330Y44341D01*
X99315Y44369D01*
X99303Y44390D01*
X99297Y44396D01*
X99294Y44409D01*
X99284Y44418D01*
X99272Y44439D01*
X99257Y44461D01*
X99237Y44490D01*
X99229Y44500D01*
X99223Y44506D01*
X99214Y44522D01*
X99208Y44528D01*
X99199Y44543D01*
X99193Y44549D01*
X99190Y44555D01*
X99165Y44580D01*
X99162Y44586D01*
X99147Y44601D01*
X99144Y44607D01*
X99063Y44688D01*
X99057Y44691D01*
X99042Y44706D01*
X99036Y44709D01*
X99023Y44721D01*
X99017Y44725D01*
X99014Y44731D01*
X99008Y44734D01*
X98991Y44747D01*
X98975Y44758D01*
X98968Y44764D01*
X98962Y44767D01*
X98953Y44776D01*
X98932Y44789D01*
X98898Y44810D01*
X98892Y44813D01*
X98886Y44819D01*
X98866Y44827D01*
X98859Y44834D01*
X98839Y44842D01*
X98831Y44850D01*
X98814Y44854D01*
X98795Y44865D01*
X98755Y44883D01*
X98727Y44895D01*
X98711Y44900D01*
X98706Y44905D01*
X98685Y44911D01*
X98654Y44923D01*
X98630Y44929D01*
X98608Y44938D01*
X98585Y44943D01*
X98570Y44949D01*
X98553Y44954D01*
X98531Y44958D01*
X98505Y44966D01*
X98483Y44969D01*
X98463Y44973D01*
X98447Y44978D01*
X98434Y44981D01*
X98404Y44984D01*
X98384Y44989D01*
X98370Y44990D01*
X98356Y44979D01*
X98353Y44973D01*
X98341Y44961D01*
X98338Y44955D01*
X98314Y44931D01*
X98311Y44925D01*
X98302Y44918D01*
X98299Y44912D01*
X98251Y44865D01*
X98245Y44862D01*
X98221Y44837D01*
X98215Y44834D01*
X98202Y44822D01*
X98196Y44819D01*
X98187Y44810D01*
X98172Y44801D01*
X98163Y44792D01*
X98157Y44789D01*
X98150Y44783D01*
X98129Y44770D01*
X98123Y44764D01*
X98108Y44755D01*
X98086Y44743D01*
X98080Y44737D01*
X98065Y44731D01*
X98047Y44719D01*
X98038Y44715D01*
X98022Y44706D01*
X98007Y44700D01*
X97992Y44691D01*
X97980Y44688D01*
X97961Y44676D01*
X97943Y44673D01*
X97928Y44664D01*
X97903Y44657D01*
X97882Y44648D01*
X97870Y44645D01*
X97850Y44638D01*
X97833Y44633D01*
X97801Y44625D01*
X97787Y44621D01*
X97745Y44615D01*
X97720Y44609D01*
X97699Y44605D01*
X97687Y44603D01*
X97597Y44598D01*
X97522Y44596D01*
X97513Y44599D01*
X97426Y44604D01*
X97407Y44607D01*
X97392Y44610D01*
X97380Y44613D01*
X97361Y44616D01*
X97328Y44622D01*
X97302Y44630D01*
X97270Y44638D01*
X97253Y44645D01*
X97230Y44650D01*
X97204Y44660D01*
X97188Y44665D01*
X97183Y44670D01*
X97168Y44676D01*
X97153Y44679D01*
X97143Y44688D01*
X97123Y44693D01*
X97119Y44697D01*
X97113Y44700D01*
X97097Y44706D01*
X97091Y44709D01*
X97085Y44715D01*
X97066Y44723D01*
X97061Y44728D01*
X97055Y44731D01*
X97012Y44755D01*
X97006Y44761D01*
X96991Y44770D01*
X96985Y44776D01*
X96963Y44789D01*
X96946Y44802D01*
X96942Y44807D01*
X96927Y44816D01*
X96921Y44822D01*
X96914Y44825D01*
X96902Y44837D01*
X96896Y44840D01*
X96872Y44865D01*
X96866Y44868D01*
X96861Y44873D01*
X96860Y44877D01*
X96853Y44880D01*
X96818Y44915D01*
X96815Y44921D01*
X96806Y44927D01*
X96803Y44934D01*
X96779Y44958D01*
X96776Y44964D01*
X96763Y44976D01*
X96760Y44982D01*
X96753Y44990D01*
X96722Y44987D01*
X96713Y44984D01*
X96675Y44979D01*
X96649Y44972D01*
X96637Y44969D01*
X96608Y44964D01*
X96582Y44956D01*
X96570Y44954D01*
X96551Y44950D01*
X96530Y44941D01*
X96498Y44934D01*
X96481Y44926D01*
X96461Y44921D01*
X96444Y44914D01*
X96432Y44911D01*
X96417Y44905D01*
X96395Y44895D01*
X96376Y44888D01*
X96359Y44880D01*
X96350Y44877D01*
X96334Y44868D01*
X96315Y44860D01*
X96310Y44856D01*
X96290Y44848D01*
X96267Y44834D01*
X96234Y44816D01*
X96219Y44807D01*
X96212Y44804D01*
X96206Y44798D01*
X96200Y44795D01*
X96162Y44769D01*
X96144Y44757D01*
X96136Y44749D01*
X96121Y44740D01*
X96115Y44734D01*
X96109Y44731D01*
X96100Y44721D01*
X96093Y44719D01*
X96078Y44703D01*
X96072Y44700D01*
X96069Y44694D01*
X96063Y44691D01*
X96048Y44676D01*
X96042Y44673D01*
X95985Y44616D01*
X95982Y44610D01*
X95967Y44595D01*
X95965Y44590D01*
X95959Y44587D01*
X95951Y44576D01*
X95939Y44564D01*
X95936Y44558D01*
X95927Y44549D01*
X95924Y44543D01*
X95915Y44534D01*
X95912Y44528D01*
X95898Y44511D01*
X95890Y44500D01*
X95884Y44494D01*
X95875Y44479D01*
X95863Y44458D01*
X95854Y44448D01*
X95845Y44433D01*
X95832Y44412D01*
X95826Y44406D01*
X95802Y44363D01*
X95787Y44335D01*
X95768Y44302D01*
X95744Y44256D01*
X95732Y44244D01*
X95730Y44239D01*
X95724Y44236D01*
X95712Y44224D01*
X95692Y44216D01*
X95675Y44209D01*
X95642Y44206D01*
X95632Y44209D01*
X95611Y44212D01*
X95590Y44221D01*
X95574Y44230D01*
X95553Y44245D01*
X95536Y44259D01*
X95515Y44290D01*
X95503Y44317D01*
X95500Y44339D01*
X95503Y44396D01*
X95515Y44415D01*
X95518Y44430D01*
X95530Y44448D01*
X95533Y44461D01*
X95539Y44467D01*
X95546Y44482D01*
X95555Y44497D01*
X95570Y44525D01*
X95582Y44546D01*
X95597Y44574D01*
X95604Y44580D01*
X95607Y44589D01*
X95616Y44598D01*
X95628Y44619D01*
X95658Y44662D01*
X95672Y44679D01*
X95683Y44696D01*
X95689Y44702D01*
X95692Y44708D01*
X95706Y44725D01*
X95713Y44735D01*
X95735Y44757D01*
X95738Y44763D01*
X95750Y44775D01*
X95753Y44781D01*
X95784Y44811D01*
X95787Y44818D01*
X95834Y44865D01*
X95840Y44868D01*
X95864Y44892D01*
X95871Y44895D01*
X95889Y44914D01*
X95895Y44917D01*
X95904Y44926D01*
X95910Y44929D01*
X95913Y44935D01*
X95919Y44938D01*
X95930Y44946D01*
X95932Y44950D01*
X95938Y44954D01*
X95955Y44967D01*
X95971Y44978D01*
X95977Y44984D01*
X95983Y44987D01*
X95993Y44996D01*
X96008Y45005D01*
X96039Y45027D01*
X96054Y45036D01*
X96075Y45048D01*
X96081Y45054D01*
X96102Y45066D01*
X96157Y45097D01*
X96197Y45115D01*
X96212Y45124D01*
X96228Y45131D01*
X96261Y45146D01*
X96289Y45158D01*
X96301Y45161D01*
X96328Y45173D01*
X96368Y45189D01*
X96386Y45191D01*
X96408Y45201D01*
X96432Y45207D01*
X96447Y45213D01*
X96460Y45216D01*
X96492Y45224D01*
X96518Y45231D01*
X96550Y45236D01*
X96562Y45239D01*
X96579Y45243D01*
X96599Y45248D01*
X96605Y45254D01*
X96602Y45266D01*
X96599Y45276D01*
X96591Y45295D01*
X96586Y45309D01*
X96583Y45321D01*
X96576Y45341D01*
X96571Y45358D01*
X96566Y45384D01*
X96559Y45404D01*
X96556Y45434D01*
X96545Y45485D01*
X96542Y45518D01*
X96539Y45570D01*
X96538Y45666D01*
X96540Y45675D01*
X96544Y45755D01*
X96547Y45764D01*
X96553Y45788D01*
X96556Y45819D01*
X96562Y45846D01*
X96568Y45862D01*
X96571Y45883D01*
X96574Y45895D01*
X96571Y45901D01*
X96566Y45906D01*
X96551Y45915D01*
X96524Y45930D01*
X96478Y45952D01*
X96466Y45955D01*
X96460Y45961D01*
X96447Y45964D01*
X96431Y45968D01*
X96415Y45974D01*
X96399Y45979D01*
X96373Y45983D01*
X96356Y45988D01*
X96334Y45991D01*
X96286Y45994D01*
X96229Y45990D01*
X96214Y45987D01*
X96202Y45983D01*
X96187Y45981D01*
X96162Y45977D01*
X96147Y45971D01*
X96130Y45967D01*
X96106Y45961D01*
X96084Y45952D01*
X96069Y45945D01*
X96042Y45933D01*
X96035Y45930D01*
X96029Y45924D01*
X96009Y45916D01*
X96002Y45909D01*
X95982Y45901D01*
X95974Y45893D01*
X95959Y45884D01*
X95930Y45864D01*
X95912Y45852D01*
X95907Y45848D01*
X95901Y45845D01*
X95889Y45832D01*
X95883Y45829D01*
X95871Y45817D01*
X95864Y45814D01*
X95852Y45802D01*
X95846Y45799D01*
X95834Y45787D01*
X95828Y45784D01*
X95823Y45779D01*
X95822Y45774D01*
X95816Y45771D01*
X95738Y45694D01*
X95735Y45687D01*
X95719Y45672D01*
X95716Y45666D01*
X95692Y45642D01*
X95689Y45636D01*
X95674Y45620D01*
X95671Y45614D01*
X95649Y45593D01*
X95646Y45587D01*
X95634Y45575D01*
X95631Y45568D01*
X95622Y45559D01*
X95619Y45553D01*
X95613Y45547D01*
X95611Y45542D01*
X95605Y45540D01*
X95600Y45535D01*
X95597Y45529D01*
X95574Y45512D01*
X95535Y45497D01*
X95489Y45500D01*
X95449Y45521D01*
X95430Y45535D01*
X95426Y45541D01*
X95417Y45547D01*
X95414Y45553D01*
X95399Y45575D01*
X95384Y45608D01*
X95381Y45657D01*
X95384Y45694D01*
X95405Y45733D01*
X95414Y45742D01*
X95417Y45748D01*
X95426Y45758D01*
X95430Y45764D01*
X95442Y45776D01*
X95445Y45782D01*
X95460Y45797D01*
X95463Y45803D01*
X95487Y45828D01*
X95491Y45834D01*
X95500Y45840D01*
X95503Y45846D01*
X95596Y45939D01*
X95602Y45942D01*
X95605Y45948D01*
X95611Y45952D01*
X95639Y45979D01*
X95645Y45982D01*
X95657Y45994D01*
X95663Y45997D01*
X95672Y46006D01*
X95678Y46009D01*
X95688Y46019D01*
X95694Y46022D01*
X95710Y46035D01*
X95721Y46043D01*
X95727Y46049D01*
X95742Y46058D01*
X95749Y46064D01*
X95764Y46074D01*
X95770Y46080D01*
X95791Y46092D01*
X95825Y46113D01*
X95840Y46122D01*
X95861Y46135D01*
X95938Y46171D01*
X95965Y46183D01*
X95985Y46191D01*
X96002Y46199D01*
X96019Y46203D01*
X96034Y46209D01*
X96067Y46218D01*
X96083Y46225D01*
X96098Y46228D01*
X96135Y46234D01*
X96151Y46238D01*
X96164Y46241D01*
X96203Y46244D01*
X96234Y46248D01*
X96273Y46251D01*
X96359Y46248D01*
X96368Y46244D01*
X96426Y46241D01*
X96435Y46238D01*
X96457Y46232D01*
X96469Y46229D01*
X96498Y46225D01*
X96513Y46218D01*
X96530Y46214D01*
X96548Y46211D01*
X96576Y46199D01*
X96591Y46196D01*
X96618Y46183D01*
X96631Y46180D01*
X96637Y46174D01*
X96661Y46165D01*
X96676Y46156D01*
X96692Y46159D01*
X96696Y46164D01*
X96705Y46182D01*
X96707Y46183D01*
X96715Y46191D01*
X96727Y46213D01*
X96733Y46218D01*
X96736Y46225D01*
X96745Y46234D01*
X96754Y46249D01*
X96760Y46255D01*
X96763Y46261D01*
X96772Y46270D01*
X96776Y46277D01*
X96791Y46292D01*
X96794Y46298D01*
X96818Y46322D01*
X96821Y46328D01*
X96832Y46336D01*
X96849Y46353D01*
X96852Y46359D01*
X96863Y46367D01*
X96887Y46391D01*
X96893Y46394D01*
X96902Y46403D01*
X96908Y46406D01*
X96921Y46418D01*
X96927Y46422D01*
X96939Y46434D01*
X96954Y46443D01*
X96960Y46449D01*
X96975Y46458D01*
X96982Y46464D01*
X96997Y46473D01*
X97018Y46486D01*
X97024Y46492D01*
X97040Y46501D01*
X97110Y46538D01*
X97111Y46545D01*
X97104Y46553D01*
X97097Y46556D01*
X97091Y46562D01*
X97085Y46565D01*
X97069Y46579D01*
X97058Y46586D01*
X97049Y46595D01*
X97043Y46599D01*
X96968Y46673D01*
X96965Y46679D01*
X96952Y46692D01*
X96949Y46698D01*
X96943Y46704D01*
X96940Y46710D01*
X96927Y46727D01*
X96914Y46745D01*
X96910Y46750D01*
X96885Y46792D01*
X96879Y46799D01*
X96876Y46811D01*
X96867Y46820D01*
X96858Y46844D01*
X96852Y46850D01*
X96849Y46863D01*
X96833Y46896D01*
X96830Y46908D01*
X96821Y46930D01*
X96818Y46942D01*
X96811Y46962D01*
X96806Y46979D01*
X96798Y47011D01*
X96794Y47027D01*
X96791Y47040D01*
X96786Y47081D01*
X96783Y47099D01*
X96780Y47114D01*
X96777Y47154D01*
X96769Y47165D01*
X96730Y47168D01*
X96690Y47174D01*
X96675Y47177D01*
X96617Y47186D01*
X96592Y47192D01*
X96538Y47201D01*
X96512Y47209D01*
X96482Y47214D01*
X96467Y47220D01*
X96455Y47223D01*
X96440Y47226D01*
X96415Y47235D01*
X96403Y47238D01*
X96385Y47241D01*
X96370Y47247D01*
X96356Y47252D01*
X96344Y47255D01*
X96316Y47267D01*
X96296Y47271D01*
X96270Y47282D01*
X96254Y47287D01*
X96249Y47291D01*
X96234Y47297D01*
X96222Y47300D01*
X96206Y47310D01*
X96194Y47313D01*
X96161Y47328D01*
X96154Y47331D01*
X96139Y47340D01*
X96119Y47348D01*
X96115Y47352D01*
X96095Y47360D01*
X96072Y47374D01*
X96039Y47392D01*
X96011Y47407D01*
X96005Y47413D01*
X95993Y47416D01*
X95971Y47432D01*
X95965Y47435D01*
X95959Y47441D01*
X95938Y47453D01*
X95932Y47459D01*
X95916Y47468D01*
X95895Y47484D01*
X95878Y47497D01*
X95854Y47513D01*
X95849Y47517D01*
X95843Y47520D01*
X95831Y47532D01*
X95825Y47535D01*
X95816Y47545D01*
X95810Y47548D01*
X95797Y47560D01*
X95791Y47563D01*
X95779Y47575D01*
X95773Y47578D01*
X95761Y47591D01*
X95755Y47594D01*
X95727Y47621D01*
X95721Y47624D01*
X95713Y47635D01*
X95707Y47638D01*
X95704Y47644D01*
X95700Y47649D01*
X95694Y47651D01*
X95658Y47687D01*
X95657Y47691D01*
X95651Y47694D01*
X95646Y47699D01*
X95643Y47705D01*
X95639Y47710D01*
X95634Y47711D01*
X95631Y47717D01*
X95604Y47745D01*
X95600Y47751D01*
X95585Y47766D01*
X95582Y47772D01*
X95573Y47781D01*
X95570Y47787D01*
X95558Y47800D01*
X95555Y47806D01*
X95546Y47815D01*
X95543Y47821D01*
X95530Y47833D01*
X95527Y47839D01*
X95518Y47848D01*
X95509Y47864D01*
X95503Y47870D01*
X95494Y47885D01*
X95487Y47891D01*
X95485Y47897D01*
X95475Y47906D01*
X95463Y47928D01*
X95457Y47934D01*
X95448Y47949D01*
X95436Y47970D01*
X95430Y47976D01*
X95420Y47992D01*
X95408Y48013D01*
X95399Y48022D01*
X95394Y48039D01*
X95390Y48044D01*
X95384Y48065D01*
X95382Y48097D01*
X95385Y48128D01*
X95405Y48163D01*
X95411Y48169D01*
X95414Y48175D01*
X95434Y48195D01*
X95440Y48198D01*
X95446Y48204D01*
X95486Y48222D01*
X95510Y48225D01*
X95520Y48228D01*
X95556Y48225D01*
X95565Y48222D01*
X95584Y48219D01*
X95593Y48210D01*
X95614Y48198D01*
X95631Y48181D01*
X95634Y48175D01*
X95665Y48132D01*
X95668Y48126D01*
X95674Y48120D01*
X95698Y48077D01*
X95707Y48068D01*
X95710Y48062D01*
X95719Y48053D01*
X95729Y48038D01*
X95735Y48031D01*
X95744Y48016D01*
X95750Y48010D01*
X95753Y48004D01*
X95762Y47995D01*
X95765Y47989D01*
X95777Y47976D01*
X95781Y47970D01*
X95790Y47961D01*
X95793Y47955D01*
X95806Y47938D01*
X95826Y47919D01*
X95828Y47914D01*
X95834Y47911D01*
X95842Y47900D01*
X95919Y47822D01*
X95924Y47821D01*
X95927Y47815D01*
X95932Y47810D01*
X95938Y47807D01*
X95962Y47783D01*
X95968Y47780D01*
X95977Y47771D01*
X95983Y47767D01*
X95996Y47755D01*
X96002Y47752D01*
X96019Y47739D01*
X96029Y47731D01*
X96035Y47725D01*
X96051Y47716D01*
X96057Y47710D01*
X96072Y47700D01*
X96078Y47694D01*
X96093Y47685D01*
X96115Y47673D01*
X96121Y47667D01*
X96136Y47658D01*
X96164Y47642D01*
X96170Y47636D01*
X96182Y47633D01*
X96188Y47627D01*
X96194Y47624D01*
X96215Y47612D01*
X96231Y47606D01*
X96246Y47597D01*
X96261Y47591D01*
X96319Y47563D01*
X96331Y47560D01*
X96386Y47535D01*
X96399Y47532D01*
X96415Y47528D01*
X96432Y47520D01*
X96444Y47517D01*
X96464Y47510D01*
X96478Y47505D01*
X96499Y47502D01*
X96519Y47494D01*
X96533Y47490D01*
X96568Y47482D01*
X96585Y47477D01*
X96597Y47475D01*
X96621Y47471D01*
X96631Y47468D01*
X96652Y47462D01*
X96682Y47459D01*
X96708Y47455D01*
X96721Y47452D01*
X96736Y47449D01*
X96766Y47445D01*
X96800Y47442D01*
X96814Y47441D01*
X96821Y47449D01*
X96833Y47476D01*
X96838Y47493D01*
X96843Y47497D01*
X96849Y47513D01*
X96852Y47525D01*
X96861Y47534D01*
X96864Y47546D01*
X96876Y47565D01*
X96882Y47580D01*
X96895Y47598D01*
X96898Y47604D01*
X96904Y47610D01*
X96916Y47632D01*
X96922Y47638D01*
X96931Y47653D01*
X96937Y47659D01*
X96940Y47665D01*
X96949Y47674D01*
X96952Y47681D01*
X96965Y47693D01*
X96968Y47699D01*
X96980Y47711D01*
X96983Y47717D01*
X97033Y47767D01*
X97040Y47771D01*
X97046Y47780D01*
X97061Y47789D01*
X97067Y47795D01*
X97073Y47798D01*
X97085Y47810D01*
X97099Y47818D01*
X97101Y47822D01*
X97131Y47841D01*
X97137Y47844D01*
X97143Y47850D01*
X97149Y47853D01*
X97165Y47862D01*
X97171Y47868D01*
X97188Y47873D01*
X97195Y47880D01*
X97215Y47888D01*
X97242Y47903D01*
X97239Y47912D01*
X97227Y47916D01*
X97212Y47922D01*
X97192Y47929D01*
X97159Y47945D01*
X97153Y47948D01*
X97146Y47954D01*
X97127Y47961D01*
X97104Y47975D01*
X97097Y47978D01*
X97091Y47984D01*
X97076Y47990D01*
X97070Y47996D01*
X97064Y47999D01*
X97026Y48025D01*
X97021Y48030D01*
X97010Y48035D01*
X97008Y48041D01*
X96991Y48051D01*
X96982Y48061D01*
X96975Y48063D01*
X96966Y48073D01*
X96960Y48076D01*
X96945Y48091D01*
X96939Y48094D01*
X96933Y48103D01*
X96927Y48106D01*
X96922Y48111D01*
X96921Y48115D01*
X96914Y48118D01*
X96907Y48126D01*
X96904Y48132D01*
X96895Y48138D01*
X96891Y48144D01*
X96864Y48172D01*
X96861Y48178D01*
X96852Y48187D01*
X96849Y48193D01*
X96835Y48210D01*
X96827Y48221D01*
X96821Y48227D01*
X96818Y48233D01*
X96803Y48254D01*
X96800Y48260D01*
X96791Y48270D01*
X96788Y48282D01*
X96779Y48291D01*
X96766Y48312D01*
X96751Y48340D01*
X96745Y48355D01*
X96742Y48361D01*
X96733Y48376D01*
X96725Y48396D01*
X96721Y48401D01*
X96716Y48418D01*
X96710Y48433D01*
X96705Y48437D01*
X96701Y48457D01*
X96695Y48472D01*
X96687Y48492D01*
X96684Y48514D01*
X96675Y48535D01*
X96672Y48557D01*
X96667Y48573D01*
X96661Y48598D01*
X96658Y48622D01*
X96655Y48649D01*
X96652Y48668D01*
X96647Y48709D01*
X96644Y48776D01*
X96647Y48825D01*
X96652Y48863D01*
X96657Y48904D01*
X96660Y48917D01*
X96663Y48947D01*
X96669Y48962D01*
X96672Y48984D01*
X96675Y48996D01*
X96687Y49036D01*
X96690Y49048D01*
X96699Y49069D01*
X96702Y49081D01*
X96710Y49101D01*
X96715Y49106D01*
X96719Y49126D01*
X96730Y49145D01*
X96737Y49165D01*
X96742Y49170D01*
X96750Y49190D01*
X96754Y49194D01*
X96756Y49205D01*
X96748Y49216D01*
X96737Y49223D01*
X96728Y49233D01*
X96722Y49235D01*
X96679Y49278D01*
X96675Y49280D01*
X96672Y49286D01*
X96644Y49313D01*
X96641Y49319D01*
X96632Y49329D01*
X96629Y49335D01*
X96615Y49352D01*
X96608Y49362D01*
X96602Y49368D01*
X96592Y49384D01*
X96580Y49405D01*
X96571Y49414D01*
X96565Y49429D01*
X96559Y49435D01*
X96525Y49506D01*
X96513Y49533D01*
X96505Y49553D01*
X96498Y49570D01*
X96493Y49586D01*
X96486Y49603D01*
X96482Y49615D01*
X96479Y49634D01*
X96470Y49655D01*
X96467Y49677D01*
X96458Y49710D01*
X96455Y49722D01*
X96451Y49770D01*
X96446Y49811D01*
X96443Y49823D01*
X96446Y49921D01*
X96449Y49930D01*
X96453Y49974D01*
X96460Y50008D01*
X96467Y50028D01*
X96470Y50052D01*
X96482Y50079D01*
X96487Y50096D01*
X96492Y50101D01*
X96498Y50116D01*
X96501Y50128D01*
X96507Y50134D01*
X96513Y50150D01*
X96516Y50156D01*
X96522Y50162D01*
X96538Y50189D01*
X96568Y50232D01*
X96582Y50249D01*
X96599Y50266D01*
X96602Y50272D01*
X96612Y50279D01*
X96618Y50288D01*
X96624Y50292D01*
X96646Y50313D01*
X96685Y50331D01*
X96734Y50334D01*
X96763Y50330D01*
X96779Y50324D01*
X96783Y50319D01*
X96798Y50313D01*
X96808Y50304D01*
X96814Y50301D01*
X96846Y50269D01*
X96864Y50229D01*
X96867Y50189D01*
X96864Y50153D01*
X96849Y50128D01*
X96846Y50122D01*
X96837Y50113D01*
X96833Y50107D01*
X96803Y50076D01*
X96800Y50070D01*
X96788Y50058D01*
X96785Y50052D01*
X96776Y50043D01*
X96766Y50028D01*
X96745Y49982D01*
X96737Y49962D01*
X96733Y49948D01*
X96728Y49919D01*
X96725Y49904D01*
X96722Y49870D01*
X96721Y49832D01*
X96724Y49823D01*
X96736Y49741D01*
X96742Y49725D01*
X96745Y49713D01*
X96750Y49696D01*
X96754Y49686D01*
X96760Y49670D01*
X96765Y49654D01*
X96772Y49640D01*
X96782Y49615D01*
X96800Y49582D01*
X96812Y49561D01*
X96827Y49539D01*
X96847Y49510D01*
X96852Y49506D01*
X96855Y49499D01*
X96864Y49490D01*
X96867Y49484D01*
X96872Y49480D01*
X96878Y49477D01*
X96890Y49464D01*
X96896Y49461D01*
X96905Y49452D01*
X96916Y49448D01*
X96919Y49442D01*
X96924Y49437D01*
X96934Y49435D01*
X96949Y49442D01*
X96952Y49448D01*
X96963Y49455D01*
X96972Y49464D01*
X96978Y49468D01*
X96991Y49480D01*
X96997Y49483D01*
X97009Y49495D01*
X97024Y49504D01*
X97030Y49510D01*
X97046Y49519D01*
X97052Y49525D01*
X97061Y49529D01*
X97070Y49538D01*
X97113Y49562D01*
X97140Y49577D01*
X97186Y49599D01*
X97220Y49614D01*
X97232Y49617D01*
X97238Y49623D01*
X97258Y49628D01*
X97270Y49631D01*
X97281Y49635D01*
X97296Y49641D01*
X97319Y49646D01*
X97339Y49654D01*
X97368Y49658D01*
X97383Y49661D01*
X97400Y49666D01*
X97412Y49669D01*
X97494Y49675D01*
X97506Y49678D01*
X97583Y49681D01*
X97592Y49678D01*
X97656Y49675D01*
X97665Y49672D01*
X97714Y49669D01*
X97723Y49666D01*
X97740Y49661D01*
X97752Y49658D01*
X97786Y49652D01*
X97812Y49645D01*
X97836Y49638D01*
X97857Y49629D01*
X97882Y49623D01*
X97888Y49617D01*
X97900Y49614D01*
X97920Y49606D01*
X97925Y49602D01*
X97954Y49591D01*
X97958Y49586D01*
X97978Y49579D01*
X97983Y49574D01*
X98035Y49547D01*
X98041Y49541D01*
X98050Y49538D01*
X98056Y49532D01*
X98062Y49529D01*
X98126Y49483D01*
X98141Y49468D01*
X98147Y49464D01*
X98160Y49452D01*
X98166Y49449D01*
X98178Y49437D01*
X98202Y49440D01*
X98210Y49448D01*
X98211Y49452D01*
X98218Y49455D01*
X98230Y49468D01*
X98236Y49470D01*
X98248Y49483D01*
X98254Y49486D01*
X98260Y49495D01*
X98267Y49498D01*
X98277Y49515D01*
X98283Y49521D01*
X98292Y49536D01*
X98305Y49558D01*
X98311Y49564D01*
X98318Y49584D01*
X98326Y49591D01*
X98334Y49611D01*
X98341Y49625D01*
X98349Y49645D01*
X98353Y49649D01*
X98360Y49674D01*
X98372Y49701D01*
X98376Y49727D01*
X98382Y49742D01*
X98386Y49757D01*
X98388Y49785D01*
X98392Y49803D01*
X98395Y49831D01*
X98396Y49890D01*
X98393Y49899D01*
X98390Y49930D01*
X98387Y49939D01*
X98384Y49964D01*
X98372Y49991D01*
X98350Y50031D01*
X98335Y50052D01*
X98321Y50069D01*
X98317Y50073D01*
X98314Y50079D01*
X98283Y50110D01*
X98280Y50116D01*
X98271Y50125D01*
X98265Y50141D01*
X98259Y50147D01*
X98256Y50159D01*
X98253Y50189D01*
X98256Y50232D01*
X98268Y50253D01*
X98277Y50269D01*
X98291Y50285D01*
X98309Y50304D01*
X98315Y50307D01*
X98325Y50316D01*
X98337Y50319D01*
X98343Y50325D01*
X98364Y50331D01*
X98395Y50334D01*
X98437Y50331D01*
D02*
G37*
G36*
X114560Y50269D02*
X114563Y50257D01*
X114560Y50244D01*
X114563Y48321D01*
X114566Y48312D01*
X114571Y48292D01*
X114574Y48277D01*
X114577Y48259D01*
X114580Y48244D01*
X114587Y48227D01*
X114592Y48207D01*
X114597Y48196D01*
X114609Y48166D01*
X114615Y48160D01*
X114627Y48138D01*
X114648Y48111D01*
X114656Y48103D01*
X114662Y48100D01*
X114671Y48091D01*
X114684Y48088D01*
X114705Y48079D01*
X114717Y48076D01*
X114722Y48071D01*
X114719Y48028D01*
X114226Y48027D01*
X114218Y48035D01*
X114217Y48299D01*
X114204Y48296D01*
X114194Y48285D01*
X114185Y48270D01*
X114179Y48263D01*
X114175Y48257D01*
X114163Y48245D01*
X114160Y48239D01*
X114151Y48233D01*
X114148Y48227D01*
X114098Y48177D01*
X114092Y48173D01*
X114067Y48149D01*
X114061Y48146D01*
X114052Y48137D01*
X114046Y48134D01*
X114029Y48120D01*
X114018Y48112D01*
X114009Y48103D01*
X114003Y48100D01*
X113994Y48091D01*
X113979Y48082D01*
X113957Y48070D01*
X113948Y48061D01*
X113936Y48057D01*
X113918Y48045D01*
X113905Y48042D01*
X113899Y48036D01*
X113866Y48024D01*
X113850Y48018D01*
X113838Y48015D01*
X113818Y48007D01*
X113805Y48002D01*
X113776Y47998D01*
X113759Y47993D01*
X113747Y47990D01*
X113725Y47987D01*
X113669Y47983D01*
X113579Y47978D01*
X113539Y47981D01*
X113455Y47986D01*
X113416Y47989D01*
X113382Y47995D01*
X113370Y47998D01*
X113329Y48002D01*
X113289Y48015D01*
X113263Y48019D01*
X113237Y48030D01*
X113219Y48033D01*
X113213Y48039D01*
X113179Y48051D01*
X113158Y48061D01*
X113152Y48063D01*
X113145Y48070D01*
X113130Y48076D01*
X113115Y48085D01*
X113093Y48097D01*
X113087Y48103D01*
X113078Y48106D01*
X113072Y48112D01*
X113066Y48115D01*
X113028Y48144D01*
X113010Y48157D01*
X113002Y48164D01*
X112996Y48167D01*
X112993Y48173D01*
X112987Y48177D01*
X112921Y48242D01*
X112918Y48248D01*
X112906Y48260D01*
X112903Y48267D01*
X112894Y48276D01*
X112891Y48282D01*
X112877Y48299D01*
X112866Y48315D01*
X112854Y48337D01*
X112848Y48343D01*
X112823Y48389D01*
X112802Y48434D01*
X112787Y48468D01*
X112784Y48480D01*
X112775Y48502D01*
X112765Y48526D01*
X112759Y48541D01*
X112756Y48562D01*
X112747Y48584D01*
X112744Y48605D01*
X112740Y48625D01*
X112736Y48637D01*
X112732Y48654D01*
X112729Y48685D01*
X112718Y48750D01*
X112715Y48781D01*
X112709Y48854D01*
X112704Y48895D01*
X112701Y48953D01*
X112698Y49204D01*
X112695Y49915D01*
X112692Y49924D01*
X112689Y49936D01*
X112681Y49968D01*
X112674Y49976D01*
X112668Y49991D01*
X112659Y50000D01*
X112655Y50006D01*
X112636Y50026D01*
X112630Y50029D01*
X112620Y50038D01*
X112608Y50041D01*
X112602Y50047D01*
X112578Y50054D01*
X112549Y50058D01*
X112523Y50063D01*
X112518Y50067D01*
X112515Y50079D01*
X112518Y50104D01*
X112523Y50108D01*
X112535Y50112D01*
X112556Y50121D01*
X112593Y50130D01*
X112614Y50139D01*
X112634Y50143D01*
X112649Y50150D01*
X112663Y50154D01*
X112686Y50159D01*
X112703Y50166D01*
X112727Y50173D01*
X112749Y50182D01*
X112768Y50186D01*
X112784Y50192D01*
X112797Y50197D01*
X112817Y50201D01*
X112832Y50208D01*
X112846Y50212D01*
X112866Y50217D01*
X112883Y50224D01*
X112895Y50227D01*
X112915Y50232D01*
X112932Y50240D01*
X112944Y50243D01*
X112961Y50247D01*
X112981Y50255D01*
X112993Y50258D01*
X113010Y50263D01*
X113026Y50270D01*
X113042Y50267D01*
X113043Y49597D01*
Y49594D01*
X113046Y48849D01*
X113049Y48840D01*
X113054Y48756D01*
X113057Y48738D01*
X113063Y48714D01*
X113069Y48665D01*
X113075Y48649D01*
X113078Y48637D01*
X113081Y48619D01*
X113084Y48604D01*
X113092Y48587D01*
X113098Y48562D01*
X113110Y48535D01*
X113115Y48518D01*
X113122Y48511D01*
X113127Y48494D01*
X113138Y48474D01*
X113144Y48459D01*
X113153Y48450D01*
X113159Y48434D01*
X113165Y48428D01*
X113174Y48413D01*
X113180Y48407D01*
X113190Y48392D01*
X113199Y48382D01*
X113202Y48376D01*
X113211Y48367D01*
X113214Y48361D01*
X113268Y48308D01*
X113274Y48305D01*
X113283Y48296D01*
X113289Y48292D01*
X113298Y48283D01*
X113304Y48280D01*
X113321Y48267D01*
X113331Y48262D01*
X113341Y48253D01*
X113356Y48247D01*
X113362Y48241D01*
X113377Y48234D01*
X113393Y48225D01*
X113408Y48219D01*
X113420Y48216D01*
X113426Y48210D01*
X113438Y48207D01*
X113467Y48196D01*
X113484Y48192D01*
X113505Y48189D01*
X113521Y48183D01*
X113542Y48180D01*
X113573Y48177D01*
X113649Y48173D01*
X113716Y48177D01*
X113728Y48180D01*
X113751Y48184D01*
X113768Y48189D01*
X113780Y48192D01*
X113798Y48195D01*
X113826Y48207D01*
X113838Y48210D01*
X113844Y48216D01*
X113869Y48225D01*
X113899Y48244D01*
X113921Y48256D01*
X113927Y48262D01*
X113944Y48270D01*
X113945Y48274D01*
X113951Y48277D01*
X113968Y48291D01*
X113985Y48302D01*
X113994Y48311D01*
X114000Y48314D01*
X114012Y48326D01*
X114017Y48327D01*
X114020Y48334D01*
X114024Y48338D01*
X114031Y48341D01*
X114035Y48346D01*
X114037Y48350D01*
X114043Y48353D01*
X114047Y48358D01*
X114050Y48364D01*
X114061Y48372D01*
X114069Y48382D01*
X114078Y48392D01*
X114081Y48398D01*
X114096Y48413D01*
X114099Y48419D01*
X114105Y48425D01*
X114108Y48431D01*
X114130Y48459D01*
X114142Y48480D01*
X114148Y48486D01*
X114154Y48502D01*
X114163Y48517D01*
X114169Y48532D01*
X114175Y48538D01*
X114182Y48559D01*
X114185Y48566D01*
X114194Y48587D01*
X114197Y48599D01*
X114206Y48621D01*
X114209Y48633D01*
X114214Y48662D01*
X114217Y48686D01*
X114218Y49832D01*
X114215Y49841D01*
X114212Y49915D01*
X114209Y49924D01*
X114206Y49948D01*
X114194Y49976D01*
X114185Y49991D01*
X114174Y50008D01*
X114168Y50011D01*
X114160Y50021D01*
X114137Y50038D01*
X114110Y50050D01*
X114098Y50054D01*
X114066Y50058D01*
X114041Y50061D01*
X114035Y50067D01*
X114038Y50107D01*
X114052Y50112D01*
X114072Y50119D01*
X114085Y50124D01*
X114110Y50130D01*
X114131Y50139D01*
X114154Y50143D01*
X114171Y50151D01*
X114183Y50154D01*
X114203Y50159D01*
X114220Y50166D01*
X114232Y50169D01*
X114249Y50174D01*
X114266Y50182D01*
X114297Y50189D01*
X114314Y50197D01*
X114342Y50203D01*
X114363Y50212D01*
X114391Y50218D01*
X114412Y50227D01*
X114432Y50232D01*
X114449Y50240D01*
X114476Y50246D01*
X114497Y50255D01*
X114510Y50258D01*
X114526Y50263D01*
X114537Y50267D01*
X114552Y50273D01*
X114560Y50269D01*
D02*
G37*
G36*
X106033D02*
X106035Y48306D01*
X106039Y48297D01*
X106042Y48285D01*
X106048Y48263D01*
X106052Y48237D01*
X106058Y48222D01*
X106063Y48208D01*
X106066Y48196D01*
X106078Y48169D01*
X106087Y48154D01*
X106103Y48132D01*
X106116Y48115D01*
X106132Y48100D01*
X106138Y48097D01*
X106144Y48091D01*
X106164Y48083D01*
X106177Y48079D01*
X106190Y48076D01*
X106194Y48071D01*
X106191Y48031D01*
X106187Y48027D01*
X105692Y48030D01*
X105688Y48035D01*
X105685Y48297D01*
X105680Y48299D01*
X105669Y48291D01*
X105666Y48285D01*
X105645Y48257D01*
X105639Y48251D01*
X105636Y48245D01*
X105605Y48215D01*
X105604Y48210D01*
X105598Y48207D01*
X105590Y48196D01*
X105585Y48192D01*
X105579Y48189D01*
X105558Y48167D01*
X105552Y48164D01*
X105536Y48149D01*
X105530Y48146D01*
X105518Y48134D01*
X105512Y48131D01*
X105500Y48118D01*
X105494Y48115D01*
X105488Y48109D01*
X105482Y48106D01*
X105465Y48092D01*
X105448Y48082D01*
X105442Y48076D01*
X105399Y48051D01*
X105378Y48042D01*
X105372Y48039D01*
X105366Y48033D01*
X105346Y48028D01*
X105314Y48015D01*
X105298Y48012D01*
X105277Y48002D01*
X105247Y47999D01*
X105231Y47993D01*
X105219Y47990D01*
X105158Y47984D01*
X105109Y47981D01*
X105070Y47978D01*
X104973Y47983D01*
X104925Y47986D01*
X104888Y47989D01*
X104864Y47992D01*
X104839Y47998D01*
X104798Y48002D01*
X104778Y48010D01*
X104766Y48013D01*
X104748Y48016D01*
X104735Y48019D01*
X104719Y48027D01*
X104706Y48030D01*
X104690Y48035D01*
X104664Y48045D01*
X104630Y48061D01*
X104615Y48070D01*
X104599Y48076D01*
X104593Y48079D01*
X104587Y48085D01*
X104545Y48109D01*
X104539Y48115D01*
X104523Y48125D01*
X104517Y48131D01*
X104502Y48140D01*
X104496Y48146D01*
X104490Y48149D01*
X104478Y48161D01*
X104471Y48164D01*
X104456Y48180D01*
X104452Y48181D01*
X104448Y48187D01*
X104438Y48195D01*
X104406Y48227D01*
X104403Y48233D01*
X104397Y48236D01*
X104393Y48242D01*
X104378Y48257D01*
X104375Y48263D01*
X104366Y48273D01*
X104357Y48288D01*
X104351Y48294D01*
X104342Y48309D01*
X104335Y48315D01*
X104326Y48331D01*
X104314Y48352D01*
X104299Y48379D01*
X104274Y48431D01*
X104271Y48437D01*
X104247Y48492D01*
X104244Y48511D01*
X104238Y48517D01*
X104232Y48541D01*
X104227Y48558D01*
X104220Y48578D01*
X104215Y48604D01*
X104212Y48616D01*
X104207Y48633D01*
X104204Y48645D01*
X104200Y48683D01*
X104197Y48698D01*
X104194Y48711D01*
X104191Y48735D01*
X104188Y48775D01*
X104184Y48805D01*
X104180Y48846D01*
X104177Y48859D01*
X104171Y49029D01*
X104168Y49899D01*
X104165Y49909D01*
X104162Y49930D01*
X104158Y49942D01*
X104156Y49957D01*
X104137Y49991D01*
X104123Y50008D01*
X104116Y50015D01*
X104113Y50021D01*
X104102Y50029D01*
X104096Y50035D01*
X104062Y50050D01*
X104050Y50054D01*
X104023Y50056D01*
X104014Y50060D01*
X103992Y50063D01*
X103988Y50067D01*
X103984Y50079D01*
X103988Y50104D01*
X103992Y50108D01*
X104004Y50112D01*
X104024Y50119D01*
X104038Y50124D01*
X104062Y50130D01*
X104084Y50139D01*
X104107Y50143D01*
X104123Y50151D01*
X104136Y50154D01*
X104156Y50159D01*
X104172Y50166D01*
X104184Y50169D01*
X104201Y50174D01*
X104218Y50182D01*
X104250Y50189D01*
X104267Y50197D01*
X104294Y50203D01*
X104316Y50212D01*
X104335Y50217D01*
X104351Y50223D01*
X104368Y50227D01*
X104380Y50230D01*
X104401Y50240D01*
X104433Y50247D01*
X104450Y50255D01*
X104470Y50260D01*
X104482Y50263D01*
X104496Y50270D01*
X104511Y50267D01*
X104513Y49283D01*
Y49280D01*
X104516Y48843D01*
X104519Y48834D01*
X104525Y48767D01*
X104529Y48726D01*
X104535Y48701D01*
X104539Y48683D01*
X104542Y48659D01*
X104545Y48647D01*
X104552Y48627D01*
X104557Y48598D01*
X104564Y48581D01*
X104571Y48559D01*
X104586Y48520D01*
X104601Y48486D01*
X104604Y48480D01*
X104619Y48453D01*
X104625Y48447D01*
X104632Y48431D01*
X104641Y48422D01*
X104653Y48401D01*
X104659Y48395D01*
X104662Y48389D01*
X104671Y48379D01*
X104674Y48373D01*
X104686Y48361D01*
X104690Y48355D01*
X104702Y48346D01*
X104705Y48340D01*
X104717Y48331D01*
X104720Y48324D01*
X104738Y48309D01*
X104752Y48296D01*
X104758Y48292D01*
X104786Y48271D01*
X104807Y48259D01*
X104813Y48253D01*
X104834Y48241D01*
X104880Y48219D01*
X104908Y48207D01*
X104925Y48202D01*
X104941Y48195D01*
X104963Y48192D01*
X104975Y48189D01*
X104990Y48183D01*
X105012Y48180D01*
X105042Y48177D01*
X105118Y48173D01*
X105185Y48177D01*
X105198Y48180D01*
X105222Y48183D01*
X105237Y48189D01*
X105270Y48196D01*
X105286Y48204D01*
X105303Y48208D01*
X105323Y48219D01*
X105343Y48227D01*
X105347Y48231D01*
X105375Y48247D01*
X105390Y48256D01*
X105408Y48268D01*
X105414Y48271D01*
X105424Y48280D01*
X105439Y48289D01*
X105445Y48296D01*
X105451Y48299D01*
X105460Y48308D01*
X105466Y48311D01*
X105479Y48323D01*
X105485Y48326D01*
X105547Y48389D01*
X105550Y48395D01*
X105556Y48401D01*
X105559Y48407D01*
X105569Y48416D01*
X105572Y48422D01*
X105581Y48431D01*
X105584Y48437D01*
X105593Y48447D01*
X105602Y48462D01*
X105614Y48483D01*
X105633Y48514D01*
X105639Y48529D01*
X105654Y48562D01*
X105666Y48590D01*
X105672Y48614D01*
X105682Y48636D01*
X105686Y48683D01*
X105688Y49829D01*
X105685Y49838D01*
X105682Y49933D01*
X105669Y49960D01*
X105665Y49977D01*
X105657Y49985D01*
X105645Y50006D01*
X105625Y50026D01*
X105619Y50029D01*
X105613Y50035D01*
X105579Y50050D01*
X105567Y50054D01*
X105535Y50058D01*
X105512Y50063D01*
X105508Y50067D01*
X105505Y50082D01*
X105508Y50092D01*
X105505Y50098D01*
X105509Y50108D01*
X105521Y50112D01*
X105541Y50119D01*
X105558Y50124D01*
X105570Y50127D01*
X105590Y50134D01*
X105604Y50139D01*
X105623Y50143D01*
X105634Y50148D01*
X105649Y50154D01*
X105671Y50157D01*
X105692Y50166D01*
X105704Y50169D01*
X105724Y50177D01*
X105750Y50185D01*
X105767Y50189D01*
X105784Y50197D01*
X105816Y50205D01*
X105833Y50212D01*
X105856Y50217D01*
X105872Y50224D01*
X105885Y50227D01*
X105904Y50232D01*
X105921Y50240D01*
X105933Y50243D01*
X105950Y50247D01*
X105967Y50255D01*
X105999Y50263D01*
X106016Y50270D01*
X106033Y50269D01*
D02*
G37*
G36*
X109039Y50272D02*
X109042Y50260D01*
Y48746D01*
Y48743D01*
X109045Y48318D01*
X109048Y48309D01*
X109051Y48288D01*
X109056Y48259D01*
X109062Y48244D01*
X109071Y48210D01*
X109075Y48206D01*
X109081Y48190D01*
X109085Y48178D01*
X109094Y48169D01*
X109106Y48147D01*
X109120Y48131D01*
X109124Y48126D01*
X109127Y48120D01*
X109147Y48100D01*
X109153Y48097D01*
X109159Y48091D01*
X109179Y48083D01*
X109196Y48079D01*
X109210Y48071D01*
X109207Y48031D01*
X109202Y48027D01*
X108537Y48030D01*
X108532Y48035D01*
X108529Y48047D01*
X108532Y48053D01*
X108529Y48062D01*
X108537Y48076D01*
X108549Y48079D01*
X108564Y48085D01*
X108584Y48092D01*
X108595Y48103D01*
X108601Y48106D01*
X108612Y48117D01*
X108615Y48123D01*
X108627Y48135D01*
X108630Y48141D01*
X108639Y48151D01*
X108651Y48172D01*
X108657Y48187D01*
X108673Y48221D01*
X108677Y48237D01*
X108685Y48257D01*
X108689Y48292D01*
X108692Y48308D01*
X108695Y48320D01*
X108698Y48363D01*
X108700Y49814D01*
X108697Y49823D01*
X108694Y49881D01*
X108691Y49890D01*
X108682Y49948D01*
X108673Y49970D01*
X108669Y49988D01*
X108657Y50006D01*
X108654Y50012D01*
X108650Y50020D01*
X108644Y50023D01*
X108631Y50035D01*
X108610Y50047D01*
X108601Y50050D01*
X108589Y50054D01*
X108567Y50060D01*
X108555Y50063D01*
X108526Y50067D01*
X108520Y50082D01*
X108523Y50092D01*
X108520Y50101D01*
X108534Y50118D01*
X108555Y50124D01*
X108567Y50127D01*
X108587Y50134D01*
X108601Y50139D01*
X108621Y50143D01*
X108637Y50151D01*
X108650Y50154D01*
X108669Y50159D01*
X108686Y50166D01*
X108698Y50169D01*
X108715Y50174D01*
X108732Y50182D01*
X108759Y50188D01*
X108781Y50197D01*
X108808Y50203D01*
X108830Y50212D01*
X108850Y50217D01*
X108866Y50224D01*
X108879Y50227D01*
X108895Y50232D01*
X108911Y50238D01*
X108944Y50247D01*
X108961Y50255D01*
X108981Y50260D01*
X108996Y50266D01*
X109013Y50270D01*
X109025Y50273D01*
X109039Y50272D01*
D02*
G37*
G36*
X110963Y50252D02*
X111020Y50247D01*
X111050Y50244D01*
X111090Y50241D01*
X111108Y50238D01*
X111123Y50235D01*
X111136Y50232D01*
X111154Y50229D01*
X111178Y50226D01*
X111190Y50223D01*
X111210Y50215D01*
X111239Y50211D01*
X111255Y50205D01*
X111271Y50200D01*
X111291Y50195D01*
X111308Y50188D01*
X111320Y50185D01*
X111360Y50169D01*
X111377Y50165D01*
X111381Y50160D01*
X111410Y50150D01*
X111415Y50145D01*
X111444Y50134D01*
X111451Y50127D01*
X111468Y50122D01*
X111476Y50115D01*
X111496Y50107D01*
X111503Y50099D01*
X111523Y50092D01*
X111531Y50084D01*
X111552Y50072D01*
X111574Y50056D01*
X111589Y50047D01*
X111638Y50011D01*
X111654Y49997D01*
X111659Y49992D01*
X111665Y49989D01*
X111674Y49980D01*
X111680Y49977D01*
X111708Y49950D01*
X111714Y49947D01*
X111718Y49942D01*
X111722Y49936D01*
X111732Y49928D01*
X111738Y49919D01*
X111744Y49916D01*
X111752Y49905D01*
X111774Y49884D01*
X111776Y49878D01*
X111789Y49866D01*
X111792Y49860D01*
X111805Y49843D01*
X111813Y49832D01*
X111822Y49823D01*
X111825Y49817D01*
X111831Y49811D01*
X111842Y49791D01*
X111847Y49790D01*
X111859Y49768D01*
X111865Y49762D01*
X111868Y49753D01*
X111880Y49735D01*
X111889Y49719D01*
X111905Y49692D01*
X111911Y49677D01*
X111914Y49670D01*
X111920Y49664D01*
X111929Y49640D01*
X111938Y49619D01*
X111953Y49585D01*
X111957Y49573D01*
X111969Y49545D01*
X111973Y49529D01*
X111981Y49512D01*
X111986Y49489D01*
X111992Y49474D01*
X111995Y49461D01*
X111998Y49443D01*
X112001Y49428D01*
X112009Y49402D01*
X112012Y49390D01*
X112015Y49350D01*
X112018Y49341D01*
X112021Y49329D01*
X112024Y49307D01*
X112027Y49258D01*
X112030Y49173D01*
X112027Y49027D01*
X112024Y49017D01*
X112021Y48981D01*
X112018Y48972D01*
X112015Y48959D01*
X112007Y48903D01*
X112004Y48891D01*
X111999Y48874D01*
X111996Y48853D01*
X111993Y48840D01*
X111987Y48825D01*
X111981Y48801D01*
X111978Y48785D01*
X111969Y48764D01*
X111964Y48744D01*
X111957Y48727D01*
X111953Y48715D01*
X111946Y48695D01*
X111941Y48691D01*
X111937Y48671D01*
X111923Y48639D01*
X111883Y48562D01*
X111871Y48541D01*
X111856Y48514D01*
X111835Y48480D01*
X111831Y48474D01*
X111822Y48465D01*
X111813Y48450D01*
X111807Y48443D01*
X111798Y48428D01*
X111792Y48422D01*
X111789Y48416D01*
X111776Y48404D01*
X111774Y48398D01*
X111761Y48386D01*
X111758Y48379D01*
X111746Y48367D01*
X111743Y48361D01*
X111715Y48334D01*
X111712Y48327D01*
X111703Y48321D01*
X111700Y48315D01*
X111693Y48308D01*
X111687Y48305D01*
X111683Y48299D01*
X111677Y48296D01*
X111653Y48271D01*
X111647Y48268D01*
X111641Y48262D01*
X111635Y48259D01*
X111622Y48247D01*
X111618Y48245D01*
X111615Y48239D01*
X111604Y48231D01*
X111598Y48225D01*
X111592Y48222D01*
X111554Y48193D01*
X111543Y48189D01*
X111534Y48180D01*
X111491Y48155D01*
X111485Y48149D01*
X111470Y48143D01*
X111464Y48137D01*
X111448Y48131D01*
X111442Y48128D01*
X111436Y48122D01*
X111416Y48114D01*
X111412Y48109D01*
X111397Y48103D01*
X111363Y48088D01*
X111336Y48076D01*
X111316Y48068D01*
X111311Y48063D01*
X111299Y48061D01*
X111282Y48056D01*
X111265Y48048D01*
X111253Y48045D01*
X111236Y48041D01*
X111221Y48035D01*
X111209Y48031D01*
X111190Y48028D01*
X111178Y48025D01*
X111165Y48021D01*
X111152Y48018D01*
X111131Y48015D01*
X111105Y48010D01*
X111081Y48004D01*
X111047Y48001D01*
X111017Y47998D01*
X110989Y47995D01*
X110959Y47992D01*
X110898Y47989D01*
X110826Y47987D01*
X110817Y47990D01*
X110740Y47993D01*
X110731Y47996D01*
X110650Y48004D01*
X110635Y48007D01*
X110623Y48010D01*
X110608Y48013D01*
X110568Y48019D01*
X110533Y48030D01*
X110507Y48035D01*
X110490Y48042D01*
X110478Y48045D01*
X110458Y48050D01*
X110441Y48057D01*
X110429Y48061D01*
X110401Y48073D01*
X110389Y48076D01*
X110356Y48091D01*
X110261Y48140D01*
X110234Y48155D01*
X110228Y48161D01*
X110206Y48173D01*
X110168Y48199D01*
X110163Y48204D01*
X110148Y48213D01*
X110142Y48219D01*
X110136Y48222D01*
X110119Y48236D01*
X110108Y48244D01*
X110099Y48253D01*
X110093Y48256D01*
X110069Y48280D01*
X110063Y48283D01*
X110057Y48292D01*
X110051Y48296D01*
X110019Y48327D01*
X110015Y48334D01*
X110011Y48338D01*
X110006Y48340D01*
X110003Y48346D01*
X109988Y48361D01*
X109985Y48367D01*
X109976Y48373D01*
X109973Y48379D01*
X109964Y48389D01*
X109960Y48395D01*
X109947Y48412D01*
X109939Y48422D01*
X109933Y48428D01*
X109924Y48443D01*
X109918Y48450D01*
X109909Y48465D01*
X109896Y48486D01*
X109890Y48492D01*
X109878Y48514D01*
X109863Y48541D01*
X109826Y48618D01*
X109814Y48645D01*
X109808Y48660D01*
X109799Y48682D01*
X109794Y48698D01*
X109790Y48703D01*
X109783Y48727D01*
X109779Y48744D01*
X109771Y48761D01*
X109767Y48787D01*
X109761Y48802D01*
X109758Y48814D01*
X109751Y48851D01*
X109748Y48863D01*
X109744Y48880D01*
X109741Y48910D01*
X109730Y48982D01*
X109727Y49031D01*
X109725Y49109D01*
Y49112D01*
X109729Y49231D01*
X109732Y49240D01*
X109736Y49269D01*
X109739Y49294D01*
X109742Y49324D01*
X109745Y49342D01*
X109750Y49359D01*
X109753Y49371D01*
X109756Y49393D01*
X109761Y49413D01*
X109768Y49432D01*
X109773Y49458D01*
X109779Y49474D01*
X109783Y49487D01*
X109788Y49507D01*
X109799Y49533D01*
X109806Y49553D01*
X109814Y49570D01*
X109817Y49582D01*
X109826Y49597D01*
X109834Y49617D01*
X109842Y49631D01*
X109848Y49646D01*
X109857Y49661D01*
X109863Y49677D01*
X109869Y49683D01*
X109893Y49728D01*
X109899Y49735D01*
X109912Y49756D01*
X109958Y49820D01*
X109971Y49837D01*
X109976Y49841D01*
X109979Y49847D01*
X109988Y49857D01*
X109991Y49863D01*
X110006Y49878D01*
X110009Y49884D01*
X110052Y49927D01*
X110054Y49931D01*
X110060Y49935D01*
X110090Y49965D01*
X110096Y49968D01*
X110108Y49980D01*
X110115Y49983D01*
X110127Y49995D01*
X110133Y49999D01*
X110142Y50008D01*
X110148Y50011D01*
X110160Y50023D01*
X110176Y50032D01*
X110182Y50038D01*
X110197Y50047D01*
X110218Y50063D01*
X110240Y50075D01*
X110246Y50081D01*
X110258Y50084D01*
X110267Y50093D01*
X110319Y50121D01*
X110334Y50127D01*
X110340Y50130D01*
X110356Y50139D01*
X110376Y50147D01*
X110380Y50151D01*
X110392Y50154D01*
X110409Y50159D01*
X110417Y50166D01*
X110437Y50171D01*
X110469Y50185D01*
X110485Y50189D01*
X110502Y50197D01*
X110528Y50201D01*
X110545Y50209D01*
X110557Y50212D01*
X110583Y50217D01*
X110609Y50224D01*
X110621Y50227D01*
X110656Y50232D01*
X110681Y50238D01*
X110722Y50243D01*
X110800Y50250D01*
X110837Y50253D01*
X110954Y50255D01*
X110963Y50252D01*
D02*
G37*
G36*
X107079Y46359D02*
X107082Y45449D01*
X107090Y45442D01*
X107136D01*
X107658Y45439D01*
X107662Y45434D01*
X107665Y45422D01*
X107664Y45408D01*
X107665Y45278D01*
X107658Y45265D01*
X107645Y45262D01*
X107633Y45265D01*
X107087Y45262D01*
X107079Y45254D01*
X107082Y43847D01*
X107086Y43838D01*
X107088Y43704D01*
X107092Y43694D01*
X107095Y43658D01*
X107098Y43649D01*
X107101Y43637D01*
X107108Y43592D01*
X107115Y43577D01*
X107121Y43553D01*
X107125Y43542D01*
X107143Y43508D01*
X107159Y43487D01*
X107173Y43470D01*
X107182Y43461D01*
X107197Y43452D01*
X107203Y43446D01*
X107218Y43443D01*
X107240Y43433D01*
X107261Y43431D01*
X107346Y43433D01*
X107368Y43443D01*
X107388Y43450D01*
X107407Y43461D01*
X107414Y43464D01*
X107420Y43470D01*
X107441Y43482D01*
X107447Y43488D01*
X107453Y43492D01*
X107513Y43551D01*
X107516Y43557D01*
X107528Y43569D01*
X107537Y43585D01*
X107543Y43591D01*
X107546Y43600D01*
X107555Y43609D01*
X107563Y43629D01*
X107571Y43637D01*
X107575Y43653D01*
X107580Y43658D01*
X107586Y43673D01*
X107589Y43685D01*
X107592Y43691D01*
X107601Y43713D01*
X107606Y43736D01*
X107614Y43755D01*
X107618Y43778D01*
X107630Y43784D01*
X107639Y43782D01*
X107661Y43778D01*
X107665Y43774D01*
X107664Y43751D01*
X107665Y43432D01*
X107662Y43426D01*
X107665Y43417D01*
X107662Y43404D01*
X107649Y43400D01*
X107627Y43397D01*
X107597Y43379D01*
X107591Y43372D01*
X107585Y43369D01*
X107575Y43360D01*
X107560Y43351D01*
X107551Y43342D01*
X107545Y43339D01*
X107539Y43333D01*
X107511Y43317D01*
X107478Y43296D01*
X107468Y43293D01*
X107462Y43287D01*
X107438Y43281D01*
X107423Y43272D01*
X107401Y43269D01*
X107368Y43260D01*
X107337Y43257D01*
X107316Y43253D01*
X107235Y43252D01*
X107153Y43255D01*
X107128Y43258D01*
X107113Y43261D01*
X107096Y43266D01*
X107075Y43269D01*
X107063Y43272D01*
X107043Y43279D01*
X107026Y43284D01*
X107011Y43290D01*
X106977Y43308D01*
X106956Y43321D01*
X106950Y43327D01*
X106934Y43336D01*
X106928Y43342D01*
X106922Y43345D01*
X106910Y43357D01*
X106904Y43360D01*
X106872Y43392D01*
X106869Y43398D01*
X106857Y43411D01*
X106847Y43426D01*
X106841Y43432D01*
X106829Y43453D01*
X106808Y43499D01*
X106805Y43505D01*
X106796Y43527D01*
X106791Y43543D01*
X106786Y43548D01*
X106782Y43565D01*
X106779Y43580D01*
X106768Y43615D01*
X106764Y43641D01*
X106757Y43666D01*
X106754Y43681D01*
X106751Y43711D01*
X106748Y43751D01*
X106744Y43792D01*
X106741Y43850D01*
X106737Y43963D01*
X106735Y45260D01*
X106721Y45265D01*
X106454Y45263D01*
X106445Y45269D01*
X106448Y45437D01*
X106452Y45442D01*
X106733Y45445D01*
X106737Y45459D01*
X106735Y45977D01*
X106731Y45987D01*
X106727Y46006D01*
X106724Y46025D01*
X106719Y46054D01*
X106710Y46075D01*
X106704Y46090D01*
X106698Y46097D01*
X106695Y46103D01*
X106690Y46110D01*
X106684Y46113D01*
X106675Y46122D01*
X106635Y46141D01*
X106606Y46145D01*
X106594Y46148D01*
X106570Y46151D01*
X106561Y46158D01*
X106564Y46203D01*
X106577Y46211D01*
X106609Y46218D01*
X106626Y46226D01*
X106654Y46232D01*
X106675Y46241D01*
X106695Y46246D01*
X106710Y46252D01*
X106724Y46257D01*
X106744Y46261D01*
X106759Y46267D01*
X106773Y46272D01*
X106792Y46277D01*
X106809Y46284D01*
X106822Y46287D01*
X106838Y46292D01*
X106855Y46299D01*
X106887Y46307D01*
X106904Y46315D01*
X106924Y46319D01*
X106939Y46325D01*
X106953Y46330D01*
X106973Y46334D01*
X106983Y46339D01*
X106999Y46345D01*
X107021Y46350D01*
X107038Y46357D01*
X107050Y46360D01*
X107072Y46367D01*
X107079Y46359D01*
D02*
G37*
G36*
X105100Y45494D02*
X105146Y45491D01*
X105155Y45488D01*
X105167Y45485D01*
X105198Y45482D01*
X105230Y45474D01*
X105247Y45469D01*
X105268Y45466D01*
X105288Y45459D01*
X105305Y45454D01*
X105317Y45451D01*
X105344Y45439D01*
X105364Y45434D01*
X105369Y45430D01*
X105399Y45417D01*
X105405Y45411D01*
X105422Y45407D01*
X105433Y45399D01*
X105460Y45384D01*
X105503Y45359D01*
X105512Y45350D01*
X105527Y45341D01*
X105549Y45326D01*
X105566Y45312D01*
X105570Y45307D01*
X105576Y45305D01*
X105585Y45295D01*
X105591Y45292D01*
X105607Y45277D01*
X105613Y45274D01*
X105657Y45230D01*
X105660Y45224D01*
X105682Y45202D01*
X105685Y45196D01*
X105694Y45187D01*
X105697Y45181D01*
X105710Y45164D01*
X105721Y45147D01*
X105727Y45141D01*
X105730Y45135D01*
X105739Y45126D01*
X105746Y45111D01*
X105752Y45105D01*
X105764Y45083D01*
X105779Y45056D01*
X105800Y45010D01*
X105810Y44995D01*
X105816Y44979D01*
X105819Y44967D01*
X105828Y44946D01*
X105831Y44934D01*
X105843Y44906D01*
X105848Y44883D01*
X105859Y44848D01*
X105863Y44825D01*
X105868Y44809D01*
X105871Y44796D01*
X105874Y44775D01*
X105878Y44749D01*
X105881Y44734D01*
X105886Y44693D01*
X105889Y44662D01*
X105892Y43548D01*
X105895Y43539D01*
X105898Y43527D01*
X105901Y43505D01*
X105906Y43479D01*
X105913Y43462D01*
X105917Y43450D01*
X105923Y43435D01*
X105941Y43402D01*
X105953Y43380D01*
X105959Y43374D01*
X105968Y43359D01*
X105974Y43353D01*
X105978Y43347D01*
X106007Y43317D01*
X106022Y43311D01*
X106051Y43301D01*
X106057Y43298D01*
X106060Y43286D01*
X106057Y43258D01*
X106052Y43253D01*
X106031Y43250D01*
X105413Y43252D01*
X105399Y43250D01*
X105385Y43261D01*
X105388Y43298D01*
X105393Y43302D01*
X105433Y43317D01*
X105442Y43327D01*
X105448Y43330D01*
X105462Y43343D01*
X105465Y43350D01*
X105480Y43365D01*
X105483Y43371D01*
X105489Y43377D01*
X105508Y43408D01*
X105523Y43441D01*
X105535Y43469D01*
X105538Y43493D01*
X105541Y43502D01*
X105547Y43527D01*
X105550Y43548D01*
X105547Y44683D01*
X105544Y44693D01*
X105540Y44721D01*
X105536Y44746D01*
X105530Y44780D01*
X105524Y44804D01*
X105521Y44822D01*
X105518Y44834D01*
X105511Y44851D01*
X105508Y44863D01*
X105503Y44883D01*
X105495Y44897D01*
X105492Y44909D01*
X105477Y44943D01*
X105474Y44955D01*
X105465Y44964D01*
X105460Y44981D01*
X105453Y44989D01*
X105447Y45004D01*
X105443Y45010D01*
X105437Y45016D01*
X105425Y45037D01*
X105395Y45080D01*
X105381Y45097D01*
X105376Y45101D01*
X105373Y45108D01*
X105361Y45120D01*
X105358Y45126D01*
X105353Y45131D01*
X105347Y45134D01*
X105341Y45143D01*
X105335Y45146D01*
X105308Y45173D01*
X105301Y45176D01*
X105292Y45185D01*
X105286Y45189D01*
X105270Y45202D01*
X105253Y45213D01*
X105231Y45225D01*
X105225Y45231D01*
X105213Y45234D01*
X105207Y45240D01*
X105201Y45243D01*
X105192Y45246D01*
X105176Y45253D01*
X105170Y45259D01*
X105150Y45263D01*
X105135Y45269D01*
X105115Y45277D01*
X105099Y45282D01*
X105073Y45289D01*
X105051Y45292D01*
X105016Y45300D01*
X104998Y45303D01*
X104868Y45305D01*
X104859Y45301D01*
X104807Y45292D01*
X104795Y45289D01*
X104778Y45285D01*
X104752Y45277D01*
X104712Y45262D01*
X104700Y45259D01*
X104682Y45246D01*
X104667Y45243D01*
X104661Y45237D01*
X104645Y45231D01*
X104639Y45228D01*
X104609Y45210D01*
X104587Y45198D01*
X104581Y45191D01*
X104566Y45182D01*
X104548Y45170D01*
X104543Y45169D01*
X104540Y45162D01*
X104529Y45155D01*
X104520Y45146D01*
X104514Y45143D01*
X104502Y45131D01*
X104496Y45127D01*
X104455Y45086D01*
X104452Y45080D01*
X104436Y45065D01*
X104433Y45059D01*
X104421Y45047D01*
X104418Y45040D01*
X104412Y45034D01*
X104409Y45028D01*
X104393Y45007D01*
X104384Y44992D01*
X104372Y44970D01*
X104366Y44964D01*
X104361Y44947D01*
X104351Y44927D01*
X104345Y44912D01*
X104335Y44891D01*
X104331Y44874D01*
X104325Y44859D01*
X104322Y44847D01*
X104319Y44822D01*
X104316Y44807D01*
X104313Y44780D01*
X104311Y43560D01*
X104314Y43551D01*
X104319Y43519D01*
X104322Y43495D01*
X104325Y43482D01*
X104332Y43466D01*
X104339Y43441D01*
X104348Y43426D01*
X104355Y43406D01*
X104363Y43398D01*
X104375Y43377D01*
X104391Y43356D01*
X104404Y43339D01*
X104426Y43317D01*
X104441Y43311D01*
X104474Y43299D01*
X104479Y43295D01*
X104476Y43255D01*
X104464Y43252D01*
X103837Y43250D01*
X103833Y43253D01*
X103824Y43250D01*
X103806Y43253D01*
X103798Y43261D01*
X103801Y43298D01*
X103833Y43311D01*
X103850Y43319D01*
X103852Y43324D01*
X103858Y43327D01*
X103884Y43353D01*
X103885Y43357D01*
X103892Y43360D01*
X103902Y43377D01*
X103908Y43383D01*
X103920Y43404D01*
X103927Y43420D01*
X103930Y43426D01*
X103936Y43432D01*
X103942Y43456D01*
X103951Y43478D01*
X103954Y43490D01*
X103959Y43519D01*
X103962Y43531D01*
X103965Y43549D01*
X103966Y45080D01*
X103963Y45089D01*
X103959Y45118D01*
X103955Y45134D01*
X103953Y45158D01*
X103949Y45170D01*
X103942Y45190D01*
X103937Y45210D01*
X103914Y45242D01*
X103907Y45250D01*
X103901Y45253D01*
X103892Y45262D01*
X103879Y45265D01*
X103852Y45277D01*
X103823Y45282D01*
X103797Y45286D01*
X103792Y45291D01*
X103789Y45303D01*
X103792Y45330D01*
X103797Y45335D01*
X103814Y45340D01*
X103833Y45347D01*
X103846Y45350D01*
X103863Y45355D01*
X103879Y45362D01*
X103907Y45368D01*
X103928Y45378D01*
X103951Y45382D01*
X103977Y45393D01*
X103997Y45397D01*
X104014Y45405D01*
X104026Y45408D01*
X104042Y45413D01*
X104062Y45420D01*
X104075Y45423D01*
X104091Y45428D01*
X104108Y45436D01*
X104136Y45442D01*
X104157Y45451D01*
X104177Y45456D01*
X104203Y45466D01*
X104226Y45471D01*
X104243Y45478D01*
X104255Y45482D01*
X104271Y45486D01*
X104282Y45491D01*
X104297Y45497D01*
X104311Y45489D01*
X104310Y45225D01*
X104316Y45222D01*
X104332Y45236D01*
X104374Y45277D01*
X104380Y45280D01*
X104383Y45286D01*
X104389Y45289D01*
X104404Y45305D01*
X104410Y45307D01*
X104422Y45320D01*
X104429Y45323D01*
X104438Y45332D01*
X104453Y45341D01*
X104459Y45347D01*
X104474Y45356D01*
X104496Y45368D01*
X104502Y45375D01*
X104529Y45390D01*
X104551Y45402D01*
X104596Y45423D01*
X104624Y45436D01*
X104636Y45439D01*
X104664Y45451D01*
X104683Y45456D01*
X104700Y45463D01*
X104712Y45466D01*
X104722D01*
X104731Y45469D01*
X104761Y45478D01*
X104773Y45482D01*
X104812Y45486D01*
X104827Y45489D01*
X104839Y45492D01*
X104879Y45495D01*
X105091Y45497D01*
X105100Y45494D01*
D02*
G37*
G36*
X102019Y46744D02*
X102031Y46716D01*
X102034Y46704D01*
X102042Y46684D01*
X102047Y46679D01*
X102053Y46652D01*
X102065Y46624D01*
X102069Y46608D01*
X102074Y46603D01*
X102080Y46579D01*
X102092Y46551D01*
X102097Y46534D01*
X102108Y46508D01*
X102111Y46496D01*
X102114Y46490D01*
X102123Y46469D01*
X102127Y46452D01*
X102138Y46426D01*
X102141Y46414D01*
X102153Y46386D01*
X102156Y46371D01*
X102163Y46365D01*
X102169Y46341D01*
X102181Y46313D01*
X102185Y46296D01*
X102196Y46270D01*
X102201Y46254D01*
X102208Y46240D01*
X102211Y46228D01*
X102226Y46188D01*
X102230Y46176D01*
X102239Y46154D01*
X102242Y46142D01*
X102254Y46115D01*
X102259Y46098D01*
X102269Y46072D01*
X102272Y46060D01*
X102285Y46032D01*
X102289Y46016D01*
X102294Y46011D01*
X102300Y45987D01*
X102312Y45959D01*
X102317Y45942D01*
X102327Y45916D01*
X102330Y45904D01*
X102342Y45877D01*
X102347Y45860D01*
X102355Y45843D01*
X102358Y45831D01*
X102364Y45816D01*
X102373Y45794D01*
X102378Y45777D01*
X102382Y45773D01*
X102387Y45756D01*
X102390Y45744D01*
X102401Y45718D01*
X102408Y45698D01*
X102416Y45681D01*
X102419Y45663D01*
X102428Y45648D01*
X102434Y45623D01*
X102446Y45596D01*
X102449Y45584D01*
X102459Y45562D01*
X102462Y45550D01*
X102474Y45523D01*
X102478Y45506D01*
X102489Y45480D01*
X102494Y45463D01*
X102498Y45459D01*
X102504Y45437D01*
X102516Y45407D01*
X102520Y45395D01*
X102532Y45367D01*
X102536Y45347D01*
X102547Y45327D01*
X102550Y45309D01*
X102559Y45294D01*
X102565Y45269D01*
X102577Y45242D01*
X102582Y45225D01*
X102587Y45221D01*
X102593Y45196D01*
X102605Y45169D01*
X102610Y45152D01*
X102620Y45126D01*
X102623Y45114D01*
X102626Y45108D01*
X102636Y45086D01*
X102640Y45069D01*
X102648Y45056D01*
X102654Y45031D01*
X102666Y45004D01*
X102671Y44987D01*
X102675Y44982D01*
X102681Y44958D01*
X102693Y44931D01*
X102698Y44914D01*
X102709Y44888D01*
X102713Y44871D01*
X102718Y44866D01*
X102724Y44845D01*
X102727Y44833D01*
X102736Y44818D01*
X102741Y44798D01*
X102745Y44787D01*
X102752Y44772D01*
X102761Y44747D01*
X102767Y44732D01*
X102771Y44715D01*
X102779Y44702D01*
X102782Y44690D01*
X102787Y44673D01*
X102791Y44668D01*
X102797Y44647D01*
X102810Y44616D01*
X102813Y44604D01*
X102825Y44576D01*
X102829Y44560D01*
X102840Y44534D01*
X102845Y44517D01*
X102852Y44503D01*
X102855Y44491D01*
X102871Y44451D01*
X102874Y44439D01*
X102886Y44412D01*
X102889Y44396D01*
X102895Y44390D01*
X102898Y44378D01*
X102903Y44361D01*
X102913Y44335D01*
X102928Y44296D01*
X102933Y44279D01*
X102941Y44265D01*
X102947Y44241D01*
X102959Y44213D01*
X102962Y44201D01*
X102971Y44180D01*
X102974Y44168D01*
X102987Y44140D01*
X102991Y44123D01*
X103002Y44097D01*
X103005Y44085D01*
X103017Y44058D01*
X103020Y44042D01*
X103026Y44036D01*
X103032Y44012D01*
X103044Y43984D01*
X103049Y43968D01*
X103057Y43951D01*
X103060Y43939D01*
X103067Y43919D01*
X103072Y43914D01*
X103077Y43894D01*
X103083Y43879D01*
X103090Y43859D01*
X103095Y43843D01*
X103099Y43838D01*
X103105Y43817D01*
X103109Y43804D01*
X103115Y43798D01*
X103119Y43778D01*
X103125Y43763D01*
X103133Y43746D01*
X103138Y43727D01*
X103145Y43713D01*
X103148Y43701D01*
X103156Y43681D01*
X103161Y43676D01*
X103162Y43668D01*
X103164Y43667D01*
X103167Y43649D01*
X103179Y43621D01*
X103183Y43604D01*
X103188Y43600D01*
X103191Y43588D01*
X103199Y43568D01*
X103206Y43551D01*
X103209Y43539D01*
X103221Y43521D01*
X103225Y43505D01*
X103231Y43499D01*
X103237Y43484D01*
X103240Y43478D01*
X103252Y43459D01*
X103255Y43450D01*
X103261Y43444D01*
X103286Y43402D01*
X103295Y43392D01*
X103304Y43377D01*
X103313Y43368D01*
X103316Y43362D01*
X103327Y43354D01*
X103339Y43342D01*
X103345Y43339D01*
X103354Y43330D01*
X103374Y43322D01*
X103379Y43317D01*
X103428Y43305D01*
X103449Y43302D01*
X103476Y43299D01*
X103481Y43295D01*
X103484Y43282D01*
X103481Y43273D01*
X103484Y43264D01*
X103476Y43253D01*
X103446Y43250D01*
X102733Y43252D01*
X102716Y43250D01*
X102709Y43258D01*
X102712Y43298D01*
X102716Y43302D01*
X102768Y43305D01*
X102777Y43308D01*
X102790Y43311D01*
X102806Y43316D01*
X102814Y43324D01*
X102820Y43327D01*
X102837Y43340D01*
X102852Y43365D01*
X102855Y43377D01*
X102858Y43417D01*
X102854Y43476D01*
X102851Y43488D01*
X102843Y43508D01*
X102840Y43521D01*
X102832Y43540D01*
X102828Y43545D01*
X102823Y43568D01*
X102813Y43594D01*
X102810Y43606D01*
X102806Y43612D01*
X102797Y43633D01*
X102793Y43650D01*
X102785Y43664D01*
X102779Y43688D01*
X102767Y43716D01*
X102762Y43733D01*
X102758Y43737D01*
X102752Y43762D01*
X102739Y43789D01*
X102735Y43806D01*
X102724Y43832D01*
X102719Y43849D01*
X102715Y43853D01*
X102709Y43874D01*
X102706Y43887D01*
X102693Y43914D01*
X102689Y43931D01*
X102684Y43936D01*
X102678Y43960D01*
X102666Y43988D01*
X102662Y44004D01*
X102651Y44030D01*
X102646Y44047D01*
X102642Y44052D01*
X102636Y44073D01*
X102620Y44113D01*
X102617Y44125D01*
X102605Y44152D01*
X102602Y44168D01*
X102596Y44174D01*
X102593Y44186D01*
X102588Y44203D01*
X102577Y44229D01*
X102562Y44268D01*
X102558Y44285D01*
X102553Y44290D01*
X102547Y44314D01*
X102535Y44341D01*
X102532Y44354D01*
X102520Y44381D01*
X102515Y44401D01*
X102507Y44415D01*
X102504Y44427D01*
X102497Y44447D01*
X102489Y44464D01*
X102486Y44482D01*
X102480Y44488D01*
X102474Y44509D01*
X102462Y44540D01*
X102459Y44552D01*
X102446Y44580D01*
X102442Y44599D01*
X102434Y44613D01*
X102431Y44625D01*
X102416Y44665D01*
X102413Y44677D01*
X102401Y44705D01*
X102396Y44721D01*
X102391Y44726D01*
X102385Y44750D01*
X102373Y44772D01*
X102359Y44776D01*
X101468Y44773D01*
X101461Y44766D01*
X101451Y44744D01*
X101448Y44732D01*
X101436Y44702D01*
X101433Y44690D01*
X101421Y44662D01*
X101416Y44642D01*
X101412Y44638D01*
X101406Y44616D01*
X101390Y44576D01*
X101386Y44560D01*
X101378Y44543D01*
X101375Y44531D01*
X101363Y44503D01*
X101358Y44483D01*
X101351Y44470D01*
X101345Y44445D01*
X101341Y44439D01*
X101332Y44418D01*
X101328Y44401D01*
X101320Y44384D01*
X101317Y44372D01*
X101305Y44341D01*
X101302Y44329D01*
X101290Y44302D01*
X101285Y44282D01*
X101277Y44268D01*
X101274Y44256D01*
X101265Y44232D01*
X101259Y44216D01*
X101254Y44200D01*
X101244Y44174D01*
X101239Y44157D01*
X101235Y44152D01*
X101228Y44128D01*
X101216Y44100D01*
X101212Y44081D01*
X101204Y44067D01*
X101201Y44055D01*
X101186Y44015D01*
X101181Y43998D01*
X101174Y43984D01*
X101169Y43965D01*
X101155Y43933D01*
X101151Y43916D01*
X101143Y43899D01*
X101140Y43887D01*
X101128Y43856D01*
X101123Y43839D01*
X101112Y43813D01*
X101108Y43797D01*
X101100Y43783D01*
X101094Y43759D01*
X101082Y43731D01*
X101079Y43716D01*
X101067Y43688D01*
X101064Y43673D01*
X101058Y43667D01*
X101055Y43655D01*
X101050Y43638D01*
X101039Y43612D01*
X101035Y43595D01*
X101027Y43582D01*
X101021Y43557D01*
X101009Y43530D01*
X101006Y43511D01*
X100997Y43490D01*
X100994Y43441D01*
X100997Y43402D01*
X101009Y43374D01*
X101018Y43359D01*
X101032Y43342D01*
X101039Y43334D01*
X101041Y43330D01*
X101047Y43327D01*
X101065Y43314D01*
X101085Y43307D01*
X101102Y43302D01*
X101129Y43299D01*
X101134Y43286D01*
X101131Y43258D01*
X101126Y43253D01*
X101105Y43250D01*
X101099Y43253D01*
X101090Y43250D01*
X100578Y43252D01*
X100565Y43250D01*
X100557Y43255D01*
X100554Y43267D01*
X100557Y43298D01*
X100562Y43302D01*
X100604Y43305D01*
X100620Y43311D01*
X100636Y43316D01*
X100644Y43324D01*
X100659Y43333D01*
X100665Y43339D01*
X100672Y43342D01*
X100688Y43356D01*
X100700Y43368D01*
X100704Y43374D01*
X100716Y43386D01*
X100719Y43392D01*
X100728Y43402D01*
X100731Y43408D01*
X100745Y43424D01*
X100749Y43435D01*
X100755Y43441D01*
X100768Y43462D01*
X100786Y43496D01*
X100792Y43511D01*
X100795Y43518D01*
X100801Y43524D01*
X100806Y43543D01*
X100817Y43563D01*
X100820Y43576D01*
X100832Y43603D01*
X100835Y43615D01*
X100847Y43643D01*
X100852Y43659D01*
X100862Y43685D01*
X100865Y43698D01*
X100877Y43725D01*
X100882Y43742D01*
X100890Y43755D01*
X100894Y43772D01*
X100900Y43788D01*
X100908Y43807D01*
X100911Y43820D01*
X100920Y43841D01*
X100928Y43861D01*
X100935Y43878D01*
X100940Y43897D01*
X100948Y43911D01*
X100951Y43923D01*
X100957Y43939D01*
X100966Y43960D01*
X100969Y43975D01*
X100978Y43990D01*
X100983Y44010D01*
X100994Y44036D01*
X101001Y44056D01*
X101009Y44073D01*
X101013Y44093D01*
X101018Y44097D01*
X101024Y44113D01*
X101027Y44131D01*
X101033Y44137D01*
X101039Y44158D01*
X101051Y44189D01*
X101055Y44201D01*
X101067Y44229D01*
X101071Y44245D01*
X101082Y44271D01*
X101097Y44311D01*
X101102Y44328D01*
X101106Y44332D01*
X101112Y44354D01*
X101120Y44374D01*
X101125Y44378D01*
X101129Y44401D01*
X101140Y44427D01*
X101148Y44447D01*
X101155Y44464D01*
X101160Y44480D01*
X101171Y44506D01*
X101175Y44523D01*
X101180Y44528D01*
X101186Y44549D01*
X101198Y44580D01*
X101201Y44592D01*
X101213Y44619D01*
X101218Y44636D01*
X101225Y44650D01*
X101228Y44662D01*
X101236Y44682D01*
X101244Y44699D01*
X101247Y44714D01*
X101259Y44741D01*
X101264Y44758D01*
X101268Y44763D01*
X101274Y44787D01*
X101286Y44815D01*
X101291Y44831D01*
X101299Y44845D01*
X101302Y44857D01*
X101309Y44877D01*
X101317Y44894D01*
X101320Y44909D01*
X101332Y44937D01*
X101337Y44954D01*
X101341Y44958D01*
X101348Y44979D01*
X101351Y44992D01*
X101357Y44998D01*
X101363Y45022D01*
X101375Y45050D01*
X101380Y45066D01*
X101390Y45092D01*
X101393Y45105D01*
X101406Y45132D01*
X101410Y45149D01*
X101415Y45153D01*
X101418Y45166D01*
X101427Y45190D01*
X101433Y45205D01*
X101438Y45222D01*
X101445Y45236D01*
X101448Y45248D01*
X101456Y45268D01*
X101461Y45272D01*
X101465Y45292D01*
X101471Y45307D01*
X101479Y45327D01*
X101482Y45340D01*
X101494Y45367D01*
X101497Y45382D01*
X101503Y45388D01*
X101506Y45401D01*
X101515Y45425D01*
X101522Y45440D01*
X101526Y45457D01*
X101534Y45471D01*
X101537Y45483D01*
X101552Y45523D01*
X101555Y45535D01*
X101567Y45562D01*
X101570Y45575D01*
X101579Y45596D01*
X101583Y45608D01*
X101595Y45636D01*
X101599Y45652D01*
X101607Y45666D01*
X101610Y45678D01*
X101618Y45698D01*
X101622Y45703D01*
X101627Y45726D01*
X101640Y45758D01*
X101644Y45770D01*
X101653Y45791D01*
X101656Y45803D01*
X101659Y45810D01*
X101668Y45831D01*
X101673Y45848D01*
X101680Y45862D01*
X101683Y45874D01*
X101691Y45893D01*
X101696Y45898D01*
X101700Y45921D01*
X101714Y45953D01*
X101717Y45965D01*
X101726Y45987D01*
X101741Y46026D01*
X101746Y46043D01*
X101750Y46048D01*
X101757Y46069D01*
X101764Y46089D01*
X101769Y46093D01*
X101775Y46121D01*
X101787Y46148D01*
X101790Y46161D01*
X101799Y46182D01*
X101802Y46194D01*
X101805Y46200D01*
X101814Y46222D01*
X101818Y46234D01*
X101821Y46240D01*
X101830Y46261D01*
X101834Y46278D01*
X101839Y46283D01*
X101845Y46304D01*
X101848Y46316D01*
X101860Y46344D01*
X101863Y46356D01*
X101873Y46377D01*
X101880Y46397D01*
X101888Y46414D01*
X101892Y46434D01*
X101897Y46438D01*
X101903Y46460D01*
X101911Y46479D01*
X101915Y46484D01*
X101921Y46512D01*
X101927Y46518D01*
X101934Y46542D01*
X101946Y46569D01*
X101950Y46586D01*
X101961Y46612D01*
X101976Y46652D01*
X101981Y46669D01*
X101988Y46683D01*
X101991Y46695D01*
X101999Y46714D01*
X102004Y46728D01*
X102007Y46740D01*
X102008Y46745D01*
X102019Y46744D01*
D02*
G37*
%LPC*%
G36*
X110801Y50081D02*
X110792Y50078D01*
X110759Y50075D01*
X110749Y50072D01*
X110707Y50066D01*
X110684Y50061D01*
X110664Y50054D01*
X110640Y50050D01*
X110612Y50038D01*
X110594Y50035D01*
X110579Y50026D01*
X110566Y50023D01*
X110533Y50008D01*
X110527Y50005D01*
X110521Y49999D01*
X110505Y49992D01*
X110499Y49989D01*
X110493Y49983D01*
X110450Y49959D01*
X110444Y49953D01*
X110429Y49944D01*
X110423Y49937D01*
X110417Y49935D01*
X110400Y49921D01*
X110389Y49913D01*
X110383Y49907D01*
X110377Y49904D01*
X110365Y49892D01*
X110359Y49889D01*
X110354Y49884D01*
X110351Y49878D01*
X110340Y49870D01*
X110299Y49829D01*
X110296Y49823D01*
X110284Y49811D01*
X110281Y49805D01*
X110269Y49793D01*
X110266Y49786D01*
X110257Y49777D01*
X110247Y49762D01*
X110241Y49756D01*
X110232Y49741D01*
X110226Y49735D01*
X110202Y49692D01*
X110186Y49664D01*
X110165Y49619D01*
X110156Y49603D01*
X110150Y49588D01*
X110147Y49579D01*
X110138Y49558D01*
X110134Y49545D01*
X110122Y49518D01*
X110119Y49499D01*
X110110Y49478D01*
X110107Y49466D01*
X110102Y49443D01*
X110095Y49423D01*
X110092Y49402D01*
X110087Y49379D01*
X110081Y49355D01*
X110078Y49336D01*
X110075Y49297D01*
X110069Y49260D01*
X110066Y49220D01*
X110064Y49112D01*
X110067Y49103D01*
X110070Y49045D01*
X110073Y49036D01*
X110076Y48996D01*
X110080Y48965D01*
X110083Y48953D01*
X110089Y48932D01*
X110092Y48920D01*
X110095Y48889D01*
X110101Y48874D01*
X110107Y48853D01*
X110110Y48834D01*
X110119Y48813D01*
X110122Y48801D01*
X110125Y48782D01*
X110131Y48776D01*
X110138Y48755D01*
X110141Y48743D01*
X110147Y48737D01*
X110153Y48712D01*
X110156Y48706D01*
X110183Y48648D01*
X110186Y48642D01*
X110193Y48636D01*
X110197Y48619D01*
X110205Y48611D01*
X110220Y48584D01*
X110244Y48541D01*
X110250Y48535D01*
X110254Y48529D01*
X110283Y48491D01*
X110293Y48474D01*
X110299Y48468D01*
X110302Y48462D01*
X110311Y48453D01*
X110315Y48447D01*
X110330Y48431D01*
X110331Y48427D01*
X110337Y48424D01*
X110342Y48419D01*
X110345Y48413D01*
X110377Y48381D01*
X110383Y48378D01*
X110389Y48369D01*
X110396Y48366D01*
X110420Y48341D01*
X110426Y48338D01*
X110443Y48324D01*
X110453Y48317D01*
X110459Y48311D01*
X110470Y48306D01*
X110472Y48305D01*
X110481Y48296D01*
X110496Y48286D01*
X110518Y48274D01*
X110524Y48268D01*
X110545Y48256D01*
X110573Y48241D01*
X110588Y48234D01*
X110621Y48219D01*
X110649Y48207D01*
X110669Y48202D01*
X110673Y48198D01*
X110698Y48192D01*
X110717Y48187D01*
X110737Y48180D01*
X110768Y48177D01*
X110780Y48173D01*
X110818Y48166D01*
X110908Y48161D01*
X111009Y48164D01*
X111018Y48167D01*
X111096Y48181D01*
X111116Y48189D01*
X111128Y48192D01*
X111146Y48195D01*
X111174Y48207D01*
X111186Y48210D01*
X111201Y48219D01*
X111213Y48222D01*
X111220Y48225D01*
X111235Y48234D01*
X111250Y48241D01*
X111256Y48247D01*
X111299Y48271D01*
X111305Y48277D01*
X111326Y48289D01*
X111343Y48303D01*
X111361Y48315D01*
X111369Y48323D01*
X111375Y48326D01*
X111387Y48338D01*
X111393Y48341D01*
X111418Y48366D01*
X111424Y48369D01*
X111429Y48373D01*
X111432Y48379D01*
X111441Y48386D01*
X111444Y48392D01*
X111471Y48419D01*
X111474Y48425D01*
X111487Y48437D01*
X111490Y48443D01*
X111499Y48453D01*
X111502Y48459D01*
X111511Y48468D01*
X111520Y48483D01*
X111532Y48502D01*
X111535Y48508D01*
X111541Y48514D01*
X111551Y48529D01*
X111581Y48584D01*
X111602Y48630D01*
X111615Y48657D01*
X111630Y48691D01*
X111633Y48709D01*
X111645Y48737D01*
X111650Y48753D01*
X111656Y48769D01*
X111659Y48781D01*
X111662Y48799D01*
X111665Y48811D01*
X111673Y48831D01*
X111676Y48862D01*
X111679Y48874D01*
X111685Y48895D01*
X111688Y48907D01*
X111693Y48958D01*
X111699Y48998D01*
X111702Y49040D01*
X111703Y49149D01*
X111700Y49158D01*
X111697Y49213D01*
X111694Y49222D01*
X111691Y49252D01*
X111687Y49290D01*
X111683Y49306D01*
X111679Y49323D01*
X111676Y49344D01*
X111668Y49376D01*
X111661Y49402D01*
X111656Y49425D01*
X111650Y49440D01*
X111641Y49474D01*
X111633Y49490D01*
X111627Y49515D01*
X111615Y49542D01*
X111600Y49576D01*
X111587Y49603D01*
X111578Y49619D01*
X111563Y49646D01*
X111538Y49689D01*
X111532Y49695D01*
X111520Y49716D01*
X111514Y49722D01*
X111511Y49728D01*
X111505Y49735D01*
X111502Y49741D01*
X111487Y49762D01*
X111473Y49779D01*
X111468Y49783D01*
X111465Y49790D01*
X111456Y49799D01*
X111453Y49805D01*
X111423Y49835D01*
X111419Y49841D01*
X111415Y49846D01*
X111410Y49847D01*
X111407Y49854D01*
X111403Y49858D01*
X111397Y49861D01*
X111378Y49880D01*
X111372Y49883D01*
X111360Y49895D01*
X111354Y49898D01*
X111342Y49910D01*
X111337Y49912D01*
X111336Y49916D01*
X111329Y49919D01*
X111313Y49933D01*
X111262Y49965D01*
X111256Y49968D01*
X111250Y49974D01*
X111223Y49989D01*
X111207Y49995D01*
X111201Y49999D01*
X111195Y50005D01*
X111183Y50008D01*
X111149Y50023D01*
X111119Y50035D01*
X111107Y50038D01*
X111087Y50046D01*
X111073Y50050D01*
X111052Y50054D01*
X111021Y50063D01*
X111009Y50066D01*
X110968Y50070D01*
X110949Y50073D01*
X110934Y50076D01*
X110901Y50079D01*
X110801Y50081D01*
D02*
G37*
G36*
X101911Y46028D02*
X101906Y46023D01*
X101901Y45997D01*
X101888Y45965D01*
X101885Y45953D01*
X101876Y45932D01*
X101873Y45919D01*
X101860Y45892D01*
X101856Y45875D01*
X101845Y45849D01*
X101840Y45832D01*
X101833Y45819D01*
X101830Y45807D01*
X101814Y45767D01*
X101810Y45750D01*
X101805Y45746D01*
X101799Y45721D01*
X101787Y45694D01*
X101783Y45677D01*
X101772Y45651D01*
X101767Y45634D01*
X101757Y45608D01*
X101753Y45596D01*
X101741Y45568D01*
X101738Y45553D01*
X101737Y45552D01*
X101732Y45547D01*
X101726Y45523D01*
X101714Y45495D01*
X101709Y45475D01*
X101705Y45471D01*
X101699Y45449D01*
X101683Y45410D01*
X101679Y45393D01*
X101674Y45388D01*
X101668Y45367D01*
X101665Y45355D01*
X101653Y45327D01*
X101650Y45315D01*
X101640Y45294D01*
X101637Y45282D01*
X101625Y45254D01*
X101621Y45237D01*
X101613Y45221D01*
X101610Y45208D01*
X101598Y45178D01*
X101595Y45166D01*
X101583Y45138D01*
X101576Y45114D01*
X101570Y45108D01*
X101567Y45095D01*
X101563Y45079D01*
X101552Y45053D01*
X101548Y45036D01*
X101543Y45031D01*
X101537Y45010D01*
X101522Y44970D01*
X101518Y44961D01*
X101523Y44954D01*
X101538Y44950D01*
X101548Y44954D01*
X102306Y44952D01*
X102312Y44955D01*
X102315Y44964D01*
X102300Y44998D01*
X102295Y45015D01*
X102288Y45031D01*
X102285Y45044D01*
X102277Y45063D01*
X102272Y45068D01*
X102268Y45088D01*
X102262Y45103D01*
X102254Y45123D01*
X102249Y45140D01*
X102245Y45144D01*
X102239Y45169D01*
X102226Y45196D01*
X102222Y45216D01*
X102214Y45230D01*
X102211Y45242D01*
X102204Y45262D01*
X102196Y45278D01*
X102193Y45297D01*
X102187Y45303D01*
X102181Y45324D01*
X102169Y45355D01*
X102165Y45367D01*
X102153Y45395D01*
X102149Y45414D01*
X102141Y45428D01*
X102138Y45440D01*
X102123Y45480D01*
X102118Y45497D01*
X102114Y45501D01*
X102108Y45523D01*
X102092Y45562D01*
X102089Y45575D01*
X102080Y45596D01*
X102077Y45608D01*
X102065Y45636D01*
X102060Y45652D01*
X102053Y45669D01*
X102050Y45681D01*
X102037Y45712D01*
X102034Y45724D01*
X102022Y45752D01*
X102019Y45764D01*
X102007Y45794D01*
X102002Y45811D01*
X101991Y45837D01*
X101976Y45877D01*
X101972Y45893D01*
X101964Y45907D01*
X101958Y45932D01*
X101946Y45959D01*
X101941Y45976D01*
X101937Y45981D01*
X101932Y45997D01*
X101929Y46009D01*
X101920Y46025D01*
X101911Y46028D01*
D02*
G37*
%LPD*%
D25*
X124350Y83858D02*
D03*
X155650D02*
D03*
X124350Y33858D02*
D03*
X155650D02*
D03*
Y16142D02*
D03*
X124350D02*
D03*
X155650Y66142D02*
D03*
X124350D02*
D03*
D29*
X24764Y9409D02*
D03*
Y34606D02*
D03*
Y65394D02*
D03*
Y90591D02*
D03*
Y68543D02*
D03*
Y87441D02*
D03*
Y12559D02*
D03*
Y31457D02*
D03*
D31*
X71000Y69459D02*
D03*
Y84541D02*
D03*
X72969D02*
D03*
X69032D02*
D03*
X67063D02*
D03*
Y69459D02*
D03*
X69032D02*
D03*
X72969D02*
D03*
X74937D02*
D03*
D34*
X78541Y78969D02*
D03*
Y77000D02*
D03*
X63459Y80937D02*
D03*
Y78969D02*
D03*
Y77000D02*
D03*
Y75032D02*
D03*
Y73063D02*
D03*
X78541D02*
D03*
Y75032D02*
D03*
Y80937D02*
D03*
D35*
X24764Y84882D02*
D03*
Y82913D02*
D03*
Y80945D02*
D03*
Y78976D02*
D03*
Y77008D02*
D03*
Y75039D02*
D03*
Y73071D02*
D03*
Y71102D02*
D03*
Y28898D02*
D03*
Y26929D02*
D03*
Y24961D02*
D03*
Y22992D02*
D03*
Y21024D02*
D03*
Y19055D02*
D03*
Y17087D02*
D03*
Y15118D02*
D03*
D36*
X74937Y84541D02*
D03*
D37*
X104258Y69240D02*
D03*
X104758Y83240D02*
D03*
D38*
X104258Y61760D02*
D03*
X111742Y65500D02*
D03*
X104758Y75760D02*
D03*
X112242Y79500D02*
D03*
D39*
X42500Y62000D02*
D03*
X45886D02*
D03*
X72307Y56000D02*
D03*
X75693D02*
D03*
X258693Y84500D02*
D03*
X246807D02*
D03*
X44693Y36500D02*
D03*
X51707Y85400D02*
D03*
X52807Y68500D02*
D03*
X89693Y82000D02*
D03*
X266693Y84500D02*
D03*
X261307Y13500D02*
D03*
X75693Y61000D02*
D03*
X72307D02*
D03*
X264693Y13500D02*
D03*
X263307Y84500D02*
D03*
X86307Y82000D02*
D03*
X56193Y68500D02*
D03*
X55093Y85400D02*
D03*
X41307Y36500D02*
D03*
X250193Y84500D02*
D03*
X255307D02*
D03*
D40*
X195998Y44187D02*
D03*
X199400D02*
D03*
X195801Y52500D02*
D03*
X192399D02*
D03*
X196000Y44187D02*
D03*
X192598D02*
D03*
X89701Y62000D02*
D03*
Y57000D02*
D03*
X188799Y80000D02*
D03*
X192201D02*
D03*
X188799Y85000D02*
D03*
X192201D02*
D03*
X71601Y51000D02*
D03*
X68199D02*
D03*
X64799D02*
D03*
X68201D02*
D03*
X89701Y87000D02*
D03*
X86299D02*
D03*
X51799Y73000D02*
D03*
X55201D02*
D03*
X51799Y79400D02*
D03*
X55201D02*
D03*
X86299Y57000D02*
D03*
Y67000D02*
D03*
X89701D02*
D03*
X86299Y62000D02*
D03*
X205701Y14000D02*
D03*
X202299D02*
D03*
X214701D02*
D03*
X211299D02*
D03*
X199201Y52500D02*
D03*
X195799D02*
D03*
D41*
X267063Y77559D02*
D03*
X211945D02*
D03*
X267063Y22441D02*
D03*
X211945D02*
D03*
D42*
X262929Y77559D02*
D03*
X259583D02*
D03*
X252890Y22441D02*
D03*
X256236D02*
D03*
X262929D02*
D03*
X259583D02*
D03*
X249543D02*
D03*
X246197D02*
D03*
X242850D02*
D03*
X239504D02*
D03*
X236157D02*
D03*
X232811D02*
D03*
X229465D02*
D03*
X226118D02*
D03*
X222772D02*
D03*
X219425D02*
D03*
X216079D02*
D03*
Y77559D02*
D03*
X219425D02*
D03*
X222772D02*
D03*
X226118D02*
D03*
X229465D02*
D03*
X232811D02*
D03*
X236157D02*
D03*
X239504D02*
D03*
X242850D02*
D03*
X246197D02*
D03*
X249543D02*
D03*
X252890D02*
D03*
X256236D02*
D03*
D43*
X267063Y26575D02*
D03*
Y29921D02*
D03*
Y33268D02*
D03*
Y36614D02*
D03*
Y39961D02*
D03*
Y43307D02*
D03*
Y46654D02*
D03*
Y50000D02*
D03*
Y53347D02*
D03*
Y56693D02*
D03*
Y60039D02*
D03*
Y63386D02*
D03*
Y66732D02*
D03*
Y70079D02*
D03*
Y73425D02*
D03*
X211945Y26575D02*
D03*
Y29921D02*
D03*
Y33268D02*
D03*
Y36614D02*
D03*
Y39961D02*
D03*
Y43307D02*
D03*
Y46654D02*
D03*
Y50000D02*
D03*
Y53347D02*
D03*
Y56693D02*
D03*
Y60039D02*
D03*
Y63386D02*
D03*
Y66732D02*
D03*
Y70079D02*
D03*
Y73425D02*
D03*
D44*
X239504Y50000D02*
D03*
X246000D02*
D03*
Y43504D02*
D03*
X239504D02*
D03*
X233008D02*
D03*
Y50000D02*
D03*
Y56496D02*
D03*
X239504D02*
D03*
D45*
X166000Y63000D02*
D03*
Y14307D02*
D03*
X58000Y34307D02*
D03*
X53000Y24193D02*
D03*
X58500D02*
D03*
X64000Y59307D02*
D03*
Y62693D02*
D03*
X58500Y20807D02*
D03*
X53000D02*
D03*
X58000Y37693D02*
D03*
X166000Y17693D02*
D03*
Y66386D02*
D03*
D46*
X43000Y16701D02*
D03*
Y24299D02*
D03*
Y74701D02*
D03*
Y80299D02*
D03*
X179000Y81701D02*
D03*
Y78299D02*
D03*
Y21701D02*
D03*
Y18299D02*
D03*
X59700Y59200D02*
D03*
Y62602D02*
D03*
X43000Y83701D02*
D03*
Y71299D02*
D03*
Y27701D02*
D03*
Y13299D02*
D03*
X98000Y71201D02*
D03*
Y67799D02*
D03*
X166000Y23799D02*
D03*
Y27201D02*
D03*
X96000Y76299D02*
D03*
Y79701D02*
D03*
D47*
X33220Y36500D02*
D03*
X30220Y62000D02*
D03*
X32779D02*
D03*
X35780Y36500D02*
D03*
D48*
X33500Y24559D02*
D03*
Y15500D02*
D03*
X34000Y83780D02*
D03*
Y71720D02*
D03*
Y74279D02*
D03*
Y81221D02*
D03*
X33500Y18059D02*
D03*
Y22000D02*
D03*
D49*
X171000Y18130D02*
D03*
Y21870D02*
D03*
X173000Y78130D02*
D03*
Y81870D02*
D03*
D50*
X71000Y77000D02*
D03*
D51*
X65697Y29000D02*
D03*
Y19945D02*
D03*
Y38055D02*
D03*
D52*
X90303Y29000D02*
D03*
D53*
X6752Y39016D02*
D03*
Y5000D02*
D03*
Y95000D02*
D03*
Y60984D02*
D03*
D54*
X22500Y39016D02*
D03*
Y5000D02*
D03*
Y95000D02*
D03*
Y60984D02*
D03*
D55*
X265000Y95000D02*
D03*
Y5000D02*
D03*
D56*
X45000Y95000D02*
D03*
X255000Y5000D02*
D03*
X35000D02*
D03*
X45000D02*
D03*
X55000D02*
D03*
X65000D02*
D03*
X75000D02*
D03*
X85000D02*
D03*
X95000D02*
D03*
X105000D02*
D03*
X115000D02*
D03*
X125000D02*
D03*
X135000D02*
D03*
X145000D02*
D03*
X155000D02*
D03*
X165000D02*
D03*
X175000D02*
D03*
X185000D02*
D03*
X195000D02*
D03*
X205000D02*
D03*
X215000D02*
D03*
X225000D02*
D03*
X235000D02*
D03*
X245000D02*
D03*
X35000Y95000D02*
D03*
X55000D02*
D03*
X65000D02*
D03*
X75000D02*
D03*
X85000D02*
D03*
X95000D02*
D03*
X105000D02*
D03*
X115000D02*
D03*
X125000D02*
D03*
X135000D02*
D03*
X145000D02*
D03*
X155000D02*
D03*
X165000D02*
D03*
X175000D02*
D03*
X185000D02*
D03*
X195000D02*
D03*
X205000D02*
D03*
X215000D02*
D03*
X225000D02*
D03*
X235000D02*
D03*
X245000D02*
D03*
X255000D02*
D03*
D57*
X137500Y50000D02*
D03*
D58*
X142500D02*
D03*
X37500D02*
D03*
Y45000D02*
D03*
D59*
Y55000D02*
D03*
M02*
