G04*
G04 #@! TF.GenerationSoftware,Altium Limited,Altium Designer,24.5.2 (23)*
G04*
G04 Layer_Physical_Order=1*
G04 Layer_Color=255*
%FSLAX25Y25*%
%MOIN*%
G70*
G04*
G04 #@! TF.SameCoordinates,E4EE70D6-3671-4E5A-A7CB-3E81B9B691F3*
G04*
G04*
G04 #@! TF.FilePolarity,Positive*
G04*
G01*
G75*
%ADD13C,0.00600*%
G04:AMPARAMS|DCode=18|XSize=23.62mil|YSize=21.26mil|CornerRadius=5.63mil|HoleSize=0mil|Usage=FLASHONLY|Rotation=270.000|XOffset=0mil|YOffset=0mil|HoleType=Round|Shape=RoundedRectangle|*
%AMROUNDEDRECTD18*
21,1,0.02362,0.00999,0,0,270.0*
21,1,0.01235,0.02126,0,0,270.0*
1,1,0.01127,-0.00500,-0.00618*
1,1,0.01127,-0.00500,0.00618*
1,1,0.01127,0.00500,0.00618*
1,1,0.01127,0.00500,-0.00618*
%
%ADD18ROUNDEDRECTD18*%
%ADD19R,0.02126X0.02362*%
%ADD20R,0.03150X0.03150*%
%ADD21R,0.01575X0.03150*%
%ADD22R,0.03150X0.01575*%
%ADD23R,0.04724X0.04724*%
G04:AMPARAMS|DCode=24|XSize=23.62mil|YSize=21.26mil|CornerRadius=5.63mil|HoleSize=0mil|Usage=FLASHONLY|Rotation=180.000|XOffset=0mil|YOffset=0mil|HoleType=Round|Shape=RoundedRectangle|*
%AMROUNDEDRECTD24*
21,1,0.02362,0.00999,0,0,180.0*
21,1,0.01235,0.02126,0,0,180.0*
1,1,0.01127,-0.00618,0.00500*
1,1,0.01127,0.00618,0.00500*
1,1,0.01127,0.00618,-0.00500*
1,1,0.01127,-0.00618,-0.00500*
%
%ADD24ROUNDEDRECTD24*%
%ADD25R,0.06102X0.05118*%
%ADD26R,0.02362X0.02126*%
%ADD27R,0.01378X0.02362*%
%ADD28R,0.02362X0.01378*%
%ADD29R,0.04528X0.02362*%
%ADD30R,0.02756X0.02362*%
G04:AMPARAMS|DCode=31|XSize=33.06mil|YSize=9.55mil|CornerRadius=4.77mil|HoleSize=0mil|Usage=FLASHONLY|Rotation=270.000|XOffset=0mil|YOffset=0mil|HoleType=Round|Shape=RoundedRectangle|*
%AMROUNDEDRECTD31*
21,1,0.03306,0.00000,0,0,270.0*
21,1,0.02351,0.00955,0,0,270.0*
1,1,0.00955,0.00000,-0.01176*
1,1,0.00955,0.00000,0.01176*
1,1,0.00955,0.00000,0.01176*
1,1,0.00955,0.00000,-0.01176*
%
%ADD31ROUNDEDRECTD31*%
G04:AMPARAMS|DCode=32|XSize=35.43mil|YSize=68.9mil|CornerRadius=1.95mil|HoleSize=0mil|Usage=FLASHONLY|Rotation=90.000|XOffset=0mil|YOffset=0mil|HoleType=Round|Shape=RoundedRectangle|*
%AMROUNDEDRECTD32*
21,1,0.03543,0.06500,0,0,90.0*
21,1,0.03154,0.06890,0,0,90.0*
1,1,0.00390,0.03250,0.01577*
1,1,0.00390,0.03250,-0.01577*
1,1,0.00390,-0.03250,-0.01577*
1,1,0.00390,-0.03250,0.01577*
%
%ADD32ROUNDEDRECTD32*%
G04:AMPARAMS|DCode=33|XSize=125.98mil|YSize=68.9mil|CornerRadius=2.07mil|HoleSize=0mil|Usage=FLASHONLY|Rotation=90.000|XOffset=0mil|YOffset=0mil|HoleType=Round|Shape=RoundedRectangle|*
%AMROUNDEDRECTD33*
21,1,0.12598,0.06476,0,0,90.0*
21,1,0.12185,0.06890,0,0,90.0*
1,1,0.00413,0.03238,0.06093*
1,1,0.00413,0.03238,-0.06093*
1,1,0.00413,-0.03238,-0.06093*
1,1,0.00413,-0.03238,0.06093*
%
%ADD33ROUNDEDRECTD33*%
G04:AMPARAMS|DCode=34|XSize=9.55mil|YSize=33.06mil|CornerRadius=4.77mil|HoleSize=0mil|Usage=FLASHONLY|Rotation=270.000|XOffset=0mil|YOffset=0mil|HoleType=Round|Shape=RoundedRectangle|*
%AMROUNDEDRECTD34*
21,1,0.00955,0.02351,0,0,270.0*
21,1,0.00000,0.03306,0,0,270.0*
1,1,0.00955,-0.01176,0.00000*
1,1,0.00955,-0.01176,0.00000*
1,1,0.00955,0.01176,0.00000*
1,1,0.00955,0.01176,0.00000*
%
%ADD34ROUNDEDRECTD34*%
%ADD35R,0.04528X0.01181*%
%ADD36R,0.00955X0.03306*%
%ADD37R,0.05343X0.02253*%
G04:AMPARAMS|DCode=38|XSize=53.43mil|YSize=22.53mil|CornerRadius=11.26mil|HoleSize=0mil|Usage=FLASHONLY|Rotation=0.000|XOffset=0mil|YOffset=0mil|HoleType=Round|Shape=RoundedRectangle|*
%AMROUNDEDRECTD38*
21,1,0.05343,0.00000,0,0,0.0*
21,1,0.03091,0.02253,0,0,0.0*
1,1,0.02253,0.01545,0.00000*
1,1,0.02253,-0.01545,0.00000*
1,1,0.02253,-0.01545,0.00000*
1,1,0.02253,0.01545,0.00000*
%
%ADD38ROUNDEDRECTD38*%
%ADD50R,0.08071X0.08071*%
G04:AMPARAMS|DCode=53|XSize=39.37mil|YSize=86.61mil|CornerRadius=19.68mil|HoleSize=0mil|Usage=FLASHONLY|Rotation=270.000|XOffset=0mil|YOffset=0mil|HoleType=Round|Shape=RoundedRectangle|*
%AMROUNDEDRECTD53*
21,1,0.03937,0.04724,0,0,270.0*
21,1,0.00000,0.08661,0,0,270.0*
1,1,0.03937,-0.02362,0.00000*
1,1,0.03937,-0.02362,0.00000*
1,1,0.03937,0.02362,0.00000*
1,1,0.03937,0.02362,0.00000*
%
%ADD53ROUNDEDRECTD53*%
G04:AMPARAMS|DCode=54|XSize=39.37mil|YSize=70.87mil|CornerRadius=19.68mil|HoleSize=0mil|Usage=FLASHONLY|Rotation=270.000|XOffset=0mil|YOffset=0mil|HoleType=Round|Shape=RoundedRectangle|*
%AMROUNDEDRECTD54*
21,1,0.03937,0.03150,0,0,270.0*
21,1,0.00000,0.07087,0,0,270.0*
1,1,0.03937,-0.01575,0.00000*
1,1,0.03937,-0.01575,0.00000*
1,1,0.03937,0.01575,0.00000*
1,1,0.03937,0.01575,0.00000*
%
%ADD54ROUNDEDRECTD54*%
%ADD60R,0.01575X0.01575*%
%ADD61C,0.02000*%
%ADD62C,0.01500*%
%ADD63C,0.02500*%
%ADD64C,0.03000*%
%ADD65C,0.00603*%
%ADD66C,0.00623*%
%ADD67C,0.01001*%
%ADD68R,0.06400X0.06400*%
%ADD69C,0.06400*%
%ADD70R,0.04000X0.04000*%
%ADD71C,0.04000*%
%ADD72R,0.04000X0.04000*%
%ADD73C,0.02400*%
G36*
X250442Y89955D02*
X256205Y89905D01*
X256600Y89509D01*
Y85121D01*
X256599Y85118D01*
Y83882D01*
X256600Y83879D01*
Y83300D01*
X249100D01*
Y88043D01*
X249100Y88043D01*
X249088Y88098D01*
X249076Y88210D01*
X249076Y88323D01*
X249088Y88435D01*
X249100Y88490D01*
X249100Y88490D01*
X249102Y88497D01*
X249108Y88512D01*
X249115Y88525D01*
X249123Y88538D01*
X249128Y88544D01*
X249100Y89300D01*
X249100Y89300D01*
X249107Y89337D01*
X249115Y89412D01*
Y89488D01*
X249107Y89563D01*
X249100Y89600D01*
X249100Y89600D01*
X249105Y89626D01*
X249113Y89679D01*
X249116Y89732D01*
X249116Y89785D01*
X249114Y89811D01*
Y89811D01*
X249113Y89829D01*
X249125Y89862D01*
X249149Y89887D01*
X249181Y89900D01*
X249199Y89899D01*
X249346Y89893D01*
X249640Y89891D01*
X249934Y89904D01*
X250227Y89931D01*
X250373Y89951D01*
X250373Y89950D01*
X250382Y89952D01*
X250399Y89953D01*
X250416Y89955D01*
X250433Y89955D01*
X250442Y89955D01*
D02*
G37*
G36*
X86500Y88500D02*
X87500D01*
Y80600D01*
X84550D01*
X84515Y80561D01*
X82000D01*
X81415Y80445D01*
X80919Y80113D01*
X80910Y80100D01*
X79378D01*
X77500Y81978D01*
Y87500D01*
X77600Y87600D01*
X82000Y89000D01*
X86500Y88500D01*
D02*
G37*
G36*
X254200Y62690D02*
Y36300D01*
X224024D01*
X223931Y36346D01*
X223768Y36476D01*
X223638Y36639D01*
X223547Y36826D01*
X223523Y36927D01*
X223428Y37016D01*
X223298Y37240D01*
X223238Y37493D01*
X223254Y37753D01*
X223300Y37874D01*
X223300Y61538D01*
X223300Y62500D01*
X223771Y63297D01*
X224021Y63400D01*
X224200Y63400D01*
X253324Y63400D01*
X254200Y62690D01*
D02*
G37*
G36*
X61171Y71832D02*
X62100Y68601D01*
X58987Y64665D01*
X57519D01*
Y60539D01*
X61300D01*
Y58000D01*
X56100D01*
X55100Y59000D01*
X54753Y67233D01*
X54779Y67272D01*
X54901Y67882D01*
Y69118D01*
X54886Y69192D01*
X55840Y70147D01*
X59580Y72222D01*
X61171Y71832D01*
D02*
G37*
G36*
X43800Y65500D02*
Y62657D01*
X43792Y62618D01*
Y61382D01*
X43800Y61343D01*
Y52900D01*
X39689D01*
X39611Y52916D01*
X39611D01*
X39611Y52916D01*
X39495Y52938D01*
X39495Y52939D01*
X39495Y52939D01*
X39490Y52942D01*
X39406Y52959D01*
X39357Y52981D01*
X39344Y52981D01*
X39298Y53000D01*
X39198Y53000D01*
X39100Y53020D01*
X36401D01*
X36401Y53020D01*
X36301Y53020D01*
X36202Y53000D01*
X36101Y53000D01*
X36009Y52962D01*
X35910Y52942D01*
X35906Y52939D01*
X35905Y52939D01*
X35830Y52908D01*
X35812Y52900D01*
X32600D01*
X32000Y53500D01*
Y65600D01*
X43700D01*
X43800Y65500D01*
D02*
G37*
G36*
X39101Y52000D02*
X39108Y51995D01*
X39108Y51995D01*
X39128Y51991D01*
X39207Y51959D01*
X39244Y51951D01*
X39247Y51950D01*
X39247Y51950D01*
X39254Y51949D01*
X39285Y51943D01*
X39296Y51938D01*
X39490Y51900D01*
X39533D01*
X39538Y51898D01*
X39551Y51900D01*
X39590D01*
X39689Y51880D01*
X40972D01*
X41349Y51692D01*
X44795Y48331D01*
X51745Y43967D01*
X54549Y44180D01*
X58196Y43668D01*
X61099Y43744D01*
X61577Y43681D01*
X68537Y43617D01*
X68621Y43656D01*
X69849Y42873D01*
Y40592D01*
Y36492D01*
X69349D01*
X69170Y36510D01*
X67793Y36441D01*
X67687Y36420D01*
X67449Y36492D01*
X61352Y36792D01*
X58771Y36671D01*
X54749Y36692D01*
X49849D01*
X49711Y36749D01*
X47497Y38963D01*
X41949Y44180D01*
Y44292D01*
X40549Y46192D01*
X40249Y46592D01*
X40149Y46892D01*
X38849Y47792D01*
X38049Y48092D01*
X37449D01*
X36449Y48392D01*
X35600Y48901D01*
X35449Y49169D01*
Y51492D01*
X35843Y51887D01*
X36021Y51922D01*
X36202Y51958D01*
X36220Y51966D01*
X36220Y51966D01*
X36221Y51966D01*
X36296Y51997D01*
X36300Y52000D01*
X36300Y52000D01*
X36401Y52000D01*
X36401Y52000D01*
X39100D01*
X39101Y52000D01*
D02*
G37*
G36*
X117800Y55371D02*
X118000D01*
Y54400D01*
Y46800D01*
Y45600D01*
Y32200D01*
Y16100D01*
Y14800D01*
X116000Y14100D01*
X95500D01*
X85283Y24317D01*
X82700Y25900D01*
X79700Y26700D01*
X73824Y26525D01*
X73824Y26525D01*
X73649Y26505D01*
X73319Y26383D01*
X73046Y26163D01*
X72856Y25867D01*
X72800Y25700D01*
X69841Y22741D01*
X69690Y22842D01*
X69300Y22920D01*
X61373D01*
X61190Y23042D01*
X60800Y23120D01*
X60068D01*
X59770Y23179D01*
X54500D01*
X54202Y23120D01*
X53621D01*
X53618Y23119D01*
X52382D01*
X52379Y23120D01*
X52100D01*
X51710Y23042D01*
X51499Y22901D01*
X51373Y22900D01*
X51114Y22970D01*
X50926Y23076D01*
X50696Y23633D01*
X50200Y24128D01*
Y35200D01*
X50400Y35400D01*
X61910D01*
X61981Y35353D01*
X62447Y35260D01*
X68947D01*
X69413Y35353D01*
X69484Y35400D01*
X69600D01*
X70000Y35000D01*
X70500Y35500D01*
Y35724D01*
X70570Y35771D01*
X70791Y36102D01*
X70868Y36492D01*
Y41968D01*
X73300Y44400D01*
X77400D01*
X77550Y44550D01*
X77880Y44616D01*
X78542Y45058D01*
X81945Y48461D01*
X89526D01*
X90225Y48600D01*
X90300D01*
X90337Y48637D01*
X90967Y49058D01*
X94206Y52296D01*
X94648Y52958D01*
X94720Y53320D01*
X96800Y55400D01*
X117652D01*
X117800Y55371D01*
D02*
G37*
G36*
X36982Y47033D02*
X37105Y47000D01*
X37895D01*
X37915Y47005D01*
X38053Y47001D01*
X38224Y46937D01*
X38475Y46811D01*
X39138Y46351D01*
X39399Y46052D01*
X39433Y45980D01*
X39731Y45584D01*
X40264Y44860D01*
Y44466D01*
X41141Y43588D01*
X41228Y43459D01*
X41241Y43450D01*
X41250Y43437D01*
X41956Y42773D01*
X42664Y42066D01*
X42464Y34966D01*
X42464Y31066D01*
X41611Y30120D01*
X41460Y30032D01*
X41362Y30009D01*
X40900Y30100D01*
X40779Y30174D01*
X40429Y30171D01*
X39864Y30166D01*
X35501Y30166D01*
X35471Y30180D01*
X35083Y30573D01*
X35070Y30602D01*
X35197Y39231D01*
X35500Y39962D01*
Y40838D01*
X35230Y41489D01*
X35304Y46506D01*
X35864Y47066D01*
X36982Y47033D01*
D02*
G37*
G36*
X61000Y21900D02*
X69300D01*
Y18000D01*
X62800D01*
X62200Y17400D01*
X59100Y14300D01*
X56500D01*
X56100Y13900D01*
X54100Y12100D01*
X53800Y12000D01*
X52414Y12082D01*
X52354Y12085D01*
X52245Y12132D01*
X52158Y12214D01*
X52104Y12320D01*
X52096Y12379D01*
X51810Y12865D01*
X51440Y13929D01*
X51286Y15046D01*
X51355Y16171D01*
X51378Y16255D01*
X51557Y16716D01*
X51557Y16716D01*
X51500Y17700D01*
Y21400D01*
X51900Y21900D01*
X52100Y22100D01*
X52379D01*
X52382Y22099D01*
X53618D01*
X53621Y22100D01*
X57879D01*
X57882Y22099D01*
X59118D01*
X59121Y22100D01*
X60800D01*
X61000Y21900D01*
D02*
G37*
D13*
X192201Y80000D02*
X202964D01*
X252807Y77642D02*
Y80048D01*
X203598Y80634D02*
X252221D01*
X252807Y77642D02*
X252890Y77559D01*
X252221Y80634D02*
X252807Y80048D01*
X202964Y80000D02*
X203598Y80634D01*
X192201Y80000D02*
Y85000D01*
X127900Y60800D02*
X131800Y56900D01*
X111742Y62958D02*
X113900Y60800D01*
X127900D01*
X98000Y73500D02*
X100260Y75760D01*
X98000Y71201D02*
Y73500D01*
Y67799D02*
X100201D01*
X101400Y66600D02*
X104014D01*
X100201Y67799D02*
X101400Y66600D01*
X88400Y75700D02*
X92899Y71201D01*
X98000D01*
X81500Y60000D02*
X84322Y57178D01*
X81500Y60000D02*
Y64500D01*
X86121Y57178D02*
X86299Y57000D01*
X84322Y57178D02*
X86121D01*
X78041Y69459D02*
X81500Y66000D01*
Y64500D02*
Y66000D01*
X74937Y69459D02*
X78041D01*
X32568Y13250D02*
X37788D01*
X31709Y13299D02*
X32519D01*
X32568Y13250D01*
X37788D02*
X37838Y13299D01*
X43000D01*
X30000Y15009D02*
X31709Y13299D01*
X29890Y15118D02*
X30000Y15009D01*
X196600Y31000D02*
X206218D01*
X207297Y29921D01*
X199511Y33268D02*
X211945D01*
X198979Y33800D02*
X199511Y33268D01*
X198600Y33800D02*
X198979D01*
X181979Y38700D02*
X182579Y39300D01*
X197000D01*
X181600Y38700D02*
X181979D01*
X197000Y39300D02*
X201000Y35300D01*
X192482Y28100D02*
X203936D01*
X180800Y33800D02*
X186782D01*
X178700Y35900D02*
X180800Y33800D01*
X186782D02*
X192482Y28100D01*
X182471Y29701D02*
X191771Y20400D01*
X176799Y29701D02*
X182471D01*
X183200Y31800D02*
X192600Y22400D01*
X177547Y31800D02*
X183200D01*
X155000Y60000D02*
X164400Y50600D01*
Y44947D02*
Y50600D01*
X191771Y20400D02*
X195872D01*
X198331Y17941D01*
X149500Y57000D02*
X176799Y29701D01*
X149500Y57000D02*
Y61925D01*
X148926Y62500D02*
X149500Y61925D01*
X201000Y35300D02*
X206998D01*
X164400Y44947D02*
X177547Y31800D01*
X192600Y22400D02*
X196700D01*
X201255Y70073D02*
X204607Y73425D01*
X193000Y72000D02*
X197182D01*
X199108Y70073D01*
X201255D01*
X198331Y17941D02*
X200459D01*
X202299Y16101D01*
X148926Y62500D02*
Y62879D01*
X196700Y22400D02*
X199159Y19941D01*
X205476D01*
X155650Y16142D02*
Y19750D01*
X131800Y43600D02*
Y56900D01*
Y43600D02*
X155650Y19750D01*
Y16142D02*
X161249D01*
X165793Y17693D02*
X166000Y17900D01*
X161249Y16142D02*
X162800Y17693D01*
X165793D01*
X202299Y14000D02*
Y16101D01*
X104014Y66600D02*
X104600Y67186D01*
Y68614D01*
X104258Y68956D02*
X104600Y68614D01*
X104258Y68956D02*
Y69240D01*
X42822Y69322D02*
Y71121D01*
X41594Y68094D02*
X42822Y69322D01*
X33406Y68094D02*
X41594D01*
X42822Y71121D02*
X43000Y71299D01*
X42722Y83979D02*
X43000Y83701D01*
X42722Y83979D02*
Y85678D01*
X33882Y88700D02*
X39700D01*
X42722Y85678D01*
X206998Y35300D02*
X208158Y36459D01*
X211790D01*
X211945Y36614D01*
X259383Y22242D02*
X259583Y22441D01*
X259383Y20157D02*
Y22242D01*
X254226Y15000D02*
X259383Y20157D01*
X245000Y15000D02*
X254226D01*
X215904Y21686D02*
Y32932D01*
X204607Y73425D02*
X211945D01*
X173000Y81870D02*
X173065Y81936D01*
Y83965D02*
X179300Y90200D01*
X220200D01*
X173065Y81936D02*
Y83965D01*
X64088Y64770D02*
X67063Y67745D01*
Y69459D01*
X64088Y62697D02*
Y64770D01*
X83071Y77000D02*
X83705Y76366D01*
X84371Y75700D01*
X78541Y77000D02*
X83071D01*
X84371Y75700D02*
X88400D01*
X262793Y22305D02*
X262929Y22441D01*
X262793Y20093D02*
Y22305D01*
X255700Y13000D02*
X262793Y20093D01*
X84232Y71268D02*
X84500Y71000D01*
X81646Y75032D02*
X84232Y72445D01*
Y71268D02*
Y72445D01*
X244177Y94177D02*
X245000Y95000D01*
X241177Y94177D02*
X244177D01*
X189700Y88200D02*
X235200D01*
X241177Y94177D01*
X79694Y75032D02*
X81646D01*
X166000Y23799D02*
X166432Y24232D01*
X74914Y85694D02*
Y87286D01*
X30000Y71102D02*
X30398D01*
X24764D02*
X30000D01*
X30398D02*
X31424Y70077D01*
Y70041D02*
X32888Y68577D01*
X32923D01*
X33406Y68094D01*
X31424Y70041D02*
Y70077D01*
X31319Y83590D02*
Y86137D01*
X33882Y88700D01*
X29800Y83004D02*
X30733D01*
X24854D02*
X29800D01*
X30733D02*
X31319Y83590D01*
X24764Y82913D02*
X24854Y83004D01*
X24764Y15118D02*
X29890D01*
X207310Y41268D02*
X209349Y43307D01*
X211945D01*
X205768Y41268D02*
X207310D01*
X205500Y41000D02*
X205768Y41268D01*
X188700Y55800D02*
X206018D01*
X208472Y53347D01*
X208200Y57800D02*
X209307Y56693D01*
X211945D01*
X190400Y57800D02*
X208200D01*
X208472Y53347D02*
X211945D01*
X206870Y38000D02*
X208870Y40000D01*
X202500Y38000D02*
X206870D01*
X208870Y40000D02*
X210271D01*
X186000Y58500D02*
X188700Y55800D01*
X185982Y58500D02*
X186000D01*
X180400Y61100D02*
X183400D01*
X184400Y60100D01*
Y60082D02*
X185982Y58500D01*
X184400Y60082D02*
Y60100D01*
X187100Y61100D02*
X190400Y57800D01*
X192121Y60500D02*
X192389Y60232D01*
X193147D01*
X193340Y60039D01*
X211945D01*
X187100Y61100D02*
Y61200D01*
X91469Y79031D02*
X94000Y76500D01*
X82000Y79031D02*
X91469D01*
X33429Y26929D02*
X34200Y27700D01*
X42300D01*
X24764Y26929D02*
X33429D01*
X252472Y13000D02*
X255700D01*
X111742Y62958D02*
Y65500D01*
X166000Y17900D02*
Y23799D01*
X124350Y16142D02*
X154358D01*
X154900Y15600D01*
X180700Y73400D02*
X186867Y79567D01*
X188236D02*
X188400Y79731D01*
Y80000D01*
X186867Y79567D02*
X188236D01*
X173686Y66386D02*
X179100Y71800D01*
X179118D02*
X180700Y73382D01*
Y73400D01*
X166000Y66386D02*
X173686D01*
X179100Y71800D02*
X179118D01*
X155650Y66142D02*
X155894Y66386D01*
X165686D02*
X165700Y66400D01*
X155894Y66386D02*
X165686D01*
X124350Y66142D02*
X154142D01*
X154200Y66200D01*
X119800Y66000D02*
X122200D01*
X112242Y73558D02*
Y79500D01*
Y73558D02*
X119800Y66000D01*
X78541Y78936D02*
X82000D01*
Y79031D01*
X109000Y68017D02*
Y76777D01*
X107391Y78386D02*
X109000Y76777D01*
X105369Y64386D02*
X109000Y68017D01*
X104200Y62000D02*
X105031D01*
X105369Y62338D01*
Y64386D01*
X98386Y76714D02*
X100058Y78386D01*
X107391D01*
X96415Y76714D02*
X98386D01*
X96000Y76299D02*
X96415Y76714D01*
X94000Y76500D02*
X95000D01*
X100260Y75760D02*
X103740D01*
X104000Y75500D01*
X96332Y80033D02*
X98033D01*
X104690Y83172D02*
X104758Y83240D01*
X96000Y79701D02*
X96332Y80033D01*
X101172Y83172D02*
X104690D01*
X98033Y80033D02*
X101172Y83172D01*
X223500Y93500D02*
X225600D01*
X220200Y90200D02*
X223500Y93500D01*
X188799Y87299D02*
X189700Y88200D01*
X188799Y85000D02*
Y87299D01*
X63909Y62602D02*
X64000Y62693D01*
X59700Y62602D02*
X63909D01*
X81500Y72914D02*
X81968Y72446D01*
X79511Y73032D02*
X81383D01*
X81500Y72914D01*
X81968Y69532D02*
Y72446D01*
Y69532D02*
X84500Y67000D01*
X86299Y62000D02*
Y67000D01*
X84500D02*
X86000D01*
X79502Y73040D02*
X79511Y73032D01*
X203936Y28100D02*
X205461Y26575D01*
X214701Y14000D02*
X214850Y13850D01*
Y5150D02*
Y13850D01*
Y5150D02*
X215000Y5000D01*
X205701Y5701D02*
Y14000D01*
X205000Y5000D02*
X205701Y5701D01*
X205476Y19941D02*
X211299Y14118D01*
Y14000D02*
Y14118D01*
X176313Y81115D02*
X176899Y81701D01*
X176313Y79014D02*
Y81115D01*
X176899Y81701D02*
X179000D01*
X175429Y78130D02*
X176313Y79014D01*
X173000Y78130D02*
X175429D01*
X205461Y26575D02*
X211945D01*
X55000Y5000D02*
X55979Y5979D01*
X207297Y29921D02*
X211945D01*
X200500Y66000D02*
X200700Y66200D01*
X205018D01*
X205551Y66732D02*
X211945D01*
X205018Y66200D02*
X205551Y66732D01*
X205500Y63500D02*
X205614Y63386D01*
X211945D01*
X204647Y69268D02*
X205458Y70079D01*
X207200D02*
X207200Y70079D01*
X205458Y70079D02*
X207200D01*
X207200Y70079D02*
X211945D01*
X204268Y69268D02*
X204647D01*
X245000Y5528D02*
X252472Y13000D01*
X245000Y5000D02*
Y5528D01*
X235000Y5000D02*
X245000Y15000D01*
X246204Y67304D02*
Y76359D01*
X216100Y71392D02*
Y76408D01*
X246171Y23763D02*
Y28778D01*
X249496Y23741D02*
Y32796D01*
X239371Y23763D02*
Y28778D01*
X242696Y23741D02*
Y32796D01*
X232671Y24063D02*
Y29078D01*
X235996Y24041D02*
Y33096D01*
X226071Y23963D02*
Y28978D01*
X229396Y23941D02*
Y32996D01*
X219471Y24063D02*
Y29078D01*
X222796Y24041D02*
Y33096D01*
X222829Y71022D02*
Y76037D01*
X219504Y67004D02*
Y76059D01*
X229329Y71022D02*
Y76037D01*
X226004Y67004D02*
Y76059D01*
X232811Y67189D02*
Y77559D01*
Y67189D02*
X233000Y67000D01*
X236000Y70500D02*
X236157Y70657D01*
Y77559D01*
X239500Y68500D02*
X239504Y68504D01*
Y77559D01*
X242829Y72522D02*
Y77537D01*
X249522Y72522D02*
Y77537D01*
X249543Y77559D01*
X249500Y72500D02*
X249522Y72522D01*
D18*
X42500Y62000D02*
D03*
X45886D02*
D03*
X72307Y56000D02*
D03*
X75693D02*
D03*
X258693Y84500D02*
D03*
X246807D02*
D03*
X44693Y36500D02*
D03*
X51707Y85400D02*
D03*
X52807Y68500D02*
D03*
X89693Y82000D02*
D03*
X266693Y84500D02*
D03*
X261307Y13500D02*
D03*
X75693Y61000D02*
D03*
X72307D02*
D03*
X264693Y13500D02*
D03*
X263307Y84500D02*
D03*
X86307Y82000D02*
D03*
X56193Y68500D02*
D03*
X55093Y85400D02*
D03*
X41307Y36500D02*
D03*
X250193Y84500D02*
D03*
X255307D02*
D03*
D19*
X195998Y44187D02*
D03*
X199400D02*
D03*
X195801Y52500D02*
D03*
X192399D02*
D03*
X196000Y44187D02*
D03*
X192598D02*
D03*
X89701Y62000D02*
D03*
Y57000D02*
D03*
X188799Y80000D02*
D03*
X192201D02*
D03*
X188799Y85000D02*
D03*
X192201D02*
D03*
X71601Y51000D02*
D03*
X68199D02*
D03*
X64799D02*
D03*
X68201D02*
D03*
X89701Y87000D02*
D03*
X86299D02*
D03*
X51799Y73000D02*
D03*
X55201D02*
D03*
X51799Y79400D02*
D03*
X55201D02*
D03*
X86299Y57000D02*
D03*
Y67000D02*
D03*
X89701D02*
D03*
X86299Y62000D02*
D03*
X205701Y14000D02*
D03*
X202299D02*
D03*
X214701D02*
D03*
X211299D02*
D03*
X199201Y52500D02*
D03*
X195799D02*
D03*
D20*
X267063Y77559D02*
D03*
X211945D02*
D03*
X267063Y22441D02*
D03*
X211945D02*
D03*
D21*
X262929Y77559D02*
D03*
X259583D02*
D03*
X252890Y22441D02*
D03*
X256236D02*
D03*
X262929D02*
D03*
X259583D02*
D03*
X249543D02*
D03*
X246197D02*
D03*
X242850D02*
D03*
X239504D02*
D03*
X236157D02*
D03*
X232811D02*
D03*
X229465D02*
D03*
X226118D02*
D03*
X222772D02*
D03*
X219425D02*
D03*
X216079D02*
D03*
Y77559D02*
D03*
X219425D02*
D03*
X222772D02*
D03*
X226118D02*
D03*
X229465D02*
D03*
X232811D02*
D03*
X236157D02*
D03*
X239504D02*
D03*
X242850D02*
D03*
X246197D02*
D03*
X249543D02*
D03*
X252890D02*
D03*
X256236D02*
D03*
D22*
X267063Y26575D02*
D03*
Y29921D02*
D03*
Y33268D02*
D03*
Y36614D02*
D03*
Y39961D02*
D03*
Y43307D02*
D03*
Y46654D02*
D03*
Y50000D02*
D03*
Y53347D02*
D03*
Y56693D02*
D03*
Y60039D02*
D03*
Y63386D02*
D03*
Y66732D02*
D03*
Y70079D02*
D03*
Y73425D02*
D03*
X211945Y26575D02*
D03*
Y29921D02*
D03*
Y33268D02*
D03*
Y36614D02*
D03*
Y39961D02*
D03*
Y43307D02*
D03*
Y46654D02*
D03*
Y50000D02*
D03*
Y53347D02*
D03*
Y56693D02*
D03*
Y60039D02*
D03*
Y63386D02*
D03*
Y66732D02*
D03*
Y70079D02*
D03*
Y73425D02*
D03*
D23*
X239504Y50000D02*
D03*
X246000D02*
D03*
Y43504D02*
D03*
X239504D02*
D03*
X233008D02*
D03*
Y50000D02*
D03*
Y56496D02*
D03*
X239504D02*
D03*
D24*
X166000Y63000D02*
D03*
Y14307D02*
D03*
X58000Y34307D02*
D03*
X53000Y24193D02*
D03*
X58500D02*
D03*
X64000Y59307D02*
D03*
Y62693D02*
D03*
X58500Y20807D02*
D03*
X53000D02*
D03*
X58000Y37693D02*
D03*
X166000Y17693D02*
D03*
Y66386D02*
D03*
D25*
X124350Y83858D02*
D03*
X155650D02*
D03*
X124350Y33858D02*
D03*
X155650D02*
D03*
Y16142D02*
D03*
X124350D02*
D03*
X155650Y66142D02*
D03*
X124350D02*
D03*
D26*
X43000Y16701D02*
D03*
Y24299D02*
D03*
Y74701D02*
D03*
Y80299D02*
D03*
X179000Y81701D02*
D03*
Y78299D02*
D03*
Y21701D02*
D03*
Y18299D02*
D03*
X59700Y59200D02*
D03*
Y62602D02*
D03*
X43000Y83701D02*
D03*
Y71299D02*
D03*
Y27701D02*
D03*
Y13299D02*
D03*
X98000Y71201D02*
D03*
Y67799D02*
D03*
X166000Y23799D02*
D03*
Y27201D02*
D03*
X96000Y76299D02*
D03*
Y79701D02*
D03*
D27*
X33220Y36500D02*
D03*
X30220Y62000D02*
D03*
X32779D02*
D03*
X35780Y36500D02*
D03*
D28*
X33500Y24559D02*
D03*
Y15500D02*
D03*
X34000Y83780D02*
D03*
Y71720D02*
D03*
Y74279D02*
D03*
Y81221D02*
D03*
X33500Y18059D02*
D03*
Y22000D02*
D03*
D29*
X24764Y9409D02*
D03*
Y34606D02*
D03*
Y65394D02*
D03*
Y90591D02*
D03*
Y68543D02*
D03*
Y87441D02*
D03*
Y12559D02*
D03*
Y31457D02*
D03*
D30*
X171000Y18130D02*
D03*
Y21870D02*
D03*
X173000Y78130D02*
D03*
Y81870D02*
D03*
D31*
X71000Y69459D02*
D03*
Y84541D02*
D03*
X72969D02*
D03*
X69032D02*
D03*
X67063D02*
D03*
Y69459D02*
D03*
X69032D02*
D03*
X72969D02*
D03*
X74937D02*
D03*
D32*
X65697Y29000D02*
D03*
Y19945D02*
D03*
Y38055D02*
D03*
D33*
X90303Y29000D02*
D03*
D34*
X78541Y78969D02*
D03*
Y77000D02*
D03*
X63459Y80937D02*
D03*
Y78969D02*
D03*
Y77000D02*
D03*
Y75032D02*
D03*
Y73063D02*
D03*
X78541D02*
D03*
Y75032D02*
D03*
Y80937D02*
D03*
D35*
X24764Y84882D02*
D03*
Y82913D02*
D03*
Y80945D02*
D03*
Y78976D02*
D03*
Y77008D02*
D03*
Y75039D02*
D03*
Y73071D02*
D03*
Y71102D02*
D03*
Y28898D02*
D03*
Y26929D02*
D03*
Y24961D02*
D03*
Y22992D02*
D03*
Y21024D02*
D03*
Y19055D02*
D03*
Y17087D02*
D03*
Y15118D02*
D03*
D36*
X74937Y84541D02*
D03*
D37*
X104258Y69240D02*
D03*
X104758Y83240D02*
D03*
D38*
X104258Y61760D02*
D03*
X111742Y65500D02*
D03*
X104758Y75760D02*
D03*
X112242Y79500D02*
D03*
D50*
X71000Y77000D02*
D03*
D53*
X6752Y39016D02*
D03*
Y5000D02*
D03*
Y95000D02*
D03*
Y60984D02*
D03*
D54*
X22500Y39016D02*
D03*
Y5000D02*
D03*
Y95000D02*
D03*
Y60984D02*
D03*
D60*
X246000Y56496D02*
D03*
D61*
X75693Y60882D02*
X75756Y60819D01*
X77573D01*
X75693Y60882D02*
Y61000D01*
X77573Y60819D02*
X78392Y60000D01*
X78500D01*
X92681Y82181D02*
X93923Y83424D01*
X89756Y82181D02*
X92681D01*
X93923Y83424D02*
X95424D01*
X89764Y87181D02*
X91073D01*
X89701Y87118D02*
X89764Y87181D01*
X91073D02*
X91392Y87500D01*
X91500D01*
X89701Y87000D02*
Y87118D01*
X253950Y85975D02*
Y86506D01*
X152000Y50000D02*
X166000Y36000D01*
X142500Y50000D02*
X152000D01*
X166000Y27201D02*
Y36000D01*
X89693Y82118D02*
X89756Y82181D01*
X89693Y82000D02*
Y82118D01*
X95424Y83424D02*
X95500Y83500D01*
X42948Y16701D02*
X43011Y16638D01*
X53000Y24193D02*
Y28900D01*
X54500Y29050D02*
X58500D01*
X65647D01*
X33924Y71077D02*
X35724D01*
X147500Y86500D02*
X149500Y84500D01*
X155008D02*
X155650Y83858D01*
X149500Y84500D02*
X155008D01*
X182000Y13400D02*
X182070D01*
X184000Y15330D01*
Y23600D01*
X171378Y17949D02*
X175933Y13393D01*
X176107D01*
X176200Y13300D01*
X172792Y12000D02*
X172900D01*
X166000Y14307D02*
X170485D01*
X172792Y12000D01*
X243277Y88149D02*
X246807Y84618D01*
X243277Y88149D02*
Y89824D01*
X255307Y84500D02*
Y84618D01*
Y80753D02*
Y84500D01*
X181097Y26503D02*
X184000Y23600D01*
X180399Y27201D02*
X181097Y26503D01*
X166000Y27201D02*
X180399D01*
X51300Y29100D02*
X51350Y29050D01*
X53000D01*
X81100Y50500D02*
X89526D01*
X92764Y53738D02*
Y58664D01*
X77100Y46500D02*
X81100Y50500D01*
X51500Y46500D02*
X77100D01*
X89526Y50500D02*
X92764Y53738D01*
Y58664D02*
X95800Y61700D01*
Y64700D01*
X93500Y67000D02*
X95800Y64700D01*
X92492Y63200D02*
X92600D01*
X89701Y62118D02*
X89764Y62181D01*
X89701Y62000D02*
Y62118D01*
X89764Y62181D02*
X91473D01*
X92492Y63200D01*
X57131Y68681D02*
X61000Y72550D01*
X56256Y68681D02*
X57131D01*
X61000Y72550D02*
X61350Y72900D01*
X62500D01*
X59637Y59263D02*
X59700Y59200D01*
X57245Y59263D02*
X59637D01*
X57108Y59400D02*
X57245Y59263D01*
X57000Y59400D02*
X57108D01*
X267200Y82600D02*
Y82708D01*
Y77696D02*
Y82600D01*
X266630Y84681D02*
Y87720D01*
Y84681D02*
X266693Y84618D01*
X265000Y89350D02*
Y95000D01*
Y89350D02*
X266630Y87720D01*
X266693Y84500D02*
Y84618D01*
X266756Y83152D02*
Y84437D01*
Y83152D02*
X267200Y82708D01*
X267063Y77559D02*
X267200Y77696D01*
X256000Y26284D02*
Y26300D01*
Y26284D02*
X256268Y26016D01*
Y23653D02*
Y26016D01*
X95800Y30400D02*
X97700Y32300D01*
Y35500D01*
X91703Y30400D02*
X95800D01*
X90303Y29000D02*
X91703Y30400D01*
X46992Y26600D02*
X47100D01*
X43063Y24362D02*
X44754D01*
X46992Y26600D01*
X53000Y28900D02*
X55000D01*
X35724Y71077D02*
X36000Y70800D01*
X39400Y72772D02*
X41266Y74638D01*
X39400Y72700D02*
Y72772D01*
X42950Y80250D02*
X43000Y80299D01*
X38950Y80250D02*
X42950D01*
X38900Y80200D02*
X38950Y80250D01*
X49100Y85400D02*
X51707D01*
X43011Y16638D02*
X45254D01*
X46892Y15000D01*
X89700Y67000D02*
X89701Y67000D01*
X89700Y67000D02*
Y69800D01*
X89700Y69800D02*
X89700Y69800D01*
X53676Y13930D02*
X54423Y14676D01*
X53600Y13700D02*
X53676Y13777D01*
X54423Y16523D02*
X54500Y16600D01*
X54423Y14676D02*
Y16523D01*
Y16677D02*
Y16900D01*
X52877Y20744D02*
X52950D01*
X54423Y16677D02*
X54500Y16600D01*
X52877Y18447D02*
Y20744D01*
X53676Y13777D02*
Y13930D01*
X52877Y18447D02*
X54423Y16900D01*
X58500Y16000D02*
Y20600D01*
X86299Y82008D02*
Y85500D01*
X56193Y68618D02*
X56256Y68681D01*
X56193Y68500D02*
Y68618D01*
X255307Y80753D02*
X256024Y80036D01*
Y78134D02*
Y80036D01*
X253950Y85975D02*
X255307Y84618D01*
X263307Y84500D02*
Y86800D01*
X255107Y95000D02*
X263307Y86800D01*
X267063Y17545D02*
X268000Y16608D01*
X267063Y17545D02*
Y22441D01*
X268000Y16500D02*
Y16608D01*
X124500Y79500D02*
Y83709D01*
X124350Y83858D02*
X124500Y83709D01*
X81100Y85500D02*
X85500D01*
X79900Y84300D02*
X81100Y85500D01*
X78800Y84300D02*
X79900D01*
X43000Y55000D02*
X51500Y46500D01*
X24802Y68506D02*
X28414D01*
X32970Y62529D02*
X33500Y62000D01*
X15000Y71500D02*
Y84004D01*
X37500Y55000D02*
X43000D01*
X17957Y68543D02*
X24764D01*
X37500Y62000D02*
X42500D01*
X33500D02*
X37500D01*
X32970Y62529D02*
Y63949D01*
X15000Y71500D02*
X17957Y68543D01*
X37500Y55000D02*
Y62000D01*
X89701Y67000D02*
X93500D01*
X18437Y87441D02*
X24764D01*
Y68543D02*
X24802Y68506D01*
X28414D02*
X32970Y63949D01*
X15000Y84004D02*
X18437Y87441D01*
X89638Y55246D02*
Y56937D01*
X88200Y53808D02*
X89638Y55246D01*
X88200Y53700D02*
Y53808D01*
X24764Y31457D02*
X30000D01*
X36628D01*
X37800Y32628D01*
Y36500D01*
X41100D01*
X56147Y60379D02*
Y68446D01*
X57000Y59400D02*
Y59526D01*
X56147Y60379D02*
X57000Y59526D01*
X45949Y62118D02*
Y65141D01*
X46100Y65292D01*
Y65400D01*
X36200Y36500D02*
X37800D01*
X37500Y36800D02*
Y45000D01*
Y36800D02*
X37800Y36500D01*
X72201Y51000D02*
X74900D01*
X89638Y56937D02*
X89701Y57000D01*
X16108Y91500D02*
X17018Y90591D01*
X16000Y91500D02*
X16108D01*
X17018Y90591D02*
X24764D01*
X52807Y68500D02*
Y68618D01*
X50427Y68681D02*
X52744D01*
X48000Y71000D02*
X48108D01*
X52744Y68681D02*
X52807Y68618D01*
X48108Y71000D02*
X50427Y68681D01*
X34181Y84700D02*
Y85073D01*
X35000Y85892D02*
Y86000D01*
X34181Y85073D02*
X35000Y85892D01*
X17000Y64000D02*
X17500D01*
X18894Y65394D01*
X24764D01*
X28900Y37100D02*
Y39700D01*
X24764Y34606D02*
X24945Y34787D01*
X26587D01*
X28900Y37100D01*
X41266Y74638D02*
X42937D01*
X43000Y74701D01*
X200000Y73108D02*
X202645Y75753D01*
X58500Y29100D02*
Y29208D01*
Y29050D02*
Y29100D01*
Y24193D02*
Y29050D01*
X46892Y15000D02*
X47000D01*
X43000Y24299D02*
X43063Y24362D01*
X162000Y63000D02*
X166000D01*
X227000Y50000D02*
X233008D01*
X24764Y9409D02*
X30691D01*
X30700Y9400D01*
X36100Y36600D02*
X36200Y36500D01*
X15972Y31457D02*
X24764D01*
X14800Y30285D02*
X15972Y31457D01*
X14800Y14700D02*
X16700Y12800D01*
X14800Y14700D02*
Y30285D01*
X16972Y12559D02*
X24764D01*
X58000Y29708D02*
Y34307D01*
Y29708D02*
X58500Y29208D01*
X65647Y29050D02*
X65697Y29000D01*
X171000Y18130D02*
X171181Y17949D01*
X171378D01*
X75693Y56000D02*
X79000D01*
X252871Y23563D02*
Y28578D01*
X206059Y22441D02*
X211945D01*
X204059Y77559D02*
X211945D01*
X239500Y39000D02*
X239504Y39004D01*
Y43504D01*
X239500Y38500D02*
Y39000D01*
X246000Y43504D02*
X251496D01*
X251500Y43500D01*
X246000Y50000D02*
X251500D01*
X247000Y56000D02*
X250000D01*
X233000Y43496D02*
X233008Y43504D01*
X233000Y39000D02*
Y43496D01*
X227504Y56496D02*
X233008D01*
X227500Y56500D02*
X227504Y56496D01*
X239504D02*
Y61496D01*
X239500Y61500D02*
X239504Y61496D01*
X202645Y76145D02*
X204059Y77559D01*
X200000Y73000D02*
Y73108D01*
X202645Y75753D02*
Y76145D01*
X194000Y25100D02*
X203400D01*
X206059Y22441D01*
X63950Y55450D02*
Y59257D01*
X63900Y55400D02*
X63950Y55450D01*
Y59257D02*
X64000Y59307D01*
X123992Y66500D02*
X124350Y66142D01*
X165937Y66323D02*
X166000Y66386D01*
X61000Y50000D02*
X62000Y51000D01*
X64799D01*
X179000Y75500D02*
Y78299D01*
X178000Y74500D02*
X179000Y75500D01*
D62*
X78328Y64828D02*
X78500Y65000D01*
X75500Y64500D02*
X75828Y64828D01*
X74000Y64500D02*
X75500D01*
X75828Y64828D02*
X78328D01*
X71100Y67400D02*
X74000Y64500D01*
X250193Y84500D02*
X250506Y84813D01*
Y86262D01*
X251000Y86756D02*
Y87000D01*
X250506Y86262D02*
X251000Y86756D01*
X37356Y16000D02*
X37600D01*
X36856Y15500D02*
X37356Y16000D01*
X33500Y15500D02*
X36856D01*
X29100Y58700D02*
Y58943D01*
X30159Y60003D01*
Y61569D01*
X44693Y34351D02*
X45900Y33143D01*
X44693Y34351D02*
Y36382D01*
X45900Y32900D02*
Y33143D01*
X259545Y75789D02*
Y77522D01*
X259583Y77559D01*
X257500Y73743D02*
X259545Y75789D01*
X258693Y81256D02*
X259620Y80329D01*
Y77596D02*
Y80329D01*
X71100Y67400D02*
Y68300D01*
X69080Y56000D02*
X72307D01*
X68201Y51000D02*
Y55121D01*
X69080Y56000D01*
X69000Y65328D02*
X69828Y64500D01*
X72270Y62059D01*
Y60037D02*
Y62059D01*
Y60037D02*
X72307Y60000D01*
X69000Y65328D02*
Y66500D01*
X81937Y80937D02*
X83000Y82000D01*
X78541Y80937D02*
X81937D01*
X83705Y82000D02*
X86307D01*
X83000D02*
X83705D01*
X246807Y84500D02*
Y84618D01*
X258693Y81256D02*
Y84500D01*
X261000Y73500D02*
X261037Y73463D01*
X266345D02*
X266408Y73400D01*
X261037Y73463D02*
X266345D01*
X257500Y73500D02*
Y73743D01*
X58470Y20630D02*
X58500Y20600D01*
X171000Y21870D02*
X171085Y21785D01*
X178915D01*
X179000Y21701D01*
X33200Y39900D02*
X33220Y39880D01*
Y36500D02*
Y39880D01*
X33500Y24559D02*
X37559D01*
X263337Y26537D02*
X266508D01*
X263200Y26400D02*
X263337Y26537D01*
X68999Y66501D02*
Y68493D01*
X69000Y88500D02*
X69268Y88232D01*
X71000Y85694D02*
Y87414D01*
X70181Y88232D02*
X71000Y87414D01*
X69268Y88232D02*
X70181D01*
X55000Y95000D02*
X55046Y94954D01*
X55000Y85500D02*
X55046Y85546D01*
X72307Y56193D02*
Y60000D01*
X261492Y30000D02*
X266508D01*
X261471Y33022D02*
X261717Y33268D01*
X267063D01*
X261492Y36500D02*
X266508D01*
X261492Y40000D02*
X266508D01*
X261592Y43300D02*
X266608D01*
X261592Y49900D02*
X266608D01*
X261392Y53400D02*
X266408D01*
X261292Y56700D02*
X266308D01*
X261392Y60100D02*
X266408D01*
X261292Y63300D02*
X266308D01*
X261292Y66700D02*
X266308D01*
X261392Y70100D02*
X266408D01*
X261602Y46654D02*
X267063D01*
X261471Y46522D02*
X261602Y46654D01*
X262929Y77559D02*
X262966Y77596D01*
Y79966D01*
X264000Y81000D01*
X264500D01*
X261307Y10807D02*
Y13500D01*
X257500Y7000D02*
X261307Y10807D01*
X264693Y5307D02*
Y13500D01*
Y5307D02*
X265000Y5000D01*
D63*
X153848Y35167D02*
X155157Y33858D01*
X153848Y35167D02*
Y37835D01*
X155157Y33858D02*
X155650D01*
X152384Y39300D02*
X153848Y37835D01*
X151050Y39300D02*
X152384D01*
X116600Y33858D02*
X124350D01*
X55046Y85546D02*
Y94954D01*
D64*
X179150Y16250D02*
Y17850D01*
Y16250D02*
X182000Y13400D01*
X60343Y20057D02*
X65584D01*
X59770Y20630D02*
X60343Y20057D01*
X65584D02*
X65697Y19945D01*
X58470Y20630D02*
X59770D01*
X51645Y38055D02*
X65697D01*
X54500Y20630D02*
X58470D01*
X37500Y50000D02*
X37691Y49809D01*
X38703Y49504D02*
X40196D01*
X38398Y49809D02*
X38703Y49504D01*
X37691Y49809D02*
X38398D01*
X40196Y49504D02*
X51645Y38055D01*
D65*
X49299Y73100D02*
X51799D01*
X27647Y75000D02*
X28000Y75353D01*
X29074Y74279D02*
X34000D01*
X28000Y75353D02*
X29074Y74279D01*
X24764Y78976D02*
X24819Y78921D01*
X28000Y75353D02*
Y78500D01*
X24819Y78921D02*
X27579D01*
X28000Y78500D01*
X48469Y73930D02*
X49299Y73100D01*
Y79400D02*
X51799D01*
X48469Y78570D02*
X49299Y79400D01*
X34000Y78500D02*
Y80721D01*
X33000Y77500D02*
X34000Y78500D01*
X32500Y77500D02*
X33000D01*
X35000D02*
X35500D01*
X34000Y76500D02*
X35000Y77500D01*
X34000Y74279D02*
Y76500D01*
X55201Y73000D02*
Y73118D01*
X57232Y75032D02*
X63459D01*
X55962Y73880D02*
X56080D01*
X55201Y73118D02*
X55962Y73880D01*
X56080D02*
X57232Y75032D01*
X55201Y79282D02*
X57483Y77000D01*
X63459D01*
X55201Y79282D02*
Y79400D01*
X24902Y81083D02*
X33862D01*
X34000Y81221D01*
X24764Y80945D02*
X24902Y81083D01*
X24764Y75039D02*
X24803Y75000D01*
X27647D01*
X21500Y80400D02*
X22100Y81000D01*
X21949Y77051D02*
X24720D01*
X22100Y81000D02*
X24709D01*
X24720Y77051D02*
X24764Y77008D01*
X24709Y81000D02*
X24764Y80945D01*
X21500Y77500D02*
Y80400D01*
Y77500D02*
X21949Y77051D01*
X28147Y19000D02*
X29088Y18059D01*
X33500D01*
X28500Y19353D02*
Y22639D01*
X33500Y18059D02*
X33992D01*
X24764Y24961D02*
X28048D01*
X31009Y22000D01*
X33500D01*
X24764Y19055D02*
X24819Y19000D01*
X28147D01*
X28500Y19353D01*
X28147Y22992D02*
X28500Y22639D01*
X24764Y22992D02*
X28147D01*
X21830Y21024D02*
X24764D01*
X21000Y21853D02*
Y24000D01*
Y21853D02*
X21830Y21024D01*
X21000Y24000D02*
X22000Y25000D01*
X23000D01*
X23039Y24961D01*
X24764D01*
X73411Y16423D02*
X76834D01*
X77423Y15000D02*
X80462Y18038D01*
X70711Y9289D02*
Y11711D01*
X69288Y9289D02*
Y12301D01*
X76834Y16423D02*
X79039Y18628D01*
X69288Y12301D02*
X73411Y16423D01*
X70711Y11711D02*
X74000Y15000D01*
X77423D01*
X77183Y21000D02*
X79039Y19144D01*
Y18628D02*
Y19144D01*
X80462Y18038D02*
Y19144D01*
X70711Y9289D02*
X75000Y5000D01*
X65000D02*
X69288Y9289D01*
X47747Y19318D02*
X48565Y18500D01*
X34735Y19318D02*
X47747D01*
X48565Y18500D02*
X49000D01*
X47241Y20741D02*
X49000Y22500D01*
X34735Y20741D02*
X47241D01*
X34370Y21106D02*
X34735Y20741D01*
X34370Y21106D02*
Y21622D01*
X33500Y22000D02*
X33992D01*
Y18059D02*
X34370Y18437D01*
Y18953D02*
X34735Y19318D01*
X34370Y18437D02*
Y18953D01*
X33992Y22000D02*
X34370Y21622D01*
X188000Y45500D02*
X188019D01*
X189519Y44000D01*
X192399D01*
X189519Y52500D02*
X192399D01*
X188019Y51000D02*
X189519Y52500D01*
X188000Y51000D02*
X188019D01*
X80462Y19144D02*
X82318Y21000D01*
X77000D02*
X77183D01*
X82318D02*
X82500D01*
X75000Y5000D02*
Y6145D01*
X199587Y52500D02*
X203000D01*
X196000Y44187D02*
Y47125D01*
Y49528D02*
Y52187D01*
Y49528D02*
X196500Y49028D01*
X196000Y47125D02*
X196500Y47625D01*
X210318D01*
X196500Y49028D02*
X210318D01*
X210672Y49514D02*
X211157Y50000D01*
X211945D01*
X210672Y49382D02*
Y49514D01*
X210318Y49028D02*
X210672Y49382D01*
X211157Y46654D02*
X211945D01*
X210672Y47139D02*
X211157Y46654D01*
X210672Y47139D02*
Y47272D01*
X210318Y47625D02*
X210672Y47272D01*
X199587Y44000D02*
X203000D01*
D66*
X199400Y44187D02*
X199587Y44000D01*
D67*
X69032Y68525D02*
Y69459D01*
X68999Y68493D02*
X69032Y68525D01*
X68999Y66501D02*
X69000Y66500D01*
D68*
X265000Y95000D02*
D03*
Y5000D02*
D03*
D69*
X45000Y95000D02*
D03*
X255000Y5000D02*
D03*
X35000D02*
D03*
X45000D02*
D03*
X55000D02*
D03*
X65000D02*
D03*
X75000D02*
D03*
X85000D02*
D03*
X95000D02*
D03*
X105000D02*
D03*
X115000D02*
D03*
X125000D02*
D03*
X135000D02*
D03*
X145000D02*
D03*
X155000D02*
D03*
X165000D02*
D03*
X175000D02*
D03*
X185000D02*
D03*
X195000D02*
D03*
X205000D02*
D03*
X215000D02*
D03*
X225000D02*
D03*
X235000D02*
D03*
X245000D02*
D03*
X35000Y95000D02*
D03*
X55000D02*
D03*
X65000D02*
D03*
X75000D02*
D03*
X85000D02*
D03*
X95000D02*
D03*
X105000D02*
D03*
X115000D02*
D03*
X125000D02*
D03*
X135000D02*
D03*
X145000D02*
D03*
X155000D02*
D03*
X165000D02*
D03*
X175000D02*
D03*
X185000D02*
D03*
X195000D02*
D03*
X205000D02*
D03*
X215000D02*
D03*
X225000D02*
D03*
X235000D02*
D03*
X245000D02*
D03*
X255000D02*
D03*
D70*
X137500Y50000D02*
D03*
D71*
X142500D02*
D03*
X37500D02*
D03*
Y45000D02*
D03*
D72*
Y55000D02*
D03*
D73*
X98200Y53700D02*
D03*
X101900Y53600D02*
D03*
X106000Y53500D02*
D03*
X109700Y53200D02*
D03*
X113800Y53100D02*
D03*
X78500Y60000D02*
D03*
Y65000D02*
D03*
X91500Y87500D02*
D03*
X251000Y87000D02*
D03*
X254000Y88000D02*
D03*
X264500Y81000D02*
D03*
X37600Y16000D02*
D03*
X178000Y74500D02*
D03*
X151050Y39300D02*
D03*
X95500Y83500D02*
D03*
X147500Y86500D02*
D03*
X182000Y13400D02*
D03*
X176200Y13300D02*
D03*
X172900Y12000D02*
D03*
X196600Y31000D02*
D03*
X198600Y33800D02*
D03*
X202500Y38000D02*
D03*
X181600Y38700D02*
D03*
X178700Y35900D02*
D03*
X183900Y45600D02*
D03*
X192500Y35100D02*
D03*
X182000Y58000D02*
D03*
X200000Y73000D02*
D03*
X193000Y72000D02*
D03*
X155000Y60000D02*
D03*
X243277Y89824D02*
D03*
X148926Y62879D02*
D03*
X29100Y58700D02*
D03*
X45900Y32900D02*
D03*
X51300Y29100D02*
D03*
X88200Y53700D02*
D03*
X92600Y63200D02*
D03*
X267200Y82600D02*
D03*
X256000Y26300D02*
D03*
X47100Y26600D02*
D03*
X69000Y88500D02*
D03*
X36000Y70800D02*
D03*
X39400Y72700D02*
D03*
X38900Y80200D02*
D03*
X49100Y85400D02*
D03*
X88800Y34000D02*
D03*
X131800Y56900D02*
D03*
X89700Y69800D02*
D03*
X54500Y16600D02*
D03*
X53600Y13700D02*
D03*
X84500Y71000D02*
D03*
X239500Y61500D02*
D03*
X268000Y16500D02*
D03*
X261000Y73500D02*
D03*
X257500D02*
D03*
X124500Y79500D02*
D03*
X58500Y16000D02*
D03*
X74914Y87286D02*
D03*
X78800Y84300D02*
D03*
X57000Y59400D02*
D03*
X46100Y65400D02*
D03*
X74900Y51000D02*
D03*
X48000Y71000D02*
D03*
X35000Y86000D02*
D03*
X16000Y91500D02*
D03*
X17000Y64000D02*
D03*
X48000Y74500D02*
D03*
Y78000D02*
D03*
X31500Y77500D02*
D03*
X36500D02*
D03*
X184500Y52500D02*
D03*
X47000Y15000D02*
D03*
X49000Y22500D02*
D03*
Y18500D02*
D03*
X188000Y45500D02*
D03*
Y51000D02*
D03*
X162000Y63000D02*
D03*
X205500Y41000D02*
D03*
X206500Y45000D02*
D03*
Y51500D02*
D03*
X74300Y23600D02*
D03*
X85500Y19500D02*
D03*
X82500Y21000D02*
D03*
X77000D02*
D03*
X113000Y43000D02*
D03*
X109000D02*
D03*
X105200Y42900D02*
D03*
X101100Y43000D02*
D03*
X97400Y43100D02*
D03*
X203000Y52500D02*
D03*
Y44000D02*
D03*
X192121Y60500D02*
D03*
X187100Y61200D02*
D03*
X180400Y61100D02*
D03*
X30800Y9400D02*
D03*
X33300Y40400D02*
D03*
X28900Y39700D02*
D03*
X37600Y24600D02*
D03*
X55000Y28900D02*
D03*
X58500Y29100D02*
D03*
X101700Y49900D02*
D03*
X105800Y49800D02*
D03*
X98000Y50000D02*
D03*
X113600Y49400D02*
D03*
X109500Y49500D02*
D03*
X109200Y35000D02*
D03*
X113300Y34900D02*
D03*
X97700Y35500D02*
D03*
X105500Y35300D02*
D03*
X101400Y35400D02*
D03*
X263200Y26400D02*
D03*
X69000Y79000D02*
D03*
Y75000D02*
D03*
X72500D02*
D03*
Y79000D02*
D03*
X79000Y56000D02*
D03*
X252893Y28600D02*
D03*
X261471Y30022D02*
D03*
Y33022D02*
D03*
Y36522D02*
D03*
Y40022D02*
D03*
X261571Y43322D02*
D03*
X261471Y46522D02*
D03*
X261571Y49922D02*
D03*
X261370Y53422D02*
D03*
X261270Y56722D02*
D03*
X261370Y60122D02*
D03*
X261270Y63322D02*
D03*
Y66722D02*
D03*
X261370Y70122D02*
D03*
X251000Y56000D02*
D03*
X251500Y50000D02*
D03*
X251496Y43504D02*
D03*
X239500Y38500D02*
D03*
X233000Y38000D02*
D03*
X227500Y56500D02*
D03*
X227000Y50000D02*
D03*
X236300Y53300D02*
D03*
X242800Y53200D02*
D03*
Y46700D02*
D03*
X236300D02*
D03*
X194000Y25100D02*
D03*
X63900Y55400D02*
D03*
X205500Y63500D02*
D03*
X200500Y66000D02*
D03*
X204268Y69268D02*
D03*
X61000Y50000D02*
D03*
X246200Y67300D02*
D03*
X215904Y32932D02*
D03*
X216078Y71371D02*
D03*
X246193Y28800D02*
D03*
X249500Y32800D02*
D03*
X239393Y28800D02*
D03*
X242700Y32800D02*
D03*
X232693Y29100D02*
D03*
X236000Y33100D02*
D03*
X226093Y29000D02*
D03*
X229400Y33000D02*
D03*
X219493Y29100D02*
D03*
X222800Y33100D02*
D03*
X222807Y71000D02*
D03*
X219500Y67000D02*
D03*
X229307Y71000D02*
D03*
X226000Y67000D02*
D03*
X233000D02*
D03*
X236000Y70500D02*
D03*
X239500Y68500D02*
D03*
X242807Y72500D02*
D03*
X249500D02*
D03*
M02*
