G04*
G04 #@! TF.GenerationSoftware,Altium Limited,Altium Designer,24.5.2 (23)*
G04*
G04 Layer_Physical_Order=2*
G04 Layer_Color=36540*
%FSLAX25Y25*%
%MOIN*%
G70*
G04*
G04 #@! TF.SameCoordinates,E4EE70D6-3671-4E5A-A7CB-3E81B9B691F3*
G04*
G04*
G04 #@! TF.FilePolarity,Positive*
G04*
G01*
G75*
G04:AMPARAMS|DCode=53|XSize=39.37mil|YSize=86.61mil|CornerRadius=19.68mil|HoleSize=0mil|Usage=FLASHONLY|Rotation=270.000|XOffset=0mil|YOffset=0mil|HoleType=Round|Shape=RoundedRectangle|*
%AMROUNDEDRECTD53*
21,1,0.03937,0.04724,0,0,270.0*
21,1,0.00000,0.08661,0,0,270.0*
1,1,0.03937,-0.02362,0.00000*
1,1,0.03937,-0.02362,0.00000*
1,1,0.03937,0.02362,0.00000*
1,1,0.03937,0.02362,0.00000*
%
%ADD53ROUNDEDRECTD53*%
G04:AMPARAMS|DCode=54|XSize=39.37mil|YSize=70.87mil|CornerRadius=19.68mil|HoleSize=0mil|Usage=FLASHONLY|Rotation=270.000|XOffset=0mil|YOffset=0mil|HoleType=Round|Shape=RoundedRectangle|*
%AMROUNDEDRECTD54*
21,1,0.03937,0.03150,0,0,270.0*
21,1,0.00000,0.07087,0,0,270.0*
1,1,0.03937,-0.01575,0.00000*
1,1,0.03937,-0.01575,0.00000*
1,1,0.03937,0.01575,0.00000*
1,1,0.03937,0.01575,0.00000*
%
%ADD54ROUNDEDRECTD54*%
%ADD61C,0.02000*%
%ADD68R,0.06400X0.06400*%
%ADD69C,0.06400*%
%ADD70R,0.04000X0.04000*%
%ADD71C,0.04000*%
%ADD72R,0.04000X0.04000*%
%ADD73C,0.02400*%
%ADD74C,0.06000*%
%ADD75C,0.04000*%
G36*
X269500Y92317D02*
X268653Y91782D01*
X268500Y91760D01*
X268200Y91820D01*
X261820D01*
Y98200D01*
X261760Y98500D01*
X261782Y98653D01*
X262317Y99500D01*
X269500D01*
Y92317D01*
D02*
G37*
G36*
X82662Y98500D02*
X82421Y98361D01*
X81639Y97579D01*
X81086Y96621D01*
X80800Y95553D01*
Y94447D01*
X81086Y93379D01*
X81639Y92421D01*
X82421Y91639D01*
X83379Y91086D01*
X84300Y90839D01*
X84574Y90659D01*
X84622Y90606D01*
X85080Y89900D01*
Y80803D01*
X84174Y80234D01*
X80912D01*
X79868Y80097D01*
X78895Y79694D01*
X78059Y79053D01*
X77418Y78217D01*
X77152Y77575D01*
X68333Y68756D01*
X68183Y68694D01*
X67347Y68053D01*
X66247Y66953D01*
X65606Y66117D01*
X65203Y65144D01*
X65065Y64100D01*
X65065Y64100D01*
Y54917D01*
X63683Y53535D01*
X62500D01*
X61456Y53397D01*
X60483Y52994D01*
X59647Y52353D01*
X59006Y51517D01*
X58603Y50544D01*
X58465Y49500D01*
X58603Y48456D01*
X59006Y47483D01*
X59647Y46647D01*
X60483Y46006D01*
X61456Y45603D01*
X62500Y45465D01*
X65354D01*
X65354Y45465D01*
X66398Y45603D01*
X67371Y46006D01*
X68207Y46647D01*
X71776Y50217D01*
X72485Y50188D01*
X72926Y50018D01*
X73035Y49754D01*
X73654Y49135D01*
X74462Y48800D01*
X75338D01*
X76146Y49135D01*
X76765Y49754D01*
X77100Y50562D01*
Y51438D01*
X76765Y52246D01*
X76146Y52865D01*
X75338Y53200D01*
X74462D01*
X74118Y53057D01*
X73952Y53089D01*
X73134Y53652D01*
Y62454D01*
X73694Y63183D01*
X74097Y64156D01*
X74111Y64265D01*
X81311Y71464D01*
X82300Y71039D01*
Y70562D01*
X82635Y69754D01*
X83254Y69135D01*
X84062Y68800D01*
X84938D01*
X85746Y69135D01*
X86365Y69754D01*
X86500Y70079D01*
X87500Y69881D01*
Y69362D01*
X87835Y68554D01*
X88454Y67935D01*
X89262Y67600D01*
X90138D01*
X90946Y67935D01*
X91565Y68554D01*
X91900Y69362D01*
Y70238D01*
X91598Y70965D01*
X91746Y71382D01*
X92060Y71965D01*
X93498D01*
X93549Y71910D01*
X93567Y71897D01*
X93579Y71879D01*
X94448Y71010D01*
X94448Y71010D01*
X94717Y70741D01*
X94800Y70686D01*
X94871Y70615D01*
X95504Y70192D01*
X95597Y70153D01*
X95680Y70098D01*
X96383Y69806D01*
X96482Y69787D01*
X96574Y69749D01*
X97321Y69600D01*
X97421Y69600D01*
X97519Y69580D01*
X97900D01*
X138518Y69580D01*
X138592Y69516D01*
X138804Y69394D01*
X139167Y69107D01*
X139365Y68873D01*
Y58673D01*
X139186Y53339D01*
X138839Y53206D01*
X138228Y53000D01*
X138003D01*
X137044Y53397D01*
X136000Y53535D01*
X134956Y53397D01*
X133983Y52994D01*
X133147Y52353D01*
X125647Y44853D01*
X125006Y44017D01*
X124603Y43044D01*
X124466Y42000D01*
X124466Y42000D01*
Y38317D01*
X118983Y32835D01*
X71300D01*
X70256Y32697D01*
X69283Y32294D01*
X68447Y31653D01*
X68447Y31653D01*
X61714Y24920D01*
X51600D01*
X51210Y24842D01*
X50879Y24621D01*
X50353Y24321D01*
X49659Y24392D01*
X49398Y24500D01*
X48602D01*
X47867Y24195D01*
X47304Y23633D01*
X47000Y22898D01*
Y22102D01*
X47304Y21367D01*
X47532Y21139D01*
X47759Y20500D01*
X47532Y19861D01*
X47304Y19633D01*
X47000Y18898D01*
Y18102D01*
X47304Y17367D01*
X47867Y16804D01*
X48602Y16500D01*
X49398D01*
X49580Y16576D01*
X50580Y15945D01*
Y10600D01*
X50658Y10210D01*
X50879Y9879D01*
X51210Y9658D01*
X51600Y9580D01*
X52534D01*
X52801Y8580D01*
X52421Y8361D01*
X51639Y7579D01*
X51086Y6621D01*
X50800Y5553D01*
Y4447D01*
X51086Y3379D01*
X51639Y2421D01*
X52060Y2000D01*
X51646Y1000D01*
X48354D01*
X47940Y2000D01*
X48361Y2421D01*
X48914Y3379D01*
X49200Y4447D01*
Y5553D01*
X48914Y6621D01*
X48361Y7579D01*
X47579Y8361D01*
X46621Y8914D01*
X45553Y9200D01*
X44447D01*
X43379Y8914D01*
X42421Y8361D01*
X41639Y7579D01*
X41086Y6621D01*
X40800Y5553D01*
Y4447D01*
X41086Y3379D01*
X41639Y2421D01*
X42060Y2000D01*
X41646Y1000D01*
X1000D01*
Y99500D01*
X32394D01*
X32662Y98500D01*
X32421Y98361D01*
X31639Y97579D01*
X31086Y96621D01*
X30800Y95553D01*
Y94447D01*
X31086Y93379D01*
X31639Y92421D01*
X32421Y91639D01*
X33379Y91086D01*
X34447Y90800D01*
X35553D01*
X36621Y91086D01*
X37579Y91639D01*
X38361Y92421D01*
X38914Y93379D01*
X39200Y94447D01*
Y95553D01*
X38914Y96621D01*
X38361Y97579D01*
X37579Y98361D01*
X37338Y98500D01*
X37606Y99500D01*
X52394D01*
X52662Y98500D01*
X52421Y98361D01*
X51639Y97579D01*
X51086Y96621D01*
X50800Y95553D01*
Y94447D01*
X51086Y93379D01*
X51639Y92421D01*
X52421Y91639D01*
X53379Y91086D01*
X54447Y90800D01*
X55553D01*
X56621Y91086D01*
X57579Y91639D01*
X58361Y92421D01*
X58914Y93379D01*
X59200Y94447D01*
Y95553D01*
X58914Y96621D01*
X58361Y97579D01*
X57579Y98361D01*
X57338Y98500D01*
X57606Y99500D01*
X62394D01*
X62662Y98500D01*
X62421Y98361D01*
X61639Y97579D01*
X61086Y96621D01*
X60800Y95553D01*
Y94447D01*
X61086Y93379D01*
X61639Y92421D01*
X62421Y91639D01*
X63379Y91086D01*
X64447Y90800D01*
X65553D01*
X66621Y91086D01*
X67579Y91639D01*
X68361Y92421D01*
X68914Y93379D01*
X69200Y94447D01*
Y95553D01*
X68914Y96621D01*
X68361Y97579D01*
X67579Y98361D01*
X67338Y98500D01*
X67606Y99500D01*
X72394D01*
X72662Y98500D01*
X72421Y98361D01*
X71639Y97579D01*
X71086Y96621D01*
X70800Y95553D01*
Y94447D01*
X71086Y93379D01*
X71639Y92421D01*
X72421Y91639D01*
X73379Y91086D01*
X74447Y90800D01*
X75553D01*
X76621Y91086D01*
X77579Y91639D01*
X78361Y92421D01*
X78914Y93379D01*
X79200Y94447D01*
Y95553D01*
X78914Y96621D01*
X78361Y97579D01*
X77579Y98361D01*
X77338Y98500D01*
X77606Y99500D01*
X82394D01*
X82662Y98500D01*
D02*
G37*
G36*
X243664Y91010D02*
X244449Y90686D01*
X244457Y90261D01*
Y89589D01*
X244292Y89191D01*
X243909Y88808D01*
X243511Y88643D01*
X243042D01*
X242608Y88823D01*
X242276Y89155D01*
X242096Y89589D01*
Y90058D01*
X242276Y90492D01*
X242751Y90968D01*
X242780Y91011D01*
X242821Y91045D01*
X243379Y91086D01*
X243664Y91010D01*
D02*
G37*
G36*
X260800Y90800D02*
X268200D01*
Y85176D01*
X267638Y84800D01*
X266762D01*
X265954Y84465D01*
X265335Y83846D01*
X265048Y83154D01*
X264938Y83200D01*
X264062D01*
X263254Y82865D01*
X262635Y82246D01*
X262300Y81438D01*
Y80562D01*
X262635Y79754D01*
X263254Y79135D01*
X264062Y78800D01*
X264938D01*
X265746Y79135D01*
X266365Y79754D01*
X266652Y80446D01*
X266762Y80400D01*
X267638D01*
X268200Y80024D01*
Y18700D01*
X267562D01*
X266754Y18365D01*
X266135Y17746D01*
X265800Y16938D01*
Y16062D01*
X266135Y15254D01*
X266754Y14635D01*
X267562Y14300D01*
X268200D01*
Y3059D01*
X268100Y2100D01*
X267187Y1800D01*
X259069D01*
X258580Y2800D01*
X258914Y3379D01*
X259200Y4447D01*
Y5553D01*
X258914Y6621D01*
X258361Y7579D01*
X257579Y8361D01*
X256621Y8914D01*
X255553Y9200D01*
X254447D01*
X253379Y8914D01*
X252421Y8361D01*
X251639Y7579D01*
X251086Y6621D01*
X250800Y5553D01*
Y4447D01*
X251086Y3379D01*
X251420Y2800D01*
X250931Y1800D01*
X249069D01*
X248580Y2800D01*
X248914Y3379D01*
X249200Y4447D01*
Y5553D01*
X248914Y6621D01*
X248361Y7579D01*
X247579Y8361D01*
X246621Y8914D01*
X245553Y9200D01*
X244447D01*
X244100Y9107D01*
X243100Y9864D01*
Y15100D01*
X249044D01*
X249412Y15118D01*
X250135Y15262D01*
X250815Y15543D01*
X251427Y15953D01*
X251700Y16200D01*
X252571Y17071D01*
X252571Y17071D01*
X253230Y17798D01*
X254319Y19428D01*
X255069Y21239D01*
X255452Y23162D01*
X255496Y24058D01*
X255562Y24100D01*
X256438D01*
X257246Y24435D01*
X257865Y25054D01*
X258200Y25862D01*
Y26738D01*
X257865Y27546D01*
X257246Y28165D01*
X256438Y28500D01*
X255562D01*
X254997Y29348D01*
X254500Y34500D01*
X255323Y43390D01*
X255323Y43390D01*
X255323Y43390D01*
X255355Y43879D01*
X255338Y44858D01*
X255213Y45829D01*
X254984Y46781D01*
X254651Y47701D01*
X254220Y48580D01*
X253695Y49407D01*
X253656Y49455D01*
X253700Y49562D01*
Y50438D01*
X253365Y51246D01*
X252746Y51865D01*
X252302Y52049D01*
X252269Y52217D01*
X252200Y52918D01*
X252200Y53270D01*
Y54116D01*
X252246Y54135D01*
X252865Y54754D01*
X253200Y55562D01*
Y56438D01*
X252865Y57246D01*
X252246Y57865D01*
X252200Y57884D01*
Y76000D01*
X252200Y76000D01*
X252200Y76000D01*
X252200Y76000D01*
X252200Y76001D01*
X252199Y76024D01*
X252190Y76070D01*
X252190Y76070D01*
X252171Y76114D01*
X252171Y76114D01*
X252145Y76153D01*
X252145Y76153D01*
X252129Y76171D01*
X252129Y76171D01*
X251591Y76709D01*
X251591Y76709D01*
X251551Y76749D01*
X248500Y79800D01*
Y79800D01*
X248500Y79800D01*
X248426Y79868D01*
X248259Y79979D01*
X248259Y79979D01*
X248073Y80056D01*
X248073Y80056D01*
X247876Y80095D01*
X247876Y80095D01*
X247776Y80100D01*
X247776Y80100D01*
X247621Y80100D01*
X190797Y80100D01*
X190797Y80100D01*
X190395Y80080D01*
X189608Y79923D01*
X188866Y79616D01*
X188198Y79170D01*
X187900Y78900D01*
X182700Y74000D01*
X177000Y70800D01*
X177000Y70800D01*
X176975Y70823D01*
X176919Y70860D01*
X176858Y70885D01*
X176792Y70898D01*
X176759Y70900D01*
X147634Y70900D01*
X147500Y70900D01*
X147500Y70900D01*
X147429Y70896D01*
X147290Y70869D01*
X147159Y70815D01*
X147040Y70736D01*
X146988Y70688D01*
X146800Y70500D01*
X146800Y70500D01*
X146800Y70190D01*
Y63496D01*
X146726Y63316D01*
Y62441D01*
X146800Y62261D01*
Y59300D01*
X146890Y49411D01*
X146890Y49411D01*
X146892Y49156D01*
X146768Y48663D01*
X146523Y48216D01*
X146174Y47846D01*
X144500Y46800D01*
X143480Y46800D01*
X143147Y46800D01*
X142494Y46930D01*
X141879Y47185D01*
X141325Y47555D01*
X140855Y48025D01*
X140500Y48556D01*
Y53000D01*
X140500D01*
X140205Y53305D01*
X140400Y59100D01*
X140716Y68501D01*
X140716Y68501D01*
X140716Y68501D01*
X140716Y68502D01*
X140603Y68800D01*
X140292Y69358D01*
X139878Y69844D01*
X139377Y70241D01*
X139100Y70400D01*
X139050Y70445D01*
X138939Y70519D01*
X138815Y70571D01*
X138684Y70597D01*
X138617Y70600D01*
X97900Y70600D01*
X97519D01*
X96773Y70749D01*
X96070Y71040D01*
X95438Y71462D01*
X95169Y71731D01*
X94300Y72600D01*
X88600Y78800D01*
X88103D01*
X87184Y79181D01*
X86481Y79884D01*
X86100Y80803D01*
Y89900D01*
X86100Y89900D01*
Y89900D01*
X86462Y90807D01*
X86615Y91075D01*
X86671Y91115D01*
X87579Y91639D01*
X88361Y92421D01*
X88914Y93379D01*
X89200Y94447D01*
Y95553D01*
X88914Y96621D01*
X88580Y97200D01*
X89069Y98200D01*
X90931D01*
X91420Y97200D01*
X91086Y96621D01*
X90800Y95553D01*
Y94447D01*
X91086Y93379D01*
X91639Y92421D01*
X92421Y91639D01*
X93379Y91086D01*
X94447Y90800D01*
X95553D01*
X96621Y91086D01*
X97579Y91639D01*
X98361Y92421D01*
X98914Y93379D01*
X99200Y94447D01*
Y95553D01*
X98914Y96621D01*
X98580Y97200D01*
X99069Y98200D01*
X100931D01*
X101420Y97200D01*
X101086Y96621D01*
X100800Y95553D01*
Y94447D01*
X101086Y93379D01*
X101639Y92421D01*
X102421Y91639D01*
X103379Y91086D01*
X104447Y90800D01*
X105553D01*
X106621Y91086D01*
X107579Y91639D01*
X108361Y92421D01*
X108914Y93379D01*
X109200Y94447D01*
Y95553D01*
X108914Y96621D01*
X108580Y97200D01*
X109069Y98200D01*
X110931D01*
X111420Y97200D01*
X111086Y96621D01*
X110800Y95553D01*
Y94447D01*
X111086Y93379D01*
X111639Y92421D01*
X112421Y91639D01*
X113379Y91086D01*
X114447Y90800D01*
X115553D01*
X116621Y91086D01*
X117579Y91639D01*
X118361Y92421D01*
X118914Y93379D01*
X119200Y94447D01*
Y95553D01*
X118914Y96621D01*
X118580Y97200D01*
X119069Y98200D01*
X120931D01*
X121420Y97200D01*
X121086Y96621D01*
X120800Y95553D01*
Y94447D01*
X121086Y93379D01*
X121639Y92421D01*
X122421Y91639D01*
X123379Y91086D01*
X124447Y90800D01*
X125553D01*
X126621Y91086D01*
X127579Y91639D01*
X128361Y92421D01*
X128914Y93379D01*
X129200Y94447D01*
Y95553D01*
X128914Y96621D01*
X128580Y97200D01*
X129069Y98200D01*
X130931D01*
X131420Y97200D01*
X131086Y96621D01*
X130800Y95553D01*
Y94447D01*
X131086Y93379D01*
X131639Y92421D01*
X132421Y91639D01*
X133379Y91086D01*
X134447Y90800D01*
X135553D01*
X136621Y91086D01*
X137579Y91639D01*
X138361Y92421D01*
X138914Y93379D01*
X139200Y94447D01*
Y95553D01*
X138914Y96621D01*
X138580Y97200D01*
X139069Y98200D01*
X140931D01*
X141420Y97200D01*
X141086Y96621D01*
X140800Y95553D01*
Y94447D01*
X141086Y93379D01*
X141639Y92421D01*
X142421Y91639D01*
X143379Y91086D01*
X144447Y90800D01*
X145553D01*
X146621Y91086D01*
X147579Y91639D01*
X148361Y92421D01*
X148914Y93379D01*
X149200Y94447D01*
Y95553D01*
X148914Y96621D01*
X148580Y97200D01*
X149069Y98200D01*
X150931D01*
X151420Y97200D01*
X151086Y96621D01*
X150800Y95553D01*
Y94447D01*
X151086Y93379D01*
X151639Y92421D01*
X152421Y91639D01*
X153379Y91086D01*
X154447Y90800D01*
X155553D01*
X156621Y91086D01*
X157579Y91639D01*
X158361Y92421D01*
X158914Y93379D01*
X159200Y94447D01*
Y95553D01*
X158914Y96621D01*
X158580Y97200D01*
X159069Y98200D01*
X160931D01*
X161420Y97200D01*
X161086Y96621D01*
X160800Y95553D01*
Y94447D01*
X161086Y93379D01*
X161639Y92421D01*
X162421Y91639D01*
X163379Y91086D01*
X164447Y90800D01*
X165553D01*
X166621Y91086D01*
X167579Y91639D01*
X168361Y92421D01*
X168914Y93379D01*
X169200Y94447D01*
Y95553D01*
X168914Y96621D01*
X168580Y97200D01*
X169069Y98200D01*
X170931D01*
X171420Y97200D01*
X171086Y96621D01*
X170800Y95553D01*
Y94447D01*
X171086Y93379D01*
X171639Y92421D01*
X172421Y91639D01*
X173379Y91086D01*
X174447Y90800D01*
X175553D01*
X176621Y91086D01*
X177579Y91639D01*
X178361Y92421D01*
X178914Y93379D01*
X179200Y94447D01*
Y95553D01*
X178914Y96621D01*
X178580Y97200D01*
X179069Y98200D01*
X180931D01*
X181420Y97200D01*
X181086Y96621D01*
X180800Y95553D01*
Y94447D01*
X181086Y93379D01*
X181639Y92421D01*
X182421Y91639D01*
X183379Y91086D01*
X184447Y90800D01*
X185553D01*
X186621Y91086D01*
X187579Y91639D01*
X188361Y92421D01*
X188914Y93379D01*
X189200Y94447D01*
Y95553D01*
X188914Y96621D01*
X188580Y97200D01*
X189069Y98200D01*
X190931D01*
X191420Y97200D01*
X191086Y96621D01*
X190800Y95553D01*
Y94447D01*
X191086Y93379D01*
X191639Y92421D01*
X192421Y91639D01*
X193379Y91086D01*
X194447Y90800D01*
X195553D01*
X196621Y91086D01*
X197579Y91639D01*
X198361Y92421D01*
X198914Y93379D01*
X199200Y94447D01*
Y95553D01*
X198914Y96621D01*
X198580Y97200D01*
X199069Y98200D01*
X200931D01*
X201420Y97200D01*
X201086Y96621D01*
X200800Y95553D01*
Y94447D01*
X201086Y93379D01*
X201639Y92421D01*
X202421Y91639D01*
X203379Y91086D01*
X204447Y90800D01*
X205553D01*
X206621Y91086D01*
X207579Y91639D01*
X208361Y92421D01*
X208914Y93379D01*
X209200Y94447D01*
Y95553D01*
X208914Y96621D01*
X208580Y97200D01*
X209069Y98200D01*
X210931D01*
X211420Y97200D01*
X211086Y96621D01*
X210800Y95553D01*
Y94447D01*
X211086Y93379D01*
X211639Y92421D01*
X212421Y91639D01*
X213379Y91086D01*
X214447Y90800D01*
X215553D01*
X216621Y91086D01*
X217579Y91639D01*
X218361Y92421D01*
X218914Y93379D01*
X219200Y94447D01*
Y95553D01*
X218914Y96621D01*
X218580Y97200D01*
X219069Y98200D01*
X220931D01*
X221420Y97200D01*
X221086Y96621D01*
X220800Y95553D01*
Y94447D01*
X221086Y93379D01*
X221639Y92421D01*
X222421Y91639D01*
X223379Y91086D01*
X224447Y90800D01*
X225553D01*
X226621Y91086D01*
X227579Y91639D01*
X228361Y92421D01*
X228914Y93379D01*
X229200Y94447D01*
Y95553D01*
X228914Y96621D01*
X228580Y97200D01*
X229069Y98200D01*
X230931D01*
X231420Y97200D01*
X231086Y96621D01*
X230800Y95553D01*
Y94447D01*
X231086Y93379D01*
X231639Y92421D01*
X232421Y91639D01*
X233379Y91086D01*
X234447Y90800D01*
X235553D01*
X236621Y91086D01*
X237579Y91639D01*
X238361Y92421D01*
X238914Y93379D01*
X239200Y94447D01*
Y95553D01*
X238914Y96621D01*
X238580Y97200D01*
X239069Y98200D01*
X240931D01*
X241420Y97200D01*
X241086Y96621D01*
X240800Y95553D01*
Y94447D01*
X241086Y93379D01*
X241572Y92537D01*
X242030Y91689D01*
X241411Y91070D01*
X241076Y90261D01*
Y89386D01*
X241411Y88577D01*
X242030Y87958D01*
X242839Y87624D01*
X243714D01*
X244523Y87958D01*
X245142Y88577D01*
X245477Y89386D01*
Y90261D01*
X246257Y90989D01*
X246621Y91086D01*
X247579Y91639D01*
X248361Y92421D01*
X248914Y93379D01*
X249200Y94447D01*
Y95553D01*
X248914Y96621D01*
X248580Y97200D01*
X249069Y98200D01*
X260800D01*
Y90800D01*
D02*
G37*
G36*
X269286Y83846D02*
X269500Y83647D01*
Y81553D01*
X269220Y81293D01*
X268608Y80978D01*
X268204Y81248D01*
X268111Y81286D01*
X268028Y81342D01*
X267929Y81362D01*
X267836Y81400D01*
X267736D01*
X267638Y81420D01*
X266882D01*
X266652Y81465D01*
X266262Y81388D01*
X265931Y81167D01*
X265710Y80836D01*
X265501Y80331D01*
X265169Y79999D01*
X264735Y79820D01*
X264265D01*
X263831Y79999D01*
X263499Y80331D01*
X263320Y80765D01*
Y81235D01*
X263499Y81669D01*
X263831Y82001D01*
X264265Y82180D01*
X264818D01*
X265048Y82135D01*
X265439Y82212D01*
X265769Y82433D01*
X265990Y82764D01*
X266199Y83269D01*
X266531Y83601D01*
X266965Y83780D01*
X267638D01*
X267736Y83800D01*
X267836D01*
X267929Y83838D01*
X268028Y83858D01*
X268111Y83914D01*
X268204Y83952D01*
X268500Y84150D01*
X269286Y83846D01*
D02*
G37*
G36*
X247621Y79080D02*
X247621Y79080D01*
X247621Y79080D01*
X247751Y79080D01*
X247751Y79080D01*
X247776Y79075D01*
X247797Y79061D01*
X250757Y76101D01*
X250811Y75696D01*
X250740Y75347D01*
X249938Y74700D01*
X249062D01*
X248254Y74365D01*
X247635Y73746D01*
X247300Y72938D01*
Y72062D01*
X247635Y71254D01*
X248254Y70635D01*
X249062Y70300D01*
X249938D01*
X250180Y70401D01*
X251180Y69763D01*
Y57884D01*
X251211Y57729D01*
X251258Y57494D01*
X251258Y57494D01*
Y57494D01*
X251325Y57394D01*
X251479Y57163D01*
X251479Y57163D01*
X251561Y57109D01*
X252001Y56669D01*
X252180Y56235D01*
Y55765D01*
X252001Y55331D01*
X251561Y54891D01*
X251479Y54837D01*
X251479Y54837D01*
X251479Y54837D01*
X251391Y54705D01*
X251258Y54506D01*
X251258Y54506D01*
X251258Y54506D01*
X251180Y54116D01*
Y53270D01*
X251180Y52918D01*
X251190Y52868D01*
X251185Y52818D01*
X251254Y52117D01*
X251269Y52068D01*
Y52018D01*
X251302Y51850D01*
X251341Y51757D01*
X251360Y51659D01*
X251416Y51575D01*
X251455Y51482D01*
X251526Y51411D01*
X251581Y51328D01*
X251665Y51272D01*
X251736Y51201D01*
X251829Y51163D01*
X251912Y51107D01*
X252169Y51001D01*
X252501Y50669D01*
X252680Y50235D01*
Y49688D01*
X252642Y49567D01*
X252647Y49511D01*
X252636Y49455D01*
X252664Y49314D01*
X252677Y49171D01*
X252703Y49121D01*
X252714Y49065D01*
X252794Y48946D01*
X252822Y48890D01*
X252834Y48860D01*
X252856Y48825D01*
X252860Y48818D01*
X252864Y48813D01*
X253329Y48081D01*
X253711Y47302D01*
X254006Y46487D01*
X254209Y45644D01*
X254319Y44784D01*
X254334Y43903D01*
X254306Y43470D01*
X253485Y34594D01*
X253495Y34498D01*
X253485Y34402D01*
X253982Y29250D01*
X253997Y29202D01*
X253997Y29151D01*
X254054Y29013D01*
X254097Y28870D01*
X254129Y28830D01*
X254149Y28783D01*
X254714Y27935D01*
X254785Y27863D01*
X254841Y27779D01*
X254924Y27724D01*
X254995Y27653D01*
X255088Y27614D01*
X255172Y27558D01*
X255270Y27539D01*
X255362Y27500D01*
X255463Y27500D01*
X255562Y27480D01*
X256235D01*
X256669Y27301D01*
X257001Y26969D01*
X257180Y26535D01*
Y26065D01*
X257001Y25631D01*
X256669Y25299D01*
X256235Y25120D01*
X255562D01*
X255476Y25102D01*
X255388Y25105D01*
X255283Y25064D01*
X255172Y25042D01*
X255099Y24993D01*
X255017Y24961D01*
X254950Y24919D01*
X254887Y24859D01*
X254811Y24813D01*
X254744Y24723D01*
X254662Y24645D01*
X254627Y24564D01*
X254574Y24494D01*
X254547Y24384D01*
X254501Y24281D01*
X254499Y24193D01*
X254478Y24108D01*
X254437Y23287D01*
X254089Y21537D01*
X253416Y19911D01*
X252424Y18427D01*
X251832Y17774D01*
X250997Y16939D01*
X250798Y16758D01*
X250332Y16447D01*
X249837Y16242D01*
X249287Y16133D01*
X249019Y16120D01*
X243100D01*
X242710Y16042D01*
X242379Y15821D01*
X242158Y15490D01*
X242080Y15100D01*
Y9864D01*
X242094Y9795D01*
X242090Y9725D01*
X242133Y9602D01*
X242158Y9474D01*
X242197Y9415D01*
X242220Y9349D01*
X242334Y8790D01*
X242303Y8552D01*
X242128Y8067D01*
X241639Y7579D01*
X241086Y6621D01*
X240800Y5553D01*
Y4447D01*
X241086Y3379D01*
X241639Y2421D01*
X242060Y2000D01*
X241646Y1000D01*
X238354D01*
X237940Y2000D01*
X238361Y2421D01*
X238914Y3379D01*
X239200Y4447D01*
Y5553D01*
X238914Y6621D01*
X238361Y7579D01*
X237579Y8361D01*
X236621Y8914D01*
X235553Y9200D01*
X234447D01*
X233379Y8914D01*
X232421Y8361D01*
X231639Y7579D01*
X231086Y6621D01*
X230800Y5553D01*
Y4447D01*
X231086Y3379D01*
X231639Y2421D01*
X232060Y2000D01*
X231646Y1000D01*
X228354D01*
X227940Y2000D01*
X228361Y2421D01*
X228914Y3379D01*
X229200Y4447D01*
Y5553D01*
X228914Y6621D01*
X228361Y7579D01*
X227579Y8361D01*
X226621Y8914D01*
X225553Y9200D01*
X224447D01*
X223379Y8914D01*
X222421Y8361D01*
X221639Y7579D01*
X221086Y6621D01*
X220800Y5553D01*
Y4447D01*
X221086Y3379D01*
X221639Y2421D01*
X222060Y2000D01*
X221646Y1000D01*
X218354D01*
X217940Y2000D01*
X218361Y2421D01*
X218914Y3379D01*
X219200Y4447D01*
Y5553D01*
X218914Y6621D01*
X218361Y7579D01*
X217579Y8361D01*
X216621Y8914D01*
X215553Y9200D01*
X214447D01*
X213379Y8914D01*
X212421Y8361D01*
X211639Y7579D01*
X211086Y6621D01*
X210800Y5553D01*
Y4447D01*
X211086Y3379D01*
X211639Y2421D01*
X212060Y2000D01*
X211646Y1000D01*
X208354D01*
X207940Y2000D01*
X208361Y2421D01*
X208914Y3379D01*
X209200Y4447D01*
Y5553D01*
X208914Y6621D01*
X208361Y7579D01*
X207579Y8361D01*
X206621Y8914D01*
X205553Y9200D01*
X204447D01*
X203379Y8914D01*
X202421Y8361D01*
X201639Y7579D01*
X201086Y6621D01*
X200800Y5553D01*
Y4447D01*
X201086Y3379D01*
X201639Y2421D01*
X202060Y2000D01*
X201646Y1000D01*
X198354D01*
X197940Y2000D01*
X198361Y2421D01*
X198914Y3379D01*
X199200Y4447D01*
Y5553D01*
X198914Y6621D01*
X198361Y7579D01*
X197579Y8361D01*
X196621Y8914D01*
X195553Y9200D01*
X194447D01*
X193379Y8914D01*
X192421Y8361D01*
X191639Y7579D01*
X191086Y6621D01*
X190800Y5553D01*
Y4447D01*
X191086Y3379D01*
X191639Y2421D01*
X192060Y2000D01*
X191646Y1000D01*
X188354D01*
X187940Y2000D01*
X188361Y2421D01*
X188914Y3379D01*
X189200Y4447D01*
Y5553D01*
X188914Y6621D01*
X188361Y7579D01*
X187579Y8361D01*
X186621Y8914D01*
X185553Y9200D01*
X184447D01*
X183379Y8914D01*
X182421Y8361D01*
X181639Y7579D01*
X181086Y6621D01*
X180800Y5553D01*
Y4447D01*
X181086Y3379D01*
X181639Y2421D01*
X182060Y2000D01*
X181646Y1000D01*
X178354D01*
X177940Y2000D01*
X178361Y2421D01*
X178914Y3379D01*
X179200Y4447D01*
Y5553D01*
X178914Y6621D01*
X178361Y7579D01*
X177579Y8361D01*
X176621Y8914D01*
X175553Y9200D01*
X174447D01*
X173379Y8914D01*
X172421Y8361D01*
X171639Y7579D01*
X171086Y6621D01*
X170800Y5553D01*
Y4447D01*
X171086Y3379D01*
X171639Y2421D01*
X172060Y2000D01*
X171646Y1000D01*
X168354D01*
X167940Y2000D01*
X168361Y2421D01*
X168914Y3379D01*
X169200Y4447D01*
Y5553D01*
X168914Y6621D01*
X168361Y7579D01*
X167579Y8361D01*
X166621Y8914D01*
X165553Y9200D01*
X164447D01*
X163379Y8914D01*
X162421Y8361D01*
X161639Y7579D01*
X161086Y6621D01*
X160800Y5553D01*
Y4447D01*
X161086Y3379D01*
X161639Y2421D01*
X162060Y2000D01*
X161646Y1000D01*
X158354D01*
X157940Y2000D01*
X158361Y2421D01*
X158914Y3379D01*
X159200Y4447D01*
Y5553D01*
X158914Y6621D01*
X158361Y7579D01*
X157579Y8361D01*
X156621Y8914D01*
X155553Y9200D01*
X154447D01*
X153379Y8914D01*
X152421Y8361D01*
X151639Y7579D01*
X151086Y6621D01*
X150800Y5553D01*
Y4447D01*
X151086Y3379D01*
X151639Y2421D01*
X152060Y2000D01*
X151646Y1000D01*
X148354D01*
X147940Y2000D01*
X148361Y2421D01*
X148914Y3379D01*
X149200Y4447D01*
Y5553D01*
X148914Y6621D01*
X148361Y7579D01*
X147579Y8361D01*
X146621Y8914D01*
X145553Y9200D01*
X144447D01*
X143379Y8914D01*
X142421Y8361D01*
X141639Y7579D01*
X141086Y6621D01*
X140800Y5553D01*
Y4447D01*
X141086Y3379D01*
X141639Y2421D01*
X142060Y2000D01*
X141646Y1000D01*
X138354D01*
X137940Y2000D01*
X138361Y2421D01*
X138914Y3379D01*
X139200Y4447D01*
Y5553D01*
X138914Y6621D01*
X138361Y7579D01*
X137579Y8361D01*
X136621Y8914D01*
X135553Y9200D01*
X134447D01*
X133379Y8914D01*
X132421Y8361D01*
X131639Y7579D01*
X131086Y6621D01*
X130800Y5553D01*
Y4447D01*
X131086Y3379D01*
X131639Y2421D01*
X132060Y2000D01*
X131646Y1000D01*
X128354D01*
X127940Y2000D01*
X128361Y2421D01*
X128914Y3379D01*
X129200Y4447D01*
Y5553D01*
X128914Y6621D01*
X128361Y7579D01*
X127579Y8361D01*
X126621Y8914D01*
X125553Y9200D01*
X124447D01*
X123379Y8914D01*
X122421Y8361D01*
X121639Y7579D01*
X121086Y6621D01*
X120800Y5553D01*
Y4447D01*
X121086Y3379D01*
X121639Y2421D01*
X122060Y2000D01*
X121646Y1000D01*
X118354D01*
X117940Y2000D01*
X118361Y2421D01*
X118914Y3379D01*
X119200Y4447D01*
Y5553D01*
X118914Y6621D01*
X118361Y7579D01*
X117579Y8361D01*
X116621Y8914D01*
X115553Y9200D01*
X114447D01*
X113379Y8914D01*
X112421Y8361D01*
X111639Y7579D01*
X111086Y6621D01*
X110800Y5553D01*
Y4447D01*
X111086Y3379D01*
X111639Y2421D01*
X112060Y2000D01*
X111646Y1000D01*
X108354D01*
X107940Y2000D01*
X108361Y2421D01*
X108914Y3379D01*
X109200Y4447D01*
Y5553D01*
X108914Y6621D01*
X108361Y7579D01*
X107579Y8361D01*
X106621Y8914D01*
X105553Y9200D01*
X104447D01*
X103379Y8914D01*
X102421Y8361D01*
X101639Y7579D01*
X101086Y6621D01*
X100800Y5553D01*
Y4447D01*
X101086Y3379D01*
X101639Y2421D01*
X102060Y2000D01*
X101646Y1000D01*
X98354D01*
X97940Y2000D01*
X98361Y2421D01*
X98914Y3379D01*
X99200Y4447D01*
Y5553D01*
X98914Y6621D01*
X98361Y7579D01*
X97579Y8361D01*
X96621Y8914D01*
X95553Y9200D01*
X94447D01*
X93379Y8914D01*
X92421Y8361D01*
X91639Y7579D01*
X91086Y6621D01*
X90800Y5553D01*
Y4447D01*
X91086Y3379D01*
X91639Y2421D01*
X92060Y2000D01*
X91646Y1000D01*
X88354D01*
X87940Y2000D01*
X88361Y2421D01*
X88914Y3379D01*
X89200Y4447D01*
Y5553D01*
X88914Y6621D01*
X88361Y7579D01*
X87579Y8361D01*
X86621Y8914D01*
X85553Y9200D01*
X84447D01*
X83379Y8914D01*
X82421Y8361D01*
X81639Y7579D01*
X81086Y6621D01*
X80800Y5553D01*
Y4447D01*
X81086Y3379D01*
X81639Y2421D01*
X82060Y2000D01*
X81646Y1000D01*
X78007D01*
X77894Y1164D01*
X77657Y2000D01*
X78201Y2544D01*
X78727Y3456D01*
X79000Y4473D01*
Y5527D01*
X78727Y6544D01*
X78201Y7456D01*
X77456Y8201D01*
X76544Y8727D01*
X75527Y9000D01*
X74473D01*
X73456Y8727D01*
X72544Y8201D01*
X71799Y7456D01*
X71273Y6544D01*
X71000Y5527D01*
Y4473D01*
X71273Y3456D01*
X71799Y2544D01*
X72343Y2000D01*
X72106Y1164D01*
X71993Y1000D01*
X68007D01*
X67894Y1164D01*
X67657Y2000D01*
X68201Y2544D01*
X68727Y3456D01*
X69000Y4473D01*
Y5527D01*
X68727Y6544D01*
X68201Y7456D01*
X67456Y8201D01*
X66799Y8580D01*
X67067Y9580D01*
X72400D01*
X72790Y9658D01*
X73121Y9879D01*
X73342Y10210D01*
X73420Y10600D01*
Y22438D01*
X73342Y22828D01*
X73120Y23365D01*
Y23900D01*
X73789Y24709D01*
X73889Y24766D01*
X120654D01*
X120654Y24766D01*
X121698Y24903D01*
X122671Y25306D01*
X123507Y25947D01*
X131353Y33793D01*
X131353Y33793D01*
X131994Y34629D01*
X132397Y35602D01*
X132535Y36646D01*
X132535Y36646D01*
Y40329D01*
X138853Y46647D01*
X139124Y47000D01*
X140438D01*
X140604Y46834D01*
X140688Y46778D01*
X140759Y46707D01*
X141312Y46337D01*
X141405Y46299D01*
X141489Y46243D01*
X142104Y45988D01*
X142202Y45968D01*
X142295Y45930D01*
X142948Y45800D01*
X143048D01*
X143147Y45780D01*
X143480Y45780D01*
X144500Y45780D01*
X144583Y45797D01*
X144668Y45794D01*
X144777Y45835D01*
X144890Y45858D01*
X144961Y45905D01*
X145040Y45935D01*
X146714Y46981D01*
X146809Y47071D01*
X146915Y47146D01*
X147265Y47516D01*
X147334Y47626D01*
X147417Y47726D01*
X147662Y48172D01*
X147701Y48297D01*
X147757Y48414D01*
X147881Y48908D01*
X147888Y49038D01*
X147912Y49166D01*
X147909Y49420D01*
X147909Y49420D01*
X147820Y59305D01*
Y60232D01*
X148488Y60679D01*
X149363D01*
X150172Y61014D01*
X150791Y61633D01*
X151126Y62441D01*
Y63316D01*
X150791Y64125D01*
X150172Y64744D01*
X149363Y65079D01*
X148488D01*
X147820Y65525D01*
Y69880D01*
X176589Y69880D01*
X176655Y69840D01*
X176692Y69835D01*
X176724Y69818D01*
X176731Y69818D01*
X176738Y69815D01*
X176894Y69805D01*
X177049Y69782D01*
X177084Y69790D01*
X177121Y69788D01*
X177128Y69790D01*
X177135Y69789D01*
X177135Y69789D01*
X177283Y69840D01*
X177435Y69878D01*
X177464Y69899D01*
X177499Y69911D01*
X178636Y70549D01*
X179044Y70603D01*
X180017Y71006D01*
X180853Y71647D01*
X181187Y71981D01*
X183199Y73111D01*
X183294Y73192D01*
X183399Y73258D01*
X188592Y78151D01*
X188827Y78364D01*
X189349Y78713D01*
X189905Y78943D01*
X190521Y79066D01*
X190824Y79080D01*
X247621Y79080D01*
D02*
G37*
G36*
X268653Y17718D02*
X269500Y17183D01*
Y15817D01*
X268653Y15282D01*
X268500Y15260D01*
X268200Y15320D01*
X267765D01*
X267331Y15499D01*
X266999Y15831D01*
X266820Y16265D01*
Y16735D01*
X266999Y17169D01*
X267331Y17501D01*
X267765Y17680D01*
X268200D01*
X268500Y17740D01*
X268653Y17718D01*
D02*
G37*
G36*
X72100Y23162D02*
X72400Y22438D01*
Y10600D01*
X51600D01*
Y23900D01*
X72100D01*
Y23162D01*
D02*
G37*
G36*
X256228Y7964D02*
X256953Y7545D01*
X257545Y6953D01*
X257964Y6228D01*
X258180Y5419D01*
Y4581D01*
X257964Y3772D01*
X257697Y3310D01*
X257665Y3216D01*
X257615Y3131D01*
X257601Y3030D01*
X257569Y2933D01*
X257575Y2834D01*
X257562Y2736D01*
X257588Y2638D01*
X257595Y2536D01*
X257639Y2447D01*
X257664Y2352D01*
X257836Y2000D01*
X257212Y1000D01*
X252788D01*
X252164Y2000D01*
X252336Y2352D01*
X252361Y2447D01*
X252405Y2536D01*
X252412Y2638D01*
X252438Y2736D01*
X252425Y2834D01*
X252431Y2933D01*
X252398Y3030D01*
X252385Y3131D01*
X252335Y3216D01*
X252303Y3310D01*
X252036Y3772D01*
X251820Y4581D01*
Y5419D01*
X252036Y6228D01*
X252455Y6953D01*
X253047Y7545D01*
X253772Y7964D01*
X254581Y8180D01*
X255419D01*
X256228Y7964D01*
D02*
G37*
G36*
X63201Y8580D02*
X62544Y8201D01*
X61799Y7456D01*
X61273Y6544D01*
X61000Y5527D01*
Y4473D01*
X61273Y3456D01*
X61799Y2544D01*
X62343Y2000D01*
X62106Y1164D01*
X61993Y1000D01*
X58354D01*
X57940Y2000D01*
X58361Y2421D01*
X58914Y3379D01*
X59200Y4447D01*
Y5553D01*
X58914Y6621D01*
X58361Y7579D01*
X57579Y8361D01*
X57199Y8580D01*
X57467Y9580D01*
X62933D01*
X63201Y8580D01*
D02*
G37*
%LPC*%
G36*
X75352Y89486D02*
X74477D01*
X73668Y89151D01*
X73049Y88532D01*
X72714Y87723D01*
Y86848D01*
X73049Y86040D01*
X73668Y85421D01*
X74477Y85086D01*
X75352D01*
X76161Y85421D01*
X76285Y85545D01*
X77133Y84979D01*
X77000Y84658D01*
Y83942D01*
X77274Y83280D01*
X77780Y82774D01*
X78442Y82500D01*
X79158D01*
X79820Y82774D01*
X80326Y83280D01*
X80600Y83942D01*
Y84658D01*
X80326Y85320D01*
X79820Y85826D01*
X79158Y86100D01*
X78442D01*
X77780Y85826D01*
X77768Y85814D01*
X76921Y86380D01*
X77114Y86848D01*
Y87723D01*
X76779Y88532D01*
X76161Y89151D01*
X75352Y89486D01*
D02*
G37*
G36*
X36898Y79500D02*
X36102D01*
X35367Y79195D01*
X34804Y78633D01*
X34500Y77898D01*
Y77102D01*
X34804Y76367D01*
X35367Y75805D01*
X36102Y75500D01*
X36898D01*
X37633Y75805D01*
X38195Y76367D01*
X38500Y77102D01*
Y77898D01*
X38195Y78633D01*
X37633Y79195D01*
X36898Y79500D01*
D02*
G37*
G36*
X31898D02*
X31102D01*
X30367Y79195D01*
X29805Y78633D01*
X29500Y77898D01*
Y77102D01*
X29805Y76367D01*
X30367Y75805D01*
X31102Y75500D01*
X31898D01*
X32633Y75805D01*
X33195Y76367D01*
X33500Y77102D01*
Y77898D01*
X33195Y78633D01*
X32633Y79195D01*
X31898Y79500D01*
D02*
G37*
G36*
X48398Y80000D02*
X47602D01*
X46867Y79695D01*
X46305Y79133D01*
X46000Y78398D01*
Y77602D01*
X46305Y76867D01*
X46821Y76250D01*
X46305Y75633D01*
X46000Y74898D01*
Y74102D01*
X46305Y73367D01*
X46867Y72804D01*
X47602Y72500D01*
X48398D01*
X49133Y72804D01*
X49696Y73367D01*
X50000Y74102D01*
Y74898D01*
X49696Y75633D01*
X49179Y76250D01*
X49696Y76867D01*
X50000Y77602D01*
Y78398D01*
X49696Y79133D01*
X49133Y79695D01*
X48398Y80000D01*
D02*
G37*
G36*
X57438Y61600D02*
X56562D01*
X55754Y61265D01*
X55135Y60646D01*
X54800Y59838D01*
Y58962D01*
X55135Y58154D01*
X55754Y57535D01*
X56562Y57200D01*
X57438D01*
X58246Y57535D01*
X58865Y58154D01*
X59200Y58962D01*
Y59838D01*
X58865Y60646D01*
X58246Y61265D01*
X57438Y61600D01*
D02*
G37*
G36*
X132238Y59100D02*
X131362D01*
X130554Y58765D01*
X129935Y58146D01*
X129600Y57338D01*
Y56462D01*
X129935Y55654D01*
X130554Y55035D01*
X131362Y54700D01*
X132238D01*
X133046Y55035D01*
X133665Y55654D01*
X134000Y56462D01*
Y57338D01*
X133665Y58146D01*
X133046Y58765D01*
X132238Y59100D01*
D02*
G37*
G36*
X40500Y58000D02*
X34500D01*
Y52000D01*
X34500Y52000D01*
X34662Y51000D01*
X34500Y50395D01*
Y49605D01*
X34704Y48842D01*
X35099Y48158D01*
X35585Y47500D01*
X35099Y46842D01*
X34704Y46158D01*
X34500Y45395D01*
Y44605D01*
X34704Y43842D01*
X35099Y43158D01*
X35658Y42599D01*
X36342Y42204D01*
X37105Y42000D01*
X37895D01*
X38658Y42204D01*
X39342Y42599D01*
X39901Y43158D01*
X40296Y43842D01*
X40500Y44605D01*
Y45395D01*
X40296Y46158D01*
X39901Y46842D01*
X39415Y47500D01*
X39901Y48158D01*
X40296Y48842D01*
X40500Y49605D01*
Y50395D01*
X40338Y51000D01*
X40500Y52000D01*
X40500D01*
Y58000D01*
D02*
G37*
G36*
X147938Y88700D02*
X147062D01*
X146254Y88365D01*
X145635Y87746D01*
X145300Y86938D01*
Y86062D01*
X145635Y85254D01*
X146254Y84635D01*
X147062Y84300D01*
X147938D01*
X148746Y84635D01*
X149365Y85254D01*
X149700Y86062D01*
Y86938D01*
X149365Y87746D01*
X148746Y88365D01*
X147938Y88700D01*
D02*
G37*
G36*
X95938Y85700D02*
X95062D01*
X94254Y85365D01*
X93635Y84746D01*
X93300Y83938D01*
Y83062D01*
X93635Y82254D01*
X94254Y81635D01*
X95062Y81300D01*
X95938D01*
X96746Y81635D01*
X97365Y82254D01*
X97700Y83062D01*
Y83938D01*
X97365Y84746D01*
X96746Y85365D01*
X95938Y85700D01*
D02*
G37*
G36*
X124938Y81700D02*
X124062D01*
X123254Y81365D01*
X122635Y80746D01*
X122300Y79938D01*
Y79062D01*
X122635Y78254D01*
X123254Y77635D01*
X124062Y77300D01*
X124938D01*
X125746Y77635D01*
X126365Y78254D01*
X126700Y79062D01*
Y79938D01*
X126365Y80746D01*
X125746Y81365D01*
X124938Y81700D01*
D02*
G37*
G36*
X261438Y75700D02*
X260562D01*
X259754Y75365D01*
X259250Y74861D01*
X258746Y75365D01*
X257938Y75700D01*
X257062D01*
X256254Y75365D01*
X255635Y74746D01*
X255300Y73938D01*
Y73062D01*
X255635Y72254D01*
X256254Y71635D01*
X257062Y71300D01*
X257938D01*
X258490Y71529D01*
X259240Y70942D01*
X259296Y70863D01*
X259171Y70559D01*
Y69684D01*
X259505Y68875D01*
X259909Y68472D01*
X259405Y67968D01*
X259070Y67159D01*
Y66284D01*
X259405Y65475D01*
X259859Y65022D01*
X259405Y64568D01*
X259070Y63759D01*
Y62884D01*
X259405Y62076D01*
X259809Y61672D01*
X259505Y61368D01*
X259171Y60559D01*
Y59684D01*
X259505Y58876D01*
X259909Y58472D01*
X259405Y57968D01*
X259070Y57159D01*
Y56284D01*
X259405Y55475D01*
X259859Y55022D01*
X259505Y54668D01*
X259171Y53859D01*
Y52984D01*
X259505Y52175D01*
X260109Y51572D01*
X259705Y51168D01*
X259370Y50359D01*
Y49484D01*
X259705Y48676D01*
X260109Y48272D01*
X259605Y47768D01*
X259271Y46959D01*
Y46084D01*
X259605Y45276D01*
X260009Y44872D01*
X259705Y44568D01*
X259370Y43759D01*
Y42884D01*
X259705Y42075D01*
X260059Y41722D01*
X259605Y41268D01*
X259271Y40459D01*
Y39584D01*
X259605Y38776D01*
X260109Y38272D01*
X259605Y37768D01*
X259271Y36959D01*
Y36084D01*
X259605Y35276D01*
X260109Y34772D01*
X259605Y34268D01*
X259271Y33459D01*
Y32584D01*
X259605Y31776D01*
X259859Y31522D01*
X259605Y31268D01*
X259271Y30459D01*
Y29584D01*
X259605Y28776D01*
X260224Y28157D01*
X260499Y28043D01*
X261032Y27790D01*
X261000Y26838D01*
Y25962D01*
X261335Y25154D01*
X261954Y24535D01*
X262762Y24200D01*
X263638D01*
X264446Y24535D01*
X265065Y25154D01*
X265400Y25962D01*
Y26838D01*
X265065Y27646D01*
X264446Y28265D01*
X264171Y28379D01*
X263639Y28632D01*
X263670Y29584D01*
Y30459D01*
X263336Y31268D01*
X263082Y31522D01*
X263336Y31776D01*
X263670Y32584D01*
Y33459D01*
X263336Y34268D01*
X262832Y34772D01*
X263336Y35276D01*
X263670Y36084D01*
Y36959D01*
X263336Y37768D01*
X262832Y38272D01*
X263336Y38776D01*
X263670Y39584D01*
Y40459D01*
X263336Y41268D01*
X262982Y41622D01*
X263436Y42075D01*
X263771Y42884D01*
Y43759D01*
X263436Y44568D01*
X263032Y44972D01*
X263336Y45276D01*
X263670Y46084D01*
Y46959D01*
X263336Y47768D01*
X262932Y48172D01*
X263436Y48676D01*
X263771Y49484D01*
Y50359D01*
X263436Y51168D01*
X262832Y51772D01*
X263236Y52175D01*
X263570Y52984D01*
Y53859D01*
X263236Y54668D01*
X262782Y55122D01*
X263136Y55475D01*
X263471Y56284D01*
Y57159D01*
X263136Y57968D01*
X262732Y58372D01*
X263236Y58876D01*
X263570Y59684D01*
Y60559D01*
X263236Y61368D01*
X262832Y61772D01*
X263136Y62076D01*
X263471Y62884D01*
Y63759D01*
X263136Y64568D01*
X262682Y65022D01*
X263136Y65475D01*
X263471Y66284D01*
Y67159D01*
X263136Y67968D01*
X262732Y68372D01*
X263236Y68875D01*
X263570Y69684D01*
Y70559D01*
X263236Y71368D01*
X262865Y72254D01*
X263200Y73062D01*
Y73938D01*
X262865Y74746D01*
X262246Y75365D01*
X261438Y75700D01*
D02*
G37*
%LPD*%
G36*
X148169Y87501D02*
X148501Y87169D01*
X148680Y86735D01*
Y86265D01*
X148501Y85831D01*
X148169Y85499D01*
X147735Y85320D01*
X147265D01*
X146831Y85499D01*
X146499Y85831D01*
X146320Y86265D01*
Y86735D01*
X146499Y87169D01*
X146831Y87501D01*
X147265Y87680D01*
X147735D01*
X148169Y87501D01*
D02*
G37*
G36*
X96169Y84501D02*
X96501Y84169D01*
X96680Y83735D01*
Y83265D01*
X96501Y82831D01*
X96169Y82499D01*
X95735Y82320D01*
X95265D01*
X94867Y82484D01*
X94484Y82867D01*
X94335Y83229D01*
Y83771D01*
X94499Y84169D01*
X94831Y84501D01*
X95265Y84680D01*
X95735D01*
X96169Y84501D01*
D02*
G37*
G36*
X125169Y80501D02*
X125501Y80169D01*
X125680Y79735D01*
Y79265D01*
X125501Y78831D01*
X125169Y78499D01*
X124771Y78334D01*
X124229D01*
X123831Y78499D01*
X123499Y78831D01*
X123320Y79265D01*
Y79735D01*
X123499Y80169D01*
X123831Y80501D01*
X124265Y80680D01*
X124735D01*
X125169Y80501D01*
D02*
G37*
G36*
X261669Y74501D02*
X262001Y74169D01*
X262180Y73735D01*
Y73265D01*
X261923Y72644D01*
X261923Y72642D01*
X261922Y72641D01*
X261884Y72447D01*
X261845Y72254D01*
X261846Y72252D01*
X261845Y72250D01*
X261884Y72058D01*
X261923Y71864D01*
X261924Y71862D01*
X261924Y71860D01*
X262295Y70975D01*
X262551Y70356D01*
Y69887D01*
X262371Y69453D01*
X262011Y69093D01*
X261867Y68878D01*
X261304Y68846D01*
X260804Y68932D01*
X260630Y69193D01*
X260370Y69453D01*
X260190Y69887D01*
Y70357D01*
X260238Y70473D01*
X260261Y70586D01*
X260302Y70694D01*
X260299Y70779D01*
X260316Y70863D01*
X260293Y70976D01*
X260290Y71091D01*
X260255Y71169D01*
X260238Y71253D01*
X260174Y71349D01*
X260127Y71454D01*
X260070Y71534D01*
X260017Y71583D01*
X260017Y71584D01*
X260017Y71584D01*
X259963Y71634D01*
X259868Y71746D01*
X259118Y72332D01*
X258995Y72394D01*
X258880Y72471D01*
X258818Y72483D01*
X258763Y72511D01*
X258625Y72521D01*
X258490Y72548D01*
X258428Y72536D01*
X258366Y72541D01*
X258235Y72497D01*
X258099Y72471D01*
X257735Y72320D01*
X257265D01*
X256831Y72499D01*
X256499Y72831D01*
X256339Y73218D01*
Y73782D01*
X256499Y74169D01*
X256831Y74501D01*
X257265Y74680D01*
X257735D01*
X258169Y74501D01*
X258529Y74140D01*
X258860Y73919D01*
X259250Y73842D01*
X259640Y73919D01*
X259971Y74140D01*
X260331Y74501D01*
X260765Y74680D01*
X261235D01*
X261669Y74501D01*
D02*
G37*
G36*
X261837Y67911D02*
X262011Y67651D01*
X262271Y67390D01*
X262451Y66956D01*
Y66487D01*
X262271Y66053D01*
X261961Y65743D01*
X261802Y65505D01*
X261270Y65456D01*
X260739Y65505D01*
X260580Y65743D01*
X260270Y66053D01*
X260090Y66487D01*
Y66956D01*
X260270Y67390D01*
X260630Y67751D01*
X260773Y67965D01*
X261337Y67997D01*
X261837Y67911D01*
D02*
G37*
G36*
X261802Y64538D02*
X261961Y64301D01*
X262271Y63990D01*
X262451Y63556D01*
Y63087D01*
X262271Y62653D01*
X262111Y62493D01*
X261890Y62162D01*
X261812Y61772D01*
X261890Y61382D01*
X262111Y61051D01*
X262371Y60790D01*
X262551Y60356D01*
Y59887D01*
X262371Y59453D01*
X262011Y59093D01*
X261867Y58878D01*
X261304Y58846D01*
X260804Y58932D01*
X260630Y59193D01*
X260370Y59453D01*
X260190Y59887D01*
Y60356D01*
X260370Y60790D01*
X260530Y60951D01*
X260751Y61282D01*
X260829Y61672D01*
X260751Y62062D01*
X260530Y62393D01*
X260270Y62653D01*
X260090Y63087D01*
Y63556D01*
X260270Y63990D01*
X260580Y64301D01*
X260739Y64538D01*
X261270Y64588D01*
X261802Y64538D01*
D02*
G37*
G36*
X261837Y57911D02*
X262011Y57651D01*
X262271Y57390D01*
X262451Y56956D01*
Y56487D01*
X262271Y56053D01*
X262061Y55843D01*
X261840Y55512D01*
X261820Y55414D01*
X260806Y55412D01*
X260801Y55413D01*
X260580Y55743D01*
X260270Y56053D01*
X260090Y56487D01*
Y56956D01*
X260270Y57390D01*
X260630Y57751D01*
X260773Y57965D01*
X261337Y57997D01*
X261837Y57911D01*
D02*
G37*
G36*
X261841Y54730D02*
X262061Y54401D01*
X262371Y54090D01*
X262551Y53656D01*
Y53187D01*
X262371Y52753D01*
X262111Y52493D01*
X261959Y52266D01*
X261834Y52224D01*
X261471Y52184D01*
X260881Y52217D01*
X260830Y52293D01*
X260370Y52753D01*
X260190Y53187D01*
Y53656D01*
X260370Y54090D01*
X260580Y54301D01*
X260801Y54632D01*
X260821Y54729D01*
X261835Y54731D01*
X261841Y54730D01*
D02*
G37*
G36*
X262060Y51127D02*
X262111Y51051D01*
X262571Y50590D01*
X262751Y50156D01*
Y49687D01*
X262571Y49253D01*
X262211Y48893D01*
X262068Y48678D01*
X261504Y48646D01*
X261004Y48732D01*
X260830Y48993D01*
X260570Y49253D01*
X260390Y49687D01*
Y50156D01*
X260570Y50590D01*
X260830Y50851D01*
X260982Y51078D01*
X261107Y51120D01*
X261470Y51159D01*
X262060Y51127D01*
D02*
G37*
G36*
X262037Y47711D02*
X262211Y47451D01*
X262471Y47190D01*
X262651Y46757D01*
Y46287D01*
X262471Y45853D01*
X262311Y45693D01*
X262090Y45362D01*
X262012Y44972D01*
X262090Y44581D01*
X262311Y44251D01*
X262571Y43990D01*
X262751Y43556D01*
Y43087D01*
X262571Y42653D01*
X262261Y42343D01*
X262040Y42013D01*
X262035Y42012D01*
X261021Y42014D01*
X261001Y42112D01*
X260780Y42443D01*
X260570Y42653D01*
X260390Y43087D01*
Y43556D01*
X260570Y43990D01*
X260730Y44151D01*
X260951Y44482D01*
X261029Y44872D01*
X260951Y45262D01*
X260730Y45593D01*
X260470Y45853D01*
X260310Y46240D01*
Y46804D01*
X260470Y47190D01*
X260830Y47551D01*
X260973Y47765D01*
X261537Y47797D01*
X262037Y47711D01*
D02*
G37*
G36*
X262020Y41329D02*
X262040Y41232D01*
X262261Y40901D01*
X262471Y40690D01*
X262651Y40257D01*
Y39787D01*
X262471Y39353D01*
X262111Y38993D01*
X262026Y38866D01*
X261621Y38781D01*
X261320D01*
X260915Y38866D01*
X260830Y38993D01*
X260470Y39353D01*
X260310Y39740D01*
Y40304D01*
X260470Y40690D01*
X260780Y41001D01*
X261000Y41330D01*
X261006Y41331D01*
X262020Y41329D01*
D02*
G37*
G36*
X262026Y37677D02*
X262111Y37551D01*
X262471Y37190D01*
X262651Y36757D01*
Y36287D01*
X262471Y35853D01*
X262111Y35493D01*
X262026Y35366D01*
X261621Y35281D01*
X261320D01*
X260915Y35366D01*
X260830Y35493D01*
X260470Y35853D01*
X260310Y36240D01*
Y36804D01*
X260470Y37190D01*
X260830Y37551D01*
X260915Y37677D01*
X261320Y37762D01*
X261621D01*
X262026Y37677D01*
D02*
G37*
G36*
Y34178D02*
X262111Y34051D01*
X262471Y33690D01*
X262651Y33257D01*
Y32787D01*
X262471Y32353D01*
X262361Y32243D01*
X262140Y31912D01*
X262062Y31522D01*
X262140Y31132D01*
X262361Y30801D01*
X262471Y30690D01*
X262651Y30257D01*
Y29601D01*
X262631Y29004D01*
X262159Y28719D01*
X261748Y28586D01*
X261650Y28577D01*
X261622Y28597D01*
X261469Y28711D01*
X260936Y28964D01*
X260911Y28970D01*
X260889Y28985D01*
X260849Y29001D01*
X260450Y29400D01*
X260310Y29740D01*
Y30304D01*
X260470Y30690D01*
X260580Y30801D01*
X260801Y31132D01*
X260879Y31522D01*
X260801Y31912D01*
X260580Y32243D01*
X260470Y32353D01*
X260310Y32740D01*
Y33304D01*
X260470Y33690D01*
X260830Y34051D01*
X260915Y34178D01*
X261320Y34262D01*
X261621D01*
X262026Y34178D01*
D02*
G37*
G36*
X263049Y27824D02*
X263202Y27711D01*
X263734Y27458D01*
X263759Y27451D01*
X263781Y27437D01*
X263869Y27401D01*
X264201Y27069D01*
X264380Y26635D01*
Y26165D01*
X264201Y25731D01*
X263869Y25399D01*
X263435Y25220D01*
X262965D01*
X262579Y25380D01*
X262180Y25779D01*
X262039Y26118D01*
Y26967D01*
X262027Y27030D01*
X262039Y27417D01*
X262511Y27703D01*
X262923Y27836D01*
X263020Y27845D01*
X263049Y27824D01*
D02*
G37*
%LPC*%
G36*
X243245Y74700D02*
X242370D01*
X241561Y74365D01*
X240942Y73746D01*
X240607Y72938D01*
Y72062D01*
X240886Y71390D01*
X240633Y70967D01*
X240220Y70583D01*
X239938Y70700D01*
X239062D01*
X238200Y70938D01*
X238057Y71284D01*
X237865Y71746D01*
X237246Y72365D01*
X236438Y72700D01*
X235562D01*
X234754Y72365D01*
X234135Y71746D01*
X233800Y70938D01*
Y70062D01*
X233782Y70019D01*
X233075Y69200D01*
X232562D01*
X231754Y68865D01*
X231135Y68246D01*
X230800Y67438D01*
Y66562D01*
X231135Y65754D01*
X231754Y65135D01*
X232562Y64800D01*
X233438D01*
X234246Y65135D01*
X234865Y65754D01*
X235200Y66562D01*
Y67438D01*
X235218Y67481D01*
X235925Y68300D01*
X236438D01*
X237300Y68062D01*
X237443Y67716D01*
X237635Y67254D01*
X238254Y66635D01*
X239062Y66300D01*
X239938D01*
X240746Y66635D01*
X241365Y67254D01*
X241700Y68062D01*
Y68938D01*
X241421Y69610D01*
X241674Y70033D01*
X242087Y70417D01*
X242370Y70300D01*
X243245D01*
X244053Y70635D01*
X244672Y71254D01*
X245007Y72062D01*
Y72938D01*
X244672Y73746D01*
X244053Y74365D01*
X243245Y74700D01*
D02*
G37*
G36*
X193438Y74200D02*
X192562D01*
X191754Y73865D01*
X191135Y73246D01*
X190800Y72438D01*
Y71562D01*
X191135Y70754D01*
X191754Y70135D01*
X192562Y69800D01*
X193438D01*
X194246Y70135D01*
X194865Y70754D01*
X195200Y71562D01*
Y72438D01*
X194865Y73246D01*
X194246Y73865D01*
X193438Y74200D01*
D02*
G37*
G36*
X216516Y73571D02*
X215641D01*
X214832Y73235D01*
X214213Y72617D01*
X213878Y71808D01*
Y70933D01*
X214213Y70124D01*
X214832Y69505D01*
X215641Y69170D01*
X216516D01*
X217324Y69505D01*
X217943Y70124D01*
X218278Y70933D01*
Y71808D01*
X217943Y72617D01*
X217324Y73235D01*
X216516Y73571D01*
D02*
G37*
G36*
X229745Y73200D02*
X228870D01*
X228061Y72865D01*
X227442Y72246D01*
X227107Y71438D01*
Y70562D01*
X227386Y69890D01*
X227133Y69467D01*
X226720Y69083D01*
X226438Y69200D01*
X225562D01*
X225418Y69140D01*
X225154Y69357D01*
X224752Y69947D01*
X225007Y70562D01*
Y71438D01*
X224672Y72246D01*
X224053Y72865D01*
X223245Y73200D01*
X222370D01*
X221561Y72865D01*
X220942Y72246D01*
X220607Y71438D01*
Y70562D01*
X220886Y69890D01*
X220633Y69467D01*
X220220Y69083D01*
X219938Y69200D01*
X219062D01*
X218254Y68865D01*
X217635Y68246D01*
X217300Y67438D01*
Y66562D01*
X217635Y65754D01*
X218254Y65135D01*
X219062Y64800D01*
X219938D01*
X220746Y65135D01*
X221365Y65754D01*
X221700Y66562D01*
Y67438D01*
X221421Y68110D01*
X221674Y68533D01*
X222087Y68917D01*
X222370Y68800D01*
X223245D01*
X223389Y68860D01*
X223653Y68643D01*
X224055Y68053D01*
X223800Y67438D01*
Y66562D01*
X224135Y65754D01*
X224754Y65135D01*
X225562Y64800D01*
X226438D01*
X227246Y65135D01*
X227865Y65754D01*
X228200Y66562D01*
Y67438D01*
X227921Y68110D01*
X228174Y68533D01*
X228587Y68917D01*
X228870Y68800D01*
X229745D01*
X230553Y69135D01*
X231172Y69754D01*
X231507Y70562D01*
Y71438D01*
X231172Y72246D01*
X230553Y72865D01*
X229745Y73200D01*
D02*
G37*
G36*
X204706Y71468D02*
X203830D01*
X203022Y71133D01*
X202403Y70514D01*
X202068Y69705D01*
Y68830D01*
X202076Y68811D01*
X201310Y68046D01*
X200938Y68200D01*
X200062D01*
X199254Y67865D01*
X198635Y67246D01*
X198300Y66438D01*
Y65562D01*
X198635Y64754D01*
X199254Y64135D01*
X200062Y63800D01*
X200938D01*
X201746Y64135D01*
X202365Y64754D01*
X202700Y65562D01*
Y66438D01*
X202692Y66457D01*
X203457Y67222D01*
X203830Y67068D01*
X204706D01*
X205514Y67403D01*
X206133Y68022D01*
X206468Y68830D01*
Y69705D01*
X206133Y70514D01*
X205514Y71133D01*
X204706Y71468D01*
D02*
G37*
G36*
X246638Y69500D02*
X245762D01*
X244954Y69165D01*
X244335Y68546D01*
X244000Y67738D01*
Y66862D01*
X244335Y66054D01*
X244954Y65435D01*
X245762Y65100D01*
X246638D01*
X247446Y65435D01*
X248065Y66054D01*
X248400Y66862D01*
Y67738D01*
X248065Y68546D01*
X247446Y69165D01*
X246638Y69500D01*
D02*
G37*
G36*
X205938Y65700D02*
X205062D01*
X204254Y65365D01*
X203635Y64746D01*
X203300Y63938D01*
Y63062D01*
X203635Y62254D01*
X204254Y61635D01*
X205062Y61300D01*
X205938D01*
X206746Y61635D01*
X207365Y62254D01*
X207700Y63062D01*
Y63938D01*
X207365Y64746D01*
X206746Y65365D01*
X205938Y65700D01*
D02*
G37*
G36*
X180838Y63300D02*
X179962D01*
X179154Y62965D01*
X178535Y62346D01*
X178200Y61538D01*
Y60662D01*
X178535Y59854D01*
X179154Y59235D01*
X179962Y58900D01*
X180838D01*
X181646Y59235D01*
X182265Y59854D01*
X182600Y60662D01*
Y61538D01*
X182265Y62346D01*
X181646Y62965D01*
X180838Y63300D01*
D02*
G37*
G36*
X187538Y63400D02*
X186662D01*
X185854Y63065D01*
X185235Y62446D01*
X184900Y61638D01*
Y60762D01*
X185235Y59954D01*
X185854Y59335D01*
X186662Y59000D01*
X187538D01*
X188346Y59335D01*
X188965Y59954D01*
X188966Y59955D01*
X189252Y59987D01*
X190007Y59856D01*
X190256Y59254D01*
X190875Y58635D01*
X191683Y58300D01*
X192559D01*
X193367Y58635D01*
X193986Y59254D01*
X194321Y60062D01*
Y60938D01*
X193986Y61746D01*
X193367Y62365D01*
X192559Y62700D01*
X191683D01*
X190875Y62365D01*
X190256Y61746D01*
X190256Y61745D01*
X189969Y61713D01*
X189214Y61844D01*
X188965Y62446D01*
X188346Y63065D01*
X187538Y63400D01*
D02*
G37*
G36*
X155438Y62200D02*
X154562D01*
X153754Y61865D01*
X153135Y61246D01*
X152800Y60438D01*
Y59562D01*
X153135Y58754D01*
X153754Y58135D01*
X154562Y57800D01*
X155438D01*
X156246Y58135D01*
X156865Y58754D01*
X157200Y59562D01*
Y60438D01*
X156865Y61246D01*
X156246Y61865D01*
X155438Y62200D01*
D02*
G37*
G36*
X203398Y54500D02*
X202602D01*
X201867Y54195D01*
X201305Y53633D01*
X201000Y52898D01*
Y52102D01*
X201305Y51367D01*
X201867Y50805D01*
X202602Y50500D01*
X203398D01*
X204133Y50805D01*
X204696Y51367D01*
X205000Y52102D01*
Y52898D01*
X204696Y53633D01*
X204133Y54195D01*
X203398Y54500D01*
D02*
G37*
G36*
X188398Y53000D02*
X187602D01*
X186867Y52696D01*
X186304Y52133D01*
X186000Y51398D01*
Y50602D01*
X186304Y49867D01*
X186867Y49305D01*
X187602Y49000D01*
X188398D01*
X189133Y49305D01*
X189696Y49867D01*
X190000Y50602D01*
Y51398D01*
X189696Y52133D01*
X189133Y52696D01*
X188398Y53000D01*
D02*
G37*
G36*
Y47500D02*
X187602D01*
X186867Y47196D01*
X186304Y46633D01*
X186000Y45898D01*
Y45102D01*
X186304Y44367D01*
X186867Y43804D01*
X187602Y43500D01*
X188398D01*
X189133Y43804D01*
X189696Y44367D01*
X190000Y45102D01*
Y45898D01*
X189696Y46633D01*
X189133Y47196D01*
X188398Y47500D01*
D02*
G37*
G36*
X203398Y46000D02*
X202602D01*
X201867Y45695D01*
X201305Y45133D01*
X201000Y44398D01*
Y43602D01*
X201305Y42867D01*
X201867Y42305D01*
X202473Y42054D01*
X203300Y41438D01*
Y41124D01*
X203040Y40460D01*
X202376Y40200D01*
X202062D01*
X201254Y39865D01*
X200635Y39246D01*
X200300Y38438D01*
Y37562D01*
X200635Y36754D01*
X201254Y36135D01*
X202062Y35800D01*
X202938D01*
X203746Y36135D01*
X204365Y36754D01*
X204700Y37562D01*
Y37876D01*
X204960Y38540D01*
X205624Y38800D01*
X205938D01*
X206746Y39135D01*
X207365Y39754D01*
X207700Y40562D01*
Y41438D01*
X207365Y42246D01*
X206746Y42865D01*
X205938Y43200D01*
X205916D01*
X205036Y43586D01*
X205000Y44124D01*
Y44398D01*
X204696Y45133D01*
X204133Y45695D01*
X203398Y46000D01*
D02*
G37*
G36*
X182038Y40900D02*
X181162D01*
X180354Y40565D01*
X179735Y39946D01*
X179400Y39138D01*
Y39024D01*
X179172Y38222D01*
X178476Y38100D01*
X178262D01*
X177454Y37765D01*
X176835Y37146D01*
X176500Y36338D01*
Y35462D01*
X176835Y34654D01*
X177454Y34035D01*
X178262Y33700D01*
X179138D01*
X179946Y34035D01*
X180565Y34654D01*
X180900Y35462D01*
Y35576D01*
X181128Y36378D01*
X181824Y36500D01*
X182038D01*
X182846Y36835D01*
X183465Y37454D01*
X183800Y38262D01*
Y39138D01*
X183465Y39946D01*
X182846Y40565D01*
X182038Y40900D01*
D02*
G37*
G36*
X236438Y35300D02*
X235562D01*
X234754Y34965D01*
X234135Y34346D01*
X233800Y33538D01*
Y32662D01*
X234079Y31990D01*
X233826Y31567D01*
X233413Y31183D01*
X233131Y31300D01*
X232255D01*
X232040Y31211D01*
X231982Y31252D01*
X231374Y32017D01*
X231600Y32562D01*
Y33438D01*
X231265Y34246D01*
X230646Y34865D01*
X229838Y35200D01*
X228962D01*
X228154Y34865D01*
X227535Y34246D01*
X227200Y33438D01*
Y32562D01*
X227479Y31890D01*
X227226Y31467D01*
X226813Y31083D01*
X226531Y31200D01*
X225655D01*
X225263Y31038D01*
X224713Y31788D01*
X224674Y31876D01*
X225000Y32662D01*
Y33538D01*
X224665Y34346D01*
X224046Y34965D01*
X223238Y35300D01*
X222362D01*
X221554Y34965D01*
X220935Y34346D01*
X220600Y33538D01*
Y32662D01*
X220879Y31990D01*
X220626Y31567D01*
X220213Y31183D01*
X219931Y31300D01*
X219055D01*
X218517Y31077D01*
X218259Y31287D01*
X217846Y31871D01*
X218104Y32494D01*
Y33369D01*
X217769Y34178D01*
X217150Y34797D01*
X216342Y35131D01*
X215466D01*
X214658Y34797D01*
X214039Y34178D01*
X213704Y33369D01*
Y32494D01*
X214039Y31685D01*
X214658Y31066D01*
X215466Y30731D01*
X216342D01*
X216880Y30955D01*
X217138Y30744D01*
X217551Y30161D01*
X217293Y29538D01*
Y28662D01*
X217628Y27854D01*
X218247Y27235D01*
X219055Y26900D01*
X219931D01*
X220739Y27235D01*
X221358Y27854D01*
X221693Y28662D01*
Y29538D01*
X221414Y30210D01*
X221667Y30633D01*
X222080Y31017D01*
X222362Y30900D01*
X223238D01*
X223630Y31062D01*
X224180Y30312D01*
X224219Y30224D01*
X223893Y29438D01*
Y28562D01*
X224228Y27754D01*
X224847Y27135D01*
X225655Y26800D01*
X226531D01*
X227339Y27135D01*
X227958Y27754D01*
X228293Y28562D01*
Y29438D01*
X228014Y30110D01*
X228267Y30533D01*
X228680Y30917D01*
X228962Y30800D01*
X229838D01*
X230053Y30889D01*
X230111Y30848D01*
X230719Y30082D01*
X230493Y29538D01*
Y28662D01*
X230828Y27854D01*
X231447Y27235D01*
X232255Y26900D01*
X233131D01*
X233939Y27235D01*
X234558Y27854D01*
X234893Y28662D01*
Y29538D01*
X234614Y30210D01*
X234867Y30633D01*
X235280Y31017D01*
X235562Y30900D01*
X236438D01*
X237246Y31235D01*
X237865Y31854D01*
X238200Y32662D01*
Y33538D01*
X237865Y34346D01*
X237246Y34965D01*
X236438Y35300D01*
D02*
G37*
G36*
X249938Y35000D02*
X249062D01*
X248254Y34665D01*
X247635Y34046D01*
X247300Y33238D01*
Y32362D01*
X247579Y31690D01*
X247326Y31267D01*
X246913Y30883D01*
X246631Y31000D01*
X245755D01*
X245192Y30767D01*
X244657Y31438D01*
X244583Y31597D01*
X244900Y32362D01*
Y33238D01*
X244565Y34046D01*
X243946Y34665D01*
X243138Y35000D01*
X242262D01*
X241454Y34665D01*
X240835Y34046D01*
X240500Y33238D01*
Y32362D01*
X240779Y31690D01*
X240526Y31267D01*
X240113Y30883D01*
X239830Y31000D01*
X238955D01*
X238147Y30665D01*
X237528Y30046D01*
X237193Y29238D01*
Y28362D01*
X237528Y27554D01*
X238147Y26935D01*
X238955Y26600D01*
X239830D01*
X240639Y26935D01*
X241258Y27554D01*
X241593Y28362D01*
Y29238D01*
X241314Y29910D01*
X241567Y30333D01*
X241980Y30717D01*
X242262Y30600D01*
X243138D01*
X243701Y30833D01*
X244235Y30162D01*
X244310Y30003D01*
X243993Y29238D01*
Y28362D01*
X244328Y27554D01*
X244947Y26935D01*
X245755Y26600D01*
X246631D01*
X247439Y26935D01*
X248058Y27554D01*
X248393Y28362D01*
Y29238D01*
X248114Y29910D01*
X248367Y30333D01*
X248780Y30717D01*
X249062Y30600D01*
X249938D01*
X250746Y30935D01*
X251365Y31554D01*
X251700Y32362D01*
Y33238D01*
X251365Y34046D01*
X250746Y34665D01*
X249938Y35000D01*
D02*
G37*
G36*
X199038Y36000D02*
X198162D01*
X197354Y35665D01*
X196735Y35046D01*
X196400Y34238D01*
Y33362D01*
X195499Y32925D01*
X195354Y32865D01*
X194735Y32246D01*
X194400Y31438D01*
Y30562D01*
X194735Y29754D01*
X195354Y29135D01*
X196162Y28800D01*
X197038D01*
X197846Y29135D01*
X198465Y29754D01*
X198800Y30562D01*
Y31438D01*
X199701Y31875D01*
X199846Y31935D01*
X200465Y32554D01*
X200800Y33362D01*
Y34238D01*
X200465Y35046D01*
X199846Y35665D01*
X199038Y36000D01*
D02*
G37*
G36*
X82898Y23000D02*
X82102D01*
X81367Y22695D01*
X80805Y22133D01*
X80500Y21398D01*
Y20602D01*
X80805Y19867D01*
X81367Y19305D01*
X82102Y19000D01*
X82898D01*
X83633Y19305D01*
X84196Y19867D01*
X84500Y20602D01*
Y21398D01*
X84196Y22133D01*
X83633Y22695D01*
X82898Y23000D01*
D02*
G37*
G36*
X77398D02*
X76602D01*
X75867Y22695D01*
X75305Y22133D01*
X75000Y21398D01*
Y20602D01*
X75305Y19867D01*
X75867Y19305D01*
X76602Y19000D01*
X77398D01*
X78133Y19305D01*
X78695Y19867D01*
X79000Y20602D01*
Y21398D01*
X78695Y22133D01*
X78133Y22695D01*
X77398Y23000D01*
D02*
G37*
G36*
X182438Y15600D02*
X181562D01*
X180754Y15265D01*
X180135Y14646D01*
X179800Y13838D01*
Y12962D01*
X180135Y12154D01*
X180754Y11535D01*
X181562Y11200D01*
X182438D01*
X183246Y11535D01*
X183865Y12154D01*
X184200Y12962D01*
Y13838D01*
X183865Y14646D01*
X183246Y15265D01*
X182438Y15600D01*
D02*
G37*
%LPD*%
D53*
X6752Y39016D02*
D03*
Y5000D02*
D03*
Y95000D02*
D03*
Y60984D02*
D03*
D54*
X22500Y39016D02*
D03*
Y5000D02*
D03*
Y95000D02*
D03*
Y60984D02*
D03*
D61*
X260000Y25074D02*
Y26967D01*
X258271Y28696D02*
X260000Y26967D01*
X264400Y5600D02*
Y20674D01*
Y5600D02*
X265000Y5000D01*
X260000Y25074D02*
X264400Y20674D01*
X258271Y28696D02*
Y47755D01*
X254300Y51726D02*
Y76600D01*
Y51726D02*
X258271Y47755D01*
X247700Y83200D02*
X254300Y76600D01*
D68*
X265000Y95000D02*
D03*
Y5000D02*
D03*
D69*
X45000Y95000D02*
D03*
X255000Y5000D02*
D03*
X35000D02*
D03*
X45000D02*
D03*
X55000D02*
D03*
X65000D02*
D03*
X75000D02*
D03*
X85000D02*
D03*
X95000D02*
D03*
X105000D02*
D03*
X115000D02*
D03*
X125000D02*
D03*
X135000D02*
D03*
X145000D02*
D03*
X155000D02*
D03*
X165000D02*
D03*
X175000D02*
D03*
X185000D02*
D03*
X195000D02*
D03*
X205000D02*
D03*
X215000D02*
D03*
X225000D02*
D03*
X235000D02*
D03*
X245000D02*
D03*
X35000Y95000D02*
D03*
X55000D02*
D03*
X65000D02*
D03*
X75000D02*
D03*
X85000D02*
D03*
X95000D02*
D03*
X105000D02*
D03*
X115000D02*
D03*
X125000D02*
D03*
X135000D02*
D03*
X145000D02*
D03*
X155000D02*
D03*
X165000D02*
D03*
X175000D02*
D03*
X185000D02*
D03*
X195000D02*
D03*
X205000D02*
D03*
X215000D02*
D03*
X225000D02*
D03*
X235000D02*
D03*
X245000D02*
D03*
X255000D02*
D03*
D70*
X137500Y50000D02*
D03*
D71*
X142500D02*
D03*
X37500D02*
D03*
Y45000D02*
D03*
D72*
Y55000D02*
D03*
D73*
X98200Y53700D02*
D03*
X101900Y53600D02*
D03*
X106000Y53500D02*
D03*
X109700Y53200D02*
D03*
X113800Y53100D02*
D03*
X78500Y60000D02*
D03*
Y65000D02*
D03*
X91500Y87500D02*
D03*
X251000Y87000D02*
D03*
X254000Y88000D02*
D03*
X264500Y81000D02*
D03*
X37600Y16000D02*
D03*
X178000Y74500D02*
D03*
X151050Y39300D02*
D03*
X95500Y83500D02*
D03*
X147500Y86500D02*
D03*
X182000Y13400D02*
D03*
X176200Y13300D02*
D03*
X172900Y12000D02*
D03*
X196600Y31000D02*
D03*
X198600Y33800D02*
D03*
X202500Y38000D02*
D03*
X181600Y38700D02*
D03*
X178700Y35900D02*
D03*
X183900Y45600D02*
D03*
X192500Y35100D02*
D03*
X182000Y58000D02*
D03*
X200000Y73000D02*
D03*
X193000Y72000D02*
D03*
X155000Y60000D02*
D03*
X243277Y89824D02*
D03*
X148926Y62879D02*
D03*
X29100Y58700D02*
D03*
X45900Y32900D02*
D03*
X51300Y29100D02*
D03*
X88200Y53700D02*
D03*
X92600Y63200D02*
D03*
X267200Y82600D02*
D03*
X256000Y26300D02*
D03*
X47100Y26600D02*
D03*
X69000Y88500D02*
D03*
X36000Y70800D02*
D03*
X39400Y72700D02*
D03*
X38900Y80200D02*
D03*
X49100Y85400D02*
D03*
X88800Y34000D02*
D03*
X131800Y56900D02*
D03*
X89700Y69800D02*
D03*
X54500Y16600D02*
D03*
X53600Y13700D02*
D03*
X84500Y71000D02*
D03*
X239500Y61500D02*
D03*
X268000Y16500D02*
D03*
X261000Y73500D02*
D03*
X257500D02*
D03*
X124500Y79500D02*
D03*
X58500Y16000D02*
D03*
X74914Y87286D02*
D03*
X78800Y84300D02*
D03*
X57000Y59400D02*
D03*
X46100Y65400D02*
D03*
X74900Y51000D02*
D03*
X48000Y71000D02*
D03*
X35000Y86000D02*
D03*
X16000Y91500D02*
D03*
X17000Y64000D02*
D03*
X48000Y74500D02*
D03*
Y78000D02*
D03*
X31500Y77500D02*
D03*
X36500D02*
D03*
X184500Y52500D02*
D03*
X47000Y15000D02*
D03*
X49000Y22500D02*
D03*
Y18500D02*
D03*
X188000Y45500D02*
D03*
Y51000D02*
D03*
X162000Y63000D02*
D03*
X205500Y41000D02*
D03*
X206500Y45000D02*
D03*
Y51500D02*
D03*
X74300Y23600D02*
D03*
X85500Y19500D02*
D03*
X82500Y21000D02*
D03*
X77000D02*
D03*
X113000Y43000D02*
D03*
X109000D02*
D03*
X105200Y42900D02*
D03*
X101100Y43000D02*
D03*
X97400Y43100D02*
D03*
X203000Y52500D02*
D03*
Y44000D02*
D03*
X192121Y60500D02*
D03*
X187100Y61200D02*
D03*
X180400Y61100D02*
D03*
X30800Y9400D02*
D03*
X33300Y40400D02*
D03*
X28900Y39700D02*
D03*
X37600Y24600D02*
D03*
X55000Y28900D02*
D03*
X58500Y29100D02*
D03*
X101700Y49900D02*
D03*
X105800Y49800D02*
D03*
X98000Y50000D02*
D03*
X113600Y49400D02*
D03*
X109500Y49500D02*
D03*
X109200Y35000D02*
D03*
X113300Y34900D02*
D03*
X97700Y35500D02*
D03*
X105500Y35300D02*
D03*
X101400Y35400D02*
D03*
X263200Y26400D02*
D03*
X69000Y79000D02*
D03*
Y75000D02*
D03*
X72500D02*
D03*
Y79000D02*
D03*
X79000Y56000D02*
D03*
X252893Y28600D02*
D03*
X261471Y30022D02*
D03*
Y33022D02*
D03*
Y36522D02*
D03*
Y40022D02*
D03*
X261571Y43322D02*
D03*
X261471Y46522D02*
D03*
X261571Y49922D02*
D03*
X261370Y53422D02*
D03*
X261270Y56722D02*
D03*
X261370Y60122D02*
D03*
X261270Y63322D02*
D03*
Y66722D02*
D03*
X261370Y70122D02*
D03*
X251000Y56000D02*
D03*
X251500Y50000D02*
D03*
X251496Y43504D02*
D03*
X239500Y38500D02*
D03*
X233000Y38000D02*
D03*
X227500Y56500D02*
D03*
X227000Y50000D02*
D03*
X236300Y53300D02*
D03*
X242800Y53200D02*
D03*
Y46700D02*
D03*
X236300D02*
D03*
X194000Y25100D02*
D03*
X63900Y55400D02*
D03*
X205500Y63500D02*
D03*
X200500Y66000D02*
D03*
X204268Y69268D02*
D03*
X61000Y50000D02*
D03*
X246200Y67300D02*
D03*
X215904Y32932D02*
D03*
X216078Y71371D02*
D03*
X246193Y28800D02*
D03*
X249500Y32800D02*
D03*
X239393Y28800D02*
D03*
X242700Y32800D02*
D03*
X232693Y29100D02*
D03*
X236000Y33100D02*
D03*
X226093Y29000D02*
D03*
X229400Y33000D02*
D03*
X219493Y29100D02*
D03*
X222800Y33100D02*
D03*
X222807Y71000D02*
D03*
X219500Y67000D02*
D03*
X229307Y71000D02*
D03*
X226000Y67000D02*
D03*
X233000D02*
D03*
X236000Y70500D02*
D03*
X239500Y68500D02*
D03*
X242807Y72500D02*
D03*
X249500D02*
D03*
D74*
X90300Y86300D02*
X91500Y87500D01*
X90300Y81346D02*
Y86300D01*
Y81346D02*
X95646Y76000D01*
X143500Y50000D02*
Y53657D01*
X248807Y88000D02*
X254000D01*
X69100Y64100D02*
X70200Y65200D01*
X254000Y88000D02*
X254924Y88924D01*
X245430Y84623D02*
X248807Y88000D01*
X70200Y65488D02*
X80912Y76200D01*
X87654D01*
X70200Y65200D02*
Y65488D01*
X69100Y53246D02*
Y64100D01*
X254924Y88924D02*
Y94924D01*
X65354Y49500D02*
X69100Y53246D01*
X71300Y28800D02*
X120654D01*
X58500Y16000D02*
X71300Y28800D01*
X55900Y16000D02*
X58500D01*
X243700Y84400D02*
X243923Y84623D01*
X187900Y84400D02*
X243700D01*
X243923Y84623D02*
X245430D01*
X178000Y74500D02*
X187900Y84400D01*
X126854Y74500D02*
X143400D01*
Y53757D02*
Y74500D01*
Y53757D02*
X143500Y53657D01*
X143400Y74500D02*
X178000D01*
X126654Y74300D02*
X126854Y74500D01*
X97346Y74300D02*
X126654D01*
X95646Y76000D02*
X97346Y74300D01*
X120654Y28800D02*
X128500Y36646D01*
X254924Y94924D02*
X255000Y95000D01*
X62500Y49500D02*
X65354D01*
X87854Y76000D02*
X95646D01*
X87654Y76200D02*
X87854Y76000D01*
X128500Y42000D02*
X136000Y49500D01*
X128500Y36646D02*
Y42000D01*
D75*
X142500Y50000D02*
X143500D01*
M02*
