G04*
G04 #@! TF.GenerationSoftware,Altium Limited,Altium Designer,24.5.2 (23)*
G04*
G04 Layer_Color=32896*
%FSLAX25Y25*%
%MOIN*%
G70*
G04*
G04 #@! TF.SameCoordinates,E4EE70D6-3671-4E5A-A7CB-3E81B9B691F3*
G04*
G04*
G04 #@! TF.FilePolarity,Positive*
G04*
G01*
G75*
%ADD12C,0.01000*%
%ADD13C,0.00600*%
D12*
X270000Y0D02*
Y10000D01*
X30000D02*
X270000D01*
X30000Y0D02*
Y10000D01*
Y0D02*
X270000D01*
Y90000D02*
Y100000D01*
X30000D02*
X270000D01*
X30000Y90000D02*
Y100000D01*
Y90000D02*
X270000D01*
D13*
X267400Y72401D02*
X265401Y74400D01*
X263401Y72401D01*
X265401Y70401D02*
Y67735D01*
Y66403D02*
Y63737D01*
Y62404D02*
Y59738D01*
X267400Y58405D02*
X263401D01*
Y56406D01*
X264068Y55739D01*
X265401D01*
X266067Y56406D01*
Y58405D01*
X263401Y54406D02*
Y53074D01*
Y53740D01*
X267400D01*
Y54406D01*
Y53074D01*
Y51074D02*
X263401D01*
X267400Y48408D01*
X263401D01*
X267400Y47076D02*
Y45743D01*
Y46409D01*
X263401D01*
X264068Y47076D01*
X265401Y43743D02*
Y41077D01*
Y39744D02*
Y37079D01*
Y35746D02*
Y33080D01*
X267400Y31747D02*
X265401Y29748D01*
X263401Y31747D01*
X174734Y39599D02*
X177400D01*
Y35600D01*
X174734D01*
X177400Y37599D02*
X176067D01*
X170736Y38932D02*
X171402Y39599D01*
X172735D01*
X173401Y38932D01*
Y38266D01*
X172735Y37599D01*
X171402D01*
X170736Y36933D01*
Y36266D01*
X171402Y35600D01*
X172735D01*
X173401Y36266D01*
X169403Y35600D02*
Y39599D01*
X167403D01*
X166737Y38932D01*
Y37599D01*
X167403Y36933D01*
X169403D01*
X165404Y38932D02*
X164737Y39599D01*
X163405D01*
X162738Y38932D01*
Y38266D01*
X163405Y37599D01*
X164071D01*
X163405D01*
X162738Y36933D01*
Y36266D01*
X163405Y35600D01*
X164737D01*
X165404Y36266D01*
X158739Y35600D02*
X161405D01*
X158739Y38266D01*
Y38932D01*
X159406Y39599D01*
X160739D01*
X161405Y38932D01*
X153408Y39599D02*
Y35600D01*
X152075Y36933D01*
X150742Y35600D01*
Y39599D01*
X149409D02*
X148076D01*
X148743D01*
Y35600D01*
X149409D01*
X148076D01*
X146077Y39599D02*
X143411D01*
X144744D01*
Y35600D01*
X142078Y39599D02*
Y35600D01*
Y37599D01*
X139412D01*
Y39599D01*
Y35600D01*
X134081Y39599D02*
Y36266D01*
X133414Y35600D01*
X132081D01*
X131415Y36266D01*
Y39599D01*
X127416Y38932D02*
X128083Y39599D01*
X129416D01*
X130082Y38932D01*
Y38266D01*
X129416Y37599D01*
X128083D01*
X127416Y36933D01*
Y36266D01*
X128083Y35600D01*
X129416D01*
X130082Y36266D01*
X126083Y39599D02*
Y35600D01*
X124084D01*
X123417Y36266D01*
Y36933D01*
X124084Y37599D01*
X126083D01*
X124084D01*
X123417Y38266D01*
Y38932D01*
X124084Y39599D01*
X126083D01*
X122084Y37599D02*
X119419D01*
X115420Y38932D02*
X116086Y39599D01*
X117419D01*
X118086Y38932D01*
Y36266D01*
X117419Y35600D01*
X116086D01*
X115420Y36266D01*
X190567Y42100D02*
X191900Y43433D01*
Y44766D01*
X190567Y46099D01*
X185902Y45432D02*
X186568Y46099D01*
X187901D01*
X188568Y45432D01*
Y42766D01*
X187901Y42100D01*
X186568D01*
X185902Y42766D01*
X184569Y42100D02*
X183236Y43433D01*
Y44766D01*
X184569Y46099D01*
X174572Y45432D02*
X175239Y46099D01*
X176572D01*
X177238Y45432D01*
Y42766D01*
X176572Y42100D01*
X175239D01*
X174572Y42766D01*
Y44099D01*
X175905D01*
X173239Y42100D02*
Y44766D01*
X171906Y46099D01*
X170574Y44766D01*
Y42100D01*
Y44099D01*
X173239D01*
X169241Y46099D02*
Y42100D01*
X167241D01*
X166575Y42766D01*
Y45432D01*
X167241Y46099D01*
X169241D01*
X165242D02*
X163909D01*
X164576D01*
Y42100D01*
X165242D01*
X163909D01*
X161910Y46099D02*
Y42100D01*
X159244D01*
X157911Y46099D02*
X156578D01*
X157245D01*
Y42100D01*
X157911D01*
X156578D01*
X154579D02*
Y46099D01*
X151913Y42100D01*
Y46099D01*
X147914Y45432D02*
X148581Y46099D01*
X149914D01*
X150580Y45432D01*
Y42766D01*
X149914Y42100D01*
X148581D01*
X147914Y42766D01*
Y44099D01*
X149247D01*
X146581Y42100D02*
Y44766D01*
X145248Y46099D01*
X143915Y44766D01*
Y42100D01*
Y44099D01*
X146581D01*
X142583Y42100D02*
Y46099D01*
X140583D01*
X139917Y45432D01*
Y44099D01*
X140583Y43433D01*
X142583D01*
X141250D02*
X139917Y42100D01*
X135918Y46099D02*
X138584D01*
Y42100D01*
X135918D01*
X138584Y44099D02*
X137251D01*
X134585Y46099D02*
Y42100D01*
X132586D01*
X131919Y42766D01*
Y45432D01*
X132586Y46099D01*
X134585D01*
X130586D02*
Y42100D01*
X128587D01*
X127921Y42766D01*
Y45432D01*
X128587Y46099D01*
X130586D01*
X126588D02*
Y45432D01*
X125255Y44099D01*
X123922Y45432D01*
Y46099D01*
X125255Y44099D02*
Y42100D01*
X115925Y45432D02*
X116591Y46099D01*
X117924D01*
X118590Y45432D01*
Y42766D01*
X117924Y42100D01*
X116591D01*
X115925Y42766D01*
Y44099D01*
X117257D01*
X110593Y42100D02*
Y46099D01*
X109260Y44766D01*
X107927Y46099D01*
Y42100D01*
X63401Y26900D02*
X66734D01*
X67400Y26234D01*
Y24901D01*
X66734Y24234D01*
X63401D01*
X64068Y20235D02*
X63401Y20902D01*
Y22235D01*
X64068Y22901D01*
X64734D01*
X65401Y22235D01*
Y20902D01*
X66067Y20235D01*
X66734D01*
X67400Y20902D01*
Y22235D01*
X66734Y22901D01*
X63401Y18903D02*
X67400D01*
Y16903D01*
X66734Y16237D01*
X66067D01*
X65401Y16903D01*
Y18903D01*
Y16903D01*
X64734Y16237D01*
X64068D01*
X63401Y16903D01*
Y18903D01*
X65401Y14904D02*
Y12238D01*
X53945Y27082D02*
Y25749D01*
Y26415D01*
X57944D01*
Y27082D01*
Y25749D01*
X53945Y21750D02*
Y23083D01*
X54611Y23749D01*
X57277D01*
X57944Y23083D01*
Y21750D01*
X57277Y21083D01*
X54611D01*
X53945Y21750D01*
X57944Y17751D02*
X53945D01*
X55944Y19751D01*
Y17085D01*
X54611Y15752D02*
X53945Y15086D01*
Y13753D01*
X54611Y13086D01*
X55278D01*
X55944Y13753D01*
X56611Y13086D01*
X57277D01*
X57944Y13753D01*
Y15086D01*
X57277Y15752D01*
X56611D01*
X55944Y15086D01*
X55278Y15752D01*
X54611D01*
X55944Y15086D02*
Y13753D01*
X43901Y27400D02*
Y26067D01*
Y26734D01*
X47900D01*
Y27400D01*
Y26067D01*
X43901Y22068D02*
Y23401D01*
X44568Y24068D01*
X47234D01*
X47900Y23401D01*
Y22068D01*
X47234Y21402D01*
X44568D01*
X43901Y22068D01*
X47900Y18070D02*
X43901D01*
X45901Y20069D01*
Y17403D01*
X43901Y16070D02*
Y13405D01*
X44568D01*
X47234Y16070D01*
X47900D01*
X34111Y24416D02*
X33445Y25082D01*
Y26415D01*
X34111Y27082D01*
X36777D01*
X37444Y26415D01*
Y25082D01*
X36777Y24416D01*
X35444D01*
Y25749D01*
X37444Y23083D02*
X33445D01*
X37444Y20417D01*
X33445D01*
Y19084D02*
X37444D01*
Y17085D01*
X36777Y16418D01*
X34111D01*
X33445Y17085D01*
Y19084D01*
X103901Y26900D02*
Y25567D01*
Y26234D01*
X107900D01*
Y26900D01*
Y25567D01*
X103901Y21568D02*
Y22901D01*
X104568Y23568D01*
X107234D01*
X107900Y22901D01*
Y21568D01*
X107234Y20902D01*
X104568D01*
X103901Y21568D01*
X104568Y19569D02*
X103901Y18903D01*
Y17570D01*
X104568Y16903D01*
X105234D01*
X105901Y17570D01*
Y18236D01*
Y17570D01*
X106567Y16903D01*
X107234D01*
X107900Y17570D01*
Y18903D01*
X107234Y19569D01*
X104568Y15570D02*
X103901Y14904D01*
Y13571D01*
X104568Y12904D01*
X105234D01*
X105901Y13571D01*
Y14237D01*
Y13571D01*
X106567Y12904D01*
X107234D01*
X107900Y13571D01*
Y14904D01*
X107234Y15570D01*
X94401Y26900D02*
Y25567D01*
Y26234D01*
X98400D01*
Y26900D01*
Y25567D01*
X94401Y21568D02*
Y22901D01*
X95068Y23568D01*
X97734D01*
X98400Y22901D01*
Y21568D01*
X97734Y20902D01*
X95068D01*
X94401Y21568D01*
X98400Y16903D02*
Y19569D01*
X95734Y16903D01*
X95068D01*
X94401Y17570D01*
Y18903D01*
X95068Y19569D01*
X94401Y12904D02*
X95068Y14237D01*
X96401Y15570D01*
X97734D01*
X98400Y14904D01*
Y13571D01*
X97734Y12904D01*
X97067D01*
X96401Y13571D01*
Y15570D01*
X84401Y26900D02*
Y25567D01*
Y26234D01*
X88400D01*
Y26900D01*
Y25567D01*
X84401Y21568D02*
Y22901D01*
X85068Y23568D01*
X87734D01*
X88400Y22901D01*
Y21568D01*
X87734Y20902D01*
X85068D01*
X84401Y21568D01*
X88400Y16903D02*
Y19569D01*
X85734Y16903D01*
X85068D01*
X84401Y17570D01*
Y18903D01*
X85068Y19569D01*
X88400Y15570D02*
Y14237D01*
Y14904D01*
X84401D01*
X85068Y15570D01*
X73945Y27082D02*
X77277D01*
X77944Y26415D01*
Y25082D01*
X77277Y24416D01*
X73945D01*
X74612Y20417D02*
X73945Y21083D01*
Y22416D01*
X74612Y23083D01*
X75278D01*
X75944Y22416D01*
Y21083D01*
X76611Y20417D01*
X77277D01*
X77944Y21083D01*
Y22416D01*
X77277Y23083D01*
X73945Y19084D02*
X77944D01*
Y17085D01*
X77277Y16418D01*
X76611D01*
X75944Y17085D01*
Y19084D01*
Y17085D01*
X75278Y16418D01*
X74612D01*
X73945Y17085D01*
Y19084D01*
X75944Y15086D02*
Y12420D01*
X74612Y13753D02*
X77277D01*
X142901Y26400D02*
Y25067D01*
Y25734D01*
X146900D01*
Y26400D01*
Y25067D01*
X142901Y21068D02*
Y22401D01*
X143568Y23068D01*
X146233D01*
X146900Y22401D01*
Y21068D01*
X146233Y20402D01*
X143568D01*
X142901Y21068D01*
X143568Y19069D02*
X142901Y18403D01*
Y17070D01*
X143568Y16403D01*
X144234D01*
X144901Y17070D01*
Y17736D01*
Y17070D01*
X145567Y16403D01*
X146233D01*
X146900Y17070D01*
Y18403D01*
X146233Y19069D01*
X142901Y15070D02*
Y12404D01*
X143568D01*
X146233Y15070D01*
X146900D01*
X133445Y26582D02*
Y25249D01*
Y25915D01*
X137444D01*
Y26582D01*
Y25249D01*
X133445Y21250D02*
Y22583D01*
X134111Y23249D01*
X136777D01*
X137444Y22583D01*
Y21250D01*
X136777Y20583D01*
X134111D01*
X133445Y21250D01*
X134111Y19251D02*
X133445Y18584D01*
Y17251D01*
X134111Y16585D01*
X134778D01*
X135444Y17251D01*
Y17918D01*
Y17251D01*
X136111Y16585D01*
X136777D01*
X137444Y17251D01*
Y18584D01*
X136777Y19251D01*
X133445Y12586D02*
X134111Y13919D01*
X135444Y15252D01*
X136777D01*
X137444Y14585D01*
Y13253D01*
X136777Y12586D01*
X136111D01*
X135444Y13253D01*
Y15252D01*
X123401Y26400D02*
Y25067D01*
Y25734D01*
X127400D01*
Y26400D01*
Y25067D01*
X123401Y21068D02*
Y22401D01*
X124068Y23068D01*
X126734D01*
X127400Y22401D01*
Y21068D01*
X126734Y20402D01*
X124068D01*
X123401Y21068D01*
X124068Y19069D02*
X123401Y18403D01*
Y17070D01*
X124068Y16403D01*
X124734D01*
X125401Y17070D01*
Y17736D01*
Y17070D01*
X126067Y16403D01*
X126734D01*
X127400Y17070D01*
Y18403D01*
X126734Y19069D01*
X123401Y12404D02*
Y15070D01*
X125401D01*
X124734Y13737D01*
Y13071D01*
X125401Y12404D01*
X126734D01*
X127400Y13071D01*
Y14404D01*
X126734Y15070D01*
X112945Y27082D02*
Y25749D01*
Y26415D01*
X116944D01*
Y27082D01*
Y25749D01*
X112945Y21750D02*
Y23083D01*
X113611Y23749D01*
X116277D01*
X116944Y23083D01*
Y21750D01*
X116277Y21083D01*
X113611D01*
X112945Y21750D01*
X113611Y19751D02*
X112945Y19084D01*
Y17751D01*
X113611Y17085D01*
X114278D01*
X114944Y17751D01*
Y18418D01*
Y17751D01*
X115611Y17085D01*
X116277D01*
X116944Y17751D01*
Y19084D01*
X116277Y19751D01*
X116944Y13753D02*
X112945D01*
X114944Y15752D01*
Y13086D01*
X182901Y26400D02*
Y25067D01*
Y25734D01*
X186900D01*
Y26400D01*
Y25067D01*
X182901Y21068D02*
Y22401D01*
X183568Y23068D01*
X186233D01*
X186900Y22401D01*
Y21068D01*
X186233Y20402D01*
X183568D01*
X182901Y21068D01*
X186900Y17070D02*
X182901D01*
X184901Y19069D01*
Y16403D01*
X186900Y15070D02*
Y13737D01*
Y14404D01*
X182901D01*
X183568Y15070D01*
X173901Y26400D02*
Y25067D01*
Y25734D01*
X177900D01*
Y26400D01*
Y25067D01*
X173901Y21068D02*
Y22401D01*
X174568Y23068D01*
X177234D01*
X177900Y22401D01*
Y21068D01*
X177234Y20402D01*
X174568D01*
X173901Y21068D01*
X177900Y17070D02*
X173901D01*
X175901Y19069D01*
Y16403D01*
X174568Y15070D02*
X173901Y14404D01*
Y13071D01*
X174568Y12404D01*
X177234D01*
X177900Y13071D01*
Y14404D01*
X177234Y15070D01*
X174568D01*
X163901Y26400D02*
Y25067D01*
Y25734D01*
X167900D01*
Y26400D01*
Y25067D01*
X163901Y21068D02*
Y22401D01*
X164568Y23068D01*
X167234D01*
X167900Y22401D01*
Y21068D01*
X167234Y20402D01*
X164568D01*
X163901Y21068D01*
X164568Y19069D02*
X163901Y18403D01*
Y17070D01*
X164568Y16403D01*
X165234D01*
X165901Y17070D01*
Y17736D01*
Y17070D01*
X166567Y16403D01*
X167234D01*
X167900Y17070D01*
Y18403D01*
X167234Y19069D01*
Y15070D02*
X167900Y14404D01*
Y13071D01*
X167234Y12404D01*
X164568D01*
X163901Y13071D01*
Y14404D01*
X164568Y15070D01*
X165234D01*
X165901Y14404D01*
Y12404D01*
X152945Y26082D02*
Y24749D01*
Y25415D01*
X156944D01*
Y26082D01*
Y24749D01*
X152945Y20750D02*
Y22083D01*
X153612Y22749D01*
X156277D01*
X156944Y22083D01*
Y20750D01*
X156277Y20084D01*
X153612D01*
X152945Y20750D01*
X153612Y18751D02*
X152945Y18084D01*
Y16751D01*
X153612Y16085D01*
X154278D01*
X154944Y16751D01*
Y17418D01*
Y16751D01*
X155611Y16085D01*
X156277D01*
X156944Y16751D01*
Y18084D01*
X156277Y18751D01*
X153612Y14752D02*
X152945Y14085D01*
Y12753D01*
X153612Y12086D01*
X154278D01*
X154944Y12753D01*
X155611Y12086D01*
X156277D01*
X156944Y12753D01*
Y14085D01*
X156277Y14752D01*
X155611D01*
X154944Y14085D01*
X154278Y14752D01*
X153612D01*
X154944Y14085D02*
Y12753D01*
X223401Y26400D02*
Y25067D01*
Y25734D01*
X227400D01*
Y26400D01*
Y25067D01*
X223401Y21068D02*
Y22401D01*
X224068Y23068D01*
X226734D01*
X227400Y22401D01*
Y21068D01*
X226734Y20402D01*
X224068D01*
X223401Y21068D01*
X227400Y17070D02*
X223401D01*
X225401Y19069D01*
Y16403D01*
X223401Y12404D02*
Y15070D01*
X225401D01*
X224734Y13737D01*
Y13071D01*
X225401Y12404D01*
X226734D01*
X227400Y13071D01*
Y14404D01*
X226734Y15070D01*
X217900Y26400D02*
X213901D01*
Y24401D01*
X214568Y23734D01*
X215901D01*
X216567Y24401D01*
Y26400D01*
Y25067D02*
X217900Y23734D01*
X213901Y22401D02*
X217900Y19736D01*
X213901D02*
X217900Y22401D01*
X213901Y18403D02*
X217900D01*
Y16403D01*
X217234Y15737D01*
X214568D01*
X213901Y16403D01*
Y18403D01*
X203901Y26400D02*
Y23734D01*
Y25067D01*
X207900D01*
X203901Y22401D02*
X207900Y19736D01*
X203901D02*
X207900Y22401D01*
X203901Y18403D02*
X207900D01*
Y16403D01*
X207234Y15737D01*
X204568D01*
X203901Y16403D01*
Y18403D01*
X193401Y26400D02*
Y25067D01*
Y25734D01*
X197400D01*
Y26400D01*
Y25067D01*
X193401Y21068D02*
Y22401D01*
X194068Y23068D01*
X196733D01*
X197400Y22401D01*
Y21068D01*
X196733Y20402D01*
X194068D01*
X193401Y21068D01*
X197400Y17070D02*
X193401D01*
X195401Y19069D01*
Y16403D01*
X197400Y12404D02*
Y15070D01*
X194734Y12404D01*
X194068D01*
X193401Y13071D01*
Y14404D01*
X194068Y15070D01*
X233901Y26400D02*
Y25067D01*
Y25734D01*
X237900D01*
Y26400D01*
Y25067D01*
X233901Y21068D02*
Y22401D01*
X234568Y23068D01*
X237234D01*
X237900Y22401D01*
Y21068D01*
X237234Y20402D01*
X234568D01*
X233901Y21068D01*
X237900Y17070D02*
X233901D01*
X235901Y19069D01*
Y16403D01*
X233901Y12404D02*
X234568Y13737D01*
X235901Y15070D01*
X237234D01*
X237900Y14404D01*
Y13071D01*
X237234Y12404D01*
X236567D01*
X235901Y13071D01*
Y15070D01*
X243901Y24234D02*
Y26900D01*
X247900D01*
Y24234D01*
X245901Y26900D02*
Y25567D01*
X247900Y22901D02*
X243901D01*
X247900Y20235D01*
X243901D01*
X254611Y23916D02*
X253945Y24582D01*
Y25915D01*
X254611Y26582D01*
X257277D01*
X257944Y25915D01*
Y24582D01*
X257277Y23916D01*
X255944D01*
Y25249D01*
X257944Y22583D02*
X253945D01*
X257944Y19917D01*
X253945D01*
Y18584D02*
X257944D01*
Y16585D01*
X257277Y15918D01*
X254611D01*
X253945Y16585D01*
Y18584D01*
X264068Y26400D02*
X263401Y25734D01*
Y24401D01*
X264068Y23734D01*
X264734D01*
X265401Y24401D01*
Y25067D01*
Y24401D01*
X266067Y23734D01*
X266734D01*
X267400Y24401D01*
Y25734D01*
X266734Y26400D01*
X263401Y22401D02*
X266067D01*
X267400Y21068D01*
X266067Y19736D01*
X263401D01*
X264068Y18403D02*
X263401Y17736D01*
Y16403D01*
X264068Y15737D01*
X264734D01*
X265401Y16403D01*
Y17070D01*
Y16403D01*
X266067Y15737D01*
X266734D01*
X267400Y16403D01*
Y17736D01*
X266734Y18403D01*
X36400Y87900D02*
X32401D01*
X36400Y85234D01*
X32401D01*
X33068Y81235D02*
X32401Y81902D01*
Y83235D01*
X33068Y83901D01*
X35734D01*
X36400Y83235D01*
Y81902D01*
X35734Y81235D01*
X63401Y87400D02*
Y86067D01*
Y86734D01*
X67400D01*
Y87400D01*
Y86067D01*
X63401Y82068D02*
Y83401D01*
X64068Y84068D01*
X66734D01*
X67400Y83401D01*
Y82068D01*
X66734Y81402D01*
X64068D01*
X63401Y82068D01*
X67400Y80069D02*
Y78736D01*
Y79403D01*
X63401D01*
X64068Y80069D01*
Y76737D02*
X63401Y76070D01*
Y74737D01*
X64068Y74071D01*
X64734D01*
X65401Y74737D01*
X66067Y74071D01*
X66734D01*
X67400Y74737D01*
Y76070D01*
X66734Y76737D01*
X66067D01*
X65401Y76070D01*
X64734Y76737D01*
X64068D01*
X65401Y76070D02*
Y74737D01*
X53401Y85234D02*
Y87900D01*
X55401D01*
X54734Y86567D01*
Y85901D01*
X55401Y85234D01*
X56734D01*
X57400Y85901D01*
Y87234D01*
X56734Y87900D01*
X53401Y83901D02*
X56067D01*
X57400Y82568D01*
X56067Y81235D01*
X53401D01*
X43568Y85234D02*
X42901Y85901D01*
Y87234D01*
X43568Y87900D01*
X46234D01*
X46900Y87234D01*
Y85901D01*
X46234Y85234D01*
X44901D01*
Y86567D01*
X46900Y83901D02*
X42901D01*
X46900Y81235D01*
X42901D01*
Y79903D02*
X46900D01*
Y77903D01*
X46234Y77237D01*
X43568D01*
X42901Y77903D01*
Y79903D01*
X92901Y87900D02*
Y86567D01*
Y87234D01*
X96900D01*
Y87900D01*
Y86567D01*
X92901Y82568D02*
Y83901D01*
X93568Y84568D01*
X96234D01*
X96900Y83901D01*
Y82568D01*
X96234Y81902D01*
X93568D01*
X92901Y82568D01*
X96900Y80569D02*
Y79236D01*
Y79903D01*
X92901D01*
X93568Y80569D01*
X92901Y74571D02*
Y77237D01*
X94901D01*
X94234Y75904D01*
Y75237D01*
X94901Y74571D01*
X96234D01*
X96900Y75237D01*
Y76570D01*
X96234Y77237D01*
X82901Y87900D02*
Y86567D01*
Y87234D01*
X86900D01*
Y87900D01*
Y86567D01*
X82901Y82568D02*
Y83901D01*
X83568Y84568D01*
X86234D01*
X86900Y83901D01*
Y82568D01*
X86234Y81902D01*
X83568D01*
X82901Y82568D01*
X86900Y80569D02*
Y79236D01*
Y79903D01*
X82901D01*
X83568Y80569D01*
X82901Y74571D02*
X83568Y75904D01*
X84901Y77237D01*
X86234D01*
X86900Y76570D01*
Y75237D01*
X86234Y74571D01*
X85567D01*
X84901Y75237D01*
Y77237D01*
X72401Y87900D02*
Y86567D01*
Y87234D01*
X76400D01*
Y87900D01*
Y86567D01*
X72401Y82568D02*
Y83901D01*
X73068Y84568D01*
X75734D01*
X76400Y83901D01*
Y82568D01*
X75734Y81902D01*
X73068D01*
X72401Y82568D01*
X76400Y80569D02*
Y79236D01*
Y79903D01*
X72401D01*
X73068Y80569D01*
X72401Y77237D02*
Y74571D01*
X73068D01*
X75734Y77237D01*
X76400D01*
X123401Y87900D02*
Y86567D01*
Y87234D01*
X127400D01*
Y87900D01*
Y86567D01*
X123401Y82568D02*
Y83901D01*
X124068Y84568D01*
X126734D01*
X127400Y83901D01*
Y82568D01*
X126734Y81902D01*
X124068D01*
X123401Y82568D01*
X127400Y80569D02*
Y79236D01*
Y79903D01*
X123401D01*
X124068Y80569D01*
X127400Y74571D02*
Y77237D01*
X124734Y74571D01*
X124068D01*
X123401Y75237D01*
Y76570D01*
X124068Y77237D01*
X113401Y87900D02*
Y86567D01*
Y87234D01*
X117400D01*
Y87900D01*
Y86567D01*
X113401Y82568D02*
Y83901D01*
X114068Y84568D01*
X116734D01*
X117400Y83901D01*
Y82568D01*
X116734Y81902D01*
X114068D01*
X113401Y82568D01*
X117400Y80569D02*
Y79236D01*
Y79903D01*
X113401D01*
X114068Y80569D01*
Y77237D02*
X113401Y76570D01*
Y75237D01*
X114068Y74571D01*
X114734D01*
X115401Y75237D01*
Y75904D01*
Y75237D01*
X116067Y74571D01*
X116734D01*
X117400Y75237D01*
Y76570D01*
X116734Y77237D01*
X102901Y87900D02*
Y86567D01*
Y87234D01*
X106900D01*
Y87900D01*
Y86567D01*
X102901Y82568D02*
Y83901D01*
X103568Y84568D01*
X106234D01*
X106900Y83901D01*
Y82568D01*
X106234Y81902D01*
X103568D01*
X102901Y82568D01*
X106900Y80569D02*
Y79236D01*
Y79903D01*
X102901D01*
X103568Y80569D01*
X106900Y75237D02*
X102901D01*
X104901Y77237D01*
Y74571D01*
X153401Y87900D02*
Y86567D01*
Y87234D01*
X157400D01*
Y87900D01*
Y86567D01*
X153401Y82568D02*
Y83901D01*
X154068Y84568D01*
X156734D01*
X157400Y83901D01*
Y82568D01*
X156734Y81902D01*
X154068D01*
X153401Y82568D01*
X156734Y80569D02*
X157400Y79903D01*
Y78570D01*
X156734Y77903D01*
X154068D01*
X153401Y78570D01*
Y79903D01*
X154068Y80569D01*
X154734D01*
X155401Y79903D01*
Y77903D01*
X143401Y87900D02*
Y86567D01*
Y87234D01*
X147400D01*
Y87900D01*
Y86567D01*
X143401Y82568D02*
Y83901D01*
X144068Y84568D01*
X146733D01*
X147400Y83901D01*
Y82568D01*
X146733Y81902D01*
X144068D01*
X143401Y82568D01*
X147400Y80569D02*
Y79236D01*
Y79903D01*
X143401D01*
X144068Y80569D01*
Y77237D02*
X143401Y76570D01*
Y75237D01*
X144068Y74571D01*
X146733D01*
X147400Y75237D01*
Y76570D01*
X146733Y77237D01*
X144068D01*
X132901Y87900D02*
Y86567D01*
Y87234D01*
X136900D01*
Y87900D01*
Y86567D01*
X132901Y82568D02*
Y83901D01*
X133568Y84568D01*
X136233D01*
X136900Y83901D01*
Y82568D01*
X136233Y81902D01*
X133568D01*
X132901Y82568D01*
X136900Y80569D02*
Y79236D01*
Y79903D01*
X132901D01*
X133568Y80569D01*
X136900Y77237D02*
Y75904D01*
Y76570D01*
X132901D01*
X133568Y77237D01*
X183401Y87900D02*
Y86567D01*
Y87234D01*
X187400D01*
Y87900D01*
Y86567D01*
X183401Y82568D02*
Y83901D01*
X184068Y84568D01*
X186733D01*
X187400Y83901D01*
Y82568D01*
X186733Y81902D01*
X184068D01*
X183401Y82568D01*
Y77903D02*
X184068Y79236D01*
X185401Y80569D01*
X186733D01*
X187400Y79903D01*
Y78570D01*
X186733Y77903D01*
X186067D01*
X185401Y78570D01*
Y80569D01*
X173401Y87900D02*
Y86567D01*
Y87234D01*
X177400D01*
Y87900D01*
Y86567D01*
X173401Y82568D02*
Y83901D01*
X174068Y84568D01*
X176734D01*
X177400Y83901D01*
Y82568D01*
X176734Y81902D01*
X174068D01*
X173401Y82568D01*
Y80569D02*
Y77903D01*
X174068D01*
X176734Y80569D01*
X177400D01*
X162901Y87900D02*
Y86567D01*
Y87234D01*
X166900D01*
Y87900D01*
Y86567D01*
X162901Y82568D02*
Y83901D01*
X163568Y84568D01*
X166234D01*
X166900Y83901D01*
Y82568D01*
X166234Y81902D01*
X163568D01*
X162901Y82568D01*
X163568Y80569D02*
X162901Y79903D01*
Y78570D01*
X163568Y77903D01*
X164234D01*
X164901Y78570D01*
X165567Y77903D01*
X166234D01*
X166900Y78570D01*
Y79903D01*
X166234Y80569D01*
X165567D01*
X164901Y79903D01*
X164234Y80569D01*
X163568D01*
X164901Y79903D02*
Y78570D01*
X214401Y87900D02*
Y86567D01*
Y87234D01*
X218400D01*
Y87900D01*
Y86567D01*
X214401Y82568D02*
Y83901D01*
X215068Y84568D01*
X217734D01*
X218400Y83901D01*
Y82568D01*
X217734Y81902D01*
X215068D01*
X214401Y82568D01*
X215068Y80569D02*
X214401Y79903D01*
Y78570D01*
X215068Y77903D01*
X215734D01*
X216401Y78570D01*
Y79236D01*
Y78570D01*
X217067Y77903D01*
X217734D01*
X218400Y78570D01*
Y79903D01*
X217734Y80569D01*
X204401Y87900D02*
Y86567D01*
Y87234D01*
X208400D01*
Y87900D01*
Y86567D01*
X204401Y82568D02*
Y83901D01*
X205068Y84568D01*
X207734D01*
X208400Y83901D01*
Y82568D01*
X207734Y81902D01*
X205068D01*
X204401Y82568D01*
X208400Y78570D02*
X204401D01*
X206401Y80569D01*
Y77903D01*
X193901Y87900D02*
Y86567D01*
Y87234D01*
X197900D01*
Y87900D01*
Y86567D01*
X193901Y82568D02*
Y83901D01*
X194568Y84568D01*
X197233D01*
X197900Y83901D01*
Y82568D01*
X197233Y81902D01*
X194568D01*
X193901Y82568D01*
Y77903D02*
Y80569D01*
X195901D01*
X195234Y79236D01*
Y78570D01*
X195901Y77903D01*
X197233D01*
X197900Y78570D01*
Y79903D01*
X197233Y80569D01*
X222401Y87900D02*
Y86567D01*
Y87234D01*
X226400D01*
Y87900D01*
Y86567D01*
X222401Y82568D02*
Y83901D01*
X223068Y84568D01*
X225734D01*
X226400Y83901D01*
Y82568D01*
X225734Y81902D01*
X223068D01*
X222401Y82568D01*
X226400Y77903D02*
Y80569D01*
X223734Y77903D01*
X223068D01*
X222401Y78570D01*
Y79903D01*
X223068Y80569D01*
X232901Y87900D02*
Y86567D01*
Y87234D01*
X236900D01*
Y87900D01*
Y86567D01*
X232901Y82568D02*
Y83901D01*
X233568Y84568D01*
X236234D01*
X236900Y83901D01*
Y82568D01*
X236234Y81902D01*
X233568D01*
X232901Y82568D01*
X236900Y80569D02*
Y79236D01*
Y79903D01*
X232901D01*
X233568Y80569D01*
X242901Y87900D02*
Y86567D01*
Y87234D01*
X246900D01*
Y87900D01*
Y86567D01*
X242901Y82568D02*
Y83901D01*
X243568Y84568D01*
X246234D01*
X246900Y83901D01*
Y82568D01*
X246234Y81902D01*
X243568D01*
X242901Y82568D01*
X243568Y80569D02*
X242901Y79903D01*
Y78570D01*
X243568Y77903D01*
X246234D01*
X246900Y78570D01*
Y79903D01*
X246234Y80569D01*
X243568D01*
X252568Y87900D02*
X251901Y87234D01*
Y85901D01*
X252568Y85234D01*
X253234D01*
X253901Y85901D01*
Y86567D01*
Y85901D01*
X254567Y85234D01*
X255234D01*
X255900Y85901D01*
Y87234D01*
X255234Y87900D01*
X251901Y83901D02*
X254567D01*
X255900Y82568D01*
X254567Y81235D01*
X251901D01*
X252568Y79903D02*
X251901Y79236D01*
Y77903D01*
X252568Y77237D01*
X253234D01*
X253901Y77903D01*
Y78570D01*
Y77903D01*
X254567Y77237D01*
X255234D01*
X255900Y77903D01*
Y79236D01*
X255234Y79903D01*
X264068Y85234D02*
X263401Y85901D01*
Y87234D01*
X264068Y87900D01*
X266734D01*
X267400Y87234D01*
Y85901D01*
X266734Y85234D01*
X265401D01*
Y86567D01*
X267400Y83901D02*
X263401D01*
X267400Y81235D01*
X263401D01*
Y79903D02*
X267400D01*
Y77903D01*
X266734Y77237D01*
X264068D01*
X263401Y77903D01*
Y79903D01*
X262700Y-3400D02*
Y-2067D01*
Y-2733D01*
X266699D01*
X266032Y-3400D01*
X262100Y102100D02*
Y103433D01*
Y102767D01*
X266099D01*
X265432Y102100D01*
M02*
