M48
;Layer_Color=9474304
;FILE_FORMAT=2:5
INCH,LZ
;TYPE=PLATED
T01F00S00C0.01200
T03F00S00C0.02800
T04F00S00C0.04000
%
T01
X00308Y00094
X00376Y0016
Y00246
X00471Y00266
X0049Y00225
Y00185
X0047Y0015
X00536Y00137
X00545Y00166
X00585Y0016
Y00291
X0055Y00289
X00513Y00291
X00459Y00329
X00333Y00404
X00289Y00397
X00291Y00587
X0017Y0064
X0036Y00708
X00394Y00727
X00365Y00775
X00315
X00389Y00802
X0035Y0086
X00491Y00854
X0048Y0078
Y00745
Y0071
X00461Y00654
X0057Y00594
X00639Y00554
X0061Y005
X00749Y0051
X0079Y0056
X00785Y006
Y0065
X00845Y0071
X00897Y00698
X00926Y00632
X00882Y00537
X00888Y0034
X00855Y00195
X00825Y0021
X0077
X00743Y00236
X00725Y0075
X0069
Y0079
X00725
X0074914Y0087286
X00788Y00843
X0069Y00885
X00915Y00875
X0016Y00915
X00955Y00835
X00982Y00537
X01019Y00536
X01017Y00499
X0098Y005
X00974Y00431
X01011Y0043
X01052Y00429
X0109Y0043
X0113
X01136Y00494
X01138Y00531
X01097Y00532
X01095Y00495
X01058Y00498
X0106Y00535
X01055Y00353
X01092Y0035
X01133Y00349
X01014Y00354
X00977Y00355
X01318Y00569
X0148926Y0062879
X0155Y006
X0162Y0063
X01804Y00611
X0182Y0058
X01845Y00525
X0188Y0051
Y00455
X01839Y00456
X01816Y00387
X01787Y00359
X01925Y00351
X01986Y00338
X01966Y0031
X0194Y00251
X02025Y0038
X02055Y0041
X02065Y0045
X0203Y0044
Y00525
X02065Y00515
X02055Y00635
X0204268Y0069268
X02005Y0066
X02Y0073
X0193Y0072
X0192121Y00605
X01871Y00612
X0178Y00745
X0216078Y0071371
X0222807Y0071
X0229307
X0236Y00705
X02395Y00685
Y00615
X02363Y00533
X02428Y00532
Y00467
X02363
X02395Y00385
X0233Y0038
X0236Y00331
X02294Y0033
X02228Y00331
X0215904Y0032932
X0219493Y00291
X0226093Y0029
X0232693Y00291
X0239393Y00288
X0246193
X02495Y00328
X02427
X0227Y005
X02275Y00565
X0226Y0067
X02195
X0233
X02462Y00673
X02495Y00725
X0242807
X0243277Y0089824
X01475Y00865
X01245Y00795
X015105Y00393
X01729Y0012
X01762Y00133
X0182Y00134
X0252893Y00286
X0256Y00263
X02632Y00264
X0261471Y0030022
Y0033022
Y0036522
Y0040022
X0261571Y0043322
X0261471Y0046522
X0261571Y0049922
X026137Y0053422
X026127Y0056722
X026137Y0060122
X026127Y0063322
Y0066722
X026137Y0070122
X0261Y00735
X02575
X02645Y0081
X02672Y00826
X0254Y0088
X0251Y0087
Y0056
X02515Y005
X0251496Y0043504
X0268Y00165
T03
X00375Y0045
Y005
Y0055
X01375Y005
X01425
T04
X0035Y0005
X0045
X0055
X0065
X0075
X0085
X0095
X0105
X0115
X0125
X0135
X0145
X0155
X0165
X0175
X0185
X0195
X0205
X0215
X0225
X0235
X0245
X0255
X0265
Y0095
X0255
X0245
X0235
X0225
X0215
X0205
X0195
X0185
X0175
X0165
X0155
X0145
X0135
X0125
X0115
X0105
X0095
X0085
X0075
X0065
X0055
X0045
X0035
M30
