G04*
G04 #@! TF.GenerationSoftware,Altium Limited,Altium Designer,24.5.2 (23)*
G04*
G04 Layer_Physical_Order=3*
G04 Layer_Color=32768*
%FSLAX25Y25*%
%MOIN*%
G70*
G04*
G04 #@! TF.SameCoordinates,4C7D719B-D633-4967-9843-4E76C81F2032*
G04*
G04*
G04 #@! TF.FilePolarity,Negative*
G04*
G01*
G75*
%ADD56C,0.06800*%
%ADD76C,0.00010*%
%AMTHOVALD77*
21,1,0.04724,0.08362,0,0,360.0*
1,1,0.08362,-0.02362,0.00000*
1,1,0.08362,0.02362,0.00000*
21,0,0.04724,0.06362,0,0,360.0*
1,0,0.06362,-0.02362,0.00000*
1,0,0.06362,0.02362,0.00000*
4,0,4,-0.01655,-0.00707,-0.04612,-0.03664,-0.06026,-0.02249,-0.03069,0.00707,-0.01655,-0.00707,0.0*
4,0,4,0.03069,-0.00707,0.06026,0.02249,0.04612,0.03664,0.01655,0.00707,0.03069,-0.00707,0.0*
4,0,4,-0.03069,-0.00707,-0.06026,0.02249,-0.04612,0.03664,-0.01655,0.00707,-0.03069,-0.00707,0.0*
4,0,4,0.01655,-0.00707,0.04612,-0.03664,0.06026,-0.02249,0.03069,0.00707,0.01655,-0.00707,0.0*
%
%ADD77THOVALD77*%

%AMTHOVALD78*
21,1,0.03150,0.08362,0,0,360.0*
1,1,0.08362,-0.01575,0.00000*
1,1,0.08362,0.01575,0.00000*
21,0,0.03150,0.06362,0,0,360.0*
1,0,0.06362,-0.01575,0.00000*
1,0,0.06362,0.01575,0.00000*
4,0,4,-0.00868,-0.00707,-0.03824,-0.03664,-0.05238,-0.02249,-0.02282,0.00707,-0.00868,-0.00707,0.0*
4,0,4,0.02282,-0.00707,0.05238,0.02249,0.03824,0.03664,0.00868,0.00707,0.02282,-0.00707,0.0*
4,0,4,-0.02282,-0.00707,-0.05238,0.02249,-0.03824,0.03664,-0.00868,0.00707,-0.02282,-0.00707,0.0*
4,0,4,0.00868,-0.00707,0.03824,-0.03664,0.05238,-0.02249,0.02282,0.00707,0.00868,-0.00707,0.0*
%
%ADD78THOVALD78*%

G04:AMPARAMS|DCode=79|XSize=100mil|YSize=100mil|CornerRadius=0mil|HoleSize=0mil|Usage=FLASHONLY|Rotation=0.000|XOffset=0mil|YOffset=0mil|HoleType=Round|Shape=Relief|Width=20mil|Gap=10mil|Entries=4|*
%AMTHD79*
7,0,0,0.10000,0.08000,0.02000,45*
%
%ADD79THD79*%
%ADD80C,0.08000*%
%ADD81C,0.05200*%
D56*
X137500Y50000D02*
D03*
X142500D02*
D03*
X37500Y55000D02*
D03*
Y50000D02*
D03*
Y45000D02*
D03*
D76*
X0Y0D02*
Y100000D01*
X270000D01*
Y0D02*
Y100000D01*
X0Y0D02*
X270000D01*
D77*
X6752Y39016D02*
D03*
Y5000D02*
D03*
Y95000D02*
D03*
Y60984D02*
D03*
D78*
X22500Y39016D02*
D03*
Y5000D02*
D03*
Y95000D02*
D03*
Y60984D02*
D03*
D79*
X265000Y95000D02*
D03*
X45000D02*
D03*
X255000Y5000D02*
D03*
X35000D02*
D03*
D80*
X45000D02*
D03*
X55000D02*
D03*
X65000D02*
D03*
X75000D02*
D03*
X85000D02*
D03*
X95000D02*
D03*
X105000D02*
D03*
X115000D02*
D03*
X125000D02*
D03*
X135000D02*
D03*
X145000D02*
D03*
X155000D02*
D03*
X165000D02*
D03*
X175000D02*
D03*
X185000D02*
D03*
X195000D02*
D03*
X205000D02*
D03*
X215000D02*
D03*
X225000D02*
D03*
X235000D02*
D03*
X245000D02*
D03*
X265000D02*
D03*
X35000Y95000D02*
D03*
X55000D02*
D03*
X65000D02*
D03*
X75000D02*
D03*
X85000D02*
D03*
X95000D02*
D03*
X105000D02*
D03*
X115000D02*
D03*
X125000D02*
D03*
X135000D02*
D03*
X145000D02*
D03*
X155000D02*
D03*
X165000D02*
D03*
X175000D02*
D03*
X185000D02*
D03*
X195000D02*
D03*
X205000D02*
D03*
X215000D02*
D03*
X225000D02*
D03*
X235000D02*
D03*
X245000D02*
D03*
X255000D02*
D03*
D81*
X91500Y87500D02*
D03*
X251000Y87000D02*
D03*
X254000Y88000D02*
D03*
X178000Y74500D02*
D03*
X182000Y13400D02*
D03*
X196600Y31000D02*
D03*
X198600Y33800D02*
D03*
X202500Y38000D02*
D03*
X181600Y38700D02*
D03*
X178700Y35900D02*
D03*
X193000Y72000D02*
D03*
X155000Y60000D02*
D03*
X148926Y62879D02*
D03*
X131800Y56900D02*
D03*
X89700Y69800D02*
D03*
X54500Y16600D02*
D03*
X53600Y13700D02*
D03*
X84500Y71000D02*
D03*
X58500Y16000D02*
D03*
X74914Y87286D02*
D03*
X78800Y84300D02*
D03*
X57000Y59400D02*
D03*
X74900Y51000D02*
D03*
X48000Y74500D02*
D03*
Y78000D02*
D03*
X31500Y77500D02*
D03*
X36500D02*
D03*
X49000Y22500D02*
D03*
Y18500D02*
D03*
X188000Y45500D02*
D03*
Y51000D02*
D03*
X205500Y41000D02*
D03*
X82500Y21000D02*
D03*
X77000D02*
D03*
X203000Y52500D02*
D03*
Y44000D02*
D03*
X192121Y60500D02*
D03*
X187100Y61200D02*
D03*
X180400Y61100D02*
D03*
X205500Y63500D02*
D03*
X200500Y66000D02*
D03*
X204268Y69268D02*
D03*
X61000Y50000D02*
D03*
X246200Y67300D02*
D03*
X215904Y32932D02*
D03*
X216078Y71371D02*
D03*
X246193Y28800D02*
D03*
X249500Y32800D02*
D03*
X239393Y28800D02*
D03*
X242700Y32800D02*
D03*
X232693Y29100D02*
D03*
X236000Y33100D02*
D03*
X226093Y29000D02*
D03*
X229400Y33000D02*
D03*
X219493Y29100D02*
D03*
X222800Y33100D02*
D03*
X222807Y71000D02*
D03*
X219500Y67000D02*
D03*
X229307Y71000D02*
D03*
X226000Y67000D02*
D03*
X233000D02*
D03*
X236000Y70500D02*
D03*
X239500Y68500D02*
D03*
X242807Y72500D02*
D03*
X249500D02*
D03*
M02*
